<svg width="243" height="50" viewBox="0 0 243 50" fill="none" xmlns="http://www.w3.org/2000/svg">
<g opacity="0.7" clip-path="url(#clip0_423_911)">
<path d="M169.107 7.18113C167.399 12.0994 165.69 17.0178 163.989 21.938C163.902 22.1877 163.789 22.2878 163.518 22.2849C162.28 22.2716 161.041 22.2716 159.802 22.2849C159.528 22.2878 159.419 22.181 159.333 21.9351C157.766 17.4534 156.186 12.9754 154.619 8.49363C154.427 7.94175 154.286 7.37176 154.121 6.81035C154.012 6.68072 153.987 6.52631 153.992 6.36427C153.938 6.26419 153.91 6.15267 153.869 6.04687C153.841 5.98968 153.82 6.09929 153.864 6.05354C153.921 6.15457 153.924 6.27658 153.989 6.37571C154.026 6.58159 153.98 6.79129 154.027 6.99621C154.373 9.9005 154.192 12.8181 154.245 15.7291C154.283 17.7403 154.278 19.7524 154.321 21.7635C154.33 22.1963 154.194 22.2973 153.784 22.2878C152.61 22.2621 151.436 22.2668 150.261 22.2859C149.926 22.2916 149.835 22.1877 149.836 21.8579C149.845 15.5842 149.846 9.30954 149.835 3.03487C149.835 2.6803 149.928 2.58022 150.285 2.58308C152.316 2.60023 154.348 2.59737 156.38 2.58498C156.678 2.58308 156.824 2.66791 156.928 2.96148C158.295 6.84085 159.693 10.7097 161.041 14.5948C161.463 15.813 161.462 17.1169 161.584 18.3913C161.641 18.538 161.598 18.6915 161.614 18.8269C161.634 18.6925 161.58 18.538 161.652 18.3941C161.766 17.4676 161.855 16.5374 162.001 15.6157C162.222 14.2307 162.818 12.9573 163.273 11.6438C164.271 8.7567 165.301 5.88102 166.304 2.9958C166.409 2.69364 166.539 2.58022 166.871 2.58308C168.919 2.60023 170.968 2.59928 173.015 2.58308C173.365 2.58022 173.475 2.666 173.474 3.03011C173.462 9.30668 173.463 15.5832 173.473 21.8608C173.473 22.1982 173.371 22.2897 173.041 22.2849C171.834 22.2678 170.627 22.2687 169.421 22.2849C169.103 22.2887 168.979 22.2201 168.98 21.8703C169.003 17.6859 169.004 13.5015 169.031 9.31716C169.036 8.63851 169.139 7.96081 169.196 7.28312C169.212 7.0963 169.239 6.90948 169.238 6.7217C169.277 6.55013 169.365 6.39286 169.347 6.26419C169.328 6.37952 169.294 6.55109 169.235 6.71408C169.241 6.88279 169.228 7.04673 169.105 7.18018L169.107 7.18113Z" fill="white"/>
<path d="M180.431 36.5098C179.654 33.1727 177.764 30.8165 174.416 29.769C172.689 29.2295 170.913 29.1866 169.142 29.4402C166.137 29.87 163.791 31.3417 162.473 34.125C160.931 37.3838 160.89 40.7752 162.039 44.1579C162.936 46.7972 164.773 48.5634 167.434 49.4442C169.184 50.0227 170.983 50.1209 172.793 49.8693C175.525 49.4899 177.75 48.2613 179.214 45.8536C180.368 43.954 180.765 41.8627 180.727 39.4836C180.771 38.602 180.673 37.5487 180.431 36.5098ZM175.181 43.4707C174.474 45.3275 172.968 46.2911 170.971 46.2844C168.997 46.2787 167.572 45.3046 166.829 43.4431C166.34 42.2173 166.187 40.9343 166.215 39.6828C166.197 38.3808 166.325 37.1579 166.779 35.9874C167.564 33.962 168.997 32.9468 171.036 32.9583C173.045 32.9688 174.574 34.0201 175.269 36.0313C176.125 38.5057 176.118 41.0135 175.181 43.4707Z" fill="white"/>
<path d="M149.366 28.3451C149.366 27.9952 149.281 27.8809 148.917 27.8875C147.695 27.9095 146.472 27.9133 145.251 27.8856C144.857 27.8771 144.784 28.0143 144.786 28.3717C144.8 30.8118 144.796 33.2519 144.79 35.692C144.79 35.8369 144.86 36.0018 144.718 36.1457C144.617 36.0571 144.522 35.9751 144.43 35.8903C141.356 33.0775 136.746 33.84 134.846 37.545C133.423 40.3196 133.379 43.2325 134.54 46.0958C136.33 50.5089 141.824 50.8292 144.404 48.2785C144.638 48.0479 144.879 47.8239 145.171 47.5446C145.171 48.1203 145.191 48.6283 145.164 49.1335C145.146 49.4776 145.233 49.6034 145.606 49.5948C146.716 49.5701 147.828 49.5739 148.938 49.5929C149.274 49.5987 149.366 49.4976 149.365 49.1659C149.357 42.225 149.356 35.285 149.366 28.3451ZM144.258 44.6994C143.196 46.6991 140.442 46.844 139.189 44.9568C138.53 43.9636 138.39 42.836 138.461 41.6788C138.517 40.7562 138.7 39.8592 139.264 39.0853C140.458 37.443 142.9 37.4716 144.047 39.1463C144.655 40.0318 144.822 41.0354 144.816 42.1726C144.828 42.9971 144.693 43.8806 144.258 44.6994Z" fill="white"/>
<path d="M76.4026 28.324C76.4026 28.0047 76.3368 27.8818 75.9879 27.8875C74.7498 27.9085 73.5116 27.9094 72.2735 27.8875C71.9122 27.8808 71.8207 27.9895 71.8236 28.3422C71.8379 30.767 71.8322 33.1918 71.8283 35.6167C71.8283 35.7825 71.8751 35.957 71.7893 36.119C71.6511 36.1123 71.5958 36.0037 71.5205 35.9322C68.5333 33.1366 64.0038 33.7647 62.0175 37.3286C60.4829 40.0794 60.4333 43.0085 61.5151 45.9137C63.1879 50.4059 68.6009 50.8415 71.2688 48.4367C71.57 48.1651 71.8236 47.8419 72.099 47.5426C72.2087 48.1212 72.2239 48.6378 72.2029 49.1525C72.1896 49.4661 72.2592 49.6005 72.6138 49.5938C73.7404 49.5719 74.868 49.5719 75.9946 49.5938C76.353 49.6015 76.4026 49.4594 76.4016 49.1506C76.3949 42.2087 76.394 35.2659 76.4016 28.324H76.4026ZM71.4928 44.3009C71.0458 45.5067 70.1565 46.2063 68.8383 46.2654C67.4772 46.3264 66.4973 45.6859 65.9788 44.4668C65.2639 42.7835 65.2887 41.064 66.117 39.4179C66.6269 38.4056 67.5124 37.8938 68.7554 37.8843C69.983 37.8995 70.9124 38.5343 71.4166 39.7172C72.059 41.2213 72.0581 42.7759 71.4928 44.3009Z" fill="white"/>
<path d="M122.307 1.11138C122.307 0.756807 122.175 0.698664 121.864 0.702476C120.643 0.716774 119.42 0.726306 118.199 0.697711C117.8 0.688179 117.737 0.831153 117.739 1.18287C117.753 3.60676 117.746 6.03065 117.746 8.45454V9.01881C117.59 8.87965 117.518 8.81865 117.45 8.75383C114.523 5.9849 110.13 6.54822 108.076 10.0053C106.598 12.4921 106.5 15.1953 107.238 17.908C108.719 23.3515 115.089 23.8681 117.863 20.5263C117.923 20.4548 117.971 20.3176 118.135 20.3834C118.135 20.8866 118.153 21.3937 118.128 21.8989C118.113 22.2191 118.23 22.3002 118.536 22.2954C119.647 22.2792 120.758 22.2792 121.869 22.2954C122.188 22.3002 122.307 22.2258 122.306 21.8798C122.297 14.957 122.297 8.03419 122.307 1.11138ZM117.35 17.1455C116.857 18.2978 115.998 18.9631 114.722 19.0098C113.517 19.0546 112.563 18.5581 112.036 17.4791C111.145 15.6566 111.135 13.776 112.161 12.0194C113.266 10.1245 116.031 10.2246 117.129 12.1318C117.617 12.9792 117.775 13.9076 117.755 14.9093C117.776 15.6585 117.659 16.422 117.35 17.1455Z" fill="white"/>
<path d="M108.569 29.3347C110.305 29.2975 111.927 29.6569 113.546 30.0515C113.865 30.1287 113.91 30.2478 113.808 30.5366C113.507 31.3868 113.226 32.2437 112.948 33.1025C112.869 33.3465 112.792 33.4705 112.484 33.3723C111.437 33.0415 110.36 32.8557 109.263 32.7975C108.463 32.7546 107.679 32.8395 106.93 33.1407C106.431 33.3408 106.012 33.6458 105.754 34.1319C105.339 34.9164 105.546 35.7266 106.29 36.2651C106.994 36.7732 107.813 37.0362 108.612 37.3412C109.677 37.7492 110.731 38.181 111.771 38.6547C115.877 40.5248 115.563 46.1103 112.482 48.2826C111.033 49.3044 109.413 49.7771 107.674 49.8744C105.431 50.0002 103.252 49.6294 101.12 48.9403C100.779 48.8297 100.756 48.7001 100.879 48.4036C101.237 47.541 101.591 46.6765 101.903 45.7967C102.022 45.465 102.173 45.4517 102.46 45.5365C103.907 45.9654 105.365 46.3381 106.895 46.2686C107.601 46.2361 108.28 46.0913 108.884 45.7033C110.295 44.7969 110.228 42.9773 108.744 42.2138C107.573 41.6105 106.306 41.233 105.083 40.7536C104.038 40.3437 103.078 39.7947 102.263 39.0226C99.6483 36.5453 100.336 32.1646 103.61 30.4051C105.175 29.5644 106.867 29.2994 108.569 29.3375V29.3347Z" fill="white"/>
<path d="M72.6082 22.6852C70.0546 22.6766 67.6269 22.1886 65.4709 20.7398C63.1509 19.1804 61.846 16.9643 61.4581 14.2287C61.1149 11.8115 61.357 9.45052 62.5304 7.26015C63.9201 4.66755 66.14 3.15965 68.9671 2.49244C71.9581 1.78615 74.8843 2.12738 77.7695 3.07387C78.0021 3.15012 78.0069 3.25116 77.9525 3.45704C77.7028 4.40543 77.4607 5.35574 77.2396 6.30985C77.1576 6.66347 76.9832 6.61582 76.722 6.52812C75.2989 6.05059 73.8435 5.79705 72.3327 5.83708C68.8699 5.92668 66.4498 8.20855 66.1829 11.6523C66.0132 13.8436 66.5661 15.7776 68.2598 17.2607C69.865 18.6666 71.7999 19.0184 73.8654 18.8287C74.8452 18.7391 75.807 18.5294 76.7525 18.2625C77.0556 18.1767 77.1729 18.2472 77.2586 18.538C77.5322 19.4625 77.8162 20.3852 78.126 21.2993C78.2261 21.5938 78.1699 21.7063 77.8801 21.813C76.1778 22.4421 74.4192 22.709 72.6082 22.6833V22.6852Z" fill="white"/>
<path d="M213.679 40.3389C213.334 38.5365 212.651 36.9152 211.177 35.7209C210.09 34.8401 208.822 34.4255 207.449 34.3273C204.655 34.1291 202.266 34.9297 200.575 37.2764C199.433 38.8615 199.102 40.6783 199.192 42.5979C199.318 45.3059 200.46 47.4581 202.871 48.7344C206.141 50.4644 209.479 50.1203 212.783 48.722C213 48.6305 212.949 48.5047 212.881 48.3474C212.581 47.6497 212.265 46.9567 211.999 46.2457C211.859 45.872 211.72 45.7834 211.315 45.9292C209.874 46.4487 208.402 46.7833 206.843 46.5612C205.299 46.3419 204.091 45.3916 203.782 44.0887C203.701 43.7484 203.748 43.613 204.149 43.6188C205.705 43.6407 207.26 43.6273 208.817 43.6273C210.373 43.6273 211.865 43.6121 213.389 43.6369C213.797 43.6435 213.887 43.5149 213.884 43.1298C213.878 42.1938 213.856 41.2616 213.679 40.3389ZM209.336 40.5486C208.434 40.5448 207.531 40.5467 206.629 40.5467C205.728 40.5467 204.887 40.541 204.017 40.5505C203.763 40.5534 203.615 40.5048 203.678 40.2093C203.912 39.1227 204.395 38.1905 205.47 37.7454C206.529 37.3069 207.583 37.3689 208.524 38.0895C209.232 38.6309 209.517 39.4144 209.677 40.256C209.732 40.5515 209.543 40.5496 209.336 40.5486Z" fill="white"/>
<path d="M78.9524 39.642C78.9524 38.1045 78.9629 36.5671 78.9447 35.0296C78.9409 34.6789 79.0296 34.5655 79.3937 34.5721C80.5994 34.595 81.8071 34.596 83.0128 34.5721C83.4094 34.5645 83.5228 34.6817 83.5218 35.0773C83.5132 37.8825 83.5104 40.6876 83.5438 43.4928C83.56 44.8491 84.3377 45.7718 85.6245 46.0968C87.3268 46.5267 88.7566 45.5983 89.0645 43.8683C89.1483 43.3984 89.1712 42.9256 89.1703 42.45C89.1636 39.9937 89.1712 37.5365 89.1502 35.0802C89.1464 34.6798 89.2646 34.5769 89.6554 34.5845C90.8612 34.6093 92.0688 34.6055 93.2746 34.5864C93.6301 34.5807 93.734 34.6894 93.7321 35.0449C93.7178 37.7395 93.7369 40.4341 93.7178 43.1277C93.7102 44.1752 93.591 45.2113 93.1631 46.1912C92.4825 47.7477 91.3263 48.8257 89.7412 49.3633C87.3002 50.1916 84.8305 50.1859 82.4495 49.1441C80.2239 48.1699 79.0677 46.3827 78.9648 43.9674C78.9038 42.5282 78.9533 41.0832 78.9533 39.641C78.9533 39.641 78.9524 39.641 78.9514 39.641L78.9524 39.642Z" fill="white"/>
<path d="M182.803 39.6124C182.803 38.0759 182.812 36.5385 182.796 35.002C182.793 34.6712 182.888 34.5692 183.222 34.574C184.444 34.5921 185.666 34.595 186.888 34.573C187.264 34.5664 187.373 34.676 187.373 35.0534C187.364 37.8576 187.36 40.6618 187.391 43.466C187.406 44.8748 188.222 45.8184 189.584 46.1273C191.08 46.4666 192.364 45.7269 192.812 44.2657C192.986 43.6996 193.02 43.1172 193.018 42.5281C193.01 40.0404 193.018 37.5536 192.999 35.0658C192.996 34.7008 193.082 34.5759 193.468 34.5835C194.705 34.6083 195.943 34.6016 197.182 34.5864C197.494 34.5826 197.584 34.6779 197.583 34.9915C197.57 37.7328 197.587 40.4731 197.571 43.2144C197.563 44.6804 197.276 46.0806 196.388 47.2968C195.391 48.6627 194.005 49.4262 192.374 49.7092C190.13 50.0981 187.906 50.0467 185.846 48.9248C183.921 47.8763 182.915 46.2035 182.819 44.0322C182.754 42.5615 182.807 41.086 182.807 39.6124C182.806 39.6124 182.805 39.6124 182.804 39.6124H182.803Z" fill="white"/>
<path d="M117.047 39.2997C117.047 37.8747 117.059 36.4488 117.039 35.0238C117.034 34.6626 117.146 34.5673 117.498 34.573C118.72 34.593 119.942 34.5921 121.164 34.573C121.508 34.5673 121.586 34.6902 121.584 35.0105C121.573 37.4658 121.571 39.9212 121.584 42.3765C121.586 42.9923 121.592 43.6118 121.738 44.2171C121.989 45.2617 122.982 46.0777 124.112 46.172C125.466 46.2845 126.436 45.7593 126.906 44.6622C127.185 44.0093 127.27 43.323 127.269 42.6215C127.266 40.1185 127.272 37.6155 127.249 35.1125C127.245 34.6988 127.344 34.5711 127.771 34.5816C128.992 34.6121 130.215 34.5997 131.436 34.5863C131.737 34.5835 131.848 34.6559 131.846 34.9809C131.833 37.6736 131.861 40.3673 131.827 43.0599C131.815 44.0522 131.722 45.0501 131.342 45.9938C130.645 47.7209 129.392 48.8838 127.634 49.4299C125.211 50.182 122.775 50.162 120.439 49.1001C118.375 48.1632 117.275 46.4847 117.066 44.2371C116.912 42.5929 117.05 40.9439 117.046 39.2978L117.047 39.2997Z" fill="white"/>
<path d="M235.775 12.6818C235.299 10.5886 234.323 8.83861 232.324 7.81396C231.07 7.17248 229.728 7.00854 228.347 7.08384C226.176 7.20298 224.345 8.03604 223.008 9.78128C221.655 11.5456 221.29 13.5777 221.473 15.7528C221.721 18.6895 223.588 21.1268 226.406 22.0094C229.296 22.9149 232.132 22.6633 234.895 21.448C235.148 21.3374 235.132 21.2183 235.04 21.0105C234.732 20.3156 234.421 19.6217 234.151 18.9116C234.016 18.557 233.855 18.537 233.522 18.6543C232.029 19.1814 230.509 19.5521 228.908 19.2567C227.519 19.0003 226.451 18.3493 226.022 16.9071C225.91 16.5306 225.951 16.3686 226.406 16.3753C227.931 16.3981 229.456 16.3838 230.98 16.3838C232.504 16.3838 234.06 16.3743 235.6 16.3915C235.949 16.3953 236.07 16.299 236.072 15.9397C236.075 14.8426 236.018 13.7522 235.775 12.6818ZM231.514 13.2842C230.627 13.2908 229.74 13.287 228.852 13.287C227.965 13.287 227.078 13.2822 226.192 13.2908C225.949 13.2937 225.851 13.2317 225.889 12.9658C226.123 11.3149 227.42 10.2378 229.091 10.2912C230.557 10.3379 231.594 11.4121 231.855 13.0544C231.904 13.3633 231.665 13.2832 231.514 13.2842Z" fill="white"/>
<path d="M104.775 12.7465C104.293 10.601 103.304 8.80618 101.244 7.77867C99.9258 7.12099 98.5113 6.97039 97.071 7.09525C94.8711 7.28779 93.0468 8.22189 91.7829 10.0653C90.5543 11.8582 90.2083 13.8741 90.4856 16.0045C90.8383 18.7009 92.228 20.6931 94.7415 21.7463C97.825 23.0378 100.908 22.7214 103.931 21.4299C104.188 21.3202 104.091 21.1725 104.023 21.0124C103.725 20.3137 103.408 19.6227 103.136 18.9135C103.004 18.5656 102.852 18.5341 102.513 18.6533C101.021 19.1756 99.5016 19.5512 97.9003 19.2585C96.5106 19.0041 95.4373 18.3502 95.0084 16.9166C94.8549 16.4038 94.8788 16.3848 95.4049 16.3848C96.9281 16.3838 98.4522 16.3838 99.9753 16.3838C101.498 16.3838 103.023 16.3695 104.547 16.3943C104.934 16.4 105.05 16.2589 105.046 15.9091C105.035 14.8483 105.01 13.7864 104.775 12.7465ZM100.541 13.2899C99.6379 13.2841 98.7343 13.287 97.8298 13.287C96.9252 13.287 96.0864 13.2851 95.2143 13.2889C95.0065 13.2889 94.8178 13.2889 94.8788 12.9925C95.1066 11.8811 95.6079 10.9403 96.7155 10.5123L99.7952 10.9594C100.415 11.4884 100.683 12.2109 100.854 12.982C100.919 13.2727 100.762 13.2908 100.541 13.2899Z" fill="white"/>
<path d="M190.424 12.2178C190.424 13.5799 190.422 14.9429 190.424 16.3049C190.428 19.5333 188.263 22.0172 184.977 22.4776C183.057 22.7464 181.141 22.715 179.326 21.9114C177.127 20.9392 175.899 19.2388 175.756 16.8397C175.574 13.7857 175.78 10.728 175.736 7.67216C175.734 7.45103 175.804 7.36334 176.035 7.36524C177.336 7.37287 178.638 7.37954 179.939 7.36238C180.302 7.35762 180.253 7.57208 180.253 7.79321C180.253 9.58325 180.243 11.3733 180.257 13.1633C180.266 14.2547 180.197 15.348 180.32 16.4384C180.487 17.9158 181.45 18.8413 182.906 18.8985C184.472 18.9595 185.465 18.1712 185.763 16.6376C185.853 16.1686 185.871 15.6959 185.87 15.2202C185.865 12.7802 185.87 10.341 185.851 7.90092C185.849 7.52156 185.925 7.37859 186.339 7.38812C187.545 7.41671 188.752 7.41004 189.958 7.39098C190.308 7.38526 190.426 7.48534 190.421 7.84564C190.403 9.30302 190.413 10.7604 190.413 12.2178C190.417 12.2178 190.42 12.2178 190.424 12.2178Z" fill="white"/>
<path d="M219.599 12.3614C219.599 13.692 219.616 15.0236 219.595 16.3532C219.549 19.4272 217.872 21.5899 214.87 22.32C212.764 22.8328 210.644 22.7832 208.615 21.9387C206.23 20.9465 205.011 19.0697 204.94 16.5391C204.858 13.61 204.929 10.6781 204.918 7.74712C204.917 7.41637 205.039 7.35823 205.332 7.36109C206.57 7.37443 207.808 7.38015 209.046 7.35823C209.401 7.35156 209.497 7.44783 209.496 7.80526C209.483 10.5304 209.484 13.2554 209.499 15.9805C209.505 16.9918 209.799 17.8821 210.718 18.4626C212.537 19.6111 214.688 18.6475 215.02 16.5334C215.089 16.093 215.115 15.6536 215.114 15.2094C215.109 12.7541 215.114 10.2978 215.095 7.84244C215.093 7.48595 215.189 7.38301 215.547 7.38873C216.769 7.4097 217.991 7.40589 219.213 7.39064C219.529 7.38682 219.619 7.48977 219.616 7.79859C219.603 9.31984 219.611 10.8401 219.611 12.3614C219.607 12.3614 219.603 12.3614 219.599 12.3614Z" fill="white"/>
<path d="M220.657 49.7864C218.958 49.8226 217.321 49.4871 215.723 48.9304C215.411 48.8217 215.294 48.7131 215.424 48.3623C215.689 47.6513 215.934 46.9297 216.126 46.1967C216.235 45.7783 216.406 45.7707 216.757 45.8955C217.973 46.3292 219.223 46.6066 220.526 46.5561C221.088 46.5342 221.626 46.4207 222.109 46.1129C222.494 45.867 222.745 45.5343 222.721 45.0587C222.697 44.5878 222.393 44.3057 221.985 44.156C221.004 43.7976 220.01 43.4745 219.026 43.1209C218.217 42.8302 217.455 42.4537 216.784 41.8989C215.063 40.4749 215.052 37.0064 217.358 35.4336C218.396 34.7264 219.545 34.3718 220.784 34.2822C222.549 34.1545 224.259 34.408 225.923 35.0143C226.24 35.1296 226.306 35.2449 226.196 35.5595C225.943 36.2753 225.714 36.9997 225.505 37.7289C225.416 38.0367 225.286 38.0634 225.004 37.9691C223.808 37.5668 222.59 37.299 221.318 37.5144C221.116 37.5487 220.913 37.6021 220.728 37.6831C220.232 37.8985 219.941 38.3332 219.98 38.7916C220.023 39.2901 220.374 39.5351 220.795 39.6819C221.857 40.0508 222.928 40.3929 223.989 40.7637C224.712 41.0163 225.392 41.3585 225.976 41.8627C227.813 43.4526 227.676 46.7315 225.706 48.3375C224.57 49.264 223.232 49.6577 221.799 49.7797C221.421 49.8121 221.037 49.7844 220.657 49.7844V49.7864Z" fill="white"/>
<path d="M230.052 42.0631C230.052 40.8745 230.043 39.6859 230.059 38.4973C230.063 38.1885 229.976 38.0769 229.658 38.0922C229.135 38.116 228.61 38.0912 228.086 38.1017C227.865 38.1065 227.777 38.036 227.78 37.8053C227.79 36.8388 227.792 35.8713 227.78 34.9048C227.777 34.6475 227.875 34.5788 228.116 34.5846C228.624 34.5979 229.133 34.5684 229.64 34.595C229.987 34.6132 230.067 34.4788 230.06 34.1575C230.042 33.2387 230.068 32.3189 230.047 31.4C230.039 31.0607 230.111 30.9282 230.486 30.9359C231.724 30.9616 232.962 30.9587 234.201 30.9435C234.528 30.9397 234.64 31.0274 234.632 31.3657C234.61 32.3008 234.639 33.2358 234.617 34.1709C234.609 34.5093 234.719 34.6036 235.05 34.596C235.891 34.575 236.733 34.5979 237.574 34.5846C237.86 34.5798 238.006 34.6294 237.997 34.9687C237.975 35.8875 237.979 36.8073 237.995 37.7262C238 38.015 237.917 38.1122 237.62 38.1055C236.746 38.0874 235.873 38.1094 235 38.0931C234.711 38.0874 234.617 38.178 234.619 38.4696C234.633 40.6095 234.623 42.7493 234.641 44.8892C234.649 45.7918 235.226 46.3704 236.161 46.461C236.765 46.5191 237.369 46.5143 237.951 46.3161C238.181 46.2379 238.263 46.3065 238.304 46.5267C238.455 47.3512 238.613 48.1747 238.781 48.9964C238.816 49.1708 238.783 49.2556 238.607 49.3109C236.719 49.9047 234.803 50.082 232.901 49.4606C231.108 48.8744 230.157 47.5218 230.086 45.5812C230.043 44.4097 230.078 43.2355 230.078 42.0631C230.07 42.0631 230.061 42.0631 230.052 42.0631Z" fill="white"/>
<path d="M194.55 14.6872C194.55 13.4309 194.532 12.3844 194.56 11.3397C194.57 10.9508 194.441 10.8498 194.075 10.8736C193.617 10.9022 193.155 10.8688 192.695 10.885C192.437 10.8946 192.329 10.826 192.334 10.5438C192.349 9.59351 192.347 8.64226 192.335 7.69195C192.331 7.43269 192.433 7.36788 192.671 7.37455C193.163 7.3879 193.657 7.35739 194.147 7.38599C194.498 7.40601 194.618 7.30497 194.607 6.93991C194.581 6.03727 194.612 5.13367 194.592 4.23103C194.584 3.88026 194.653 3.72966 195.053 3.73919C196.259 3.76779 197.466 3.76302 198.672 3.74396C199.016 3.73824 199.142 3.81735 199.132 4.18623C199.104 5.10412 199.136 6.02392 199.116 6.94277C199.109 7.26684 199.19 7.38599 199.535 7.37646C200.376 7.35263 201.217 7.38313 202.058 7.36121C202.395 7.35263 202.537 7.4184 202.524 7.79776C202.495 8.66799 202.5 9.54109 202.522 10.4123C202.531 10.7592 202.436 10.8879 202.069 10.8774C201.213 10.8526 200.356 10.8793 199.499 10.8641C199.21 10.8593 199.116 10.9508 199.118 11.2425C199.131 13.2708 199.113 15.2991 199.137 17.3275C199.151 18.5542 199.766 19.1299 201.006 19.1737C201.485 19.1909 201.959 19.1604 202.415 19.0117C202.686 18.9231 202.779 19.0146 202.826 19.2805C202.962 20.043 203.12 20.8017 203.274 21.5614C203.316 21.7702 203.306 21.9208 203.056 21.997C201.181 22.5689 199.293 22.7586 197.401 22.1181C195.674 21.5328 194.743 20.227 194.615 18.4207C194.521 17.1063 194.579 15.7919 194.55 14.6891V14.6872Z" fill="white"/>
<path d="M138.618 14.4177C138.618 15.4004 138.609 16.3822 138.619 17.3649C138.633 18.5096 139.233 19.1149 140.379 19.1682C140.889 19.1921 141.397 19.1806 141.883 19.0091C142.151 18.9147 142.26 19.0129 142.306 19.2683C142.453 20.0614 142.605 20.8534 142.765 21.6436C142.798 21.8085 142.787 21.9162 142.607 21.9715C140.557 22.5939 138.499 22.8332 136.471 21.94C134.968 21.2776 134.222 20.0661 134.121 18.4315C133.978 16.1048 134.074 13.7762 134.061 11.4476C134.059 11.0006 133.968 10.8233 133.493 10.871C133.053 10.9148 132.605 10.8681 132.162 10.8843C131.91 10.8939 131.833 10.8033 131.836 10.5574C131.846 9.60708 131.85 8.65583 131.834 7.70553C131.829 7.41195 131.959 7.36715 132.206 7.37383C132.697 7.38717 133.19 7.36239 133.681 7.38336C133.978 7.3967 134.059 7.28899 134.056 7.00305C134.04 6.05274 134.059 5.10149 134.044 4.15119C134.039 3.85285 134.111 3.73561 134.438 3.74037C135.708 3.75944 136.977 3.75848 138.247 3.74323C138.549 3.73942 138.62 3.84236 138.616 4.12545C138.6 5.07575 138.622 6.02701 138.603 6.97731C138.597 7.29185 138.695 7.38145 139.004 7.37478C139.861 7.35572 140.718 7.38145 141.575 7.36143C141.894 7.35381 141.977 7.46247 141.972 7.76843C141.954 8.67108 141.952 9.57468 141.973 10.4773C141.98 10.8052 141.856 10.8796 141.558 10.8738C140.717 10.8586 139.876 10.8824 139.035 10.8614C138.709 10.8538 138.596 10.9415 138.602 11.2818C138.623 12.3274 138.61 13.373 138.61 14.4186C138.612 14.4186 138.614 14.4186 138.617 14.4186L138.618 14.4177Z" fill="white"/>
<path d="M242.839 11.5075C242.839 14.9141 242.828 18.3207 242.851 21.7273C242.854 22.201 242.716 22.303 242.267 22.2906C241.094 22.2582 239.919 22.2706 238.744 22.2859C238.435 22.2897 238.339 22.201 238.339 21.8836C238.348 14.9599 238.348 8.03609 238.34 1.11137C238.34 0.813986 238.404 0.695794 238.73 0.70056C239.952 0.71867 241.175 0.727248 242.396 0.696747C242.81 0.686262 242.846 0.855925 242.845 1.19239C242.835 4.63045 242.839 8.0685 242.839 11.5075Z" fill="white"/>
<path d="M84.4053 9.52017C84.8199 8.9702 85.1488 8.52984 85.5491 8.14667C86.7672 6.98095 88.7651 6.89707 90.2034 7.40034C90.4055 7.47088 90.4159 7.59669 90.3692 7.77112C90.0842 8.85677 89.7992 9.94338 89.5228 11.0309C89.4656 11.2568 89.3636 11.315 89.1235 11.2883C88.5239 11.2216 87.9148 11.193 87.3191 11.2978C85.815 11.5618 84.9095 12.6913 84.8838 14.4089C84.8476 16.8481 84.8533 19.2882 84.8685 21.7283C84.8714 22.1696 84.7885 22.3278 84.3071 22.3126C83.1023 22.2735 81.8947 22.2897 80.6889 22.3068C80.3772 22.3116 80.2896 22.2201 80.2896 21.9084C80.2991 17.2027 80.2991 12.4969 80.2896 7.79209C80.2896 7.45372 80.3906 7.36507 80.7194 7.37079C81.8146 7.38986 82.9098 7.38795 84.004 7.37175C84.3109 7.36698 84.4244 7.45086 84.4091 7.77017C84.3843 8.30584 84.4024 8.84247 84.4024 9.52017H84.4053Z" fill="white"/>
<path d="M0.642492 24.9119C0.642492 18.398 0.636773 11.8841 0.645352 5.37112C0.649165 2.83285 2.25905 0.805475 4.7144 0.193545C5.16238 0.082025 5.61895 0.0419922 6.08123 0.0419922C19.0986 0.0438985 32.1159 0.041039 45.1342 0.0458048C48.2453 0.046758 50.5758 2.38486 50.5767 5.48836C50.5786 18.5314 50.5786 31.5745 50.5767 44.6175C50.5767 47.4627 48.1891 49.8809 45.3429 49.8828C32.1664 49.8895 18.9909 49.8895 5.81435 49.8828C3.00824 49.8809 0.657743 47.5485 0.650118 44.7376C0.632961 38.1294 0.644399 31.5202 0.644399 24.9119H0.642492Z" fill="#49336C"/>
<path d="M125.348 14.8018C125.348 12.4904 125.358 10.179 125.339 7.86756C125.336 7.46723 125.451 7.36238 125.844 7.37001C127.065 7.39479 128.286 7.38812 129.507 7.37287C129.817 7.36906 129.92 7.46533 129.919 7.77701C129.911 12.479 129.911 17.1819 129.919 21.8838C129.919 22.2022 129.804 22.2879 129.501 22.2841C128.264 22.2708 127.027 22.2651 125.791 22.287C125.429 22.2937 125.337 22.1831 125.34 21.8304C125.355 19.4876 125.347 17.1437 125.347 14.8009L125.348 14.8018Z" fill="white"/>
<path d="M155.503 43.2267C154.312 43.2267 153.122 43.2191 151.931 43.2324C151.648 43.2353 151.542 43.1657 151.548 42.8635C151.566 41.8656 151.562 40.8667 151.55 39.8687C151.547 39.6085 151.616 39.5094 151.894 39.5113C154.307 39.5208 156.72 39.5198 159.132 39.5113C159.394 39.5113 159.496 39.578 159.492 39.8554C159.477 40.8695 159.476 41.8837 159.492 42.8978C159.496 43.1895 159.37 43.2324 159.122 43.2305C157.915 43.2219 156.709 43.2267 155.503 43.2267Z" fill="white"/>
<path d="M127.561 5.3852C126.926 5.3852 126.291 5.37471 125.656 5.38996C125.384 5.39664 125.262 5.33754 125.265 5.02776C125.282 3.82392 125.278 2.61912 125.268 1.41528C125.266 1.17413 125.331 1.08263 125.588 1.08453C126.921 1.09502 128.254 1.09597 129.587 1.08453C129.864 1.08167 129.935 1.17985 129.933 1.44197C129.922 2.63056 129.921 3.8182 129.933 5.00679C129.936 5.29084 129.859 5.3995 129.56 5.39092C128.894 5.37185 128.228 5.3852 127.561 5.3852Z" fill="white"/>
<path d="M102.031 1.78892C101.955 1.89662 101.898 1.99099 101.828 2.07582C100.795 3.33494 99.7552 4.5893 98.7306 5.8551C98.5495 6.0791 98.4065 6.11627 98.1453 5.97806C97.4324 5.60156 96.7051 5.25175 95.9759 4.90671C95.7558 4.80281 95.7014 4.70654 95.8301 4.47969C96.6412 3.04995 97.4428 1.61544 98.2416 0.179026C98.3331 0.015082 98.4094 -0.0525924 98.6048 0.0455832C99.678 0.586979 100.758 1.11503 101.834 1.65071C101.901 1.68407 101.958 1.73649 102.031 1.78892Z" fill="white"/>
<path d="M154.03 6.99622C153.893 6.78462 153.961 6.54824 153.948 6.32138C153.981 6.28326 154.011 6.28707 154.038 6.32806C154.066 6.48914 154.095 6.64927 154.124 6.81035C154.092 6.87231 154.062 6.93427 154.03 6.99718V6.99622Z" fill="white"/>
<path d="M169.107 7.18102C169.138 7.0228 169.168 6.86457 169.198 6.7073C169.224 6.65964 169.253 6.65488 169.285 6.70158C169.275 6.89889 169.313 7.10286 169.197 7.28492C169.166 7.2506 169.137 7.21629 169.106 7.18197L169.107 7.18102Z" fill="white"/>
<path d="M161.654 18.3949V18.8258C161.539 18.6485 161.573 18.5189 161.587 18.3921C161.61 18.393 161.632 18.394 161.654 18.3949Z" fill="white"/>
<path d="M169.286 6.7006H169.243L169.199 6.70632C169.235 6.54428 169.27 6.3832 169.316 6.18018C169.431 6.39082 169.372 6.54619 169.287 6.69965L169.286 6.7006Z" fill="white"/>
<path d="M154.038 6.32807C154.008 6.32235 153.978 6.32045 153.948 6.3214C153.844 6.24515 153.831 6.14792 153.896 5.98779C153.952 6.12314 153.995 6.22513 154.038 6.32807Z" fill="white"/>
<path d="M50.0744 39.6954C50.0487 41.5941 50.1907 43.4975 50.001 45.3915C49.7904 47.4932 47.6696 49.4024 45.5564 49.4033C32.2446 49.41 18.9327 49.41 5.62086 49.4033C3.38379 49.4024 1.25347 47.3616 1.11717 45.1312C1.04282 44.0418 1.10001 42.9514 1.08667 41.8609C1.07809 41.1337 1.0819 40.4055 1.08667 39.6782C1.14004 39.5019 1.29255 39.5038 1.43362 39.4838C2.91674 39.6229 4.40558 39.7201 5.89537 39.6658C10.6698 39.4923 15.2754 38.564 19.6419 36.5623C23.0475 35.001 26.1091 32.9432 28.8847 30.4325C30.2668 29.1829 31.5173 27.8228 32.7078 26.3978C32.8184 26.2653 32.9118 26.1119 33.0814 26.0394C33.66 25.9622 34.168 26.2329 34.6866 26.4026C37.5089 27.329 40.1339 28.6425 42.5063 30.443C45.6641 32.8393 48.0985 35.8398 49.9772 39.3084C50.0134 39.4361 50.0401 39.5657 50.0754 39.6944L50.0744 39.6954Z" fill="#FEFEFE"/>
<path d="M1.11923 4.79451C1.23456 2.86435 2.96646 0.969469 4.93283 0.614892C5.29217 0.550077 5.65152 0.519576 6.01753 0.520529C9.2497 0.529108 12.4828 0.531967 15.715 0.536733C15.8732 0.705443 15.8332 0.917045 15.8408 1.11721C15.8637 1.77394 15.7979 2.43257 15.8818 3.08739C15.98 4.76115 16.142 6.42918 16.4022 8.08768C17.0142 11.9995 17.9911 15.8111 19.5515 19.4599C19.9127 20.3053 20.3321 21.1241 20.8077 21.9114C21.0184 22.2602 20.9888 22.5443 20.7382 22.8617C17.4183 27.0632 13.3769 30.3049 8.31941 32.2046C6.15192 33.0186 3.90628 33.4856 1.60725 33.7115C1.40613 33.7315 1.14211 33.8173 1.08396 33.479C1.08587 24.1046 1.08396 14.7322 1.08682 5.35878C1.08682 5.17101 1.05251 4.97847 1.12018 4.79355L1.11923 4.79451Z" fill="#FEFEFE"/>
<path d="M29.5262 0.535795C32.7117 0.531029 35.8962 0.52531 39.0817 0.522451C41.2215 0.520545 43.3604 0.506247 45.5002 0.52817C47.764 0.551046 49.8648 2.54125 50.0239 4.77355C50.0735 4.92892 50.0506 5.08809 50.0506 5.24537C50.0516 10.9491 50.0516 16.6528 50.0516 22.3565C50.0516 22.9818 49.9992 23.018 49.4063 22.7731C45.8291 21.2947 42.1013 20.4407 38.2572 20.048C36.8999 19.9088 35.5388 19.843 34.1776 19.7849C33.7716 19.7677 33.4999 19.6238 33.274 19.2883C32.0578 17.4754 31.2857 15.4709 30.6957 13.3882C30.0238 11.0177 29.6301 8.59859 29.4614 6.14039C29.3575 4.62486 29.2079 3.11124 29.3232 1.58999C29.4786 1.25543 29.2679 0.849385 29.5272 0.534842L29.5262 0.535795Z" fill="#FEFEFE"/>
<path d="M29.4308 1.5729C29.3926 3.26667 29.466 4.95949 29.6309 6.64182C30.0131 10.5288 30.7557 14.33 32.5752 17.8443C32.6992 18.0826 32.8574 18.3047 32.9689 18.5487C33.3273 19.3294 33.8287 19.6544 34.7828 19.6811C39.1482 19.8021 43.4375 20.4636 47.5751 21.9248C48.2319 22.1564 48.8762 22.4233 49.5244 22.6778C49.6702 22.735 49.8084 22.8122 50.0028 22.795C50.0028 22.6139 50.0028 22.4414 50.0028 22.268C50.0009 16.5471 49.999 10.8262 49.999 5.10532C49.999 4.99571 50.0152 4.88514 50.0248 4.77553C50.1363 4.949 50.0944 5.14536 50.0944 5.33122C50.0991 13.2997 50.0991 21.2681 50.1001 29.2365C50.1001 29.2994 50.0905 29.3623 50.0858 29.4262C50.0429 29.4605 49.9962 29.4662 49.9457 29.4434C49.7588 29.3461 49.6235 29.187 49.4815 29.0392C47.0747 26.5295 44.2972 24.5155 41.1966 22.958C38.2599 21.4825 35.1612 20.456 31.9233 19.865C30.3305 19.5743 28.7302 19.3427 27.1098 19.2769C26.8868 19.2674 26.6695 19.2169 26.4845 19.0739C25.9489 18.1837 25.6534 17.1943 25.3379 16.2173C24.4086 13.3397 23.8929 10.3773 23.5926 7.37575C23.3934 5.38936 23.342 3.39535 23.383 1.39943C23.3858 1.2412 23.3925 1.08298 23.4411 0.928568C23.5069 0.619743 23.7108 0.5616 24.0016 0.563507C25.6801 0.574945 27.3576 0.579711 29.0362 0.560647C29.3964 0.556835 29.5299 0.660729 29.4756 1.01245C29.447 1.19736 29.5137 1.3918 29.4317 1.5729H29.4308Z" fill="#C4C4C6"/>
<path d="M23.5289 0.993139C23.4565 3.82498 23.5937 6.64348 23.9893 9.45054C24.4554 12.7628 25.2122 15.993 26.5666 19.066C26.0395 19.3005 25.7698 19.2195 25.4838 18.6972C24.9196 17.6677 24.462 16.5897 24.0731 15.485C22.8445 11.9907 22.0877 8.39063 21.6969 4.71333C21.634 4.11856 21.533 3.52188 21.574 2.91662C21.5797 2.30278 21.5721 1.6899 21.5778 1.07702C21.5797 0.89115 21.553 0.696705 21.6855 0.534668C22.2955 0.534668 22.9055 0.534668 23.5155 0.535621C23.6042 0.685267 23.5775 0.838727 23.5289 0.993139Z" fill="#FEFEFE"/>
<path d="M1.11904 4.79443C1.1238 5.03082 1.13143 5.26815 1.13143 5.50454C1.13143 14.7645 1.13143 24.0254 1.13238 33.2854C1.13238 33.396 1.14001 33.5065 1.14382 33.6171C1.29823 33.8039 1.28298 34.0289 1.28394 34.2481C1.28775 35.8227 1.28775 37.3973 1.28394 38.971C1.28394 39.1893 1.30395 39.4161 1.14573 39.602C1.14191 41.2881 1.1381 42.9743 1.13334 44.6604C1.13334 44.8177 1.12285 44.974 1.11713 45.1313C0.992268 44.9101 1.04088 44.6661 1.04088 44.4336C1.03802 31.4687 1.03802 18.5047 1.04088 5.53981C1.04088 5.29103 0.991315 5.03177 1.11999 4.79443H1.11904Z" fill="#8A787A"/>
<path d="M21.6855 0.534668C21.6883 1.35343 21.6902 2.17315 21.6931 2.99192C21.4291 2.90232 21.4806 2.66689 21.471 2.4753C21.4491 2.04829 21.4615 1.62032 21.4624 1.19235C21.4624 0.89115 21.3242 0.766286 21.0288 0.766286C19.4732 0.76438 17.9186 0.766286 16.363 0.766286C16.0475 0.766286 15.9522 0.926417 15.9532 1.21141C15.956 1.68704 15.9608 2.16171 15.9494 2.63734C15.9446 2.83941 15.9694 3.05578 15.7854 3.20924C15.6463 2.32185 15.7225 1.42873 15.7139 0.537527C17.7041 0.537527 19.6943 0.536574 21.6845 0.535621L21.6855 0.534668Z" fill="#E64849"/>
<path d="M50.0163 29.4204C50.0392 29.4223 50.062 29.4242 50.0849 29.4242C50.0811 32.848 50.0782 36.2717 50.0744 39.6955C50.023 39.6021 49.9715 39.5096 49.9191 39.4162C49.7809 38.22 49.8619 37.019 49.8533 35.8209C49.839 33.9413 49.8466 32.0616 49.8533 30.182C49.8533 29.9208 49.7951 29.6377 50.0163 29.4204Z" fill="#D36264"/>
<path d="M23.529 0.993162C23.5242 0.840656 23.5204 0.68815 23.5156 0.535645C25.5192 0.535645 27.5227 0.535645 29.5272 0.535645C29.4729 0.878783 29.612 1.24098 29.4309 1.57268C29.4201 0.934066 29.0891 0.614757 28.4378 0.614757C26.9937 0.614757 25.5487 0.629054 24.1047 0.603319C23.7749 0.5976 23.6176 0.710073 23.529 0.993162Z" fill="#CDCDCE"/>
<path d="M50.0164 29.4202C50.0126 32.5714 50.0107 35.7225 50.0012 38.8727C50.0012 39.0538 50.0745 39.2549 49.9192 39.416C48.295 36.4669 46.2915 33.8181 43.7379 31.602C40.6983 28.9627 37.2059 27.1793 33.3323 26.1166C33.2722 26.1004 33.2074 26.1013 33.1445 26.0937C32.7089 26.128 32.3 25.985 31.8873 25.8888C30.3079 25.5208 28.7009 25.354 27.0929 25.1863C26.6563 25.1405 26.3465 25.2854 26.0806 25.6495C24.7795 27.4319 23.3231 29.0847 21.7142 30.5945C19.4638 32.7067 17.0065 34.5368 14.2738 35.998C11.0826 37.7042 7.70937 38.8441 4.13406 39.3979C3.26002 39.5333 2.38501 39.6353 1.49762 39.6019C1.37943 39.6019 1.26124 39.6028 1.14304 39.6038C1.14304 37.6088 1.14304 35.6139 1.14209 33.6189C6.72476 33.2033 11.6497 31.1702 15.9542 27.613C17.7214 26.1528 19.2884 24.4971 20.6981 22.6928C20.8201 22.5355 20.9679 22.4183 20.8153 22.1648C19.1035 19.332 18.0788 16.2285 17.2763 13.0459C16.4623 9.8175 15.9104 6.54434 15.7846 3.20923C15.7903 2.49913 15.8179 1.78902 15.7922 1.08082C15.7779 0.691933 15.918 0.605195 16.2812 0.609007C17.8939 0.626164 19.5076 0.629977 21.1194 0.607101C21.5302 0.601382 21.6141 0.741497 21.6131 1.12086C21.6122 1.74422 21.514 2.37617 21.6913 2.99382C22.0039 7.50894 22.8713 11.9078 24.466 16.1532C24.7662 16.9519 25.1475 17.7135 25.502 18.4884C25.7298 18.986 26.0387 19.1871 26.5639 19.0689C28.1718 19.2309 29.7827 19.3529 31.3773 19.637C38.5098 20.9066 44.7397 23.9109 49.7972 29.1734C49.8734 29.2525 49.9421 29.3392 50.0145 29.4231L50.0164 29.4202Z" fill="#3D2F54"/>
<path d="M1.49949 39.6012C2.42406 39.4811 3.35053 39.381 4.27128 39.238C9.38023 38.445 13.9878 36.4538 18.1474 33.4095C21.2013 31.1733 23.8235 28.5035 26.0644 25.461C26.2846 25.1617 26.5009 25.0245 26.8831 25.0569C28.9992 25.2351 31.1018 25.483 33.1445 26.0949C32.116 27.2949 31.1037 28.5102 29.9618 29.6092C27.5332 31.9473 24.8672 33.9594 21.9 35.5788C18.6621 37.346 15.226 38.5422 11.604 39.2037C10.0351 39.4906 8.44708 39.6279 6.85149 39.7337C5.27877 39.8376 3.7194 39.7156 2.15431 39.6965C1.93508 39.6936 1.71681 39.6346 1.49854 39.6021L1.49949 39.6012Z" fill="#C4C4C6"/>
</g>
<defs>
<clipPath id="clip0_423_911">
<rect width="242.21" height="50" fill="white" transform="translate(0.640625)"/>
</clipPath>
</defs>
</svg>
