<svg width="89" height="88" viewBox="0 0 89 88" fill="none" xmlns="http://www.w3.org/2000/svg">
<g opacity="0.7" clip-path="url(#clip0_423_954)">
<path d="M2.94073 0.161709C4.44769 0.169234 5.95841 0.255771 7.46159 0.161709C8.63618 0.0902226 9.24803 0.50033 9.73524 1.58015C12.1033 6.82125 14.5582 12.0247 16.983 17.2395C17.168 17.6345 17.3606 18.0296 17.5608 18.4209C17.7874 18.8686 17.9838 18.7256 18.15 18.372C18.3917 17.864 18.6372 17.3599 18.8714 16.8482C21.2243 11.735 23.5962 6.63313 25.9038 1.50114C26.3419 0.522905 26.8367 0.0036862 27.9924 0.124085C30.0394 0.338544 32.1243 -0.180674 34.1562 0.413794H34.1826C33.7558 0.473993 33.4122 0.737364 32.9514 0.786276C30.7155 1.01579 30.3907 1.27539 30.3114 3.56673C30.1112 9.43615 30.115 15.3131 30.3114 21.1825C30.3869 23.4325 30.64 23.583 32.9665 23.9818C33.3064 24.0382 33.8125 23.9329 33.7181 24.5085C33.6539 24.9149 33.2309 24.8208 32.94 24.8246C29.9261 24.8321 26.916 24.8359 23.9021 24.8246C23.6113 24.8246 23.1845 24.9074 23.1316 24.4972C23.0561 23.9216 23.5622 24.0382 23.9021 23.9818C26.104 23.6055 26.5459 23.3083 26.561 21.3594C26.6063 16.0543 26.7423 10.7455 26.4855 5.44043C26.6176 5.32756 26.6932 5.15072 26.5572 5.04913C26.3722 4.90992 26.3382 5.12062 26.2891 5.24854C24.5857 8.23593 23.3469 11.4453 21.8664 14.5418C20.4085 17.5932 19.0451 20.6896 17.625 23.756C17.4475 24.1361 17.372 24.6967 16.8621 24.7418C16.1898 24.802 16.1558 24.1248 15.9632 23.7109C13.2892 17.9769 10.6379 12.2354 7.98279 6.49768C7.82417 6.1553 7.68065 5.80915 7.51069 5.47429C7.46159 5.37647 7.36339 5.25231 7.27275 5.23726C6.9706 5.18458 7.06125 5.45924 7.04236 5.59845C7.00837 5.84677 7.02348 6.09886 7.02348 6.34718C7.02348 11.2346 7.00837 16.1183 7.02726 21.0057C7.03481 23.3648 7.25387 23.5792 9.65593 23.9893C9.98829 24.0458 10.5057 23.9178 10.4113 24.5085C10.3471 24.9224 9.92408 24.8246 9.63704 24.8283C7.24631 24.8396 4.85558 24.8359 2.46863 24.8359C2.16271 24.8359 1.74726 24.881 1.72837 24.4671C1.69816 23.9103 2.19292 24.0382 2.54039 23.9818C4.74228 23.6432 5.17661 23.2444 5.19172 21.1411C5.22949 15.3771 5.20683 9.61675 5.20683 3.85267C5.20683 2.27997 4.69696 0.948062 2.85387 0.812613C2.88408 0.598154 2.91429 0.379931 2.94451 0.165472L2.94073 0.161709Z" fill="white"/>
<path d="M53.4935 73.4281C56.5716 73.4055 59.6535 73.413 62.7316 73.3415C63.5436 73.3227 63.9893 73.7027 64.4463 74.2634C66.7426 77.0852 69.0578 79.8957 71.373 82.7025C71.5996 82.9772 71.796 83.5002 72.1586 83.4023C72.7251 83.2443 72.4078 82.6611 72.4154 82.2774C72.4456 80.2118 72.4154 78.1424 72.4343 76.0731C72.4418 75.0234 72.4645 74 71.0217 73.8909C70.8744 73.8796 70.6252 73.8721 70.6629 73.5823C70.7007 73.3077 70.9311 73.3754 71.0822 73.3754C72.0264 73.3604 72.9706 73.3528 73.9148 73.3679C74.4133 73.3754 74.9081 73.4318 75.4066 73.4657C75.316 74.2069 74.6211 73.8645 74.2434 74.094C73.5069 74.5455 73.5824 75.2416 73.5786 75.9226C73.5711 79.305 73.5786 82.6912 73.5786 86.0737C73.5786 86.4499 73.5938 86.8262 73.5711 87.2024C73.5522 87.4846 73.6844 87.8646 73.2538 87.9662C72.9706 88.0339 72.8044 87.8119 72.6458 87.6238C72.3247 87.24 71.9999 86.8563 71.6827 86.4687C69.292 83.5604 66.9088 80.6482 64.5105 77.7436C64.333 77.5254 64.1706 77.1266 63.8042 77.3185C63.6758 77.3862 63.6683 77.7587 63.6683 77.9957C63.6607 80.5655 63.6645 83.1352 63.6683 85.7012C63.6683 86.608 63.8949 87.3228 65.0053 87.3529C65.2243 87.3604 65.5567 87.3529 65.4925 87.7329C65.432 88.0904 65.1035 87.9813 64.892 87.985C63.6985 88.0038 62.5012 87.9963 61.3077 87.9925C61.0698 87.9925 60.7714 88.0565 60.6732 87.763C60.5448 87.3793 60.8923 87.3529 61.1114 87.3492C62.4559 87.3266 62.5692 86.4085 62.5692 85.4002C62.5692 82.394 62.5956 79.384 62.5579 76.3778C62.5352 74.4439 59.9632 73.1196 58.241 74.0828C57.6367 74.4214 57.5574 74.9745 57.5536 75.5238C57.5309 78.9702 57.5385 82.4166 57.546 85.863C57.546 86.8563 58.071 87.3492 59.0643 87.3755C59.2418 87.3793 59.4156 87.4696 59.4005 87.7141C59.3853 87.9925 59.155 87.9436 58.9926 87.9775C58.8717 88.0038 58.7433 87.9925 58.6149 87.9925C55.0118 87.9925 51.4087 87.9925 47.8018 87.9813C47.5148 87.9813 47.0956 88.1318 46.9936 87.748C46.8727 87.2852 47.3524 87.368 47.6092 87.2701C48.3268 86.9993 48.3041 86.465 48.104 85.8818C47.9416 85.4077 47.6847 84.96 47.5677 84.4784C47.292 83.376 46.6272 82.9772 45.5131 83.1202C44.8937 83.1992 44.2554 83.1352 43.6284 83.1352C41.4341 83.1352 40.5352 83.9329 40.2142 86.0812C40.1084 86.7848 40.3539 87.1573 41.03 87.2927C41.2679 87.3416 41.6003 87.3642 41.5852 87.6577C41.5587 88.1242 41.1357 87.9775 40.86 87.9813C39.7912 87.9963 38.7223 87.9888 37.6497 87.9813C37.4684 87.9813 37.2569 87.9737 37.2154 87.7329C37.1776 87.526 37.2683 87.3793 37.4798 87.3191C38.7677 86.9541 39.0509 85.7802 39.5004 84.7719C41.0224 81.3368 42.5029 77.8828 44.0137 74.4402C44.2252 73.9586 44.2554 73.1722 44.9126 73.1948C45.4338 73.2136 45.464 73.9473 45.6528 74.3913C47.19 78.0258 48.6969 81.6716 50.2568 85.2986C51.1103 87.2814 52.1905 87.763 54.0298 87.3642C54.9816 87.1573 55.3026 86.608 55.3102 85.7953C55.3404 82.3489 55.3215 78.9025 55.3366 75.4598C55.3441 74.1843 54.3886 73.9962 53.4708 73.7441C53.5086 73.6463 53.5199 73.541 53.5086 73.4356L53.4935 73.4281ZM44.2932 82.1532C44.5462 82.1532 44.7955 82.157 45.0485 82.1532C46.5177 82.1156 46.5328 82.1081 45.9625 80.6859C45.5206 79.5797 45.0221 78.4999 44.5802 77.3937C44.3687 76.867 44.1685 76.8143 43.9306 77.3523C43.5453 78.2102 43.1979 79.0831 42.8013 79.9334C41.6494 82.4241 41.8722 82.1457 44.2969 82.1495L44.2932 82.1532Z" fill="white"/>
<path d="M35.7841 0.154066C38.3032 0.154066 40.8224 0.154066 43.3415 0.157829C43.3679 0.372288 43.3944 0.586748 43.4246 0.801208C42.0045 0.996855 41.5324 2.05787 41.5362 3.22799C41.5588 8.41641 41.1132 13.6161 41.8383 18.7857C42.2273 21.5624 43.8287 23.0787 46.6424 23.5565C51.6732 24.4068 55.3518 21.4909 55.4689 16.4304C55.5633 12.2391 55.518 8.04393 55.5029 3.84879C55.4953 1.41825 55.2536 1.17745 52.7685 0.763583C52.5418 0.725959 52.2133 0.793683 52.1868 0.477637C52.1566 0.123967 52.4965 0.146541 52.7269 0.146541C55.2423 0.135254 57.7539 0.139016 60.2692 0.135254C60.4694 0.135254 60.6582 0.184166 60.6998 0.387338C60.7715 0.774871 60.4467 0.718434 60.2201 0.763583C57.735 1.27151 57.3535 1.69667 57.3309 4.23256C57.2969 8.11165 57.3006 11.9945 57.2969 15.8736C57.2969 16.8819 57.1722 17.8715 56.9796 18.8572C56.364 21.9951 54.434 23.9817 51.4201 24.8546C48.9048 25.5845 46.3101 25.5205 43.7758 24.9035C40.5089 24.1096 38.3901 21.585 38.0502 18.2515C37.6121 13.9435 37.8764 9.6204 37.8047 5.30486C37.7933 4.55614 37.7782 3.80364 37.7367 3.05492C37.6649 1.78321 37.1286 0.899032 35.7312 0.774871L35.7879 0.150304L35.7841 0.154066Z" fill="white"/>
<path d="M78.1826 49.9992C75.7276 49.9992 73.2765 50.003 70.8216 49.9955C70.4741 49.9955 69.9491 50.1159 69.9227 49.6042C69.9038 49.2317 70.3759 49.3258 70.6667 49.2656C72.6495 48.8592 72.9366 48.5695 72.9479 46.5115C72.9781 41.624 72.9781 36.7366 72.9479 31.8492C72.9328 29.5014 72.827 29.4262 70.5156 28.9521C70.2739 28.9032 69.9604 28.9107 69.9378 28.6135C69.9 28.1319 70.3268 28.2146 70.5987 28.2146C75.6332 28.2034 80.664 28.2071 85.6985 28.2146C86.1366 28.2146 86.654 28.1657 86.6955 28.7865C86.7786 30.0357 86.824 31.2886 86.8655 32.5377C86.8731 32.7936 86.7673 33.0569 86.4538 33.0231C86.3065 33.008 86.0799 32.8274 86.061 32.6995C85.6154 29.4374 83.1869 29.5691 80.7961 29.6105C79.7273 29.6293 78.6509 29.6933 77.5896 29.5917C76.3622 29.4751 76.1053 29.9943 76.1544 31.1004C76.2375 32.9139 76.2262 34.735 76.1544 36.5485C76.1167 37.5756 76.3848 38.0497 77.5065 37.9707C78.6962 37.8841 79.8973 37.982 81.0907 37.9218C83.0547 37.8239 83.3833 37.5455 84.0064 35.6342C84.1009 35.3483 84.048 34.9193 84.4257 34.9043C84.8373 34.8855 84.8298 35.2881 84.8298 35.6003C84.8298 37.6697 84.8298 39.7353 84.8222 41.8046C84.8222 42.0454 84.8147 42.3389 84.4899 42.3765C84.1726 42.4104 84.1273 42.1395 84.0329 41.9062C82.9565 39.2462 82.9149 39.1935 80.1239 39.2273C78.8813 39.2424 77.3177 38.6893 76.4792 39.4681C75.6181 40.262 76.2564 41.8385 76.196 43.0688C76.1355 44.3179 76.2149 45.5746 76.1733 46.8275C76.1393 47.9788 76.5623 48.6034 77.8049 48.577C79.5045 48.5394 81.2003 48.5657 82.8998 48.5507C84.6561 48.5356 85.8118 47.5236 86.7522 46.1954C87.077 45.7364 87.3338 45.2285 87.6511 44.7619C87.787 44.5663 87.9759 44.3405 88.2705 44.4797C88.5688 44.6189 88.4782 44.8673 88.3989 45.1081C87.9381 46.4738 87.4585 47.8321 87.0279 49.2054C86.7824 49.988 86.2121 50.0143 85.5474 50.0105C83.0925 49.9917 80.6413 50.003 78.1864 50.003L78.1826 49.9992Z" fill="white"/>
<path d="M58.5129 49.9991C56.1221 49.9991 53.7314 50.0028 51.3445 49.9915C50.9932 49.9915 50.4569 50.1533 50.3738 49.7018C50.2643 49.1187 50.8497 49.3294 51.1594 49.2616C53.0025 48.8628 53.2744 48.6295 53.2895 46.7784C53.3273 41.7066 53.3311 36.6311 53.2933 31.5593C53.2782 29.4448 53.1347 29.3545 50.9932 28.9482C50.6986 28.8917 50.2756 28.9406 50.3512 28.4929C50.4191 28.0978 50.8384 28.2069 51.1216 28.2069C54.0147 28.1994 56.9077 28.2069 59.8008 28.2069C61.7496 28.2069 63.7022 28.2784 65.6473 28.1806C66.8408 28.1204 67.2487 28.5681 67.1467 29.6781C67.124 29.9264 67.2147 30.1898 67.1618 30.4268C66.9805 31.2884 67.7737 32.5902 66.8068 32.9138C66.21 33.1132 66.2856 31.5819 65.8361 30.9272C65.3452 30.2086 64.722 29.727 63.8344 29.7082C61.6967 29.663 59.5591 29.6517 57.4214 29.6066C56.7944 29.5953 56.5149 29.8399 56.5187 30.4795C56.5338 32.673 56.5414 34.8627 56.5149 37.0562C56.5036 37.8539 56.9455 37.9668 57.5951 37.9517C58.8528 37.9254 60.1105 37.9705 61.3682 37.9216C63.4303 37.8388 63.7249 37.5905 64.4123 35.5513C64.5029 35.2804 64.4198 34.8665 64.8844 34.9079C65.2243 34.938 65.1979 35.254 65.1979 35.4911C65.2016 37.6206 65.1979 39.7502 65.1903 41.8797C65.1903 42.1544 65.0732 42.3952 64.7824 42.3688C64.654 42.3575 64.4576 42.1243 64.4463 41.9813C64.2121 39.2573 62.2897 39.0917 60.2087 39.2159C59.0341 39.2874 57.5309 38.6854 56.7718 39.4943C56.0277 40.2844 56.5678 41.7668 56.5338 42.9407C56.4961 44.3178 56.5376 45.6948 56.5603 47.0719C56.5754 48.0539 57.0513 48.5731 58.0785 48.5618C59.8385 48.543 61.6023 48.5769 63.3623 48.5317C64.7673 48.4941 65.9003 47.8545 66.7237 46.722C67.2034 46.0673 67.6226 45.3675 68.0796 44.694C68.2344 44.4683 68.4724 44.3554 68.7254 44.4871C68.9029 44.5811 68.9067 44.7994 68.8425 44.9837C68.3326 46.4624 67.8265 47.941 67.3053 49.4197C67.0523 50.1383 66.4178 49.9953 65.8701 49.9953C63.419 50.0028 60.964 49.9953 58.5129 49.9953V49.9991Z" fill="white"/>
<path d="M46.7329 31.5897C46.7329 32.5905 46.7366 33.5951 46.7253 34.5959C46.7253 34.8329 46.7366 35.1301 46.3892 35.1602C46.0757 35.1866 45.9813 34.942 45.9171 34.6937C45.7547 34.0879 45.6376 33.4671 45.4223 32.884C44.5083 30.3744 41.8683 28.7904 39.319 29.1817C37.8045 29.415 36.7432 30.254 36.3088 31.6875C35.8858 33.0871 36.6865 34.0842 37.7403 34.8969C39.1868 36.0181 40.8221 36.8308 42.4122 37.7187C43.3451 38.2379 44.2855 38.7496 45.1655 39.3516C47.6997 41.0899 48.6402 43.4188 47.8961 45.9585C47.1634 48.4643 44.8029 50.2289 41.9778 50.4508C40.1687 50.5938 38.4881 50.1273 36.8149 49.5629C35.9123 49.2581 35.0323 48.833 34.4809 50.1574C34.2807 50.639 33.7972 50.4508 33.7897 49.9391C33.7633 47.7494 33.7897 45.5559 33.8048 43.3661C33.8048 43.1667 33.937 42.9749 34.1145 42.9861C34.2656 42.9937 34.4884 43.1404 34.5337 43.2758C34.715 43.8101 34.8132 44.367 34.9832 44.905C35.984 48.073 39.5645 49.8714 42.6992 48.7841C45.2033 47.9187 45.9057 45.1571 44.1155 43.1855C43.3866 42.3804 42.4197 41.9063 41.4982 41.3645C39.8213 40.3788 38.0915 39.4682 36.4826 38.3809C33.8275 36.59 32.9172 34.103 33.8501 31.601C34.7943 29.0575 37.5552 27.4735 40.5313 27.7407C41.7361 27.8498 42.8767 28.1809 43.972 28.6775C44.7425 29.0274 45.4223 29.1516 45.8642 28.2185C45.9737 27.989 46.1097 27.7595 46.4118 27.8235C46.8575 27.9175 46.7253 28.3013 46.7329 28.5872C46.748 29.588 46.7404 30.5926 46.7366 31.5934L46.7329 31.5897Z" fill="white"/>
<path d="M55.9332 58.9914C55.9332 57.4262 55.9521 55.8648 55.9257 54.2996C55.9105 53.4004 55.6084 52.7006 54.5245 52.6705C54.3167 52.6629 53.9957 52.7043 54.0259 52.3243C54.0486 52.0572 54.2865 52.0647 54.4527 52.0647C56.2769 52.0497 58.1011 52.0497 59.9253 52.0459C60.1255 52.0459 60.3181 52.091 60.3634 52.298C60.4465 52.6893 60.1104 52.6667 59.8951 52.6742C58.6072 52.7119 58.3768 53.5471 58.3806 54.5931C58.3957 57.3472 58.3504 60.1051 58.4259 62.8592C58.4675 64.4093 58.8489 65.9218 60.5145 66.5502C62.3387 67.2387 64.1063 66.9941 65.6812 65.7939C66.4139 65.2333 66.7916 64.4658 66.8973 63.544C67.2448 60.4851 67.1655 57.4187 67.0484 54.3523C67.0106 53.3515 66.6367 52.6592 65.4848 52.6554C65.3337 52.6554 65.0542 52.5012 65.0542 52.4184C65.0542 52.1099 65.3148 52.0534 65.5792 52.0534C69.3787 52.0534 73.1782 52.0534 76.9777 52.0534C77.2534 52.0534 77.4951 52.14 77.4989 52.4334C77.4989 52.5124 77.2081 52.6629 77.0457 52.6667C75.6331 52.7006 75.4745 53.66 75.4707 54.7436C75.4707 58.0621 75.4896 61.3843 75.4594 64.7028C75.4481 65.9181 75.5047 67.0129 77.0872 67.1446C77.2685 67.1597 77.4762 67.2387 77.4687 67.4531C77.4611 67.8632 77.1023 67.7203 76.9059 67.7203C75.1459 67.7391 73.3821 67.7353 71.6221 67.7203C71.4597 67.7203 71.1916 67.6526 71.1576 67.5547C71.0405 67.1973 71.3804 67.1521 71.5957 67.1333C72.9478 67.0205 73.1593 66.1212 73.1555 65.0113C73.1404 61.5649 73.1706 58.1223 73.1404 54.6759C73.1291 53.1182 72.2529 52.3582 70.6477 52.3845C69.1068 52.4109 68.2532 53.1408 68.2192 54.6232C68.1663 57.001 68.2268 59.3827 68.1928 61.7643C68.1135 66.9941 63.6757 69.7106 58.8791 67.4682C57.206 66.6856 56.2391 65.3349 56.1258 63.5026C56.0352 62.0051 56.1069 60.5001 56.1069 58.9951C56.0465 58.9951 55.9899 58.9951 55.9294 58.9951L55.9332 58.9914Z" fill="white"/>
<path d="M51.6655 72.1601C48.8027 71.6673 46.2873 70.4407 44.1194 68.5369C43.3943 67.8973 42.5218 67.5549 41.7136 67.0808C38.6393 65.2786 37.189 61.9075 37.9103 58.1977C38.5939 54.6873 41.0866 52.2681 44.6482 51.809C47.613 51.429 49.9357 52.6405 51.6278 55.0146C54.4944 59.0329 53.1838 64.7142 48.8593 67.2351C47.9151 67.7844 47.7892 68.4855 48.4817 69.3383C49.3352 70.388 50.3739 71.1631 51.6957 71.5243C51.6844 71.735 51.6731 71.9494 51.6617 72.1601H51.6655ZM50.2757 60.1203C50.3021 58.5401 50.151 56.9975 49.4863 55.5339C48.6856 53.7693 47.3411 52.7722 45.3771 52.7609C43.3905 52.7496 41.978 53.773 41.3057 55.5602C40.1802 58.5363 40.1878 61.5688 41.4681 64.5186C42.2084 66.2268 43.5793 67.1486 45.4715 67.1222C47.4317 67.0959 48.7876 66.0988 49.5921 64.3455C50.2115 63.0023 50.3059 61.5688 50.2757 60.1203Z" fill="white"/>
<path d="M4.92733 67.7203C4.11153 67.7203 3.29574 67.7315 2.47995 67.7203C1.92098 67.7127 0.97677 67.8519 0.871019 67.6187C0.508444 66.8323 1.62261 67.1032 1.8681 66.599C2.10226 66.125 2.19668 65.6547 2.20046 65.1618C2.21179 61.6627 2.21179 58.1636 2.20046 54.6608C2.20046 53.7616 2.1287 52.8623 0.954109 52.6704C0.746384 52.6366 0.617972 52.5199 0.648186 52.3055C0.682178 52.0722 0.882349 52.0383 1.07119 52.0459C4.26261 52.1475 7.48424 51.7373 10.6303 52.5425C13.6065 53.3063 15.544 55.9212 15.6988 59.2284C15.8688 62.8893 14.1957 65.76 11.2384 66.9678C9.19892 67.7993 7.06123 67.7127 4.93111 67.7203H4.92733ZM4.52321 59.9696C4.52321 61.7831 4.53076 63.6004 4.51943 65.4139C4.51943 66.0234 4.58364 66.4937 5.35789 66.6141C9.6748 67.2876 12.1335 64.9849 12.7831 61.7342C13.006 60.6205 12.9946 59.4955 12.8284 58.3706C12.3223 54.9129 9.48218 52.7419 6.00372 53.1031C4.97265 53.2085 4.42879 53.532 4.49299 54.7135C4.59119 56.4592 4.51943 58.2163 4.51943 59.9696H4.52321Z" fill="white"/>
<path d="M78.2129 80.5241C78.2129 79.0228 78.1978 77.5179 78.2204 76.0166C78.2393 74.9594 78.2469 73.9511 76.789 73.8796C76.6342 73.872 76.3773 73.8495 76.434 73.5673C76.4831 73.3303 76.7022 73.3679 76.8646 73.3679C80.1315 73.3604 83.3985 73.3679 86.6692 73.3604C87.1715 73.3604 87.5303 73.492 87.5567 74.0677C87.5907 74.7562 87.6436 75.441 87.6474 76.1295C87.6474 76.2763 87.4699 76.423 87.3717 76.5697C87.2848 76.4869 87.1526 76.4192 87.1224 76.3176C86.0838 72.9728 83.2889 74.6622 81.223 74.2972C80.6603 74.1994 80.5167 74.6998 80.5092 75.1776C80.5016 75.742 80.4525 76.3101 80.5092 76.867C80.5998 77.8264 80.0069 79.1922 80.8793 79.6549C81.9255 80.2118 83.3343 79.9108 84.5768 79.7339C85.2038 79.6436 85.5248 79.1771 85.6608 78.5789C85.7137 78.3456 85.7439 78.0484 86.0649 78.0597C86.4652 78.0747 86.3179 78.4284 86.3217 78.6316C86.3406 79.8205 86.3331 81.0094 86.3217 82.1984C86.3217 82.3564 86.367 82.5784 86.1027 82.631C85.8609 82.6762 85.7439 82.5182 85.7137 82.3451C85.589 81.6114 85.2982 81.0019 84.49 80.8777C83.304 80.6934 82.1068 80.7159 80.9209 80.8589C80.4639 80.9154 80.5054 81.4195 80.5016 81.7882C80.4941 83.1013 80.5016 84.4182 80.5016 85.7313C80.5016 86.4424 80.7094 86.9842 81.544 86.9804C82.7979 86.9729 84.0594 87.003 85.3095 86.9014C86.4955 86.8074 87.1451 85.9194 87.7191 84.9901C87.9118 84.6778 88.1044 84.1398 88.4896 84.358C88.8446 84.5574 88.4707 85.0277 88.365 85.3701C87.8312 87.1084 86.6453 87.9762 84.8072 87.9737C82.2314 87.9737 79.6556 87.9888 77.0761 87.9812C76.8041 87.9812 76.3698 88.0904 76.3925 87.62C76.4076 87.3454 76.7513 87.3379 76.993 87.3266C77.9938 87.2739 78.2167 86.6343 78.2129 85.7877C78.2015 84.0344 78.2129 82.2811 78.2129 80.5316V80.5241Z" fill="white"/>
<path d="M33.7898 67.7206C33.3517 67.7206 32.9098 67.7469 32.4717 67.7168C31.9883 67.6829 31.2291 67.9614 31.0818 67.5625C30.8099 66.8289 31.7768 67.1449 32.0714 66.7837C32.3433 66.4489 32.4151 66.1178 32.2791 65.749C31.977 64.9288 31.6333 64.1237 31.3311 63.3034C31.1272 62.7466 30.7419 62.5547 30.1716 62.5698C29.2954 62.5923 28.4154 62.5735 27.5354 62.5735C24.9483 62.5735 24.9634 62.5811 24.0418 64.91C23.6302 65.9484 23.3167 66.8853 24.9332 67.0659C25.1409 67.0885 25.2806 67.2239 25.2731 67.4309C25.258 67.8221 24.9256 67.713 24.7141 67.7206C24.023 67.7394 23.3318 67.7544 22.6444 67.713C21.9684 67.6754 20.9335 68.0441 20.6994 67.5437C20.3368 66.7724 21.5869 67.0358 21.9117 66.479C22.2894 65.8318 22.6746 65.1922 22.973 64.5037C24.5782 60.7901 26.1758 57.0728 27.7998 53.3668C28.0377 52.825 28.0679 51.8882 28.7704 51.9295C29.4012 51.9672 29.4389 52.8927 29.6769 53.4458C31.248 57.1217 32.7663 60.8202 34.345 64.4924C34.802 65.5572 35.1306 66.795 36.5545 67.0697C36.7471 67.1073 36.8566 67.2427 36.8453 67.461C36.8302 67.7507 36.5885 67.7055 36.4298 67.7093C35.5498 67.7243 34.6736 67.7168 33.7936 67.7168L33.7898 67.7206ZM28.0717 61.6292C28.8309 61.4674 29.794 61.9189 30.6702 61.3545C30.9497 61.1739 31.0025 61.1438 30.8892 61.1062C29.9941 60.8315 30.0394 59.9473 29.6995 59.319C29.0915 58.194 28.9215 56.8508 28.0113 55.8726C27.4901 57.0051 26.9576 58.1301 26.4477 59.2701C25.7477 60.8403 26.2878 61.6266 28.0679 61.6292H28.0717Z" fill="white"/>
<path d="M33.1365 80.554C33.1365 82.1154 33.1365 83.6806 33.1365 85.242C33.1365 86.2805 33.129 87.3302 34.6133 87.3377C34.8021 87.3377 35.0174 87.413 35.0325 87.6124C35.0552 87.9472 34.7795 87.9849 34.5226 87.9849C32.891 87.9849 31.2595 87.9849 29.6279 87.9773C29.3937 87.9773 29.0916 87.9962 29.1067 87.6425C29.1142 87.4506 29.2955 87.3565 29.4995 87.3528C30.6778 87.3302 30.9422 86.5815 30.9384 85.5882C30.9309 82.2133 30.9158 78.8346 30.9498 75.4597C30.9573 74.6357 30.6476 74.3836 29.8507 74.3874C28.4155 74.3949 27.0219 74.3723 26.5951 76.1783C26.5422 76.3965 26.4402 76.7088 26.1116 76.5696C26.0134 76.5282 26.0021 76.2648 25.9606 76.0993C25.9455 76.0391 25.9606 75.9751 25.9606 75.9112C25.9077 74.2105 26.7373 73.3615 28.4495 73.364C31.0857 73.364 33.7219 73.3602 36.3582 73.364C38.0464 73.3677 38.0464 73.3753 38.1031 75.1098C38.1144 75.486 38.1408 75.8585 38.1371 76.2347C38.1371 76.4116 38.1371 76.6674 37.8802 76.6373C37.7631 76.6223 37.6196 76.4153 37.5743 76.2686C37.3741 75.5876 37.106 74.9442 36.3997 74.662C35.4404 74.2783 34.3376 74.1503 33.4576 74.5491C32.7362 74.8765 33.1705 75.9074 33.1403 76.6185C33.0874 77.9278 33.1252 79.2447 33.1252 80.5578L33.1365 80.554Z" fill="white"/>
<path d="M62.2822 20.5317C62.5957 20.5317 62.9054 20.5317 63.2189 20.5317C64.1215 20.5317 63.9742 20.8929 63.5323 21.3933C62.2596 22.8457 60.9981 24.3092 59.7291 25.7653C59.5289 25.9948 59.2872 26.2695 58.9624 26.0362C58.7358 25.8744 58.8604 25.5772 58.9322 25.3402C59.2456 24.3318 59.5629 23.3235 59.8764 22.3151C60.249 21.1237 61.0485 20.5292 62.2747 20.5317H62.2822Z" fill="white"/>
<path d="M19.6003 53.7469C19.3434 55.0901 19.0904 56.437 18.8298 57.7802C18.7731 58.0737 18.7845 58.4763 18.3539 58.4424C17.9649 58.4085 17.9687 58.006 17.9158 57.72C17.6779 56.3731 17.4173 55.0261 17.2511 53.6716C17.1416 52.7762 17.1793 51.7452 18.4294 51.7942C19.6154 51.8393 19.672 52.8063 19.6003 53.7469Z" fill="white"/>
<path d="M43.4244 0.801403C43.398 0.586944 43.3715 0.372484 43.3413 0.158024C43.9418 0.0902998 44.8974 -0.30852 44.9502 0.485357C44.9918 1.09864 43.9758 0.760016 43.4244 0.797641V0.801403Z" fill="white"/>
<path d="M35.7839 0.1542L35.7273 0.778767C35.1721 0.827679 34.5867 1.00075 34.1788 0.417571H34.1523C34.6282 -0.0865972 35.2023 0.00370165 35.7839 0.157962V0.1542Z" fill="white"/>
<path d="M2.94065 0.161611C2.91044 0.37607 2.88022 0.594293 2.85001 0.808752C2.66494 0.82004 2.4761 0.857664 2.29482 0.838852C2.00022 0.812515 1.59988 0.823802 1.65653 0.383595C1.70941 -0.0265121 2.10597 0.0524994 2.39679 0.0524994C2.57808 0.0524994 2.75937 0.123986 2.93688 0.161611H2.94065Z" fill="white"/>
<path d="M51.6655 72.1603C51.6769 71.9496 51.6882 71.7351 51.6995 71.5244C51.8846 71.5244 52.0772 71.4981 52.2585 71.5244C52.5531 71.5696 52.9723 71.547 52.9421 71.9684C52.9119 72.3898 52.4964 72.2919 52.2094 72.2844C52.0281 72.2806 51.8468 72.2054 51.6655 72.1603Z" fill="white"/>
<path d="M53.4934 73.4282C53.5047 73.5336 53.4934 73.6352 53.4556 73.7367C53.3839 73.6765 53.3159 73.6163 53.2441 73.5561C53.3272 73.5148 53.4103 73.4696 53.4896 73.4282H53.4934Z" fill="white"/>
<path d="M26.2852 5.24857C26.3343 5.12441 26.3682 4.91372 26.5533 5.04916C26.6893 5.15075 26.61 5.32759 26.4815 5.44046C26.4173 5.3765 26.3531 5.31254 26.2889 5.24481L26.2852 5.24857Z" fill="white"/>
</g>
<defs>
<clipPath id="clip0_423_954">
<rect width="88" height="88" fill="white" transform="translate(0.640625)"/>
</clipPath>
</defs>
</svg>
