<svg width="22" height="22" viewBox="0 0 22 22" fill="none" xmlns="http://www.w3.org/2000/svg">
<path fill-rule="evenodd" clip-rule="evenodd" d="M11 0C8.0124 0 7.6384 0.0131999 6.4647 0.0659999C5.2943 0.1199 4.4946 0.3058 3.795 0.5775C3.06074 0.853429 2.39553 1.28626 1.8458 1.8458C1.28629 2.39555 0.853461 3.06075 0.5775 3.795C0.3058 4.4946 0.1199 5.2943 0.0659999 6.4647C0.0120999 7.6384 0 8.0124 0 11C0 13.9876 0.0120999 14.3616 0.0659999 15.5353C0.1199 16.7057 0.3058 17.5054 0.5775 18.205C0.853493 18.9392 1.28632 19.6044 1.8458 20.1542C2.39557 20.7137 3.06077 21.1465 3.795 21.4225C4.4946 21.6942 5.2943 21.8801 6.4647 21.934C7.6384 21.9868 8.0124 22 11 22C13.9876 22 14.3616 21.9868 15.5353 21.934C16.7057 21.8801 17.5054 21.6942 18.205 21.4225C18.9392 21.1465 19.6045 20.7137 20.1542 20.1542C20.7137 19.6045 21.1465 18.9392 21.4225 18.205C21.6942 17.5054 21.8801 16.7057 21.934 15.5353C21.9868 14.3616 22 13.9876 22 11C22 8.0124 21.9868 7.6384 21.934 6.4647C21.8801 5.2943 21.6942 4.4946 21.4225 3.795C21.1465 3.06075 20.7137 2.39555 20.1542 1.8458C19.6045 1.28626 18.9393 0.853429 18.205 0.5775C17.5054 0.3058 16.7057 0.1199 15.5353 0.0659999C14.3616 0.0131999 13.9876 0 11 0ZM11 1.9822C13.937 1.9822 14.2846 1.9932 15.444 2.046C16.5176 2.0955 17.0995 2.2737 17.4878 2.4244C18.0004 2.6246 18.3678 2.8633 18.7528 3.2472C19.1378 3.6322 19.3754 3.9996 19.5756 4.5122C19.7252 4.9005 19.9056 5.4824 19.954 6.5549C20.0068 7.7154 20.0178 8.0619 20.0178 11C20.0178 13.937 20.0068 14.2846 19.954 15.444C19.9045 16.5176 19.7252 17.0995 19.5756 17.4878C19.3992 17.9656 19.1181 18.3979 18.7528 18.7528C18.3678 19.1378 18.0004 19.3754 17.4878 19.5756C17.0995 19.7252 16.5176 19.9056 15.4451 19.954C14.2857 20.0068 13.9381 20.0178 11 20.0178C8.063 20.0178 7.7143 20.0068 6.556 19.954C5.4824 19.9045 4.9005 19.7252 4.5122 19.5756C4.03434 19.3993 3.60208 19.1182 3.2472 18.7528C2.88185 18.3979 2.60069 17.9657 2.4244 17.4878C2.2737 17.0995 2.0944 16.5176 2.046 15.4451C1.9932 14.2846 1.9822 13.9381 1.9822 11C1.9822 8.063 1.9932 7.7154 2.046 6.556C2.0955 5.4824 2.2737 4.9005 2.4244 4.5122C2.6246 3.9996 2.8633 3.6322 3.2472 3.2472C3.6322 2.8622 3.9996 2.6246 4.5122 2.4244C4.9005 2.2737 5.4824 2.0944 6.5549 2.046C7.7154 1.9932 8.0619 1.9822 11 1.9822ZM11 14.6663C10.0276 14.6663 9.0951 14.28 8.40753 13.5925C7.71997 12.9049 7.3337 11.9724 7.3337 11C7.3337 10.0276 7.71997 9.0951 8.40753 8.40753C9.0951 7.71997 10.0276 7.3337 11 7.3337C11.9724 7.3337 12.9049 7.71997 13.5925 8.40753C14.28 9.0951 14.6663 10.0276 14.6663 11C14.6663 11.9724 14.28 12.9049 13.5925 13.5925C12.9049 14.28 11.9724 14.6663 11 14.6663ZM11 5.3515C10.2582 5.3515 9.52372 5.4976 8.83841 5.78147C8.15311 6.06533 7.53042 6.4814 7.00591 7.00591C6.4814 7.53042 6.06533 8.15311 5.78147 8.83841C5.4976 9.52372 5.3515 10.2582 5.3515 11C5.3515 11.7418 5.4976 12.4763 5.78147 13.1616C6.06533 13.8469 6.4814 14.4696 7.00591 14.9941C7.53042 15.5186 8.15311 15.9347 8.83841 16.2185C9.52372 16.5024 10.2582 16.6485 11 16.6485C12.4981 16.6485 13.9348 16.0534 14.9941 14.9941C16.0534 13.9348 16.6485 12.4981 16.6485 11C16.6485 9.50192 16.0534 8.06521 14.9941 7.00591C13.9348 5.94661 12.4981 5.3515 11 5.3515ZM18.1918 5.1282C18.1918 5.30155 18.1577 5.47319 18.0913 5.63334C18.025 5.79349 17.9278 5.93901 17.8052 6.06158C17.6826 6.18415 17.5371 6.28138 17.3769 6.34772C17.2168 6.41406 17.0451 6.4482 16.8718 6.4482C16.6985 6.4482 16.5268 6.41406 16.3667 6.34772C16.2065 6.28138 16.061 6.18415 15.9384 6.06158C15.8158 5.93901 15.7186 5.79349 15.6523 5.63334C15.5859 5.47319 15.5518 5.30155 15.5518 5.1282C15.5518 4.77811 15.6909 4.44237 15.9384 4.19482C16.186 3.94727 16.5217 3.8082 16.8718 3.8082C17.2219 3.8082 17.5576 3.94727 17.8052 4.19482C18.0527 4.44237 18.1918 4.77811 18.1918 5.1282Z" fill="#49336C"/>
</svg>
