<svg width="122" height="122" viewBox="0 0 122 122" xmlns="http://www.w3.org/2000/svg">
<path fill-rule="evenodd" clip-rule="evenodd" d="M61 120C93.5848 120 120 93.5848 120 61C120 28.4152 93.5848 2 61 2C28.4152 2 2 28.4152 2 61C2 93.5848 28.4152 120 61 120ZM61 122C94.6894 122 122 94.6894 122 61C122 27.3106 94.6894 0 61 0C27.3106 0 0 27.3106 0 61C0 94.6894 27.3106 122 61 122Z"/>
<path fill-rule="evenodd" clip-rule="evenodd" d="M52 76.5885L79 61L52 45.4115V76.5885ZM80 62.732C81.3333 61.9622 81.3333 60.0378 80 59.2679L53 43.6795C51.6667 42.9097 50 43.8719 50 45.4115V76.5885C50 78.1281 51.6667 79.0903 53 78.3205L80 62.732Z"/>
</svg>
