<svg width="205" height="146" viewBox="0 0 205 146" fill="none" xmlns="http://www.w3.org/2000/svg">
<path d="M6.21726 144.764H0V114H6.21726V144.764Z" fill="white"/>
<path d="M17.5109 123.412V126.037C19.0497 123.592 20.5974 122.666 23.2241 122.666C25.2228 122.666 27.1242 123.403 28.3977 124.653C29.7597 126.037 30.2549 127.745 30.2549 131.251V144.763H24.4887V131.521C24.4887 130.326 24.3561 129.633 23.9935 129.031C23.4451 128.159 22.3574 127.602 21.2253 127.602C19.0055 127.602 17.5021 129.31 17.5021 131.8V144.763H11.7358V123.412H17.5021H17.5109Z" fill="white"/>
<path d="M41.4246 138.488C41.4246 139.504 41.7872 139.783 43.0607 139.873H44.0601V144.764H39.479C36.6666 144.674 35.623 143.514 35.6673 140.7V128.249H33.2617V123.313H35.6673V117.596H41.4335V123.313H44.069V128.249H41.4335V138.488H41.4246Z" fill="white"/>
<path d="M52.2231 135.496C52.7184 138.444 54.8586 140.296 57.7152 140.296C59.8466 140.296 61.6596 139.235 62.5705 137.527L67.8768 139.002C65.7897 143.155 62.1106 145.501 57.671 145.501C51.0027 145.501 46.2358 140.701 46.2358 134.066C46.2358 127.431 50.817 122.676 57.3084 122.676C63.7998 122.676 68.6993 127.476 68.6993 134.345L68.6551 135.496H52.232H52.2231ZM62.7474 132.124C62.2521 129.31 60.2534 127.602 57.3968 127.602C54.5403 127.602 52.7715 129.221 52.2231 132.124H62.7474Z" fill="white"/>
<path d="M78.1358 123.413V126.55C78.7284 124.986 79.1352 124.339 79.9931 123.692C80.904 123.044 82.1244 122.676 83.398 122.676C83.5306 122.676 83.7606 122.676 84.0789 122.721V128.717C83.6279 128.672 83.168 128.627 82.8585 128.627C81.2666 128.627 79.8162 129.364 79.0025 130.56C78.3216 131.531 78.1358 132.448 78.1358 134.48V144.764H72.3696V123.413H78.1358Z" fill="white"/>
<path d="M92.5158 123.413V126.092C93.8335 123.737 95.6023 122.676 98.282 122.676C100.962 122.676 103.005 123.925 103.995 126.227C105.401 123.782 107.356 122.676 110.345 122.676C112.476 122.676 114.245 123.368 115.43 124.663C116.704 126.092 117.111 127.566 117.111 130.794V144.773H111.344V131.909C111.344 129.005 110.301 127.62 108.125 127.62C105.95 127.62 104.765 129.185 104.765 131.909V144.773H98.9983V132.088C98.9983 129.14 97.9105 127.611 95.8234 127.611C93.7362 127.611 92.5069 129.131 92.5069 132.088V144.773H86.7407V123.422H92.5069L92.5158 123.413Z" fill="white"/>
<path d="M126.866 135.496C127.361 138.444 129.501 140.296 132.358 140.296C134.489 140.296 136.302 139.235 137.213 137.527L142.519 139.002C140.432 143.155 136.753 145.501 132.314 145.501C125.645 145.501 120.878 140.701 120.878 134.066C120.878 127.431 125.46 122.676 131.951 122.676C138.442 122.676 143.342 127.476 143.342 134.345L143.298 135.496H126.875H126.866ZM137.39 132.124C136.895 129.31 134.896 127.602 132.039 127.602C129.183 127.602 127.414 129.221 126.866 132.124H137.39Z" fill="white"/>
<path d="M161.622 139.828V144.764H144.421L153.221 128.339H145.235V123.404H162.25L153.495 139.828H161.613H161.622Z" fill="white"/>
<path d="M180.274 139.828V144.764H163.073L171.872 128.339H163.886V123.404H180.902L172.147 139.828H180.265H180.274Z" fill="white"/>
<path d="M204.957 134.299C204.957 140.574 199.925 145.51 193.478 145.51C187.031 145.51 182.087 140.763 182.087 134.12C182.087 127.476 186.756 122.684 193.566 122.684C200.376 122.684 204.957 127.575 204.957 134.308V134.299ZM187.897 134.111C187.897 137.797 190.17 140.287 193.522 140.287C196.874 140.287 199.147 137.752 199.147 134.201C199.147 130.326 197.015 127.926 193.566 127.926C190.117 127.926 187.897 130.371 187.897 134.102V134.111Z" fill="white"/>
<path d="M84.2436 70.39H71.3497L67.1343 60.6134L66.0495 58.2167C65.4503 56.992 64.9233 55.725 64.3448 54.5003C63.8798 53.5184 63.4046 52.5471 62.8983 51.5863C62.5367 50.8895 62.0924 50.2137 61.4622 49.7492C60.7493 49.2213 59.7678 49.0418 58.9413 49.3691C58.1767 49.6753 57.7531 50.5938 57.3502 51.259C56.5443 52.5576 55.9038 53.9829 55.0979 55.271C52.7836 58.9663 49.8287 62.3026 46.3366 64.8893C41.2637 68.648 34.8994 70.3161 28.7004 70.39C22.6356 70.464 16.4263 69.102 11.3741 65.565C7.05542 62.5455 3.82159 58.1111 2.19951 53.0327C2.04454 52.5576 1.91023 52.0719 1.78625 51.5863C1.26966 49.6014 0.980373 47.5848 1.00104 45.5366C1.0217 43.5517 1.31099 41.5668 1.85857 39.6663C2.40615 37.7659 3.18103 36.0027 4.19354 34.3451C5.19571 32.6981 6.42518 31.1988 7.84063 29.9002C9.26641 28.591 10.8885 27.5035 12.6242 26.68C14.3599 25.8565 16.3953 25.2652 18.379 25.0119C20.466 24.7479 22.7183 25.128 24.702 25.7826C26.6237 26.4161 28.4627 27.4191 29.9298 28.855C30.932 29.8474 31.7379 31.0405 32.2338 32.3708C31.5002 30.4914 30.1571 28.9394 28.535 27.8097C26.8716 26.6483 24.9396 25.9093 22.9663 25.5186C21.6231 25.2547 20.2387 25.1069 18.8749 25.2441C17.8107 25.3497 16.7362 25.6031 15.7031 25.9198C13.8124 26.49 12.0146 27.3663 10.3822 28.5065C8.80148 29.6151 7.39637 30.9666 6.20822 32.4975C5.02007 34.0284 4.05922 35.7282 3.34633 37.5442C2.62312 39.3813 2.16852 41.3239 1.98255 43.2877C1.79658 45.3148 1.8999 47.3736 2.28217 49.3797C2.40615 50.0343 2.56112 50.6783 2.7471 51.3118C3.5633 54.0991 4.8651 56.728 6.60082 59.0402C10.4959 64.2136 16.0957 67.1382 22.3464 68.1834C25.1876 68.6585 28.0908 68.7113 30.9527 68.3312C33.3806 68.0039 35.8292 67.4127 38.0609 66.378C43.7227 63.7596 48.4339 59.3464 51.1822 53.624C52.5459 50.7839 53.4241 47.7221 53.8787 44.5969C54.1474 42.707 54.23 40.7855 54.1577 38.8745C54.044 36.235 53.5171 33.5849 52.6699 31.0616C51.8641 28.6649 50.7069 26.49 49.6324 24.22C48.6612 22.1401 47.6487 20.0813 46.6569 18.0119C45.2311 15.024 43.795 12.0572 42.3692 9.0693C41.2017 6.64097 40.0239 4.21263 38.8668 1.77374C38.5878 1.18249 38.2985 0.601805 38.0196 0H50.9135L62.8777 24.9379L84.223 70.3795L84.2436 70.39Z" fill="url(#paint0_linear_527_3278)"/>
<path d="M126.138 68.7222C125.642 68.2366 125.105 67.7192 124.516 67.3497C123.659 66.8112 122.863 66.2833 121.913 65.9138C120.063 65.217 118.08 65.0164 116.137 65.1853C112.118 65.5443 108.409 67.3075 105.144 69.6408C104.979 69.7675 104.824 69.8731 104.648 69.9998C101.848 72.1113 99.3482 74.5608 96.8376 76.968C96.5793 77.2214 96.3107 77.4854 96.0317 77.7282C86.0926 87.3254 74.5624 93.8819 60.8936 95.1172C74.5107 93.9664 86.2786 87.5154 96.3003 78.0872C96.5793 78.4778 96.8996 78.8579 97.2405 79.238C99.2759 81.5185 101.735 83.3767 104.483 84.6542C106.735 85.71 109.101 86.4596 111.571 86.7658C114.939 87.1776 118.39 86.7975 121.603 85.6044C123.617 84.8337 125.487 83.6512 126.913 82.0042C127.636 81.1701 128.205 80.2093 128.566 79.1746C128.752 78.6045 128.887 78.0238 128.949 77.4326C129.238 74.413 128.298 70.8655 126.128 68.7328L126.138 68.7222ZM126.428 78.4672C125.477 80.5155 123.7 81.9725 121.541 82.5004C118.679 83.1972 115.383 82.4898 112.976 80.7583C111.126 79.4069 109.68 77.5909 108.326 75.7327C107.417 74.4763 106.56 73.1883 105.723 71.858C105.465 71.4356 105.196 71.0028 104.969 70.5699C108.099 68.2682 111.498 66.5367 115.393 66.1672C118.41 65.6921 121.582 66.4628 123.969 68.5005C124.01 68.5322 124.041 68.5639 124.093 68.6061C124.258 68.7645 124.434 68.9228 124.599 69.0812C126.975 71.5201 127.884 75.2999 126.417 78.4778L126.428 78.4672Z" fill="url(#paint1_linear_527_3278)"/>
<path d="M104.07 69.1129C103.677 69.3557 103.305 69.7041 102.923 69.9892C102.51 70.3059 102.096 70.6438 101.683 70.9711C100.867 71.6468 100.071 72.3436 99.2862 73.051C98.2117 74.0223 97.1475 74.9937 96.104 76.0072C95.8354 76.2712 95.5461 76.5246 95.2775 76.7674C95.1742 76.6513 95.0915 76.5246 95.0089 76.4084C93.831 74.7825 92.8805 73.0299 91.9713 71.2139C90.7729 68.87 89.6777 66.4523 88.5309 64.0556C86.7538 60.3603 84.9871 56.6756 83.21 52.9803C81.3193 49.0316 79.4286 45.104 77.5379 41.1554C76.0192 38.0196 74.5211 34.8734 73.0126 31.7376C72.3927 30.439 71.7832 29.172 71.1529 27.8945H84.0469C84.3155 27.8945 85.483 30.8824 85.6173 31.1358L89.5537 39.3077C92.4466 45.3258 95.4428 51.3016 98.1807 57.3935C99.1002 59.4312 103.987 68.9967 104.059 69.1023L104.07 69.1129Z" fill="url(#paint2_linear_527_3278)"/>
<defs>
<linearGradient id="paint0_linear_527_3278" x1="48.5649" y1="-20.9172" x2="150.909" y2="14.4683" gradientUnits="userSpaceOnUse">
<stop stop-color="#8B50EA"/>
<stop offset="0.346119" stop-color="#FBAAD4"/>
<stop offset="1" stop-color="#F97E53"/>
</linearGradient>
<linearGradient id="paint1_linear_527_3278" x1="68.431" y1="-23.2105" x2="154.3" y2="9.67101" gradientUnits="userSpaceOnUse">
<stop offset="0.180958" stop-color="#8B50EA"/>
<stop offset="0.51525" stop-color="#FBAAD4"/>
<stop offset="1" stop-color="#F69770"/>
</linearGradient>
<linearGradient id="paint2_linear_527_3278" x1="68.431" y1="-23.2105" x2="154.3" y2="9.67101" gradientUnits="userSpaceOnUse">
<stop offset="0.180958" stop-color="#8B50EA"/>
<stop offset="0.51525" stop-color="#FBAAD4"/>
<stop offset="1" stop-color="#F69770"/>
</linearGradient>
</defs>
</svg>
