<svg width="30" height="30" viewBox="0 0 30 30" fill="none" xmlns="http://www.w3.org/2000/svg">
<path opacity="0.7" fill-rule="evenodd" clip-rule="evenodd" d="M15 0C10.926 0 10.416 0.0179999 8.8155 0.0899999C7.2195 0.1635 6.129 0.417 5.175 0.7875C4.17373 1.16377 3.26663 1.754 2.517 2.517C1.75403 3.26666 1.16381 4.17375 0.7875 5.175C0.417 6.129 0.1635 7.2195 0.0899999 8.8155C0.0164999 10.416 0 10.926 0 15C0 19.074 0.0164999 19.584 0.0899999 21.1845C0.1635 22.7805 0.417 23.871 0.7875 24.825C1.16385 25.8262 1.75407 26.7333 2.517 27.483C3.26669 28.2459 4.17377 28.8361 5.175 29.2125C6.129 29.583 7.2195 29.8365 8.8155 29.91C10.416 29.982 10.926 30 15 30C19.074 30 19.584 29.982 21.1845 29.91C22.7805 29.8365 23.871 29.583 24.825 29.2125C25.8262 28.8362 26.7333 28.246 27.483 27.483C28.246 26.7333 28.8362 25.8262 29.2125 24.825C29.583 23.871 29.8365 22.7805 29.91 21.1845C29.982 19.584 30 19.074 30 15C30 10.926 29.982 10.416 29.91 8.8155C29.8365 7.2195 29.583 6.129 29.2125 5.175C28.8362 4.17375 28.246 3.26666 27.483 2.517C26.7334 1.754 25.8263 1.16377 24.825 0.7875C23.871 0.417 22.7805 0.1635 21.1845 0.0899999C19.584 0.0179999 19.074 0 15 0ZM15 2.703C19.005 2.703 19.479 2.718 21.06 2.79C22.524 2.8575 23.3175 3.1005 23.847 3.306C24.546 3.579 25.047 3.9045 25.572 4.428C26.097 4.953 26.421 5.454 26.694 6.153C26.898 6.6825 27.144 7.476 27.21 8.9385C27.282 10.521 27.297 10.9935 27.297 15C27.297 19.005 27.282 19.479 27.21 21.06C27.1425 22.524 26.898 23.3175 26.694 23.847C26.4535 24.4986 26.0701 25.088 25.572 25.572C25.047 26.097 24.546 26.421 23.847 26.694C23.3175 26.898 22.524 27.144 21.0615 27.21C19.4805 27.282 19.0065 27.297 15 27.297C10.995 27.297 10.5195 27.282 8.94 27.21C7.476 27.1425 6.6825 26.898 6.153 26.694C5.50138 26.4536 4.91193 26.0702 4.428 25.572C3.92979 25.0881 3.54639 24.4986 3.306 23.847C3.1005 23.3175 2.856 22.524 2.79 21.0615C2.718 19.479 2.703 19.0065 2.703 15C2.703 10.995 2.718 10.521 2.79 8.94C2.8575 7.476 3.1005 6.6825 3.306 6.153C3.579 5.454 3.9045 4.953 4.428 4.428C4.953 3.903 5.454 3.579 6.153 3.306C6.6825 3.1005 7.476 2.856 8.9385 2.79C10.521 2.718 10.9935 2.703 15 2.703ZM15 19.9995C13.6741 19.9995 12.4024 19.4728 11.4648 18.5352C10.5272 17.5976 10.0005 16.326 10.0005 15C10.0005 13.6741 10.5272 12.4024 11.4648 11.4648C12.4024 10.5272 13.6741 10.0005 15 10.0005C16.326 10.0005 17.5976 10.5272 18.5352 11.4648C19.4728 12.4024 19.9995 13.6741 19.9995 15C19.9995 16.326 19.4728 17.5976 18.5352 18.5352C17.5976 19.4728 16.326 19.9995 15 19.9995ZM15 7.2975C13.9885 7.2975 12.9869 7.49673 12.0524 7.88382C11.1179 8.2709 10.2688 8.83827 9.55351 9.55351C8.83827 10.2688 8.2709 11.1179 7.88382 12.0524C7.49673 12.9869 7.2975 13.9885 7.2975 15C7.2975 16.0115 7.49673 17.0131 7.88382 17.9476C8.2709 18.8821 8.83827 19.7312 9.55351 20.4465C10.2688 21.1617 11.1179 21.7291 12.0524 22.1162C12.9869 22.5033 13.9885 22.7025 15 22.7025C17.0428 22.7025 19.002 21.891 20.4465 20.4465C21.891 19.002 22.7025 17.0428 22.7025 15C22.7025 12.9572 21.891 10.998 20.4465 9.55351C19.002 8.10901 17.0428 7.2975 15 7.2975ZM24.807 6.993C24.807 7.22938 24.7604 7.46344 24.67 7.68183C24.5795 7.90022 24.4469 8.09865 24.2798 8.26579C24.1126 8.43294 23.9142 8.56553 23.6958 8.65598C23.4774 8.74644 23.2434 8.793 23.007 8.793C22.7706 8.793 22.5366 8.74644 22.3182 8.65598C22.0998 8.56553 21.9014 8.43294 21.7342 8.26579C21.5671 8.09865 21.4345 7.90022 21.344 7.68183C21.2536 7.46344 21.207 7.22938 21.207 6.993C21.207 6.51561 21.3966 6.05777 21.7342 5.72021C22.0718 5.38264 22.5296 5.193 23.007 5.193C23.4844 5.193 23.9422 5.38264 24.2798 5.72021C24.6174 6.05777 24.807 6.51561 24.807 6.993Z" fill="white"/>
</svg>
