<svg width="37" height="26" viewBox="0 0 37 26" fill="none" xmlns="http://www.w3.org/2000/svg">
<path opacity="0.7" d="M18.2989 0.5H18.5012C20.3695 0.506673 29.836 0.573405 32.3884 1.24517C33.16 1.45019 33.8631 1.84981 34.4275 2.4041C34.9919 2.95839 35.3977 3.64793 35.6045 4.40382C35.8341 5.24909 35.9954 6.36796 36.1045 7.52242L36.1273 7.75376L36.1773 8.3321L36.1954 8.56344C36.3432 10.5965 36.3614 12.5006 36.3636 12.9166V13.0834C36.3614 13.5149 36.3409 15.548 36.1773 17.6657L36.1591 17.8992L36.1386 18.1306C36.025 19.4029 35.8568 20.6664 35.6045 21.5962C35.3984 22.3524 34.9927 23.0422 34.4283 23.5966C33.8638 24.151 33.1603 24.5504 32.3884 24.7548C29.7519 25.4488 19.7308 25.4978 18.3421 25.5H18.0193C17.317 25.5 14.4123 25.4867 11.3666 25.3843L10.9802 25.371L10.7825 25.3621L10.3938 25.3465L10.0052 25.3309C7.48229 25.222 5.07986 25.0462 3.97298 24.7526C3.20131 24.5484 2.49803 24.1493 1.93359 23.5953C1.36914 23.0414 0.963348 22.352 0.756866 21.5962C0.504577 20.6686 0.336385 19.4029 0.222741 18.1306L0.204558 17.897L0.186375 17.6657C0.0742037 16.1584 0.0120459 14.648 0 13.1368L0 12.8632C0.00454574 12.385 0.0227287 10.7322 0.145464 8.90822L0.161374 8.67911L0.168192 8.56344L0.186375 8.3321L0.236378 7.75376L0.259107 7.52242C0.368205 6.36796 0.529579 5.24686 0.759138 4.40382C0.965273 3.64763 1.37091 2.95776 1.93538 2.40338C2.49985 1.84899 3.20331 1.44958 3.97525 1.24517C5.08214 0.956002 7.48456 0.778049 10.0074 0.66683L10.3938 0.651259L10.7848 0.637913L10.9802 0.63124L11.3689 0.615669C13.532 0.547546 15.696 0.509727 17.8602 0.502225H18.2989V0.5ZM14.5464 7.64032V18.3575L23.9947 13.0011L14.5464 7.64032Z" fill="white"/>
</svg>
