<svg width="161" height="83" viewBox="0 0 161 83" fill="none" xmlns="http://www.w3.org/2000/svg">
<g opacity="0.7">
<path d="M92.4234 8.46428C92.1815 8.58556 92.1013 8.82331 91.9717 9.01904C91.1177 10.2943 90.2624 11.5683 89.4365 12.8567C89.236 13.1689 89.0102 13.3022 88.6119 13.2758C88.0813 13.241 87.4853 13.3754 87.0336 13.1989C86.5712 13.0176 86.4282 12.4412 86.1529 12.0354C85.458 11.0111 84.7831 9.97605 84.0948 8.94819C83.9759 8.77168 83.897 8.56514 83.5923 8.35981V8.9686C83.5923 11.7544 83.5923 14.5402 83.5923 17.326C83.5923 17.9624 83.587 17.966 82.9134 17.9696C82.1918 17.9732 81.4701 17.9696 80.7484 17.9648C80.6963 17.9648 80.6455 17.9432 80.5921 17.93C80.4491 17.7343 80.5065 17.5121 80.5065 17.3008C80.5025 13.1941 80.5039 9.08748 80.5039 4.97963C80.5039 4.83554 80.5065 4.69145 80.5092 4.54735C80.5132 4.37804 80.5987 4.28678 80.8005 4.28799C81.8964 4.29039 82.9923 4.29279 84.0868 4.28679C84.4409 4.28438 84.5011 4.54975 84.628 4.74428C85.601 6.23444 86.5645 7.7294 87.5307 9.22197C87.6777 9.44891 87.8301 9.67466 87.9838 9.90761C88.2791 9.84877 88.3219 9.60981 88.4328 9.4405C89.4472 7.8891 90.4655 6.33891 91.4491 4.7719C91.6763 4.41047 91.9195 4.25677 92.3886 4.27718C93.2145 4.3132 94.0444 4.28799 94.873 4.28679C95.711 4.28679 95.6268 4.25076 95.6268 5.00725C95.6281 6.44818 95.6268 7.88911 95.6268 9.33004C95.6268 11.9958 95.6268 14.6615 95.6268 17.3272C95.6268 17.9612 95.6214 17.9648 94.9465 17.9684C94.3585 17.972 93.7705 17.972 93.1825 17.9684C92.553 17.9636 92.5463 17.9612 92.545 17.3632C92.541 15.9703 92.545 14.5774 92.545 13.1845C92.545 11.7436 92.5477 10.3027 92.541 8.86173C92.541 8.73085 92.6185 8.57115 92.4234 8.46428Z" fill="white"/>
<path d="M66.7649 31.6885C66.7489 35.7495 63.2421 38.8727 58.6996 38.8703C54.1251 38.8679 50.5996 35.7075 50.6143 31.6225C50.629 27.5134 54.1291 24.4094 58.733 24.4214C63.3303 24.4334 66.781 27.5554 66.7636 31.6885H66.7649ZM63.5776 31.5048C63.6056 31.1157 63.5121 30.6186 63.3517 30.1347C62.7276 28.2519 60.9582 27.0499 58.7812 27.0235C56.544 26.9971 54.7505 28.1498 54.0743 30.0591C53.7776 30.896 53.7255 31.7413 53.9019 32.6131C54.4645 35.3821 57.5276 36.9683 60.453 35.9861C62.3748 35.3413 63.5816 33.6566 63.5776 31.5036V31.5048Z" fill="white"/>
<path d="M50.3661 11.1048C50.3661 9.01429 50.3634 6.92495 50.3674 4.8344C50.3674 4.29765 50.3781 4.29045 50.9862 4.28925C52.8572 4.28685 54.7309 4.23401 56.5992 4.30486C59.9456 4.43214 62.5262 5.73858 63.8532 8.59402C65.7322 12.6334 62.8336 17.1351 57.9797 17.8376C57.3449 17.9288 56.7087 17.9781 56.0646 17.9745C54.354 17.9649 52.6434 17.9745 50.9328 17.9697C50.3808 17.9685 50.3688 17.9589 50.3674 17.4485C50.3634 15.334 50.3661 13.2206 50.3661 11.106V11.1048ZM53.4425 11.118C53.4425 12.4161 53.4492 13.7141 53.4372 15.011C53.4345 15.31 53.5241 15.454 53.8836 15.4372C54.3099 15.418 54.7389 15.4372 55.1665 15.4324C55.967 15.4228 56.7742 15.4925 57.5641 15.3232C59.9843 14.8032 61.3822 12.9432 61.2205 10.8539C61.0428 8.5556 59.2292 6.96097 56.7181 6.8457C55.8107 6.80487 54.9006 6.82649 53.9918 6.83129C53.4546 6.83489 53.4466 6.8457 53.4439 7.36923C53.4385 8.61924 53.4425 9.86804 53.4425 11.118Z" fill="white"/>
<path d="M1.95009 31.6042C1.95009 29.516 1.94742 27.4279 1.95143 25.3397C1.95143 24.7958 1.96212 24.7874 2.57019 24.7862C4.38638 24.7826 6.20257 24.7694 8.01877 24.7934C9.76413 24.8174 11.4159 25.1896 12.8366 26.1346C15.3677 27.8169 16.4369 30.0972 15.8742 32.8746C15.321 35.6015 13.3992 37.3186 10.4898 38.1508C9.7521 38.3621 8.98366 38.4654 8.20319 38.4654C6.33354 38.4654 4.46389 38.4702 2.59425 38.4678C1.96078 38.4678 1.9541 38.4594 1.95276 37.8686C1.95009 35.7805 1.95276 33.6923 1.95276 31.6042H1.95009ZM5.03187 31.6438C5.03187 32.9154 5.04256 34.1882 5.02519 35.4598C5.01984 35.8225 5.12676 35.9834 5.56109 35.9654C6.62622 35.9197 7.69669 36.0266 8.76048 35.8885C11.2689 35.5631 12.9649 33.6899 12.8392 31.3808C12.719 29.1498 10.7745 27.4195 8.27937 27.3438C7.37194 27.3162 6.46318 27.3534 5.55575 27.327C5.12408 27.315 5.01717 27.4627 5.02385 27.8277C5.04524 29.0993 5.03187 30.371 5.03187 31.6438Z" fill="white"/>
<path d="M84.7085 31.5864C84.7085 29.4959 84.7085 27.4053 84.7098 25.3148C84.7098 25.0614 84.6243 24.7684 85.1134 24.7816C87.4361 24.8404 89.7668 24.6495 92.0842 24.9017C95.2502 25.2451 97.8388 27.3333 98.5525 30.0758C99.5414 33.8751 96.8405 37.5735 92.5372 38.3071C91.9853 38.4008 91.432 38.4704 90.8667 38.468C89.0492 38.4632 87.2303 38.4692 85.4128 38.4692C84.6724 38.4692 84.7098 38.5353 84.7098 37.8568C84.7098 35.7663 84.7098 33.6757 84.7098 31.5852L84.7085 31.5864ZM87.7836 31.602C87.7836 32.8976 87.7849 34.1933 87.7823 35.4889C87.7823 35.7423 87.7689 35.974 88.1792 35.9608C89.3245 35.9236 90.4752 36.0365 91.6165 35.8744C93.7373 35.5742 95.6524 33.9988 95.5816 31.4927C95.5161 29.2065 93.6117 27.4557 91.1487 27.3501C90.1892 27.3092 89.2269 27.3513 88.2661 27.3273C87.8678 27.3164 87.7729 27.4533 87.7769 27.7871C87.7943 29.0588 87.7836 30.3304 87.7836 31.602Z" fill="white"/>
<path d="M46.1699 31.1985C46.2942 31.3702 46.5094 31.4291 46.6885 31.5263C49.2825 32.9445 48.9644 36.3162 46.7058 37.5927C45.7289 38.145 44.6531 38.4164 43.5185 38.4452C41.8894 38.486 40.2576 38.468 38.6285 38.4668C38.0699 38.4668 38.0592 38.4548 38.0579 37.9481C38.0539 35.4493 38.0565 32.9517 38.0565 30.4529C38.0565 28.7478 38.0539 27.0415 38.0579 25.3364C38.0592 24.7948 38.0699 24.7756 38.6793 24.7864C40.3873 24.8164 42.1005 24.6879 43.8045 24.8873C44.3925 24.9557 44.9498 25.1118 45.4857 25.3376C48.081 26.4303 48.3015 29.5763 46.4198 30.938C46.3209 31.01 46.2033 31.0713 46.1699 31.1973V31.1985ZM41.1423 34.3013C41.1423 34.8057 41.1437 35.31 41.1423 35.8143C41.1423 35.9992 41.1811 36.1625 41.435 36.1541C42.2596 36.1277 43.0948 36.2622 43.9074 36.0557C44.891 35.8047 45.3921 35.1455 45.336 34.2197C45.2812 33.3071 44.6798 32.6647 43.6722 32.5614C42.9585 32.4882 42.2315 32.5254 41.5112 32.5098C41.2359 32.5038 41.137 32.6239 41.141 32.8616C41.1503 33.3419 41.1437 33.8222 41.1437 34.3025L41.1423 34.3013ZM41.1423 28.7057C41.2132 29.1224 41.01 29.6531 41.2546 30.1563C41.9161 30.2307 42.5776 30.2535 43.2298 30.1118C44.0424 29.9365 44.4593 29.4298 44.4647 28.6493C44.47 27.8712 44.053 27.3777 43.2392 27.1807C42.6618 27.0403 42.0751 27.1171 41.4925 27.0955C41.1985 27.0847 41.1383 27.2408 41.141 27.4605C41.145 27.8436 41.141 28.2254 41.141 28.7057H41.1423Z" fill="white"/>
<path d="M77.6873 32.4474C79.2616 34.4527 80.7851 36.392 82.3006 38.3228C82.1696 38.563 81.9572 38.4633 81.7954 38.4657C80.9936 38.4765 80.1904 38.4429 79.3912 38.4813C78.9235 38.5041 78.6736 38.3396 78.4303 38.001C77.3452 36.488 76.2319 34.9907 75.12 33.4921C74.977 33.3 74.9049 33.0058 74.6068 32.9782C74.1832 32.9398 73.7515 32.9506 73.3266 32.9758C73.1114 32.989 73.1582 33.1859 73.1568 33.3204C73.1528 34.1129 73.1542 34.9054 73.1542 35.6991C73.1542 36.4676 73.1408 37.2373 73.1608 38.0046C73.1689 38.33 73.0873 38.4897 72.6784 38.4765C71.9581 38.4525 71.2351 38.4573 70.5134 38.4753C70.1646 38.4837 70.0296 38.3709 70.051 38.0611C70.0697 37.7981 70.0537 37.5327 70.0537 37.2685C70.0537 33.4009 70.0537 29.5332 70.0537 25.6655C70.0537 25.4974 70.063 25.3293 70.0537 25.1611C70.0363 24.8886 70.1606 24.7733 70.4733 24.7817C72.2882 24.8285 74.107 24.6904 75.9205 24.8826C76.4818 24.9426 77.0204 25.0759 77.5376 25.2764C80.0741 26.2647 80.9562 29.215 79.3257 31.2263C78.9074 31.7414 78.3368 32.0908 77.69 32.4462L77.6873 32.4474ZM73.1542 28.8067C73.1542 29.311 73.1542 29.8141 73.1542 30.3185C73.1542 30.5046 73.1943 30.6559 73.4562 30.6451C74.1471 30.6163 74.8447 30.7243 75.529 30.561C76.4538 30.3401 76.9215 29.7745 76.9269 28.8667C76.9322 27.977 76.4444 27.397 75.5169 27.1832C74.8314 27.0259 74.1351 27.1184 73.4428 27.0992C73.1782 27.092 73.1542 27.2589 73.1542 27.4378C73.1542 27.8941 73.1542 28.3504 73.1542 28.8055V28.8067Z" fill="white"/>
<path d="M128.666 38.4702C127.743 38.4702 126.836 38.4558 125.929 38.4774C125.593 38.4858 125.459 38.3418 125.359 38.0944C124.997 37.1914 124.606 36.298 124.267 35.3878C124.135 35.0324 123.938 34.9027 123.52 34.9075C121.863 34.9268 120.204 34.9256 118.547 34.9075C118.135 34.9027 117.922 35.0204 117.787 35.3746C117.45 36.2596 117.052 37.1266 116.725 38.0139C116.591 38.3802 116.381 38.4882 115.974 38.4774C115.099 38.4534 114.222 38.4702 113.35 38.4702C113.314 38.1833 113.45 37.9959 113.533 37.7978C115.269 33.6683 117.007 29.5401 118.746 25.4106C118.922 24.9943 119.262 24.7858 119.766 24.785C120.648 24.785 121.533 24.8114 122.412 24.7742C122.894 24.7538 123.106 24.9111 123.271 25.3098C124.474 28.2096 125.704 31.1011 126.924 33.995C127.481 35.3182 128.036 36.6439 128.594 37.9671C128.65 38.1016 128.735 38.2277 128.668 38.4702H128.666ZM121.098 27.5984C121.049 27.602 121.001 27.6044 120.951 27.608C120.295 29.2303 119.639 30.8525 118.973 32.4976H123.086C122.405 30.8225 121.752 29.2099 121.098 27.5984Z" fill="white"/>
<path d="M47.679 17.9708C46.6366 17.9708 45.7292 17.9611 44.8217 17.9756C44.5037 17.9804 44.35 17.8771 44.2444 17.6057C43.8836 16.6775 43.4786 15.7625 43.1231 14.8331C42.9989 14.5089 42.8184 14.39 42.4322 14.3948C40.7483 14.4129 39.0631 14.4105 37.3792 14.3948C37.0037 14.3912 36.8072 14.4849 36.6816 14.8235C36.3422 15.7325 35.9439 16.6247 35.5924 17.5301C35.4721 17.8411 35.3118 17.9924 34.9122 17.9792C34.0328 17.9503 33.1508 17.9708 32.2661 17.9708C32.1525 17.7498 32.2794 17.5865 32.3503 17.4184C34.117 13.2229 35.8838 9.02739 37.6545 4.83189C37.883 4.28914 37.8897 4.28913 38.5726 4.28793C39.4547 4.28553 40.3367 4.28553 41.2201 4.28793C42.0273 4.29034 41.8923 4.22189 42.1756 4.89192C43.4866 7.98632 44.783 11.0843 46.0846 14.1823C46.6018 15.4131 47.1217 16.6439 47.6803 17.9708H47.679ZM41.9698 12.0269C41.2842 10.3398 40.62 8.70918 39.893 6.92123C39.162 8.7308 38.5058 10.3602 37.8323 12.0269H41.9698Z" fill="white"/>
<path d="M0.184991 17.9708C0.104806 17.6286 0.274532 17.4209 0.365408 17.2035C2.07736 13.1197 3.79198 9.03708 5.52131 4.95925C5.85675 4.16914 5.67366 4.29642 6.58243 4.28922C7.46446 4.28201 8.3465 4.28441 9.22853 4.28922C9.84863 4.29162 9.8513 4.29522 10.1039 4.89441C11.5018 8.21334 12.8983 11.5323 14.2949 14.8524C14.7185 15.8587 15.1395 16.8649 15.6032 17.9696C14.5408 17.9696 13.5665 17.9672 12.5923 17.9708C12.313 17.9708 12.2515 17.7955 12.1767 17.6082C11.8132 16.7064 11.4243 15.813 11.0808 14.9053C10.9405 14.5354 10.7547 14.3805 10.2856 14.3889C8.65655 14.4201 7.02478 14.4213 5.39569 14.3889C4.89319 14.3781 4.69407 14.551 4.5484 14.9485C4.23968 15.7902 3.8548 16.6104 3.55143 17.4545C3.40175 17.8688 3.16119 18.0009 2.68944 17.9816C1.86353 17.9468 1.03629 17.972 0.183655 17.972L0.184991 17.9708ZM9.90342 12.0342C9.19913 10.3075 8.53894 8.68525 7.82129 6.92371C7.09427 8.72127 6.43275 10.3567 5.75385 12.0342H9.90342Z" fill="white"/>
<path d="M145.601 24.7853C146.619 24.7853 147.581 24.8045 148.542 24.7769C148.967 24.7649 149.222 24.891 149.459 25.208C150.337 26.3835 151.249 27.5399 152.148 28.7022C152.315 28.9172 152.489 29.1273 152.672 29.3555C153.078 28.9964 153.333 28.5714 153.639 28.1823C154.41 27.2025 155.179 26.2202 155.922 25.2224C156.153 24.9114 156.396 24.7625 156.829 24.7757C157.809 24.8057 158.791 24.7853 159.772 24.7853C159.847 25.0903 159.62 25.2272 159.493 25.3929C158.096 27.2109 156.686 29.0192 155.291 30.8372C154.767 31.5193 154.767 31.2851 155.309 31.9924C156.777 33.91 158.259 35.8204 159.735 37.7357C159.884 37.9302 160.026 38.1307 160.164 38.3192C160.042 38.5582 159.828 38.4645 159.663 38.4669C158.914 38.4777 158.163 38.4369 157.419 38.4837C156.845 38.5198 156.497 38.3517 156.177 37.917C155.219 36.6165 154.209 35.3461 153.212 34.0685C153.061 33.8752 152.951 33.647 152.7 33.5017C152.479 33.599 152.388 33.8031 152.259 33.97C151.22 35.3089 150.175 36.6442 149.164 38.001C148.894 38.3625 148.6 38.5006 148.119 38.4825C147.171 38.4477 146.22 38.4717 145.237 38.4717C145.288 38.1451 145.495 37.9794 145.64 37.7897C147.152 35.8108 148.661 33.8295 150.201 31.8687C150.48 31.5132 150.464 31.2779 150.194 30.9321C148.794 29.1465 147.42 27.3442 146.046 25.5418C145.885 25.3317 145.657 25.148 145.599 24.7877L145.601 24.7853Z" fill="white"/>
<path d="M130.619 29.4934C130.619 28.1005 130.615 26.7076 130.621 25.3147C130.623 24.7996 130.633 24.7924 131.186 24.7864C131.854 24.7792 132.522 24.8008 133.189 24.778C133.566 24.7647 133.742 24.868 133.698 25.2222C133.681 25.3651 133.696 25.5104 133.696 25.6545C133.696 28.1041 133.696 30.5537 133.696 33.0033C133.696 33.3395 133.706 33.6733 133.773 34.0071C134.065 35.4853 135.17 36.3006 136.86 36.2706C138.503 36.2405 139.576 35.394 139.794 33.9375C139.843 33.606 139.862 33.2674 139.863 32.9324C139.869 30.4828 139.866 28.0333 139.866 25.5837C139.866 25.4156 139.87 25.2475 139.867 25.0794C139.865 24.8716 139.97 24.7816 140.208 24.7828C141.01 24.79 141.812 24.7864 142.612 24.7852C142.842 24.7852 142.957 24.8764 142.953 25.0866C142.95 25.2066 142.954 25.3267 142.954 25.4468C142.954 28.0164 142.953 30.5861 142.954 33.1558C142.954 33.857 142.857 34.5487 142.631 35.2163C142.036 36.9814 140.771 38.145 138.767 38.6325C137.503 38.9399 136.231 38.9603 134.964 38.6769C132.619 38.1522 131.277 36.7617 130.786 34.6699C130.659 34.1296 130.611 33.5796 130.617 33.0237C130.627 31.8469 130.621 30.6702 130.619 29.4934Z" fill="white"/>
<path d="M31.1039 6.69676C30.3047 7.25512 29.5469 7.78466 28.7999 8.307C28.4952 8.27098 28.4163 8.03322 28.2573 7.88673C26.8541 6.5959 25.1688 6.20805 23.2658 6.70637C21.36 7.20589 20.3136 8.44149 19.918 10.1478C19.7309 10.9595 19.7737 11.7736 20.0423 12.5709C20.5796 14.1704 21.7209 15.2499 23.5397 15.6269C25.3626 16.0052 26.981 15.5945 28.284 14.3373C28.5816 14.0507 28.9099 14.0303 29.269 14.276C29.881 14.6975 30.4891 15.1238 31.0945 15.5453C29.2462 17.93 25.5738 18.9435 22.23 18.0297C18.8783 17.1135 16.6879 14.4406 16.6452 11.2177C16.6024 8.0008 18.7487 5.24262 22.043 4.2784C25.4161 3.29137 29.13 4.26279 31.1025 6.69676H31.1039Z" fill="white"/>
<path d="M19.3049 31.5912C19.3049 29.5246 19.3022 27.4581 19.3049 25.3928C19.3049 24.796 19.3129 24.7876 19.9504 24.7864C22.4896 24.7828 25.0301 24.7828 27.5693 24.7864C28.1827 24.7864 28.1867 24.796 28.1961 25.3375C28.2028 25.7458 28.2028 26.1541 28.1961 26.5623C28.1881 27.0859 28.1841 27.0931 27.5613 27.0943C26.0645 27.0979 24.5677 27.0931 23.0709 27.0967C22.4268 27.0991 22.4214 27.1051 22.4161 27.6935C22.4094 28.3659 22.4121 29.0383 22.4161 29.712C22.4201 30.352 22.4228 30.3544 23.1805 30.3556C24.3833 30.358 25.5874 30.3724 26.7888 30.3472C27.2232 30.3376 27.3408 30.4769 27.3167 30.8419C27.2873 31.273 27.3154 31.7065 27.3087 32.1387C27.3007 32.6527 27.2953 32.6611 26.7447 32.6647C25.5152 32.6707 24.2857 32.6671 23.0562 32.6659C22.3653 32.6659 22.4161 32.6443 22.4174 33.2639C22.4174 34.0804 22.4321 34.8981 22.4107 35.7146C22.4014 36.0569 22.5203 36.1721 22.9106 36.1673C24.4341 36.1493 25.9576 36.1577 27.4811 36.1613C28.1894 36.1625 28.1921 36.1661 28.1988 36.7737C28.2028 37.182 28.1734 37.5926 28.2068 37.9985C28.2402 38.3984 28.0464 38.4788 27.6455 38.4764C25.0528 38.4644 22.4588 38.4728 19.8662 38.468C19.3196 38.468 19.3089 38.4536 19.3076 37.9337C19.3022 35.8191 19.3062 33.7045 19.3062 31.5912H19.3049Z" fill="white"/>
<path d="M115.856 9.94577C115.856 10.5221 115.836 11.1213 115.864 11.7193C115.881 12.0843 115.706 12.1648 115.343 12.16C114.14 12.1468 112.937 12.1552 111.736 12.1552C110.855 12.1552 110.936 12.1396 110.935 12.842C110.935 13.6345 110.95 14.4271 110.928 15.2196C110.919 15.5678 111.063 15.6723 111.442 15.6687C112.912 15.653 114.38 15.6627 115.85 15.6627C116.115 15.6627 116.38 15.6627 116.678 15.6627V17.9381C116.509 17.9501 116.38 17.9681 116.25 17.9681C113.657 17.9693 111.066 17.9717 108.473 17.9681C107.861 17.9681 107.851 17.9585 107.851 17.4206C107.848 13.2179 107.848 9.01397 107.851 4.81126C107.851 4.30213 107.864 4.29012 108.421 4.28892C111.014 4.28412 113.605 4.29733 116.198 4.27692C116.648 4.27331 116.739 4.43061 116.723 4.78124C116.702 5.23633 116.698 5.69503 116.723 6.15012C116.743 6.49234 116.62 6.61362 116.227 6.60522C115.24 6.5836 114.249 6.59801 113.262 6.59801C112.674 6.59801 112.086 6.61482 111.499 6.59201C111.103 6.5764 110.914 6.66405 110.928 7.06271C110.956 7.83001 110.956 8.5997 110.928 9.3682C110.914 9.76926 111.118 9.85091 111.504 9.8461C112.68 9.8341 113.857 9.8377 115.031 9.84491C115.293 9.84611 115.567 9.78607 115.858 9.94577H115.856Z" fill="white"/>
<path d="M67.7168 11.0639C67.7168 9.02139 67.7155 6.97887 67.7168 4.93635C67.7168 4.29514 67.7221 4.28793 68.3863 4.28793C70.8988 4.28553 73.4126 4.28553 75.9251 4.28793C76.5626 4.28793 76.5652 4.29514 76.5706 4.88111C76.5746 5.24135 76.5706 5.60158 76.5706 5.96181C76.5706 6.64985 76.612 6.59582 75.893 6.59702C74.4229 6.59702 72.9529 6.59942 71.4815 6.59702C70.7491 6.59582 70.7879 6.58141 70.7892 7.23223C70.7919 7.9527 70.8066 8.67436 70.7825 9.39483C70.7705 9.74785 70.9255 9.85112 71.2971 9.84752C72.5533 9.83431 73.8095 9.83911 75.0671 9.84391C75.7126 9.84632 75.7153 9.85352 75.7206 10.4371C75.7246 10.8454 75.6979 11.256 75.7286 11.6619C75.7567 12.0353 75.615 12.1698 75.1901 12.1626C74.014 12.1434 72.838 12.1554 71.6619 12.1554C70.6663 12.1554 70.7959 12.1182 70.7906 12.9203C70.7865 13.6648 70.7839 14.4105 70.7906 15.1549C70.7959 15.6509 70.8053 15.6593 71.3786 15.6617C72.9021 15.6665 74.4256 15.6665 75.9505 15.6617C76.604 15.6605 76.5719 15.6557 76.5692 16.2068C76.5666 16.6631 76.5519 17.1206 76.5746 17.5757C76.5906 17.9035 76.4316 17.9756 76.0988 17.9744C73.4794 17.9647 70.8587 17.9611 68.2393 17.978C67.8037 17.9804 67.7034 17.8399 67.7061 17.4784C67.7208 15.3399 67.7128 13.2013 67.7128 11.0627L67.7168 11.0639Z" fill="white"/>
<path d="M102.058 31.6297C102.058 29.5655 102.057 27.5002 102.058 25.4361C102.058 24.7937 102.064 24.7877 102.73 24.7865C105.242 24.7841 107.753 24.7841 110.264 24.7865C110.905 24.7865 110.908 24.7937 110.915 25.3808C110.919 25.7411 110.915 26.1013 110.915 26.4615C110.915 27.1448 110.972 27.0956 110.241 27.0956C108.772 27.0956 107.302 27.0932 105.834 27.0956C105.143 27.0968 105.139 27.1016 105.136 27.7248C105.132 28.3972 105.132 29.0696 105.136 29.7409C105.14 30.3485 105.144 30.3521 105.851 30.3545C107.052 30.3581 108.255 30.3521 109.457 30.3569C110.057 30.3593 110.059 30.3665 110.066 30.9116C110.071 31.2959 110.07 31.6801 110.066 32.0644C110.059 32.6563 110.058 32.6623 109.421 32.6647C108.219 32.6695 107.016 32.6683 105.815 32.6647C105.041 32.6623 105.135 32.6864 105.135 33.3048C105.135 34.0973 105.157 34.8898 105.125 35.6811C105.111 36.0713 105.271 36.1686 105.677 36.165C107.199 36.1482 108.723 36.1566 110.245 36.159C110.904 36.1602 110.908 36.165 110.915 36.733C110.92 37.2133 110.911 37.6936 110.915 38.1739C110.917 38.3852 110.816 38.4789 110.581 38.4693C110.42 38.4621 110.26 38.4693 110.099 38.4693C107.695 38.4693 105.291 38.4705 102.887 38.4693C101.963 38.4693 102.058 38.5461 102.057 37.7512C102.054 35.7111 102.057 33.6698 102.057 31.6297H102.058Z" fill="white"/>
<path d="M103.292 11.1431C103.292 13.2312 103.295 15.3182 103.291 17.4063C103.291 17.9587 103.28 17.9647 102.682 17.9695C101.988 17.9755 101.293 17.9623 100.6 17.9743C100.288 17.9791 100.16 17.8674 100.179 17.5936C100.188 17.4507 100.179 17.3054 100.179 17.1614C100.179 13.1304 100.179 9.09936 100.179 5.06836C100.179 4.92427 100.187 4.78018 100.179 4.63608C100.167 4.39833 100.273 4.28426 100.55 4.28666C101.351 4.29386 102.152 4.29146 102.953 4.28786C103.189 4.28786 103.291 4.38752 103.291 4.59286C103.291 4.76096 103.292 4.92907 103.292 5.09718C103.292 7.11328 103.292 9.12818 103.292 11.1443V11.1431Z" fill="white"/>
<path d="M6.70167 64.0086C7.39661 64.0086 7.95523 64.0002 8.51519 64.011C9.10455 64.0218 9.54022 63.7937 9.85829 63.3602C9.93179 63.2605 10.0146 63.1645 10.0761 63.0588C10.1764 62.8859 10.3407 62.7826 10.5292 62.8655C10.7109 62.9447 10.612 63.1164 10.5586 63.2473C10.2739 63.945 9.98658 64.6414 9.69525 65.3379C9.65916 65.4243 9.61506 65.5168 9.54824 65.584C9.47474 65.6573 9.36114 65.6681 9.25155 65.6345C9.12593 65.596 9.1139 65.5024 9.11791 65.4027C9.12192 65.2826 9.12994 65.1626 9.13128 65.0425C9.13395 64.6846 8.90409 64.5081 8.53657 64.4985C7.94988 64.4841 7.36186 64.5045 6.77384 64.5009C6.55333 64.4997 6.42503 64.5922 6.35554 64.7687C6.0495 65.536 5.72475 66.2973 5.44544 67.0718C5.25433 67.6025 5.39064 67.7826 5.99337 67.8415C7.57702 67.9964 9.0257 67.743 10.2071 66.6887C10.4356 66.4846 10.6521 66.1856 11.1386 66.409C10.731 66.9937 10.3341 67.5557 9.94649 68.1237C9.8182 68.3122 9.64045 68.3578 9.40792 68.3578C7.02909 68.353 4.6516 68.3542 2.27278 68.353C2.14448 68.353 1.97609 68.3782 1.94402 68.2281C1.90794 68.0576 2.05361 67.9748 2.21799 67.9279C2.26877 67.9135 2.32089 67.8967 2.37301 67.8943C3.50496 67.8223 4.03017 67.1642 4.3763 66.2829C4.86409 65.0401 5.40133 63.8129 5.91318 62.5773C5.99604 62.3756 6.06152 62.1666 6.12567 61.9601C6.3836 61.1352 6.33683 61.0571 5.43608 60.7521C5.30244 60.7065 5.0846 60.7245 5.10999 60.512C5.13138 60.333 5.2864 60.291 5.46014 60.291C7.69864 60.291 9.93847 60.291 12.205 60.291C12.2117 60.9142 12.0246 61.4414 11.919 61.9793C11.887 62.145 11.7894 62.2351 11.593 62.2183C11.4179 62.2038 11.3912 62.0886 11.3805 61.9649C11.3724 61.8688 11.3778 61.7716 11.3631 61.6767C11.2589 61.0151 11.0624 60.8362 10.3421 60.8098C9.80884 60.7905 9.27427 60.8098 8.73971 60.811C8.2586 60.8122 7.91915 61.0139 7.75209 61.4161C7.40863 62.2423 7.07854 63.0744 6.70167 64.0074V64.0086Z" fill="white"/>
<path d="M12.8516 68.1881C12.4694 67.3139 12.5082 67.2335 13.6962 66.3665C13.2325 66.1588 12.8235 65.9114 12.6806 65.4419C12.5188 64.9088 12.6017 64.3948 12.8396 63.8965C13.461 62.5961 14.8322 62.0269 16.3771 62.4448C16.6711 62.524 16.9571 62.488 17.2471 62.506C17.6133 62.5288 17.9861 62.4652 18.351 62.5468C18.2797 62.9271 17.8841 63.1624 17.1642 63.2529C17.1669 63.6444 17.2137 64.0466 17.0693 64.4417C16.7099 65.4287 16.0203 66.0915 14.879 66.3437C14.5716 66.4109 14.2508 66.4398 14.0196 66.6823C13.6735 67.0449 13.727 67.3295 14.2335 67.5048C14.6558 67.6501 15.0981 67.7474 15.5285 67.8723C15.9093 67.9828 16.2916 68.0944 16.6283 68.2938C17.2324 68.6528 17.3527 69.1727 16.9558 69.7203C16.7633 69.9844 16.5067 70.197 16.2114 70.3651C14.7079 71.22 13.0801 71.4062 11.3709 71.0423C10.8657 70.9343 10.3966 70.7085 10.3057 70.1826C10.2189 69.6782 10.5276 69.312 10.9392 69.0118C11.4858 68.612 12.15 68.421 12.8529 68.1881H12.8516ZM13.5706 70.4647C13.731 70.4647 13.8913 70.4708 14.0504 70.4647C14.6143 70.4395 15.1703 70.3639 15.6461 70.0673C16.2047 69.7191 16.1726 69.3636 15.5539 69.1331C15.0139 68.9326 14.45 68.7837 13.9007 68.6035C13.1603 68.3622 12.2422 68.6732 11.8774 69.294C11.6101 69.7479 11.7718 70.1261 12.3117 70.3315C12.718 70.4864 13.1456 70.466 13.5719 70.4636L13.5706 70.4647ZM15.9775 63.4786C15.9387 63.2997 16.0069 62.9719 15.6367 62.8302C15.2705 62.6897 14.9632 62.8374 14.6905 63.0572C14.6504 63.0884 14.6157 63.1256 14.5823 63.164C14.0223 63.8233 13.8018 64.5822 13.8526 65.3927C13.8847 65.9066 14.315 66.0867 14.8215 65.8502C15.1168 65.7121 15.3093 65.4839 15.4697 65.2294C15.7931 64.7166 15.9174 64.1559 15.9762 63.4786H15.9775Z" fill="white"/>
<path d="M6.69972 77.4271C7.11534 77.4271 7.38263 77.4091 7.6459 77.4307C8.47181 77.4967 9.11329 77.2578 9.50753 76.5721C9.55564 76.4869 9.61311 76.4004 9.68929 76.3356C9.79085 76.2491 9.93652 76.2227 10.0555 76.2852C10.1544 76.338 10.1437 76.4509 10.1049 76.5457C9.79353 77.3106 9.47813 78.0755 9.16808 78.8404C9.10393 78.9989 8.98232 79.0794 8.80591 79.0601C8.58941 79.0361 8.61614 78.8848 8.60812 78.7347C8.5707 77.9806 8.49854 77.9206 7.68733 77.893C6.89884 77.8666 6.37408 78.1796 6.11303 78.832C5.9246 79.3051 5.7228 79.777 5.56777 80.2597C5.38335 80.8373 5.521 81.033 6.17317 81.2059C6.37764 81.26 6.59147 81.2804 6.79728 81.3296C6.92023 81.3596 7.07258 81.3944 7.03382 81.5566C7.00309 81.6898 6.88682 81.7487 6.73848 81.7487C6.28409 81.7499 5.82971 81.7511 5.37533 81.7511C4.33292 81.7511 3.29185 81.7511 2.24945 81.7487C2.1265 81.7487 1.96212 81.7763 1.94474 81.6082C1.93004 81.4737 2.03428 81.38 2.1706 81.3452C2.37507 81.2924 2.58489 81.2588 2.79337 81.2167C3.41213 81.0931 3.85716 80.7713 4.09638 80.2477C4.84343 78.6063 5.56243 76.954 6.15312 75.2609C6.39101 74.5813 6.27607 74.43 5.53971 74.1982C5.48892 74.1826 5.4368 74.173 5.38736 74.155C5.2457 74.1058 5.05058 74.0949 5.11606 73.8836C5.15883 73.7479 5.28445 73.7107 5.42611 73.7083C5.58648 73.7059 5.74685 73.7059 5.90722 73.7059C7.59111 73.7059 9.27366 73.7047 10.9575 73.7071C11.1954 73.7071 11.4387 73.6687 11.7113 73.7731C11.7126 74.3363 11.5108 74.8839 11.4066 75.4434C11.3812 75.5827 11.2676 75.6343 11.1166 75.6319C10.9428 75.6283 10.9148 75.5227 10.884 75.3966C10.6827 74.5985 10.1285 74.2034 9.22154 74.2114C9.03444 74.2126 8.84734 74.2198 8.66158 74.2294C8.24729 74.2511 7.9466 74.436 7.79959 74.7794C7.43742 75.6247 7.09263 76.4761 6.70105 77.4235L6.69972 77.4271Z" fill="white"/>
<path d="M41.6502 80.8082C42.1687 80.6689 42.4119 80.1802 42.9278 79.898C42.7153 80.9571 41.4377 81.9777 40.418 81.9946C39.8353 82.0042 39.5426 81.6223 39.8086 81.124C40.2362 80.3243 40.712 79.545 41.1637 78.7561C41.4203 78.3082 41.6729 77.8591 41.9228 77.4076C41.9936 77.2803 42.0818 77.1302 41.9509 77.0113C41.8292 76.9009 41.6368 76.9165 41.4951 76.9801C40.5784 77.3884 39.6963 77.8327 39.3048 78.7657C38.956 79.5966 38.5978 80.4227 38.2423 81.2513C38.1755 81.4074 38.1207 81.5731 38.0231 81.7136C37.824 82.0006 37.4645 82.0786 37.1117 81.9345C36.7816 81.8 36.684 81.5839 36.8097 81.2165C36.8645 81.0568 36.9553 80.9067 37.0315 80.7542C37.4231 79.9652 37.8173 79.1775 38.2089 78.3886C38.3385 78.1257 38.4748 77.8627 38.5056 77.5709C38.5256 77.3824 38.5737 77.1662 38.3425 77.0534C38.1033 76.9357 37.9443 77.1098 37.7973 77.2371C37.6636 77.3524 37.5621 77.4977 37.4364 77.6213C37.3603 77.6958 37.2627 77.7282 37.101 77.6057C37.375 77.0378 37.6877 76.4686 38.2089 76.0219C38.8691 75.4551 39.5266 75.6485 39.7097 76.4614C39.7832 76.788 39.7819 77.1278 39.8179 77.4989C40.132 77.428 40.2496 77.1662 40.4327 76.9873C40.8136 76.6163 41.1757 76.2272 41.6515 75.9499C42.1714 75.6461 42.7166 75.6136 43.0761 75.873C43.4891 76.172 43.465 76.5743 43.3768 76.9945C43.306 77.332 43.1336 77.6285 42.9706 77.9299C42.4828 78.8365 41.9883 79.7407 41.4978 80.6461C41.4444 80.6977 41.3922 80.7614 41.451 80.825C41.5125 80.8898 41.5874 80.8442 41.6528 80.8094L41.6502 80.8082Z" fill="white"/>
<path d="M18.0553 49.9859C18.4989 49.9463 18.6593 49.6846 18.8905 49.5008C19.2554 49.209 19.6402 48.9569 20.1387 48.8992C20.7441 48.8284 21.0996 49.0637 21.2279 49.6041C21.3482 50.1096 21.3121 50.6163 21.141 51.0967C20.5757 52.6841 19.512 53.9377 17.9296 54.8179C17.3403 55.1457 16.7135 55.297 16.0306 55.0244C15.2341 54.7062 15.0082 54.2703 15.3156 53.5366C16.0025 51.9024 16.7001 50.2729 17.3937 48.6411C17.4793 48.4405 17.5554 48.2352 17.649 48.0371C17.8548 47.5976 17.8962 47.2014 17.355 46.9204C17.2427 46.8615 17.1305 46.7691 17.1799 46.6298C17.2307 46.4833 17.3884 46.5109 17.5127 46.4977C18.1408 46.4305 18.7702 46.3668 19.5547 46.2852C19.0242 47.5964 18.5404 48.7912 18.0553 49.9859ZM20.0291 50.8685C20.0318 50.1793 19.6296 49.9199 19.0375 50.2105C18.2383 50.6031 17.5127 51.0895 17.1973 51.9228C17.0262 52.3755 16.8217 52.8174 16.6427 53.2689C16.4181 53.8368 16.7081 54.1983 17.3723 54.1971C17.7091 54.1971 17.9965 54.0758 18.249 53.8909C19.3409 53.0851 19.8327 51.9996 20.0278 50.8685H20.0291ZM18.1461 50.2093C18.1274 50.1937 18.106 50.1625 18.0927 50.1649C18.0553 50.1721 18.0218 50.1937 17.9858 50.2093C18.0031 50.2249 18.0245 50.2573 18.0379 50.2549C18.0753 50.2477 18.1087 50.2261 18.1461 50.2093Z" fill="white"/>
<path d="M10.5222 52.5216C10.0451 53.2877 9.6014 53.995 9.16439 54.7058C9.06282 54.8703 8.92651 54.9412 8.71401 54.94C6.4969 54.9316 4.27978 54.9304 2.064 54.922C2.0239 54.922 1.98381 54.8679 1.94238 54.8391C1.95575 54.5353 2.23506 54.5125 2.4569 54.4909C3.43249 54.396 3.9724 53.8665 4.29047 53.0848C4.87582 51.6439 5.46785 50.2065 6.05454 48.7668C6.09998 48.6551 6.12537 48.5363 6.15878 48.4198C6.36058 47.7245 6.27906 47.5792 5.55071 47.3451C5.45048 47.3127 5.34624 47.2911 5.24334 47.2646C5.15781 47.243 5.10569 47.189 5.10435 47.1145C5.10168 47.0137 5.14845 46.9152 5.25269 46.8792C5.34758 46.8468 5.45984 46.8468 5.56541 46.8456C6.84704 46.8432 8.13 46.842 9.41162 46.8468C9.55462 46.8468 9.76177 46.7879 9.78582 47.0017C9.80453 47.1734 9.66955 47.255 9.49181 47.2815C9.46508 47.2851 9.43969 47.2935 9.41296 47.2959C8.19548 47.3967 7.63686 48.1208 7.27336 49.0718C6.75349 50.4311 6.17081 51.7711 5.65495 53.1316C5.21928 54.2772 5.52131 54.587 6.86575 54.4333C7.60612 54.3492 8.23157 54.0334 8.77148 53.5843C9.10425 53.3069 9.42098 53.0139 9.73103 52.7162C9.92214 52.5312 10.1092 52.3811 10.5222 52.5204V52.5216Z" fill="white"/>
<path d="M20.9435 79.9761C20.6054 80.6558 20.298 81.2297 19.7728 81.6788C19.1206 82.236 18.4885 82.0487 18.2305 81.2562C18.1303 80.9476 18.1851 80.6366 18.1343 80.3003C17.855 80.3412 17.7882 80.5729 17.6532 80.7242C17.3178 81.0989 17.0024 81.4879 16.564 81.7713C16.2192 81.9946 15.8491 82.0883 15.4401 81.8998C15.0231 81.7076 14.9136 81.375 14.943 80.9944C14.963 80.7326 14.9937 80.4648 15.0793 80.2163C15.7502 78.2434 17.0866 76.8049 19.2796 76.0868C19.8596 75.8971 20.5599 75.992 20.9876 75.4492C21.0744 75.3387 21.2976 75.3532 21.4273 75.4528C21.5956 75.5825 21.4366 75.7158 21.3805 75.8359C20.8339 76.9802 20.2819 78.1221 19.7327 79.2653C19.595 79.5511 19.4494 79.8356 19.4347 80.1538C19.4253 80.3448 19.3866 80.5657 19.6298 80.657C19.8262 80.7314 19.9692 80.5753 20.1216 80.4817C20.3555 80.3376 20.4249 80.0158 20.9461 79.9773L20.9435 79.9761ZM19.0311 76.8409C18.6916 76.8217 18.4029 76.949 18.145 77.1231C17.1962 77.7655 16.5707 78.6121 16.2633 79.6387C16.1952 79.8645 16.1965 80.1166 16.2192 80.352C16.258 80.735 16.5079 80.8695 16.8808 80.6678C17.5931 80.2799 18.2372 79.8008 18.5847 79.0984C18.876 78.5088 19.1006 77.8928 19.3411 77.284C19.4841 76.9202 19.424 76.8469 19.0311 76.8397V76.8409Z" fill="white"/>
<path d="M20.8766 66.738C20.5184 67.1498 20.2845 67.4284 20.0373 67.6974C19.766 67.994 19.4894 68.2906 19.1005 68.4707C18.3989 68.7961 17.7159 68.4659 17.6652 67.7622C17.6478 67.5257 17.6678 67.2783 17.7306 67.049C18.2438 65.1698 19.4747 63.7925 21.3764 62.8943C21.7573 62.7142 22.1716 62.5953 22.5952 62.5629C22.9601 62.5353 23.2688 62.4692 23.5013 62.1978C23.5641 62.1246 23.6577 62.0633 23.7512 62.0237C23.8755 61.9709 24.0158 61.9769 24.1321 62.0489C24.2885 62.1462 24.1842 62.2579 24.1334 62.3623C23.7739 63.1104 23.4144 63.8573 23.0549 64.6054C22.8117 65.1109 22.5671 65.6164 22.3279 66.1244C22.213 66.3693 22.1328 66.6215 22.1475 66.8917C22.1555 67.0358 22.1529 67.1919 22.3346 67.2555C22.507 67.3155 22.634 67.2135 22.7689 67.1342C23.0309 66.9817 23.1271 66.6515 23.5187 66.5675C23.6229 66.9001 23.3757 67.1138 23.2434 67.3432C23.0215 67.7262 22.7636 68.096 22.3774 68.3686C21.8 68.7757 21.2494 68.6316 21.0022 68.0048C20.9327 67.8271 20.902 67.6325 20.8806 67.444C20.8605 67.2663 20.8766 67.085 20.8766 66.7392V66.738ZM18.904 66.6071C18.9468 66.9205 18.8693 67.163 19.1179 67.3023C19.4065 67.4644 19.635 67.2867 19.8368 67.145C20.4235 66.7308 21.0289 66.3201 21.3189 65.6693C21.5755 65.0917 21.8067 64.5033 22.0393 63.9173C22.1956 63.5247 22.0834 63.3986 21.6223 63.4454C21.4659 63.4611 21.2962 63.4935 21.1666 63.5667C19.8622 64.292 19.1299 65.3535 18.904 66.6083V66.6071Z" fill="white"/>
<path d="M36.1308 60.9478C35.9544 61.4341 35.7754 61.924 35.5802 62.4596C36.1402 62.6073 36.6801 62.4307 37.1799 62.5772C37.0739 62.9999 36.812 63.2141 36.3941 63.2197C35.6297 63.2301 35.1201 63.5575 34.8653 64.2019C34.4496 65.2538 34.0367 66.3056 33.5876 67.4476C34.173 67.3695 34.5472 67.1138 34.9454 66.894C35.3397 66.6779 35.5495 66.2432 36.0614 66.1183C35.7433 67.3623 34.0835 68.5967 32.7791 68.5967C32.2339 68.5967 31.9893 68.3458 32.0989 67.8643C32.1457 67.6553 32.2472 67.4548 32.3287 67.2531C32.8553 65.9502 33.3845 64.6486 33.9097 63.3529C33.6772 63.144 33.4273 63.2389 33.2041 63.2233C33.0076 63.2088 32.8205 63.2064 32.8005 62.9759C32.7818 62.7634 32.9101 62.6457 33.1319 62.6673C34.2679 62.7742 34.6755 62.0141 35.1446 61.3212C35.3571 61.0066 35.5749 60.6956 36.1322 60.9478H36.1308Z" fill="white"/>
<path d="M25.7093 74.3241C25.5222 74.8368 25.3405 75.3292 25.132 75.8995H26.6862C26.6551 76.3614 26.4328 76.5964 26.0194 76.6044C25.2175 76.6212 24.6861 76.9582 24.425 77.6154C24.0762 78.4956 23.7287 79.377 23.3786 80.2571C23.3171 80.4132 23.2289 80.5621 23.2757 80.8023C24.2633 80.6918 24.8299 79.9473 25.6612 79.4334C25.2736 80.7687 23.7301 81.9334 22.411 81.9946C21.7949 82.0235 21.5196 81.7269 21.6867 81.1769C21.7843 80.8539 21.9379 80.5465 22.0649 80.2307C22.5193 79.1044 22.975 77.9793 23.4267 76.8517C23.4441 76.8097 23.4294 76.7569 23.4294 76.6944C23.2049 76.5275 22.9282 76.6308 22.6743 76.6056C22.4952 76.5876 22.3683 76.5359 22.3629 76.3522C22.3576 76.1781 22.4551 76.088 22.6436 76.0688C22.697 76.064 22.7505 76.0496 22.8026 76.052C23.6646 76.0856 24.1537 75.6366 24.5079 75.0013C24.6028 74.8308 24.7484 74.6843 24.8553 74.5186C25.0558 74.2088 25.3284 74.1824 25.708 74.3241H25.7093Z" fill="white"/>
<path d="M35.8691 47.5603C35.6873 48.0514 35.5055 48.5438 35.2984 49.1033H36.842C36.838 49.8106 36.838 49.8034 36.2072 49.8274C35.8116 49.8418 35.3225 49.6773 35.0445 49.9078C34.7799 50.1264 34.7104 50.5443 34.5754 50.8805C34.2132 51.7811 33.8618 52.6852 33.5076 53.5882C33.4568 53.7167 33.3419 53.8368 33.4501 54.0445C33.9152 53.9641 34.2934 53.7143 34.6917 53.4934C35.0792 53.2796 35.2891 52.8485 35.8022 52.7189C35.4842 53.9496 33.8885 55.1504 32.5788 55.1913C31.9173 55.2117 31.6674 54.9139 31.8945 54.3183C32.25 53.3901 32.6389 52.4727 33.0091 51.5493C33.2256 51.0114 33.4354 50.471 33.6613 49.9006C33.3806 49.7782 33.116 49.8298 32.8634 49.8262C32.6683 49.8226 32.5601 49.7589 32.5587 49.5812C32.5574 49.4335 32.5654 49.251 32.7859 49.275C33.9981 49.4059 34.4311 48.593 34.9255 47.8617C35.142 47.5411 35.3813 47.3358 35.8704 47.5591L35.8691 47.5603Z" fill="white"/>
<path d="M49.8314 80.7894C50.696 80.5925 51.256 79.9561 52.0391 79.4097C51.681 80.751 50.1013 81.941 48.7849 81.9938C48.1475 82.019 47.8789 81.6948 48.106 81.11C48.5898 79.866 49.1003 78.6316 49.5975 77.3912C49.687 77.1679 49.8167 76.9542 49.822 76.702C49.5921 76.5279 49.3155 76.6288 49.0616 76.6023C48.8758 76.5831 48.7662 76.5255 48.7636 76.3442C48.7622 76.1725 48.8397 76.074 49.0389 76.0668C49.0923 76.0644 49.1444 76.0476 49.1979 76.05C50.0198 76.0776 50.5169 75.6825 50.8564 75.0509C50.9834 74.8156 51.1731 74.6078 51.3428 74.3917C51.4912 74.202 51.7291 74.1996 51.9215 74.268C52.1848 74.3605 52.0071 74.5574 51.9629 74.6979C51.844 75.0821 51.6128 75.4376 51.5593 75.9119H53.0829C53.0392 76.3618 52.8254 76.5923 52.4414 76.6035C51.1945 76.6396 51.1905 76.6384 50.7655 77.7191C50.3846 78.6893 50.0144 79.6631 49.6389 80.6345C49.5454 80.8447 49.6336 80.8711 49.8314 80.787V80.7894Z" fill="white"/>
<path d="M36.5628 53.5017C36.6844 51.9299 37.3566 50.585 38.6315 49.4947C38.9843 49.1921 39.3986 48.9736 39.8838 48.8871C40.4611 48.7839 41.0905 49.018 41.3498 49.4227C41.581 49.7841 41.5369 50.6571 41.2683 50.9441C41.1413 51.0797 40.9542 51.1134 40.7765 51.1662C39.8904 51.428 39.0084 51.6993 38.121 51.9563C37.8751 52.0272 37.7214 52.1148 37.6626 52.3754C37.5116 53.0382 37.6559 53.695 38.0769 53.8799C38.7264 54.1645 39.1915 53.8043 39.6592 53.4777C39.8904 53.3168 40.0294 53.0622 40.3087 52.9553C40.3702 52.9313 40.4664 52.9385 40.5279 52.965C40.6068 52.9998 40.6108 53.0814 40.5653 53.1499C40.1043 53.8595 39.6031 54.5428 38.7705 54.9462C37.6386 55.4962 36.6483 55.0027 36.5628 53.8607C36.5534 53.7419 36.5628 53.6206 36.5628 53.5005V53.5017ZM37.974 51.3379C38.677 51.1674 39.2329 51.0149 39.7982 50.9008C40.1056 50.8396 40.1724 50.6775 40.1644 50.4397C40.147 49.8646 39.5871 49.5944 39.0405 49.921C38.5326 50.2248 38.2613 50.6919 37.974 51.3379Z" fill="white"/>
<path d="M25.6194 52.9156C25.0715 53.8294 24.5195 54.5787 23.58 54.999C22.5136 55.4757 21.534 54.9666 21.4926 53.8943C21.4217 52.0511 22.2343 50.5321 23.7738 49.3373C24.2696 48.9519 24.8643 48.7297 25.5553 48.9399C26.1219 49.1128 26.4279 49.473 26.444 50.011C26.464 50.6882 26.2408 50.9956 25.5793 51.1949C24.7454 51.4459 23.9168 51.7113 23.0735 51.9382C22.7394 52.0283 22.5964 52.1856 22.563 52.4834C22.5056 52.9925 22.4307 53.5124 22.9613 53.8642C23.3582 54.1272 23.9302 53.9651 24.5529 53.5052C24.8282 53.3023 24.9819 52.9397 25.6194 52.9156ZM22.9452 51.2766C23.6268 51.2117 24.2215 51.0076 24.8336 50.8683C25.0354 50.8227 25.0661 50.6894 25.0768 50.5453C25.0955 50.2727 25.0594 50.0134 24.7507 49.8669C24.4607 49.7288 24.1774 49.7648 23.9262 49.9401C23.4517 50.2727 23.1524 50.7146 22.9466 51.2754L22.9452 51.2766Z" fill="white"/>
<path d="M56.8809 79.783C56.3584 80.6463 55.7931 81.3872 54.8589 81.8159C53.8286 82.2902 52.849 81.8171 52.7942 80.782C52.6939 78.856 53.5319 77.2758 55.1971 76.069C55.6661 75.7292 56.2248 75.561 56.8475 75.752C57.4142 75.9249 57.7216 76.2863 57.7389 76.8231C57.7603 77.4907 57.5304 77.8101 56.8729 78.0082C56.0644 78.252 55.2585 78.5077 54.442 78.7275C54.0584 78.8295 53.858 79.0157 53.8473 79.3699C53.8419 79.5608 53.8085 79.7553 53.8326 79.9427C53.9355 80.7256 54.5302 81.0054 55.3187 80.6439C55.6301 80.501 55.8867 80.2897 56.1326 80.0651C56.2943 79.9175 56.4185 79.7037 56.8783 79.7842L56.8809 79.783ZM54.2148 78.1427C54.903 77.977 55.5098 77.8245 56.1192 77.6864C56.3183 77.6408 56.3557 77.5123 56.3704 77.3682C56.3972 77.0968 56.3584 76.8435 56.0724 76.6766C55.7543 76.4904 55.459 76.5601 55.1904 76.7534C54.7226 77.0908 54.4286 77.5315 54.2161 78.1427H54.2148Z" fill="white"/>
<path d="M40.8761 66.3823C40.5073 67.0967 40.0288 67.6887 39.3713 68.1594C39.1187 68.3407 38.8314 68.468 38.5187 68.54C37.805 68.7034 37.1622 68.3996 36.9324 67.7715C36.78 67.3573 36.7773 66.931 36.8455 66.4939C37.0419 65.2463 37.6099 64.1584 38.5254 63.217C38.9517 62.7775 39.4582 62.4245 40.1077 62.29C40.685 62.1711 41.3038 62.3909 41.5871 62.7919C41.8277 63.1342 41.8143 63.9999 41.559 64.3145C41.4241 64.4826 41.2049 64.5115 41.0044 64.5715C40.1705 64.8164 39.3433 65.089 38.4973 65.298C38.0175 65.4156 37.8505 65.657 37.8745 66.0664C37.8825 66.2093 37.8638 66.3546 37.8745 66.4975C37.932 67.2588 38.4732 67.5662 39.247 67.2708C39.6212 67.1279 39.9072 66.8734 40.1919 66.62C40.3509 66.4771 40.4699 66.2454 40.8761 66.3835V66.3823ZM38.2755 64.7156C38.925 64.5595 39.5103 64.4094 40.101 64.2809C40.371 64.2221 40.4258 64.0684 40.4244 63.8582C40.4231 63.5977 40.3148 63.3923 40.0596 63.259C39.7976 63.121 39.5357 63.1546 39.3072 63.3071C38.8033 63.6445 38.4679 64.0888 38.2755 64.7168V64.7156Z" fill="white"/>
<path d="M30.5046 79.7804C29.9821 80.6149 29.4488 81.345 28.5494 81.7809C27.5017 82.2888 26.6397 81.8997 26.4071 80.8551C26.3149 80.442 26.3844 80.0409 26.4659 79.6399C26.7038 78.4523 27.2852 77.4137 28.2006 76.5335C28.5868 76.1612 29.0332 75.8574 29.5985 75.729C30.1879 75.5933 30.804 75.7626 31.1167 76.1444C31.3973 76.4867 31.408 77.3872 31.13 77.7319C30.9951 77.9 30.7746 77.93 30.5741 77.99C29.7121 78.2446 28.8568 78.5184 27.9895 78.7513C27.6166 78.851 27.4616 79.0383 27.4696 79.3697C27.4749 79.6099 27.4429 79.8536 27.4816 80.0878C27.5765 80.6593 28.0202 80.8971 28.6416 80.7458C29.0733 80.6413 29.382 80.3784 29.6974 80.1178C29.8845 79.9641 30.0034 79.7023 30.5059 79.7828L30.5046 79.7804ZM27.8812 78.0741C28.0095 78.0741 28.091 78.0885 28.1632 78.0717C28.651 77.9552 29.1308 77.8111 29.6226 77.7174C29.974 77.6502 30.0302 77.4581 30.0061 77.1975C29.958 76.6656 29.4221 76.405 28.9183 76.6908C28.3623 77.0066 28.063 77.4905 27.8812 78.0741Z" fill="white"/>
<path d="M25.666 67.4461C26.369 67.3561 26.6897 66.8109 27.2016 66.5612C27.4261 66.7113 27.2898 66.8433 27.223 66.9538C26.7753 67.6911 26.1792 68.2807 25.2424 68.5244C24.9163 68.6085 24.6022 68.6337 24.3577 68.3815C24.1345 68.151 24.2133 67.8976 24.3216 67.6394C25.1087 65.759 25.8892 63.8762 26.671 61.9934C26.7459 61.8145 26.8167 61.6344 26.8969 61.4567C27.104 60.9944 27.1521 60.5705 26.5695 60.2835C26.4759 60.2379 26.4144 60.1538 26.4238 59.9977C27.076 59.76 27.799 59.8104 28.4926 59.7131C28.6957 59.6843 28.7625 59.8296 28.697 59.9989C28.6356 60.1574 28.5634 60.3111 28.4979 60.4684C27.5998 62.6178 26.7031 64.7684 25.8037 66.9178C25.7395 67.0703 25.6433 67.2132 25.6674 67.4473L25.666 67.4461Z" fill="white"/>
<path d="M11.001 77.7078C11.2616 77.0318 11.593 76.519 12.0474 76.0783C12.324 75.8106 12.6461 75.5692 13.0978 75.7325C13.5295 75.8886 13.6351 76.2417 13.6645 76.6139C13.6832 76.8444 13.6685 77.0762 13.6685 77.434C14.0574 77.1218 14.1135 76.7772 14.3073 76.5118C14.5118 76.2309 14.6788 75.9271 15.0423 75.7746C15.637 75.5236 16.0994 75.7673 16.1622 76.3713C16.2157 76.8781 16.0473 77.1651 15.6317 77.117C14.3019 76.9633 13.7928 77.8171 13.3437 78.6468C12.8894 79.4837 12.5873 80.3855 12.2118 81.2585C12.1356 81.4362 12.0621 81.6235 11.9405 81.776C11.7186 82.0546 11.3992 82.0522 11.0772 81.9369C10.7391 81.8156 10.6789 81.5647 10.7618 81.2825C10.8152 81.0988 10.9115 80.9247 10.997 80.7494C11.4166 79.8944 11.8429 79.0419 12.2586 78.1845C12.3975 77.8987 12.5339 77.6057 12.4844 77.2839C12.443 77.0138 12.2452 76.9537 11.9646 77.0714C11.6304 77.2119 11.5409 77.6225 11.001 77.7102V77.7078Z" fill="white"/>
<path d="M31.7644 77.7127C32.0785 77.0403 32.3912 76.4988 32.8723 76.0497C33.1356 75.8035 33.4416 75.5934 33.8599 75.7147C34.2769 75.8359 34.3892 76.1685 34.4533 76.5048C34.5054 76.7725 34.5054 77.0487 34.5415 77.4714C34.8182 77.0091 35.0052 76.6753 35.2137 76.3523C35.3888 76.0797 35.6013 75.8359 35.9568 75.7291C36.478 75.5718 36.8615 75.7747 36.9337 76.2646C36.9551 76.4063 36.9364 76.5516 36.9377 76.6957C36.9391 76.9875 36.7974 77.1724 36.4553 77.1088C35.5839 76.9466 35.0801 77.3909 34.6043 77.9409C34.3718 78.2099 34.1847 78.4884 34.0537 78.8054C33.721 79.6136 33.3828 80.4193 33.0421 81.225C32.9659 81.4027 32.8924 81.5888 32.7708 81.7425C32.5543 82.0175 32.2442 82.0319 31.9128 81.9178C31.5707 81.8002 31.4998 81.5624 31.584 81.2766C31.6375 81.0929 31.7203 80.9152 31.8072 80.7399C32.1867 79.975 32.5703 79.2113 32.9552 78.4476C33.0875 78.1858 33.2131 77.9229 33.2692 77.6371C33.312 77.421 33.3748 77.1844 33.1383 77.0475C32.8763 76.8962 32.7053 77.1196 32.5208 77.2468C32.3217 77.3849 32.2415 77.6611 31.7644 77.7103V77.7127Z" fill="white"/>
<path d="M26.9229 50.8034C27.2369 50.1826 27.5537 49.5618 28.1604 49.1151C28.7511 48.6804 29.3765 48.8942 29.5316 49.5738C29.5944 49.8488 29.5904 50.137 29.6211 50.4732C29.9325 50.3807 29.9525 50.149 30.0581 49.9833C30.2559 49.6711 30.4176 49.3349 30.737 49.1007C31.0898 48.8425 31.583 48.8209 31.8409 49.0419C32.1002 49.2628 32.1643 49.9401 31.9612 50.1994C31.8449 50.3471 31.6738 50.3267 31.5295 50.3075C30.1958 50.1286 29.6933 51.0159 29.2469 51.8397C28.7698 52.7198 28.4544 53.6709 28.0655 54.5895C27.9279 54.9161 27.7621 55.2115 27.2824 55.1838C26.7972 55.1562 26.5473 54.8812 26.6676 54.4586C26.7197 54.2748 26.828 54.1043 26.9148 53.929C27.3278 53.0969 27.7461 52.2671 28.1524 51.4326C28.2914 51.148 28.4277 50.855 28.3943 50.532C28.3622 50.215 28.1377 50.1154 27.849 50.3003C27.6779 50.4096 27.5403 50.5621 27.3933 50.7013C27.285 50.8034 27.1995 50.9403 26.9242 50.8058L26.9229 50.8034Z" fill="white"/>
<path d="M13.0101 50.0424C12.3499 50.1144 12.1495 50.71 11.6416 50.8913C11.4305 50.7352 11.5775 50.614 11.647 50.5035C12.1254 49.7494 12.7763 49.1778 13.7398 48.9485C14.0325 48.8788 14.3372 48.8212 14.5483 49.071C14.7261 49.2811 14.6619 49.5261 14.5577 49.7566C14.0124 50.9514 13.4605 52.1437 12.9273 53.3421C12.8337 53.5535 12.66 53.7516 12.7001 54.0542C13.3496 53.9521 13.6516 53.4154 14.1942 53.0611C14.0031 54.1034 12.8431 55.1085 11.8795 55.1757C11.3449 55.2129 11.0937 54.9343 11.2714 54.4408C11.4599 53.9185 11.7018 53.4118 11.9196 52.8978C12.243 52.1389 12.5664 51.3789 12.8885 50.62C12.962 50.4483 13.0916 50.2861 13.0075 50.0436L13.0101 50.0424Z" fill="white"/>
<path d="M29.7839 63.4775C29.2614 63.594 29.0837 64.1656 28.5157 64.294C28.8338 63.3358 29.6864 62.5865 30.674 62.3524C30.964 62.2839 31.2553 62.2059 31.4932 62.44C31.7284 62.673 31.6336 62.924 31.5159 63.1773C31.0469 64.1932 30.5845 65.2114 30.1194 66.2285C29.9483 66.6043 29.7759 66.979 29.5915 67.3836C29.9898 67.4989 30.1795 67.2239 30.4187 67.0702C30.6486 66.9225 30.7662 66.65 31.0388 66.5623C31.2794 66.7064 31.1391 66.8373 31.0723 66.9477C30.6379 67.661 30.0579 68.2338 29.1665 68.4955C28.8819 68.5796 28.5919 68.6661 28.3433 68.4427C28.092 68.217 28.1963 67.9504 28.2992 67.7042C28.8164 66.4746 29.3443 65.2475 29.8655 64.0191C29.9216 63.887 29.955 63.7477 30.0004 63.6108C30.0138 63.5544 30.0606 63.4667 30.0365 63.4463C29.955 63.3767 29.8641 63.4211 29.7866 63.4763L29.7839 63.4775Z" fill="white"/>
<path d="M45.8223 76.8674C45.265 76.9718 45.0792 77.5794 44.3682 77.7355C44.9175 76.6633 45.6418 75.9644 46.8259 75.7363C47.422 75.621 47.7226 75.908 47.5249 76.4231C47.2736 77.0787 46.9555 77.7139 46.6629 78.3575C46.2927 79.1705 45.9185 79.9822 45.5055 80.8816C46.2686 80.7939 46.5252 80.1899 47.025 79.969C47.2816 80.1263 47.1079 80.2524 47.0451 80.358C46.6174 81.0773 46.0347 81.6501 45.1407 81.913C44.856 81.9971 44.5727 82.0787 44.3148 81.8602C44.0421 81.6308 44.1651 81.3823 44.2707 81.1313C44.8467 79.7648 45.42 78.3972 45.9933 77.0295C46.0361 76.9731 46.0789 76.9082 46.0187 76.8506C45.9572 76.7917 45.8851 76.8326 45.8223 76.8674Z" fill="white"/>
<path d="M76.3353 0.495863C75.3784 1.39044 74.5365 2.17575 73.6959 2.96225C73.5783 3.07273 73.4446 3.12796 73.2736 3.12796C72.4837 3.12556 71.6926 3.12676 70.7344 3.12676C71.273 2.53838 71.7795 2.08449 72.1537 1.55495C72.7577 0.697594 73.5462 0.333759 74.6715 0.485057C75.1606 0.549898 75.6698 0.495863 76.3353 0.495863Z" fill="white"/>
<path d="M42.1377 46.4926C42.0856 46.5538 42.0348 46.6391 41.96 46.7015C41.4121 47.1566 40.8628 47.6081 40.3082 48.0572C40.2307 48.1196 40.1331 48.1688 40.0356 48.2001C39.938 48.2313 39.8231 48.2421 39.7349 48.17C39.628 48.0824 39.7068 48.0019 39.7576 47.9203C40.0449 47.4628 40.3242 46.9993 40.6236 46.5478C40.7853 46.304 41.8584 46.1611 42.0709 46.3413C42.103 46.3689 42.1083 46.4229 42.1364 46.4938L42.1377 46.4926Z" fill="white"/>
<path d="M39.9229 61.4997C40.1781 60.9258 40.5857 60.401 40.9305 59.8487C41.0361 59.6806 42.0772 59.5881 42.2816 59.707C42.3845 59.767 42.4046 59.8859 42.3284 59.9519C41.6602 60.5247 41.0535 61.1611 40.2476 61.5898C40.1674 61.633 40.0391 61.6246 39.9229 61.4997Z" fill="white"/>
<path d="M58.3829 73.0741C58.1678 73.4596 56.7485 74.7768 56.4144 74.9305C56.2514 75.005 56.0669 75.0494 55.8691 74.8801C56.1872 74.371 56.512 73.857 56.83 73.3395C56.9423 73.1558 57.088 73.0573 57.3365 73.0705C57.6519 73.0873 57.97 73.0741 58.3829 73.0741Z" fill="white"/>
<path d="M14.8605 47.7223C14.4047 47.7319 14.0359 47.4233 14.0265 47.0234C14.0172 46.6476 14.4034 46.2789 14.8204 46.2669C15.2467 46.2549 15.6316 46.5899 15.6436 46.985C15.657 47.3932 15.3175 47.7126 14.8618 47.721L14.8605 47.7223Z" fill="white"/>
<path d="M8.88379 59.6497C9.23126 59.1959 9.56002 58.7708 9.8861 58.3433C9.96495 58.24 10.0612 58.1572 10.2082 58.1596C10.5984 58.168 10.9967 58.1019 11.5339 58.2484C10.8523 58.8212 10.1454 59.1923 9.49988 59.6305C9.34619 59.735 9.16444 59.765 8.88513 59.6497H8.88379Z" fill="white"/>
<path d="M48.5521 73.8176C48.5562 74.2175 48.1967 74.5393 47.749 74.5393C47.3039 74.5393 46.9418 74.2151 46.9404 73.8176C46.9404 73.425 47.316 73.0792 47.7436 73.0816C48.1686 73.0828 48.5468 73.4286 48.5521 73.8188V73.8176Z" fill="white"/>
<path d="M32.6015 60.4493C32.5855 60.8504 32.2167 61.1518 31.7623 61.1361C31.3132 61.1217 30.9644 60.7879 30.9831 60.3905C31.0019 60.005 31.4041 59.6676 31.8251 59.6868C32.2527 59.706 32.6176 60.0639 32.6015 60.4505V60.4493Z" fill="white"/>
</g>
</svg>
