<svg width="280" height="101" viewBox="0 0 280 101" fill="none" xmlns="http://www.w3.org/2000/svg">
<g opacity="0.7">
<path d="M25.716 62.2567C26.3778 61.6238 26.5565 60.2424 27.054 58.7063C27.8004 56.3865 29.8967 53.0427 25.9455 55.1778C22.8008 56.6873 20.7649 56.9504 21.0595 58.0276C21.842 60.8872 25.3706 62.5839 25.716 62.2567Z" fill="white"/>
<path d="M24.6319 53.7039C27.0881 52.6437 36.5507 48.2493 28.4648 49.1876C25.342 49.5499 26.0689 49.5173 24.586 51.6632C24.185 52.2524 22.3858 54.6676 24.6319 53.7039C25.8515 53.1751 24.2719 53.8514 24.6319 53.7039Z" fill="white"/>
<path d="M67.9503 35.3027C61.8037 34.45 56.227 36.747 53.2563 29.1125C51.7106 25.1347 50.2301 23.7243 49.4427 22.792C47.4358 20.3961 45.1824 18.9783 42.5257 19.3818C38.4947 19.9952 34.6582 19.7682 31.0004 17.2781C29.8072 16.4667 27.909 17.6851 27.2568 18.1283C26.5395 18.6161 25.6604 19.5194 25.2836 20.0122C25.2909 20.017 25.3006 20.0218 25.3006 20.0218C25.3102 20.0267 25.3126 20.0338 25.3151 20.0387C25.658 19.8648 26.0686 19.8262 26.5492 19.8262C26.4647 20.1474 26.4671 20.4324 26.5106 20.7005C26.5395 20.8152 26.5492 20.9397 26.6048 21.0386C26.1338 21.7149 25.757 22.4564 25.6217 23.3234C25.0059 27.5982 22.1656 30.9216 24.0808 34.5564C25.291 36.8606 17.4922 46.9874 14.9539 50.4629C12.9469 53.2065 10.4012 54.8054 13.5218 58.0248C15.3065 59.87 7.64558 69.8955 6.59494 71.5861C4.48645 74.989 -0.602296 83.0414 1.24535 87.2896C1.72589 88.4079 14.4443 94.6729 14.5095 94.5859C15.6905 92.8469 14.1545 91.2216 12.0822 87.2896C10.4521 84.1957 11.0461 82.8602 9.61876 82.2274C8.38951 81.6888 5.77624 85.5579 4.5348 84.7102C2.36112 83.2031 12.348 66.9718 13.8188 64.4999C14.8308 62.7658 16.3983 60.5172 17.0019 58.5367C17.5575 56.6868 14.751 57.0322 15.3741 55.5347C18.0261 49.0886 23.2767 43.1279 26.1942 38.0802C28.3896 34.2787 24.989 29.7067 27.2255 30.5376C30.3411 31.6921 33.4628 30.8612 33.3541 28.1321C33.2309 24.8836 30.9955 23.8161 29.7252 21.1293C29.5393 20.7223 29.9401 20.4928 30.6841 20.3793C32.8083 21.6908 35.1437 22.3115 37.9875 22.3115C39.6033 22.3115 41.1901 22.1135 42.5571 21.9009C49.9186 25.3619 49.4645 34.757 56.1618 37.7434C62.3665 40.498 79.9225 38.1407 72.102 53.7814C69.4043 59.1673 63.1804 64.5701 56.7849 61.2636C51.2155 58.3944 44.3563 71.5644 41.5378 74.8805C37.3258 79.8534 30.6356 73.5304 25.4648 76.9721C20.9338 79.9765 26.3173 84.947 28.4645 87.0193C32.3276 90.7555 31.7504 96.1946 34.634 99.8644C35.6726 101.179 39.2893 95.1717 37.961 92.9968C37.2437 91.823 36.0385 90.8134 35.1413 89.787C34.0641 88.5529 27.3729 81.288 31.2661 80.1408C34.2693 79.2689 38.4223 81.1552 41.1321 82.143C43.3058 82.9376 46.39 75.4457 47.3608 74.127C48.6772 72.335 54.6837 64.2851 56.326 67.0238C59.5044 72.2914 70.5081 73.7622 64.6126 71.0283C61.8496 69.7531 59.5335 67.2896 62.2674 66.1278C67.5302 63.8745 71.991 60.2155 74.5995 57.1555C81.3595 49.2456 79.053 36.817 67.9503 35.3027Z" fill="white"/>
<path d="M117.971 26.3448C112.977 23.6978 106.961 23.7956 101.541 23.1145C93.4525 22.0965 87.1392 23.1302 80.8524 28.0428C79.1038 29.4073 77.9543 31.5713 78.7198 32.9191C79.367 34.0397 81.8716 37.1673 83.6347 35.6663C87.016 32.7838 90.4914 29.9291 95.2614 29.4653C96.4232 29.3518 99.8504 29.6102 101.056 29.7406C108.461 30.54 113.298 32.0495 119.384 34.071C122.729 35.1819 120.317 27.5874 117.971 26.3448Z" fill="white"/>
<path d="M117.7 44.5579C113.148 39.9038 107.114 37.1202 100.634 36.636C98.113 36.4499 95.5456 36.7012 93.2077 37.5006C89.742 38.6841 86.537 41.2876 83.8272 43.599C79.8976 46.9537 83.8802 50.9919 87.5175 47.4537C89.7226 45.3259 92.2344 43.8839 94.6785 42.7271C97.1541 41.5461 101.026 41.0582 103.397 41.5146C109.744 42.7489 114.515 46.4127 119.007 50.6176C119.219 50.8143 119.437 51.0426 119.644 51.2552C121.579 51.2926 119.652 46.5455 117.7 44.5579Z" fill="white"/>
<path d="M68.7185 0.00487443C68.535 -0.0603852 62.0405 2.08912 62.0405 2.08912C55.307 3.18451 49.7351 2.19782 43.1247 2.05538C39.6154 1.97688 36.7438 2.55288 34.313 5.18417C31.9291 7.7576 34.8418 14.3655 37.5311 12.955C40.241 11.5349 44.7912 7.94113 48.7062 8.55218C52.6212 9.15354 56.8309 11.5277 60.9174 11.3562C61.6541 11.3272 62.4704 11.1605 63.2263 10.9939C67.2888 10.1075 71.6869 1.02885 68.7185 0.00487443Z" fill="white"/>
<path d="M90.1675 9.64585C79.4029 11.5853 68.4549 12.5804 59.0647 18.7886C57.3934 19.8887 56.2703 21.2098 57.205 23.1202C57.9802 24.6925 60.2892 27.1922 61.888 26.1102C67.3802 22.398 72.353 18.2861 79.1953 18.1087C82.934 18.0096 86.5254 19.6858 90.3872 18.797C94.1091 17.9445 97.7342 17.2489 100.898 14.9557C101.34 14.4171 101.333 13.6624 101.234 13.1286C100.628 9.91389 93.4956 9.04698 90.1675 9.64585Z" fill="white"/>
<path d="M114.88 60.5366C109.746 56.0951 102.541 50.4435 95.7327 51.1923C89.3035 51.8975 83.9779 55.53 78.9231 59.9763C75.9257 62.6162 76.9063 71.4388 81.8888 67.6736C86.34 64.3044 91.1028 60.5802 96.9766 60.4426C99.7227 60.3773 102.853 61.3554 104.188 61.7178C106.821 62.4351 111.526 64.2755 114.219 65.7536C115.1 66.0602 118.853 63.9687 114.88 60.5366Z" fill="white"/>
<path d="M177.347 12.5928H180.298C181.404 12.5928 182.068 12.8028 182.559 13.2424C183.052 13.6844 183.542 14.4645 183.405 15.5707C183.327 16.2083 182.971 17.2058 182.198 17.8724C181.559 18.4158 180.997 18.5487 180.501 18.6645L182.681 22.2149H180.522L178.424 18.5341H178.4L177.948 22.2149H176.167L177.347 12.5928ZM178.565 17.1937H179.708C181.176 17.1937 181.544 16.2203 181.607 15.7144C181.672 15.1793 181.459 14.2568 180.068 14.2568H178.925L178.565 17.1937Z" fill="white"/>
<path d="M185.828 12.5925H191.001L190.796 14.2566H187.405L187.115 16.6089H190.366L190.161 18.2742H186.911L186.632 20.5493H190.025L189.82 22.2146H184.646L185.828 12.5925ZM187.101 10.6941L190.238 8.96484L190.772 10.3294L187.615 11.892L187.101 10.6941Z" fill="white"/>
<path d="M196.532 17.3119H202.807L202.781 17.5195C202.444 20.262 199.779 22.408 197.088 22.408C194.333 22.408 192.177 20.2899 192.531 17.4025C192.88 14.5694 195.55 12.3994 198.266 12.3994C200.681 12.3994 202.237 14.0345 202.559 15.4148H200.428C200.092 14.7759 199.297 14.0611 198.021 14.0611C195.853 14.0611 194.495 15.9062 194.31 17.4157C194.129 18.8853 195.007 20.7438 197.293 20.7438C198.476 20.7438 199.66 20.0942 200.355 18.976H196.328L196.532 17.3119Z" fill="white"/>
<path d="M205.599 12.5923H207.378L206.198 22.2143H204.418L205.599 12.5923Z" fill="white"/>
<path d="M214.762 12.3994C217.491 12.3994 219.525 14.5827 219.175 17.4278C218.836 20.1848 216.301 22.408 213.531 22.408C210.762 22.408 208.773 20.1848 209.11 17.4278C209.462 14.5827 212.029 12.3994 214.762 12.3994ZM213.736 20.7439C215.569 20.7439 217.177 19.197 217.396 17.4158C217.62 15.5707 216.363 14.0612 214.555 14.0612C212.748 14.0612 211.122 15.5707 210.895 17.4158C210.675 19.197 211.902 20.7439 213.736 20.7439Z" fill="white"/>
<path d="M221.529 12.5635H223.521L226.591 19.4444H226.619L227.463 12.5635H229.214L228.055 22.0238H226.096L222.99 15.1453H222.963L222.119 22.0238H220.367L221.529 12.5635Z" fill="white"/>
<path d="M131.293 23.1323H136.295L143.991 40.3877H144.055L146.174 23.1323H150.569L147.654 46.864H142.746L134.955 29.6135H134.892L132.772 46.864H128.378L131.293 23.1323Z" fill="white"/>
<path d="M152.107 37.842C152.78 32.3691 157.76 28.1655 162.941 28.1655C168.055 28.1655 172.018 32.2376 171.338 37.7756C170.611 43.7025 165.59 47.4496 160.574 47.4496C155.198 47.4495 151.473 43.0202 152.107 37.842ZM166.994 37.8757C167.398 34.5838 165.158 32.1409 162.453 32.1409C160.203 32.1409 156.907 34.0646 156.443 37.842C156.023 41.2619 158.325 43.4766 161.062 43.4766C164.22 43.4766 166.642 40.7414 166.994 37.8757Z" fill="white"/>
<path d="M191.304 28.7838L189.084 46.8639H185.112L185.337 45.0392H185.27C184.434 46.0161 183.084 47.4495 180.316 47.4495C177.025 47.4495 175.367 45.8217 174.607 44.5839C173.507 42.6615 173.867 39.7305 174.051 38.2319L175.211 28.7838H179.544L178.412 38.0038C178.233 39.471 177.74 43.4765 181.52 43.4765C184.256 43.4765 185.484 40.9019 185.836 38.0363L186.973 28.7837L191.304 28.7838Z" fill="white"/>
<path d="M193.55 28.7837H198.238L201.129 40.7727H201.225L206.801 28.7837H211.558L202.01 46.8638H198.624L193.55 28.7837Z" fill="white"/>
<path d="M215.591 39.7634C215.642 40.9361 217.026 43.4767 220.119 43.4767C222.041 43.4767 223.575 42.6617 224.575 41.1619H229.136C227.691 44.4199 223.867 47.4497 219.631 47.4497C214.254 47.4497 210.615 43.1495 211.262 37.8759C211.89 32.7605 216.408 28.0679 221.978 28.0679C227.711 28.0679 230.721 33.0203 230.162 37.5814C230.057 38.429 229.835 39.1778 229.633 39.7634H215.591ZM225.891 36.2772C225.757 33.3801 223.674 32.0444 221.522 32.0444C219.927 32.0444 217.115 32.9224 215.888 36.2772H225.891Z" fill="white"/>
<path d="M235.043 22.7568H239.375L236.417 46.864H232.084L235.043 22.7568Z" fill="white"/>
<path d="M243.187 22.7568H247.52L244.56 46.864H240.229L243.187 22.7568Z" fill="white"/>
<path d="M253.053 39.7634C253.108 40.9361 254.487 43.4767 257.584 43.4767C259.505 43.4767 261.039 42.6617 262.04 41.1619H266.6C265.155 44.4199 261.332 47.4497 257.096 47.4497C251.72 47.4497 248.077 43.1495 248.725 37.8759C249.353 32.7605 253.872 28.0679 259.443 28.0679C265.176 28.0679 268.185 33.0203 267.626 37.5814C267.52 38.429 267.298 39.1778 267.097 39.7634H253.053ZM263.353 36.2772C263.223 33.3801 261.135 32.0444 258.987 32.0444C257.393 32.0444 254.577 32.9224 253.352 36.2772H263.353Z" fill="white"/>
<path d="M270.73 37.0013C270.789 36.518 271.236 36.1226 271.723 36.1226H278.559C279.046 36.1226 279.396 36.518 279.336 37.0013L279.102 38.8943C279.043 39.3776 278.596 39.773 278.109 39.773H271.273C270.786 39.773 270.436 39.3776 270.496 38.8943L270.73 37.0013Z" fill="white"/>
<path d="M239.413 55.4225C239.238 56.862 237.931 58.0249 236.495 58.0249C235.059 58.0249 234.038 56.862 234.213 55.4225C234.39 53.9891 235.696 52.8262 237.133 52.8262C238.568 52.8262 239.59 53.9891 239.413 55.4225Z" fill="white"/>
<path d="M141.27 53.9307H144.615L151.235 78.9738H146.514L144.837 72.5132H136.549L133.283 78.9738H128.562L141.27 53.9307ZM138.524 68.1454H143.839L142.155 60.4627H142.093L138.524 68.1454Z" fill="white"/>
<path d="M173.275 60.192L169.82 87.9473H165.661L167.03 77.1792C164.702 79.5811 161.949 79.5811 161.449 79.5811C156.193 79.5811 153.306 74.5745 153.943 69.3987C154.602 64.0152 159.186 59.5483 163.94 59.5483C167.475 59.5483 168.629 61.6133 169.105 62.5625H169.167L169.458 60.192L173.275 60.192ZM162.456 75.4549C165.395 75.4549 167.809 72.6122 168.179 69.6028C168.54 66.6563 166.937 63.6784 163.871 63.6784C160.901 63.6784 158.466 66.4184 158.088 69.5013C157.625 73.2896 159.86 75.4549 162.456 75.4549Z" fill="white"/>
<path d="M192.067 60.192L189.76 78.9738H185.947L186.181 77.0766H186.118C185.307 78.0922 183.995 79.5811 181.338 79.5811C178.179 79.5811 176.605 77.8905 175.887 76.6044C174.849 74.6095 175.224 71.5639 175.414 70.0073L176.619 60.192H180.781L179.603 69.7706C179.416 71.2946 178.905 75.4548 182.534 75.4548C185.16 75.4548 186.365 72.7799 186.732 69.8045L187.91 60.1919L192.067 60.192Z" fill="white"/>
<path d="M204.141 64.1868H202.108L202.597 60.1921H204.632L205.4 53.9307H209.557L208.789 60.1921H211.29L210.798 64.1868H208.3L206.483 78.9738H202.328L204.141 64.1868Z" fill="white"/>
<path d="M228.501 78.9742H224.684L224.97 76.6375C223.448 78.3306 220.73 79.5816 218.541 79.5816C214.07 79.5816 210.57 75.7257 211.336 69.4655C212.044 63.7138 216.434 59.5488 221.249 59.5488C224.788 59.5488 226.544 62.2913 226.635 62.563H226.701L226.989 60.1924H230.806L228.501 78.9742ZM221.371 63.6789C217.962 63.6789 215.82 66.8609 215.475 69.671C215.084 72.8505 216.953 75.4553 219.923 75.4553C222.801 75.4553 225.292 73.0196 225.719 69.5357C226.196 65.64 223.845 63.6789 221.371 63.6789Z" fill="white"/>
<path d="M242.093 60.192H245.939L245.741 61.8162C246.517 61.1049 248.147 59.5483 250.773 59.5483C252.274 59.5483 254.471 60.2596 255.677 62.1543C257.017 64.2181 256.631 67.3676 256.453 68.8226L255.206 78.9737H251.047L252.184 69.7017C252.377 68.1452 252.924 63.6784 249.422 63.6784C248.672 63.6784 247.277 64.0841 246.373 65.3364C245.478 66.486 245.237 68.4471 245.044 70.0412L243.947 78.9737H239.789L242.093 60.192Z" fill="white"/>
<path d="M263.428 71.5976C263.466 72.8148 264.768 75.4547 267.741 75.4547C269.586 75.4547 271.067 74.6094 272.038 73.0527H276.418C275.002 76.4364 271.299 79.581 267.236 79.581C262.074 79.581 258.619 75.1141 259.292 69.6341C259.945 64.3219 264.325 59.4468 269.673 59.4468C275.18 59.4468 278.019 64.5911 277.437 69.3321C277.331 70.2101 277.11 70.9878 276.908 71.5975L263.428 71.5976ZM273.349 67.976C273.25 64.9643 271.265 63.5755 269.2 63.5755C267.666 63.5755 264.959 64.4897 263.749 67.976H273.349Z" fill="white"/>
<path d="M193.477 78.9644H197.634L199.94 60.1826H195.781L193.477 78.9644Z" fill="white"/>
<path d="M201.317 55.1651C201.128 56.6867 199.747 57.9147 198.23 57.9147C196.712 57.9147 195.633 56.6866 195.819 55.1651C196.005 53.6471 197.387 52.4165 198.904 52.4165C200.422 52.4166 201.504 53.6471 201.317 55.1651Z" fill="white"/>
<path d="M231.864 78.9644H236.027L238.331 60.1826H234.173L231.864 78.9644Z" fill="white"/>
</g>
</svg>
