<svg width="36" height="36" viewBox="0 0 36 36" xmlns="http://www.w3.org/2000/svg">
<path fill-rule="evenodd" clip-rule="evenodd" d="M27.5038 8.97453C28.1439 9.61468 28.1439 10.6526 27.5038 11.2927L11.1384 27.6591C10.4983 28.2992 9.46051 28.2992 8.8204 27.6591C8.18029 27.0189 8.18029 25.981 8.8204 25.3409L25.1857 8.97453C25.8258 8.33438 26.8636 8.33438 27.5038 8.97453Z" fill="white"/>
<path fill-rule="evenodd" clip-rule="evenodd" d="M27.5039 8.9747C27.8113 9.28212 27.984 9.69906 27.984 10.1338L27.984 24.4981C27.984 25.4035 27.2502 26.1374 26.3449 26.1374C25.4396 26.1374 24.7058 25.4035 24.7058 24.4981L24.7058 11.773L11.2303 11.7731C10.325 11.7731 9.59115 11.0392 9.59115 10.1338C9.59115 9.22853 10.325 8.49462 11.2303 8.49462L26.3449 8.49459C26.7796 8.49459 27.1965 8.66729 27.5039 8.9747Z" fill="white"/>
</svg>
