<svg width="1200" height="891" viewBox="0 0 1200 891" fill="none" xmlns="http://www.w3.org/2000/svg">
<g opacity="0.1">
<path d="M779.777 659.372H658.993L619.507 567.79L609.345 545.339C603.731 533.867 598.796 521.999 593.376 510.526C589.021 501.328 584.569 492.229 579.826 483.229C576.439 476.702 572.277 470.372 566.374 466.021C559.696 461.076 550.502 459.394 542.759 462.46C535.597 465.328 531.629 473.933 527.855 480.164C520.306 492.328 514.305 505.68 506.757 517.746C485.078 552.361 457.398 583.614 424.686 607.844C377.166 643.053 317.549 658.68 259.48 659.372C202.67 660.064 144.504 647.306 97.1781 614.174C56.7235 585.889 26.431 544.35 11.2363 496.779C9.78462 492.328 8.52646 487.779 7.36509 483.229C2.52602 464.636 -0.183856 445.746 0.009707 426.559C0.20327 407.966 2.91315 389.373 8.04255 371.57C13.172 353.768 20.4306 337.252 29.9151 321.724C39.3029 306.296 50.8199 292.252 64.0789 280.087C77.4347 267.823 92.6294 257.637 108.889 249.922C125.148 242.208 144.214 236.67 162.796 234.296C182.346 231.824 203.444 235.384 222.026 241.516C240.027 247.45 257.254 256.845 270.997 270.296C280.385 279.593 287.934 290.768 292.58 303.23C285.708 285.626 273.127 271.087 257.932 260.505C242.35 249.626 224.252 242.703 205.767 239.043C193.185 236.571 180.216 235.186 167.441 236.472C157.473 237.461 147.408 239.835 137.729 242.802C120.019 248.142 103.179 256.351 87.8871 267.032C73.0796 277.417 59.9173 290.076 48.7875 304.417C37.6576 318.757 28.657 334.68 21.9791 351.691C15.2044 368.9 10.946 387.098 9.20393 405.493C7.46187 424.482 8.42968 443.768 12.0106 462.559C13.172 468.691 14.6237 474.724 16.3657 480.658C24.0115 506.768 36.2059 531.394 52.4652 553.053C88.9517 601.515 141.407 628.91 199.96 638.702C226.575 643.152 253.77 643.647 280.579 640.086C303.322 637.02 326.259 631.482 347.164 621.79C400.2 597.262 444.333 555.922 470.076 502.317C482.852 475.713 491.078 447.032 495.336 417.757C497.853 400.054 498.627 382.054 497.949 364.153C496.885 339.428 491.949 314.604 484.013 290.966C476.464 268.516 465.625 248.142 455.559 226.879C446.462 207.395 436.977 188.109 427.686 168.725C414.33 140.736 400.878 112.945 387.522 84.9558C376.586 62.2086 365.553 39.4614 354.713 16.6153C352.1 11.0769 349.39 5.63735 346.777 0H467.56L579.633 233.604L779.583 659.273L779.777 659.372Z" fill="#8A8A8A" fill-opacity="0.7"/>
<path d="M1172.23 643.748C1167.58 639.199 1162.55 634.352 1157.03 630.891C1149 625.847 1141.55 620.902 1132.64 617.44C1115.32 610.913 1096.74 609.034 1078.54 610.616C1040.89 613.979 1006.15 630.495 975.566 652.352C974.017 653.539 972.565 654.528 970.92 655.715C944.692 675.495 921.271 698.44 897.753 720.99C895.334 723.363 892.818 725.836 890.204 728.11C797.101 818.011 689.093 879.429 561.051 891C688.609 880.22 798.843 819.791 892.721 731.473C895.334 735.132 898.334 738.693 901.528 742.253C920.594 763.616 943.628 781.022 969.372 792.989C990.47 802.879 1012.63 809.901 1035.76 812.77C1067.31 816.627 1099.64 813.066 1129.74 801.89C1148.61 794.671 1166.13 783.594 1179.48 768.165C1186.26 760.352 1191.58 751.352 1194.97 741.66C1196.71 736.319 1197.97 730.88 1198.55 725.341C1201.26 697.056 1192.45 663.825 1172.13 643.847L1172.23 643.748ZM1174.93 735.033C1166.03 754.22 1149.38 767.869 1129.16 772.814C1102.35 779.341 1071.48 772.715 1048.93 756.495C1031.6 743.836 1018.05 726.825 1005.37 709.418C996.857 697.649 988.825 685.583 980.985 673.122C978.566 669.166 976.049 665.111 973.92 661.056C1003.24 639.495 1035.09 623.276 1071.57 619.814C1099.83 615.364 1129.54 622.583 1151.9 641.671C1152.29 641.968 1152.58 642.265 1153.06 642.66C1154.61 644.144 1156.26 645.627 1157.8 647.111C1180.06 669.957 1188.58 705.363 1174.84 735.132L1174.93 735.033Z" fill="#8A8A8A" fill-opacity="0.7"/>
<path d="M965.5 647.41C961.822 649.684 958.338 652.948 954.757 655.619C950.886 658.586 947.015 661.75 943.143 664.816C935.498 671.146 928.046 677.673 920.69 684.3C910.625 693.399 900.657 702.498 890.882 711.992C888.365 714.465 885.655 716.838 883.139 719.113C882.171 718.025 881.397 716.838 880.623 715.75C869.59 700.52 860.686 684.102 852.169 667.091C840.942 645.135 830.684 622.487 819.941 600.036C803.295 565.421 786.745 530.905 770.099 496.289C752.388 459.3 734.677 422.509 716.966 385.52C702.739 356.147 688.705 326.674 674.575 297.301C668.768 285.136 663.058 273.268 657.155 261.301H777.938C780.454 261.301 791.39 289.29 792.649 291.664L829.522 368.213C856.621 424.586 884.688 480.564 910.335 537.63C918.948 556.718 964.726 646.322 965.403 647.311L965.5 647.41Z" fill="#8A8A8A" fill-opacity="0.7"/>
</g>
</svg>
