<svg width="285" height="84" viewBox="0 0 285 84" fill="none" xmlns="http://www.w3.org/2000/svg">
<g opacity="0.7">
<path d="M83.2197 33.0246C83.2197 22.2353 90.8024 14.4482 101.44 14.4482C109.888 14.4482 116.198 19.334 117.827 26.5102L111.618 28.0873C110.295 23.2015 106.58 20.2497 101.44 20.2497C94.6199 20.2497 89.835 25.3903 89.835 33.0246C89.835 40.658 94.6199 45.7479 101.44 45.7479C107.75 45.7479 111.618 42.3887 111.719 37.7062L101.999 37.7062L101.999 32.4141L118.183 32.4141L118.183 36.3324C118.183 45.6458 111.822 51.6001 101.44 51.6001C90.8024 51.6001 83.2197 43.8139 83.2197 33.0246Z" fill="white"/>
<path d="M122.502 12.8192L129.219 12.8192L129.219 19.2829L122.502 19.2829L122.502 12.8192ZM122.757 23.8633L129.067 23.8633L129.067 50.8364L122.757 50.8364L122.757 23.8633Z" fill="white"/>
<path d="M134.714 23.8633L140.72 23.8633L140.72 26.4582L140.821 26.4582C142.654 24.5243 145.248 23.3536 148.405 23.3536C149.931 23.3536 151.254 23.6085 152.73 24.0665L151.357 29.8176C149.931 29.4103 148.964 29.2575 147.539 29.2575C143.62 29.2575 141.025 31.904 141.025 37.2478L141.025 50.8364L134.714 50.8364L134.714 23.8633Z" fill="white"/>
<path d="M153.285 37.3502C153.285 29.3095 159.597 23.1007 168.299 23.1007C177.053 23.1007 183.312 29.3095 183.312 37.3502C183.312 45.4426 177.053 51.6001 168.299 51.6001C159.597 51.6001 153.285 45.4426 153.285 37.3502ZM177.001 37.3502C177.001 32.2613 173.49 28.6474 168.299 28.6474C163.108 28.6474 159.596 32.2613 159.596 37.3502C159.596 42.4392 163.108 46.0531 168.299 46.0531C173.49 46.0531 177.001 42.4392 177.001 37.3502Z" fill="white"/>
<path d="M187.887 23.8638L193.993 23.8638L193.993 26.6631L194.096 26.6631C196.284 24.3723 199.745 23.1005 203.409 23.1005C211.094 23.1005 216.285 27.9865 216.285 35.1112L216.285 50.8369L209.974 50.8369L209.974 36.0777C209.974 31.4972 207.073 28.7495 202.391 28.7495C197.505 28.7495 194.198 31.7517 194.198 36.1293L194.198 50.8369L187.887 50.8369L187.887 23.8638Z" fill="white"/>
<path d="M220.656 37.3502C220.656 29.2075 226.713 23.1007 234.957 23.1007C238.723 23.1007 242.082 24.2713 244.271 26.4082L244.373 26.4082L244.373 13.6849L250.683 13.6849L250.683 50.8368L244.729 50.8368L244.729 47.9871L244.627 47.9871C242.54 50.3283 239.182 51.6001 235.212 51.6001C226.662 51.6001 220.656 45.6962 220.656 37.3502ZM244.373 39.081L244.373 35.5184C244.373 31.7012 240.504 28.6474 235.771 28.6474C230.479 28.6474 226.967 32.1592 226.967 37.3502C226.967 42.6433 230.428 46.0531 235.823 46.0531C240.606 46.0531 244.373 42.9485 244.373 39.081Z" fill="white"/>
<path d="M255.258 37.4526C255.258 29.0046 261.314 23.1007 269.762 23.1007C278.516 23.1007 284.165 29.3602 284.165 37.503L284.165 39.3866L261.517 39.3866C261.721 43.6098 265.131 46.3587 270.067 46.3587C273.732 46.3587 276.379 44.8828 278.873 41.7782L283.096 45.5438C280.094 49.4116 275.869 51.6001 270.118 51.6001C260.907 51.6001 255.258 46.0018 255.258 37.4526ZM277.956 34.8058C277.6 31.0393 274.292 28.3421 269.864 28.3421C265.232 28.3421 262.027 31.0393 261.619 34.8058L277.956 34.8058Z" fill="white"/>
<path d="M87.9922 68.9072L87.9922 59.1209L89.8799 59.1209L89.8799 67.1595L93.9207 67.1595L93.9207 68.9072L87.9922 68.9072Z" fill="#C6C6C6"/>
<path d="M101.4 68.9072L101.4 59.1209L107.594 59.1209L107.594 60.8674L103.288 60.8674L103.288 63.0626L107.203 63.0626L107.203 64.7408L103.288 64.7408L103.288 67.1595L107.594 67.1595L107.594 68.9072L101.4 68.9072Z" fill="#C6C6C6"/>
<path d="M125.28 68.9072L125.28 59.1209L128.552 59.1209C129.11 59.1209 129.637 59.2184 130.132 59.4143C130.625 59.6099 131.073 59.8991 131.474 60.2806C131.874 60.6633 132.193 61.173 132.431 61.8114C132.67 62.4499 132.788 63.1798 132.788 63.9999C132.788 64.8945 132.666 65.6726 132.425 66.3348C132.182 66.997 131.851 67.5067 131.432 67.8657C131.012 68.2247 130.558 68.4881 130.068 68.6557C129.579 68.8234 129.046 68.9072 128.467 68.9072L125.28 68.9072ZM127.168 67.1595L128.467 67.1595C128.803 67.1595 129.097 67.1197 129.349 67.041C129.601 66.9617 129.838 66.8153 130.062 66.6003C130.285 66.3864 130.457 66.0617 130.579 65.6286C130.7 65.1955 130.76 64.6524 130.76 63.9999C130.76 62.9089 130.558 62.1146 130.152 61.6158C129.747 61.1171 129.213 60.8674 128.552 60.8674L127.168 60.8674L127.168 67.1595Z" fill="#C6C6C6"/>
<path d="M140.548 68.9072L140.548 59.1209L146.742 59.1209L146.742 60.8674L142.436 60.8674L142.436 63.0626L146.349 63.0626L146.349 64.7408L142.436 64.7408L142.436 67.1595L146.742 67.1595L146.742 68.9072L140.548 68.9072ZM142.673 58.2112L143.805 56.4634L145.735 56.4634L144.196 58.2112L142.673 58.2112Z" fill="#C6C6C6"/>
<path d="M154.78 68.9072L154.78 59.1209L158.751 59.1209C159.748 59.1209 160.559 59.4025 161.184 59.9659C161.807 60.53 162.12 61.2878 162.12 62.2382C162.12 63.1886 161.819 63.9443 161.218 64.5032C160.617 65.0621 159.795 65.3416 158.751 65.3416L156.668 65.3416L156.668 68.9072L154.78 68.9072ZM156.668 63.5947L158.723 63.5947C159.142 63.5947 159.487 63.4711 159.757 63.2239C160.027 62.9766 160.163 62.6489 160.163 62.2382C160.163 61.7631 160.025 61.4157 159.75 61.1967C159.476 60.9774 159.133 60.8674 158.723 60.8674L156.668 60.8674L156.668 63.5947Z" fill="#C6C6C6"/>
<path d="M174.438 68.9072L173.879 67.2992L170.146 67.2992L169.586 68.9072L167.713 68.9072L171.249 59.1209L172.858 59.1209L176.381 68.9072L174.438 68.9072ZM172.005 61.9168L170.677 65.734L173.347 65.734L172.033 61.9168L172.005 61.9168Z" fill="#C6C6C6"/>
<path d="M183.722 68.9072L183.722 59.1209L187.692 59.1209C188.699 59.1209 189.511 59.4025 190.132 59.9659C190.751 60.53 191.062 61.2878 191.062 62.2382C191.062 62.9465 190.878 63.5477 190.509 64.0418C190.14 64.5354 189.635 64.8856 188.992 65.0901L191.076 68.9072L189.034 68.9072L187.063 65.2717L185.608 65.2717L185.608 68.9072L183.722 68.9072ZM185.608 63.6366L187.538 63.6366C188.61 63.6366 189.146 63.1701 189.146 62.2382C189.146 61.2966 188.61 60.8258 187.538 60.8258L185.608 60.8258L185.608 63.6366Z" fill="#C6C6C6"/>
<path d="M200.652 68.9072L200.652 60.8674L197.786 60.8674L197.786 59.1209L205.406 59.1209L205.406 60.8674L202.54 60.8674L202.54 68.9072L200.652 68.9072Z" fill="#C6C6C6"/>
<path d="M212.816 68.9072L212.816 59.1209L219.009 59.1209L219.009 60.8674L214.703 60.8674L214.703 63.0626L218.618 63.0626L218.618 64.7408L214.703 64.7408L214.703 67.1595L219.009 67.1595L219.009 68.9072L212.816 68.9072Z" fill="#C6C6C6"/>
<path d="M227.049 68.9072L227.049 59.1209L228.991 59.1209L231.83 65.4673L231.858 65.4673L234.696 59.1209L236.654 59.1209L236.654 68.9072L234.808 68.9072L234.808 62.8949L234.78 62.8949L231.998 68.9072L231.691 68.9072L228.907 62.8949L228.879 62.8949L228.879 68.9072L227.049 68.9072Z" fill="#C6C6C6"/>
<path d="M245.043 68.9072L245.043 59.1209L251.236 59.1209L251.236 60.8674L246.93 60.8674L246.93 63.0626L250.844 63.0626L250.844 64.7408L246.93 64.7408L246.93 67.1595L251.236 67.1595L251.236 68.9072L245.043 68.9072Z" fill="#C6C6C6"/>
<path d="M259.275 68.9072L259.275 59.1209L261.162 59.1209L264.742 65.5372L264.769 65.5372L264.769 59.1209L266.671 59.1209L266.671 68.9072L264.811 68.9072L261.19 62.4897L261.162 62.4897L261.162 68.9072L259.275 68.9072Z" fill="#C6C6C6"/>
<path d="M276.947 68.9072L276.947 60.8674L274.081 60.8674L274.081 59.1209L281.701 59.1209L281.701 60.8674L278.834 60.8674L278.834 68.9072L276.947 68.9072Z" fill="#C6C6C6"/>
<path d="M36.4696 0.371524L24.5352 7.26287L24.5352 29.0833L49.2797 48.4445L24.5352 67.8058L24.5352 76.1557L36.4696 83.0449L72.2682 62.3797L72.2682 21.0407L36.4696 0.371524Z" fill="#C6C6C6"/>
<path d="M0.669922 62.3772L10.6743 68.1562L36.4644 48.4441L0.669922 21.0406L0.669922 62.3772Z" fill="white"/>
</g>
</svg>
