<svg width="92" height="104" viewBox="0 0 92 104" fill="none" xmlns="http://www.w3.org/2000/svg">
<g opacity="0.7">
<path d="M45.8677 25.0347C48.3855 25.9783 50.788 27.1577 53.0561 28.601C60.7587 33.5011 66.223 40.2283 69.4646 48.7578C70.3472 51.0811 70.9877 53.4738 71.4142 55.9227C71.4429 56.0867 71.5152 56.1969 71.6386 56.3007C76.0813 60.0346 79.5817 64.5067 82.1218 69.7229C83.8448 73.2606 85.0138 76.9767 85.6492 80.862C86.0963 83.5965 86.2483 86.3478 86.1496 89.1133C86.0928 90.6983 85.9292 92.2753 85.6807 93.8425C85.6675 93.9262 85.644 94.0088 85.6182 94.123C83.8195 84.2953 79.103 76.1919 71.5043 69.7103C69.6924 79.5959 64.9834 87.7629 57.3479 94.2796C57.8736 94.5044 58.4062 94.6685 58.9348 94.8395C61.3378 95.615 63.793 96.164 66.2976 96.4812C69.41 96.8753 72.527 96.9115 75.6491 96.5891C78.9877 96.2443 82.2286 95.4819 85.3834 94.3432C85.3966 94.3605 85.4093 94.3771 85.4225 94.3943C84.6718 95.0603 83.8597 95.6471 83.0378 96.2191C78.3253 99.4992 73.1618 101.731 67.5247 102.848C63.9153 103.562 60.272 103.776 56.6035 103.49C52.9115 103.202 49.3199 102.436 45.839 101.167C45.6393 101.094 45.462 101.086 45.2605 101.159C42.081 102.32 38.8068 103.061 35.4384 103.399C32.5464 103.69 29.659 103.68 26.7722 103.34C18.9731 102.422 12.0235 99.4762 5.88597 94.5928C5.81194 94.5343 5.74651 94.4649 5.67764 94.4006C5.69256 94.3828 5.70806 94.3645 5.72298 94.3467C7.28634 94.9043 8.87209 95.3879 10.4906 95.7613C14.2182 96.6223 17.9917 96.9493 21.8129 96.7463C25.8837 96.53 29.8312 95.72 33.6604 94.3266C33.6782 94.3203 33.6954 94.3117 33.7425 94.2916C26.1196 87.7945 21.4077 79.6286 19.5826 69.7321C15.8642 72.8332 12.7943 76.4564 10.3712 80.6285C7.94808 84.7995 6.32789 89.2648 5.4297 94.0174C5.36657 93.5952 5.29655 93.1742 5.24203 92.7508C4.91604 90.2239 4.80814 87.6884 4.95507 85.1443C5.19956 80.9021 6.06618 76.7914 7.60372 72.8286C9.85006 67.0388 13.2471 62.0223 17.7782 57.7738C18.3148 57.2702 18.8606 56.7768 19.4328 56.3139C19.5769 56.1969 19.6486 56.0615 19.6802 55.8848C20.5095 51.1803 22.1217 46.7581 24.5115 42.6238C27.3323 37.7444 31.0186 33.6336 35.5555 30.287C38.4435 28.1565 41.5645 26.4499 44.9093 25.1511C45.0114 25.1115 45.1101 25.0364 45.2651 25.0765C37.7553 31.5157 33.141 39.5938 31.3366 49.3475C40.8275 45.9797 50.2577 45.9688 59.728 49.3378C59.6424 48.8766 59.5696 48.4309 59.4766 47.9891C58.4567 43.1441 56.6443 38.6186 53.9922 34.4339C51.8078 30.9868 49.162 27.9413 46.0548 25.2951C45.9756 25.228 45.9045 25.1511 45.8298 25.0788C45.843 25.0645 45.8562 25.0502 45.8694 25.0358L45.8677 25.0347ZM44.3778 60.3661C42.9137 60.3725 40.7007 60.5807 38.5043 60.9645C36.1225 61.3804 33.7953 62.0022 31.5265 62.8397C31.3819 62.8931 31.309 62.9384 31.3481 63.1185C31.5099 63.8637 31.6298 64.6192 31.8083 65.3603C33.925 74.1492 38.4153 81.4827 45.3081 87.3425C45.5067 87.5111 45.6198 87.483 45.8 87.331C50.2387 83.5914 53.7213 79.1089 56.2597 73.8927C57.9046 70.5117 59.0456 66.9654 59.7061 63.2648C59.7394 63.0789 59.8095 62.9177 59.515 62.811C54.8714 61.1291 50.082 60.3128 44.3784 60.3661L44.3778 60.3661Z" fill="#FEFEFE"/>
<path d="M5.73315 94.4518C5.70887 94.4209 5.66258 94.3673 5.6641 94.3642C5.70204 94.2951 5.74832 94.3271 5.79309 94.3549C5.77336 94.3869 5.75288 94.4198 5.73315 94.4518Z" fill="#FEFEFE"/>
<path d="M85.4043 94.3523C85.4489 94.3255 85.4934 94.2964 85.5333 94.3657C85.5083 94.3948 85.4825 94.4227 85.4575 94.4518C85.4395 94.4183 85.4223 94.3858 85.4043 94.3523Z" fill="#FEFEFE"/>
<path d="M6.35626 6.75001C6.40807 6.83937 6.49746 6.85655 6.57091 6.89607C7.77401 7.54393 8.42538 8.53491 8.37072 9.92572C8.31663 11.3051 7.67551 12.3344 6.44394 12.9691C5.84211 13.279 5.19245 13.4079 4.52343 13.4131C3.17742 13.4239 1.83141 13.4142 0.485395 13.4222C0.302625 13.4234 0.245117 13.377 0.245117 13.1856C0.250242 9.25609 0.250811 5.32655 0.245117 1.397C0.245117 1.19995 0.310026 1.16386 0.487673 1.16501C1.85247 1.17245 3.21784 1.15355 4.58264 1.17589C5.59158 1.1925 6.50372 1.49209 7.20918 2.26883C8.21129 3.37266 8.42196 5.58317 6.52764 6.65664C6.47184 6.68814 6.4149 6.7185 6.3574 6.75001L6.35626 6.75001ZM3.73882 8.099C3.73882 8.099 3.73882 8.09842 3.73882 8.09785C3.5589 8.09785 3.37898 8.1053 3.19962 8.09556C3.06582 8.08811 3.02084 8.13107 3.02141 8.27027C3.02653 9.26068 3.02596 10.2505 3.02141 11.2409C3.02141 11.3709 3.04988 11.4282 3.19279 11.4231C3.51392 11.4116 3.83676 11.4305 4.15732 11.411C5.06946 11.3561 5.56881 10.8291 5.59614 9.90739C5.60012 9.7745 5.59898 9.64046 5.58873 9.50814C5.52155 8.64089 4.97039 8.11733 4.10721 8.099C3.98423 8.09613 3.86124 8.099 3.73825 8.099L3.73882 8.099ZM3.02425 4.62599C3.02425 5.05503 3.02938 5.48464 3.02141 5.91369C3.01856 6.05861 3.05329 6.12105 3.2093 6.11131C3.4547 6.09527 3.70295 6.11074 3.94779 6.09012C4.55987 6.03856 4.99032 5.70518 5.12754 5.18048C5.21522 4.84423 5.21921 4.50398 5.14747 4.16143C5.04213 3.65907 4.72954 3.36693 4.24899 3.2369C3.92387 3.14926 3.59022 3.17962 3.25998 3.16415C3.08005 3.15556 3.0123 3.20138 3.0197 3.39671C3.03507 3.80628 3.02425 4.21699 3.02425 4.62713L3.02425 4.62599Z" fill="#FEFEFE"/>
<path d="M35.7322 7.28435C35.7322 5.33987 35.7357 3.39481 35.7276 1.45032C35.7264 1.22988 35.779 1.16232 36.011 1.16461C37.1281 1.1772 38.2451 1.16861 39.3621 1.17091C42.0411 1.17549 43.872 2.58232 44.495 5.17153C44.9844 7.20648 44.823 9.19105 43.7731 11.0399C42.9123 12.5561 41.5581 13.3423 39.8093 13.4007C38.5205 13.4436 37.2287 13.407 35.9387 13.4196C35.6998 13.4218 35.7322 13.289 35.7322 13.1464C35.7322 11.1922 35.7322 9.238 35.7322 7.28378L35.7322 7.28435ZM38.5436 7.29008C38.5436 8.37569 38.5401 9.46188 38.5459 10.5475C38.5471 10.8109 38.4267 11.1653 38.5962 11.313C38.7756 11.4693 39.129 11.3657 39.405 11.352C40.4034 11.3027 41.1086 10.8309 41.4892 9.90334C41.7501 9.26777 41.8357 8.599 41.8658 7.92221C41.9138 6.84289 41.8797 5.7693 41.4921 4.74038C41.189 3.93533 40.6522 3.37706 39.7578 3.25396C39.446 3.21101 39.1232 3.24766 38.8074 3.22361C38.5899 3.207 38.5361 3.27514 38.5378 3.48929C38.5488 4.75583 38.543 6.02296 38.543 7.28951L38.5436 7.29008Z" fill="#FEFEFE"/>
<path d="M30.3274 7.46818C30.782 7.79525 31.0226 8.23 31.2187 8.68824C31.8707 10.2136 32.2335 11.8386 32.8889 13.4161C32.526 13.4161 32.2058 13.4161 31.8851 13.4161C31.3376 13.4161 30.7895 13.4046 30.2426 13.4218C30.0268 13.4287 29.957 13.3531 29.8976 13.1543C29.5451 11.9681 29.2301 10.7703 28.8251 9.59955C28.719 9.29311 28.5961 8.99411 28.4138 8.72203C28.1461 8.32279 27.7428 8.24375 27.3026 8.25635C27.1071 8.2615 27.1792 8.41959 27.1786 8.51525C27.174 9.92719 27.1757 11.3391 27.1757 12.7511C27.1757 13.1948 26.9521 13.4167 26.5048 13.4167C25.8707 13.4167 25.2367 13.4109 24.6027 13.4207C24.4313 13.4235 24.373 13.3852 24.373 13.2024C24.3788 9.26275 24.3788 5.32249 24.373 1.38281C24.373 1.20066 24.4273 1.16343 24.5998 1.16458C25.9734 1.17317 27.3476 1.15541 28.7207 1.18004C29.6207 1.19665 30.4509 1.45556 31.1916 1.9957C32.6656 3.07084 33.1012 6.22407 30.6441 7.30665C30.5495 7.34847 30.4601 7.40059 30.3268 7.46933L30.3274 7.46818ZM27.1757 4.68555C27.1757 5.10426 27.1797 5.52297 27.1734 5.94168C27.1711 6.08374 27.2092 6.15018 27.3667 6.14216C27.6055 6.13013 27.8461 6.14445 28.0855 6.13529C29.1938 6.0929 29.7701 5.34884 29.5434 4.26798C29.4361 3.75533 29.1309 3.45117 28.618 3.33833C28.1905 3.24382 27.7584 3.30339 27.3292 3.28163C27.1619 3.27303 27.1757 3.37957 27.1763 3.48669C27.1769 3.8865 27.1763 4.28631 27.1763 4.68612L27.1757 4.68555Z" fill="#FEFEFE"/>
<path d="M21.0189 7.23307C21.0166 8.55852 20.8346 9.846 20.2112 11.038C18.9145 13.5186 15.8502 14.3154 13.6413 12.7368C12.5454 11.9538 11.9393 10.8401 11.643 9.55491C11.2045 7.65015 11.1924 5.75171 11.9588 3.91943C12.5747 2.44555 13.6241 1.40199 15.2142 1.02748C17.2733 0.542515 19.2784 1.54178 20.2549 3.50235C20.8398 4.6765 21.0195 5.93695 21.0183 7.23307L21.0189 7.23307ZM18.1883 7.12319C18.1734 6.80908 18.1671 6.39718 18.1298 5.98758C18.0775 5.41574 17.9874 4.84909 17.7371 4.32213C17.4357 3.68702 16.9495 3.33264 16.2343 3.31711C15.4943 3.30043 14.9805 3.64387 14.6574 4.29682C14.5471 4.52003 14.4633 4.75359 14.4082 4.99694C14.1287 6.22517 14.1396 7.46433 14.2699 8.70694C14.3261 9.24138 14.4375 9.76374 14.697 10.243C14.9369 10.6865 15.2848 10.9891 15.7911 11.0846C16.8502 11.2836 17.5856 10.8016 17.9076 9.69413C18.1424 8.88586 18.1607 8.05284 18.1877 7.12376L18.1883 7.12319Z" fill="#FEFEFE"/>
<path d="M78.1501 5.65699C78.1501 6.97869 78.2007 8.30211 78.1393 9.62095C78.0252 12.0834 76.6881 13.3982 74.2389 13.5398C73.5551 13.5792 72.8752 13.5204 72.2203 13.3114C70.7089 12.829 69.9524 11.726 69.7291 10.1964C69.6809 9.86645 69.6667 9.53474 69.6672 9.20132C69.6684 6.61501 69.6712 4.02871 69.6621 1.4424C69.6615 1.21175 69.7286 1.16265 69.9444 1.16664C70.6726 1.17978 71.4013 1.18434 72.1289 1.16493C72.3794 1.15808 72.4151 1.24315 72.4146 1.46809C72.4066 4.1212 72.4095 6.77373 72.4095 9.42683C72.4095 9.74199 72.4339 10.0526 72.5515 10.35C72.7946 10.9666 73.2995 11.2624 74.0498 11.2264C74.7115 11.1944 75.121 10.8707 75.3107 10.2364C75.4016 9.93153 75.4107 9.61981 75.4107 9.30523C75.4096 6.70008 75.4141 4.09436 75.4039 1.48922C75.4028 1.22716 75.4709 1.15922 75.7276 1.16607C76.4552 1.18434 77.184 1.18149 77.9121 1.16722C78.1268 1.16322 78.1796 1.22374 78.1779 1.43612C78.1683 2.84346 78.1728 4.2508 78.1728 5.65814C78.1654 5.65814 78.1581 5.65814 78.1507 5.65814L78.1501 5.65699Z" fill="#FEFEFE"/>
<path d="M81.515 1.16916C82.4583 1.16916 83.4005 1.17374 84.3427 1.16458C84.5102 1.16286 84.5451 1.26767 84.6011 1.37592C85.0939 2.33128 85.5873 3.28664 86.0813 4.242C86.1236 4.32391 86.1687 4.40352 86.215 4.48829C86.3271 4.42414 86.3494 4.31417 86.3963 4.22539C86.8965 3.27347 87.3933 2.31983 87.8884 1.36504C87.9473 1.25221 87.9931 1.16286 88.1537 1.16458C89.0862 1.17374 90.0192 1.16916 90.9614 1.16916C90.9843 1.29287 90.8991 1.36848 90.8522 1.4521C89.8843 3.18985 88.917 4.92817 87.937 6.65962C87.8233 6.86065 87.833 7.0027 87.9416 7.19744C89.0284 9.15226 90.1056 11.1122 91.1849 13.0716C91.2387 13.1696 91.2884 13.2698 91.3387 13.3666C91.2633 13.4485 91.1827 13.4153 91.1135 13.4159C90.2759 13.4187 89.4378 13.4113 88.6002 13.4222C88.4116 13.4245 88.3161 13.3672 88.2286 13.1977C87.6295 12.0401 87.0172 10.8889 86.4083 9.7359C86.3603 9.64483 86.3071 9.55663 86.2356 9.43005C86.1716 9.54288 86.1207 9.6265 86.075 9.71299C85.4627 10.8745 84.8475 12.035 84.2438 13.2011C84.1569 13.3695 84.0585 13.4239 83.871 13.4222C82.9671 13.4113 82.0627 13.417 81.1542 13.417C81.1171 13.2916 81.208 13.2171 81.2543 13.1335C82.3485 11.1392 83.4434 9.14539 84.5473 7.1562C84.6434 6.9838 84.6434 6.86409 84.5462 6.69169C83.5634 4.95108 82.5904 3.20531 81.6179 1.45897C81.5704 1.3742 81.4772 1.29917 81.5167 1.16916L81.515 1.16916Z" fill="#FEFEFE"/>
<path d="M66.9531 13.4183C66.0976 13.4183 65.2565 13.4131 64.4154 13.4218C64.2165 13.4241 64.2406 13.2768 64.2159 13.1721C64.0538 12.4835 63.8939 11.7943 63.7485 11.1022C63.71 10.9198 63.6427 10.8525 63.4489 10.8554C62.6929 10.8669 61.9369 10.8663 61.1808 10.8554C60.9865 10.8525 60.8991 10.8957 60.8543 11.1056C60.7059 11.8069 60.5197 12.4996 60.3673 13.2003C60.3276 13.3832 60.25 13.4229 60.0793 13.4212C59.3422 13.4126 58.6052 13.4108 57.8687 13.4218C57.6634 13.4246 57.6341 13.3734 57.6847 13.179C58.7213 9.21237 59.7521 5.2446 60.7784 1.27511C60.8244 1.09677 60.8951 1.03291 61.0854 1.03522C61.8989 1.04672 62.7124 1.04442 63.526 1.03637C63.6881 1.03464 63.7611 1.08124 63.8025 1.24232C64.8345 5.22965 65.8711 9.21582 66.9065 13.2026C66.9232 13.2664 66.9341 13.3314 66.952 13.4166L66.9531 13.4183ZM62.3295 4.42827C62.31 4.43057 62.2899 4.43345 62.2703 4.43575C61.9656 5.836 61.6638 7.2374 61.3522 8.63593C61.3102 8.82463 61.3608 8.86835 61.5425 8.8649C62.03 8.85512 62.5187 8.84821 63.0057 8.8672C63.2437 8.8764 63.2724 8.80104 63.2253 8.59106C63.0166 7.65852 62.82 6.7231 62.6199 5.78883C62.5227 5.3355 62.4261 4.8816 62.3295 4.42769L62.3295 4.42827Z" fill="#FEFEFE"/>
<path d="M48.12 7.26972C48.12 5.33376 48.1246 3.39722 48.1143 1.46126C48.1131 1.22306 48.1725 1.16293 48.4127 1.16408C50.619 1.17439 52.8259 1.17267 55.0323 1.16522C55.2385 1.16465 55.3151 1.20302 55.3071 1.4269C55.2886 1.95083 55.2869 2.47648 55.3071 3.00041C55.3169 3.25293 55.2236 3.29129 54.9966 3.28957C53.7304 3.27869 52.4636 3.28957 51.1974 3.27984C50.9814 3.27812 50.9019 3.32049 50.9065 3.5564C50.9232 4.32884 50.9209 5.10128 50.9076 5.87372C50.9042 6.08844 50.9624 6.14628 51.179 6.14456C52.3588 6.13368 53.5391 6.14628 54.7189 6.13368C54.9482 6.13139 55.0064 6.19552 54.9995 6.41712C54.9828 6.95078 54.9851 7.48559 54.9995 8.01925C55.0046 8.21337 54.9395 8.25688 54.7558 8.25574C53.576 8.24829 52.3956 8.25803 51.2158 8.24715C50.9883 8.24486 50.9013 8.28666 50.9065 8.53803C50.9238 9.37689 50.9197 10.2169 50.9082 11.0558C50.9053 11.259 50.9647 11.3083 51.164 11.3066C52.5074 11.298 53.8502 11.3066 55.1936 11.2974C55.3981 11.2962 55.4759 11.3312 55.4684 11.5574C55.4494 12.1002 55.4569 12.6447 55.4655 13.1881C55.4678 13.3513 55.4396 13.4206 55.2495 13.42C52.9469 13.4132 50.6444 13.4114 48.3418 13.4217C48.0895 13.4229 48.12 13.29 48.12 13.1354C48.1206 11.18 48.12 9.22515 48.12 7.26972Z" fill="#FEFEFE"/>
</g>
</svg>
