<svg width="161" height="83" viewBox="0 0 161 83" fill="none" xmlns="http://www.w3.org/2000/svg">
<g opacity="0.7">
<path d="M92.8999 8.72307C92.658 8.84435 92.5778 9.0821 92.4482 9.27782C91.5942 10.553 90.7389 11.8271 89.913 13.1155C89.7126 13.4277 89.4867 13.561 89.0885 13.5346C88.5579 13.4997 87.9619 13.6342 87.5102 13.4577C87.0478 13.2764 86.9048 12.7 86.6295 12.2942C85.9345 11.2699 85.2596 10.2348 84.5714 9.20698C84.4524 9.03047 84.3736 8.82393 84.0689 8.6186V9.22739C84.0689 12.0132 84.0689 14.799 84.0689 17.5848C84.0689 18.2212 84.0635 18.2248 83.39 18.2284C82.6683 18.232 81.9466 18.2284 81.225 18.2236C81.1729 18.2236 81.1221 18.202 81.0686 18.1888C80.9256 17.993 80.9831 17.7709 80.9831 17.5596C80.9791 13.4529 80.9804 9.34627 80.9804 5.23842C80.9804 5.09433 80.9831 4.95023 80.9858 4.80614C80.9898 4.63683 81.0753 4.54557 81.2771 4.54677C82.373 4.54918 83.4688 4.55158 84.5634 4.54557C84.9175 4.54317 84.9776 4.80854 85.1046 5.00307C86.0775 6.49323 87.0411 7.98819 88.0073 9.48076C88.1543 9.7077 88.3067 9.93345 88.4604 10.1664C88.7557 10.1076 88.7985 9.8686 88.9094 9.69929C89.9237 8.14789 90.9421 6.5977 91.9257 5.03069C92.1529 4.66926 92.3961 4.51555 92.8652 4.53597C93.6911 4.57199 94.521 4.54678 95.3496 4.54557C96.1875 4.54557 96.1033 4.50955 96.1033 5.26604C96.1047 6.70697 96.1033 8.1479 96.1033 9.58882C96.1033 12.2545 96.1033 14.9203 96.1033 17.586C96.1033 18.22 96.098 18.2236 95.4231 18.2272C94.8351 18.2308 94.247 18.2308 93.659 18.2272C93.0296 18.2224 93.0229 18.22 93.0215 17.622C93.0175 16.2291 93.0215 14.8362 93.0215 13.4433C93.0215 12.0024 93.0242 10.5615 93.0175 9.12052C93.0175 8.98964 93.095 8.82994 92.8999 8.72307Z" fill="white"/>
<path d="M67.242 31.9473C67.2259 36.0083 63.7192 39.1315 59.1767 39.1291C54.6021 39.1267 51.0767 35.9663 51.0914 31.8813C51.1061 27.7722 54.6061 24.6682 59.2101 24.6802C63.8074 24.6922 67.258 27.8142 67.2406 31.9473H67.242ZM64.0546 31.7636C64.0827 31.3745 63.9891 30.8774 63.8288 30.3935C63.2046 28.5107 61.4352 27.3087 59.2582 27.2823C57.021 27.2559 55.2276 28.4086 54.5513 30.3178C54.2547 31.1548 54.2025 32.0001 54.3789 32.8719C54.9416 35.6409 58.0046 37.2271 60.9301 36.2449C62.8518 35.6001 64.0586 33.9154 64.0546 31.7624V31.7636Z" fill="white"/>
<path d="M50.8424 11.3636C50.8424 9.27308 50.8398 7.18374 50.8438 5.09319C50.8438 4.55644 50.8545 4.54924 51.4625 4.54804C53.3335 4.54564 55.2072 4.4928 57.0755 4.56365C60.4219 4.69093 63.0025 5.99737 64.3296 8.85281C66.2086 12.8922 63.3099 17.3939 58.456 18.0964C57.8212 18.1876 57.1851 18.2369 56.5409 18.2333C54.8303 18.2237 53.1197 18.2333 51.4091 18.2285C50.8571 18.2273 50.8451 18.2176 50.8438 17.7073C50.8398 15.5928 50.8424 13.4794 50.8424 11.3648V11.3636ZM53.9189 11.3768C53.9189 12.6749 53.9255 13.9729 53.9135 15.2697C53.9108 15.5687 54.0004 15.7128 54.3599 15.696C54.7862 15.6768 55.2152 15.696 55.6428 15.6912C56.4434 15.6816 57.2506 15.7513 58.0404 15.582C60.4606 15.062 61.8585 13.202 61.6968 11.1127C61.5191 8.81439 59.7056 7.21976 57.1944 7.10449C56.287 7.06366 55.3769 7.08527 54.4681 7.09008C53.9309 7.09368 53.9229 7.10448 53.9202 7.62802C53.9149 8.87803 53.9189 10.1268 53.9189 11.3768Z" fill="white"/>
<path d="M2.4269 31.863C2.4269 29.7748 2.42423 27.6867 2.42823 25.5985C2.42823 25.0546 2.43893 25.0462 3.047 25.045C4.86319 25.0414 6.67938 25.0281 8.49557 25.0522C10.2409 25.0762 11.8927 25.4484 13.3134 26.3934C15.8445 28.0757 16.9137 30.356 16.351 33.1334C15.7978 35.8603 13.876 37.5774 10.9666 38.4096C10.2289 38.6209 9.46047 38.7242 8.68 38.7242C6.81035 38.7242 4.9407 38.729 3.07105 38.7266C2.43759 38.7266 2.43091 38.7182 2.42957 38.1274C2.4269 36.0392 2.42957 33.9511 2.42957 31.863H2.4269ZM5.50868 31.9026C5.50868 33.1742 5.51937 34.447 5.502 35.7186C5.49665 36.0813 5.60356 36.2422 6.0379 36.2242C7.10303 36.1785 8.1735 36.2854 9.23729 36.1473C11.7457 35.8219 13.4417 33.9487 13.316 31.6396C13.1958 29.4086 11.2513 27.6783 8.75618 27.6026C7.84875 27.575 6.93998 27.6122 6.03255 27.5858C5.60089 27.5738 5.49398 27.7215 5.50066 28.0865C5.52204 29.3581 5.50868 30.6298 5.50868 31.9026Z" fill="white"/>
<path d="M85.1846 31.8452C85.1846 29.7546 85.1846 27.6641 85.1859 25.5735C85.1859 25.3202 85.1004 25.0272 85.5895 25.0404C87.9122 25.0992 90.2429 24.9083 92.5603 25.1605C95.7262 25.5039 98.3149 27.592 99.0285 30.3346C100.017 34.1339 97.3166 37.8322 93.0133 38.5659C92.4614 38.6596 91.9081 38.7292 91.3428 38.7268C89.5253 38.722 87.7064 38.728 85.8889 38.728C85.1485 38.728 85.1859 38.7941 85.1859 38.1156C85.1859 36.0251 85.1859 33.9345 85.1859 31.844L85.1846 31.8452ZM88.2597 31.8608C88.2597 33.1564 88.261 34.4521 88.2583 35.7477C88.2583 36.0011 88.245 36.2328 88.6553 36.2196C89.8006 36.1824 90.9512 36.2953 92.0925 36.1331C94.2134 35.833 96.1285 34.2575 96.0577 31.7515C95.9922 29.4653 94.0878 27.7145 91.6248 27.6089C90.6652 27.568 89.703 27.6101 88.7421 27.586C88.3439 27.5752 88.249 27.7121 88.253 28.0459C88.2704 29.3176 88.2597 30.5892 88.2597 31.8608Z" fill="white"/>
<path d="M46.6463 31.4573C46.7705 31.629 46.9857 31.6879 47.1648 31.7851C49.7588 33.2032 49.4407 36.575 47.1822 37.8514C46.2052 38.4038 45.1294 38.6752 43.9948 38.704C42.3657 38.7448 40.7339 38.7268 39.1048 38.7256C38.5462 38.7256 38.5355 38.7136 38.5342 38.2069C38.5302 35.7081 38.5329 33.2105 38.5329 30.7116C38.5329 29.0065 38.5302 27.3002 38.5342 25.5951C38.5355 25.0536 38.5462 25.0344 39.1556 25.0452C40.8636 25.0752 42.5769 24.9467 44.2808 25.1461C44.8688 25.2145 45.4261 25.3706 45.962 25.5963C48.5573 26.6891 48.7778 29.8351 46.8962 31.1968C46.7973 31.2688 46.6797 31.33 46.6463 31.4561V31.4573ZM41.6186 34.5601C41.6186 35.0644 41.62 35.5688 41.6186 36.0731C41.6186 36.258 41.6574 36.4213 41.9113 36.4129C42.7359 36.3865 43.5712 36.521 44.3837 36.3145C45.3673 36.0635 45.8685 35.4043 45.8123 34.4785C45.7575 33.5659 45.1561 32.9235 44.1485 32.8202C43.4348 32.747 42.7078 32.7842 41.9875 32.7686C41.7122 32.7626 41.6133 32.8826 41.6173 33.1204C41.6267 33.6007 41.62 34.081 41.62 34.5613L41.6186 34.5601ZM41.6186 28.9645C41.6895 29.3812 41.4863 29.9119 41.7309 30.4151C42.3924 30.4895 43.054 30.5123 43.7061 30.3706C44.5187 30.1953 44.9356 29.6886 44.941 28.9081C44.9463 28.13 44.5294 27.6365 43.7155 27.4395C43.1382 27.299 42.5515 27.3759 41.9688 27.3543C41.6748 27.3435 41.6146 27.4996 41.6173 27.7193C41.6213 28.1024 41.6173 28.4842 41.6173 28.9645H41.6186Z" fill="white"/>
<path d="M78.1644 32.7062C79.7387 34.7115 81.2622 36.6508 82.7777 38.5816C82.6467 38.8218 82.4342 38.7221 82.2725 38.7245C81.4706 38.7353 80.6675 38.7017 79.8683 38.7401C79.4005 38.7629 79.1506 38.5984 78.9074 38.2598C77.8222 36.7468 76.709 35.2495 75.5971 33.7509C75.4541 33.5588 75.3819 33.2646 75.0839 33.237C74.6603 33.1985 74.2286 33.2094 73.8036 33.2346C73.5885 33.2478 73.6352 33.4447 73.6339 33.5792C73.6299 34.3717 73.6312 35.1642 73.6312 35.9579C73.6312 36.7264 73.6178 37.4961 73.6379 38.2634C73.6459 38.5888 73.5644 38.7485 73.1554 38.7353C72.4351 38.7113 71.7121 38.7161 70.9904 38.7341C70.6416 38.7425 70.5067 38.6296 70.5281 38.3198C70.5468 38.0569 70.5307 37.7915 70.5307 37.5273C70.5307 33.6596 70.5307 29.792 70.5307 25.9243C70.5307 25.7562 70.5401 25.588 70.5307 25.4199C70.5133 25.1474 70.6376 25.0321 70.9504 25.0405C72.7652 25.0873 74.5841 24.9492 76.3976 25.1414C76.9589 25.2014 77.4975 25.3347 78.0147 25.5352C80.5512 26.5234 81.4332 29.4737 79.8028 31.485C79.3845 32.0002 78.8138 32.3496 78.167 32.705L78.1644 32.7062ZM73.6312 29.0655C73.6312 29.5698 73.6312 30.0729 73.6312 30.5773C73.6312 30.7634 73.6713 30.9147 73.9332 30.9039C74.6242 30.8751 75.3218 30.9831 76.006 30.8198C76.9308 30.5989 77.3986 30.0333 77.4039 29.1255C77.4093 28.2357 76.9215 27.6558 75.994 27.442C75.3084 27.2847 74.6121 27.3772 73.9199 27.358C73.6553 27.3508 73.6312 27.5177 73.6312 27.6966C73.6312 28.1529 73.6312 28.6092 73.6312 29.0643V29.0655Z" fill="white"/>
<path d="M129.143 38.729C128.22 38.729 127.313 38.7146 126.406 38.7362C126.07 38.7446 125.936 38.6005 125.836 38.3532C125.474 37.4502 125.083 36.5568 124.744 35.6466C124.612 35.2912 124.415 35.1615 123.997 35.1663C122.34 35.1855 120.681 35.1843 119.024 35.1663C118.612 35.1615 118.399 35.2792 118.264 35.6334C117.927 36.5184 117.529 37.3854 117.203 38.2727C117.068 38.639 116.858 38.747 116.451 38.7362C115.576 38.7122 114.699 38.729 113.827 38.729C113.791 38.442 113.927 38.2547 114.01 38.0566C115.746 33.9271 117.485 29.7989 119.223 25.6694C119.399 25.2531 119.739 25.0446 120.243 25.0438C121.125 25.0438 122.01 25.0702 122.889 25.033C123.371 25.0126 123.583 25.1699 123.748 25.5685C124.951 28.4684 126.181 31.3599 127.401 34.2537C127.958 35.577 128.513 36.9026 129.071 38.2259C129.127 38.3604 129.212 38.4865 129.145 38.729H129.143ZM121.575 27.8572C121.526 27.8608 121.478 27.8632 121.428 27.8668C120.772 29.4891 120.116 31.1113 119.45 32.7564H123.563C122.882 31.0813 122.229 29.4687 121.575 27.8572Z" fill="white"/>
<path d="M48.1551 18.2295C47.1127 18.2295 46.2052 18.2199 45.2978 18.2343C44.9797 18.2391 44.826 18.1359 44.7205 17.8645C44.3596 16.9363 43.9547 16.0213 43.5992 15.0919C43.4749 14.7677 43.2945 14.6488 42.9083 14.6536C41.2244 14.6716 39.5392 14.6692 37.8553 14.6536C37.4798 14.65 37.2833 14.7437 37.1577 15.0823C36.8182 15.9913 36.42 16.8835 36.0685 17.7889C35.9482 18.0999 35.7879 18.2512 35.3883 18.2379C34.5089 18.2091 33.6269 18.2295 32.7422 18.2295C32.6286 18.0086 32.7555 17.8453 32.8263 17.6772C34.5931 13.4817 36.3598 9.28618 38.1306 5.09068C38.3591 4.54793 38.3658 4.54792 39.0487 4.54672C39.9307 4.54432 40.8128 4.54432 41.6962 4.54672C42.5034 4.54912 42.3684 4.48068 42.6517 5.15071C43.9627 8.24511 45.259 11.3431 46.5607 14.4411C47.0779 15.6719 47.5978 16.9027 48.1564 18.2295H48.1551ZM42.4459 12.2857C41.7603 10.5986 41.0961 8.96797 40.3691 7.18002C39.6381 8.98959 38.9819 10.619 38.3083 12.2857H42.4459Z" fill="white"/>
<path d="M0.661554 18.2296C0.581369 17.8874 0.751094 17.6797 0.84197 17.4623C2.55392 13.3785 4.26855 9.29587 5.99787 5.21804C6.33331 4.42793 6.15022 4.55521 7.05899 4.548C7.94102 4.5408 8.82306 4.5432 9.7051 4.548C10.3252 4.55041 10.3279 4.55401 10.5805 5.1532C11.9783 8.47213 13.3749 11.7911 14.7715 15.1112C15.1951 16.1175 15.6161 17.1237 16.0798 18.2284C15.0174 18.2284 14.0431 18.226 13.0689 18.2296C12.7895 18.2296 12.7281 18.0543 12.6532 17.867C12.2897 16.9652 11.9008 16.0718 11.5574 15.164C11.417 14.7942 11.2313 14.6393 10.7622 14.6477C9.13311 14.6789 7.50134 14.6801 5.87225 14.6477C5.36976 14.6369 5.17063 14.8098 5.02496 15.2073C4.71625 16.049 4.33136 16.8691 4.02799 17.7133C3.87831 18.1276 3.63776 18.2596 3.166 18.2404C2.3401 18.2056 1.51285 18.2308 0.660218 18.2308L0.661554 18.2296ZM10.38 12.293C9.67569 10.5663 9.0155 8.94404 8.29785 7.1825C7.57084 8.98006 6.90931 10.6155 6.23041 12.293H10.38Z" fill="white"/>
<path d="M146.077 25.0441C147.095 25.0441 148.058 25.0633 149.019 25.0357C149.444 25.0237 149.699 25.1498 149.935 25.4668C150.813 26.6423 151.725 27.7987 152.624 28.961C152.791 29.176 152.965 29.3861 153.148 29.6142C153.554 29.2552 153.81 28.8301 154.116 28.4411C154.887 27.4613 155.655 26.479 156.398 25.4812C156.629 25.1702 156.873 25.0213 157.306 25.0345C158.285 25.0645 159.268 25.0441 160.249 25.0441C160.323 25.3491 160.096 25.486 159.969 25.6517C158.573 27.4697 157.163 29.278 155.767 31.096C155.244 31.778 155.244 31.5439 155.785 32.2512C157.254 34.1688 158.736 36.0792 160.211 37.9944C160.361 38.189 160.502 38.3895 160.64 38.578C160.518 38.817 160.305 38.7233 160.139 38.7257C159.391 38.7365 158.639 38.6957 157.895 38.7425C157.322 38.7786 156.973 38.6104 156.654 38.1758C155.695 36.8753 154.685 35.6049 153.688 34.3273C153.537 34.134 153.427 33.9058 153.176 33.7605C152.956 33.8578 152.865 34.0619 152.735 34.2288C151.697 35.5677 150.652 36.9029 149.64 38.2598C149.37 38.6213 149.076 38.7593 148.595 38.7413C147.647 38.7065 146.696 38.7305 145.714 38.7305C145.764 38.4039 145.972 38.2382 146.116 38.0485C147.629 36.0696 149.138 34.0883 150.677 32.1275C150.956 31.772 150.94 31.5367 150.67 31.1909C149.27 29.4053 147.896 27.603 146.522 25.8006C146.362 25.5905 146.133 25.4067 146.076 25.0465L146.077 25.0441Z" fill="white"/>
<path d="M131.096 29.7522C131.096 28.3593 131.092 26.9664 131.097 25.5735C131.1 25.0584 131.109 25.0512 131.662 25.0452C132.331 25.0379 132.999 25.0596 133.666 25.0367C134.043 25.0235 134.219 25.1268 134.175 25.481C134.158 25.6239 134.172 25.7692 134.172 25.9133C134.172 28.3629 134.172 30.8125 134.172 33.262C134.172 33.5983 134.183 33.9321 134.25 34.2659C134.541 35.744 135.646 36.5594 137.337 36.5294C138.979 36.4993 140.053 35.6528 140.27 34.1962C140.32 33.8648 140.339 33.5262 140.34 33.1912C140.345 30.7416 140.343 28.292 140.343 25.8425C140.343 25.6744 140.347 25.5062 140.344 25.3381C140.341 25.1304 140.447 25.0403 140.685 25.0415C141.486 25.0488 142.288 25.0451 143.089 25.0439C143.319 25.0439 143.434 25.1352 143.43 25.3453C143.427 25.4654 143.431 25.5855 143.431 25.7056C143.431 28.2752 143.43 30.8449 143.431 33.4145C143.431 34.1158 143.333 34.8074 143.108 35.4751C142.513 37.2402 141.247 38.4038 139.244 38.8913C137.98 39.1987 136.707 39.2191 135.441 38.9357C133.095 38.411 131.753 37.0205 131.263 34.9287C131.136 34.3884 131.088 33.8384 131.093 33.2825C131.104 32.1057 131.097 30.9289 131.096 29.7522Z" fill="white"/>
<path d="M31.5809 6.95555C30.7817 7.51391 30.024 8.04345 29.2769 8.56579C28.9722 8.52977 28.8934 8.29201 28.7343 8.14552C27.3311 6.85469 25.6459 6.46684 23.7428 6.96516C21.8371 7.46468 20.7907 8.70027 20.3951 10.4066C20.208 11.2183 20.2508 12.0324 20.5194 12.8297C21.0566 14.4292 22.1979 15.5087 24.0168 15.8857C25.8397 16.264 27.4581 15.8533 28.7611 14.5961C29.0587 14.3095 29.387 14.2891 29.746 14.5348C30.3581 14.9563 30.9662 15.3826 31.5716 15.8041C29.7233 18.1888 26.0508 19.2022 22.7071 18.2885C19.3554 17.3723 17.165 14.6993 17.1222 11.4765C17.0794 8.25959 19.2257 5.50141 22.52 4.53719C25.8931 3.55016 29.607 4.52158 31.5796 6.95555H31.5809Z" fill="white"/>
<path d="M19.7817 31.85C19.7817 29.7834 19.779 27.7169 19.7817 25.6516C19.7817 25.0548 19.7897 25.0464 20.4272 25.0452C22.9664 25.0416 25.5069 25.0416 28.0461 25.0452C28.6595 25.0452 28.6635 25.0548 28.6729 25.5963C28.6796 26.0046 28.6796 26.4129 28.6729 26.8211C28.6649 27.3447 28.6609 27.3519 28.0381 27.3531C26.5413 27.3567 25.0445 27.3519 23.5477 27.3555C22.9036 27.3579 22.8982 27.3639 22.8929 27.9523C22.8862 28.6247 22.8889 29.2971 22.8929 29.9708C22.8969 30.6108 22.8996 30.6132 23.6573 30.6144C24.8601 30.6168 26.0642 30.6312 27.2656 30.606C27.7 30.5964 27.8176 30.7356 27.7935 31.1007C27.7641 31.5318 27.7922 31.9652 27.7855 32.3975C27.7775 32.9114 27.7722 32.9199 27.2215 32.9235C25.992 32.9295 24.7625 32.9259 23.533 32.9247C22.8421 32.9247 22.8929 32.903 22.8942 33.5226C22.8942 34.3392 22.9089 35.1569 22.8875 35.9734C22.8782 36.3156 22.9971 36.4309 23.3874 36.4261C24.9109 36.4081 26.4344 36.4165 27.9579 36.4201C28.6662 36.4213 28.6689 36.4249 28.6756 37.0325C28.6796 37.4408 28.6502 37.8514 28.6836 38.2573C28.717 38.6572 28.5232 38.7376 28.1223 38.7352C25.5296 38.7232 22.9357 38.7316 20.343 38.7268C19.7964 38.7268 19.7857 38.7124 19.7844 38.1925C19.779 36.0779 19.783 33.9633 19.783 31.85H19.7817Z" fill="white"/>
<path d="M116.333 10.2046C116.333 10.7809 116.313 11.3801 116.341 11.9781C116.358 12.3431 116.183 12.4236 115.819 12.4188C114.617 12.4056 113.414 12.414 112.212 12.414C111.332 12.414 111.413 12.3984 111.412 13.1008C111.412 13.8933 111.427 14.6858 111.405 15.4784C111.396 15.8266 111.54 15.931 111.918 15.9274C113.388 15.9118 114.857 15.9214 116.327 15.9214C116.592 15.9214 116.856 15.9214 117.154 15.9214V18.1969C116.986 18.2089 116.856 18.2269 116.727 18.2269C114.134 18.2281 111.543 18.2305 108.95 18.2269C108.338 18.2269 108.327 18.2173 108.327 17.6794C108.325 13.4767 108.325 9.27276 108.327 5.07005C108.327 4.56092 108.341 4.54891 108.898 4.54771C111.491 4.54291 114.082 4.55612 116.675 4.5357C117.125 4.5321 117.216 4.6894 117.2 5.04003C117.179 5.49512 117.175 5.95382 117.2 6.40891C117.22 6.75113 117.097 6.87241 116.704 6.86401C115.717 6.84239 114.726 6.8568 113.739 6.8568C113.151 6.8568 112.563 6.87361 111.976 6.85079C111.58 6.83518 111.391 6.92284 111.405 7.3215C111.433 8.08879 111.433 8.85849 111.405 9.62699C111.391 10.028 111.595 10.1097 111.981 10.1049C113.157 10.0929 114.333 10.0965 115.508 10.1037C115.77 10.1049 116.044 10.0449 116.335 10.2046H116.333Z" fill="white"/>
<path d="M68.1934 11.3227C68.1934 9.28017 68.192 7.23766 68.1934 5.19514C68.1934 4.55393 68.1987 4.54672 68.8629 4.54672C71.3754 4.54432 73.8892 4.54432 76.4016 4.54672C77.0391 4.54672 77.0418 4.55393 77.0471 5.1399C77.0511 5.50014 77.0471 5.86037 77.0471 6.2206C77.0471 6.90864 77.0886 6.85461 76.3696 6.85581C74.8995 6.85581 73.4295 6.85821 71.9581 6.85581C71.2257 6.85461 71.2644 6.8402 71.2658 7.49102C71.2685 8.21149 71.2832 8.93315 71.2591 9.65362C71.2471 10.0066 71.4021 10.1099 71.7736 10.1063C73.0299 10.0931 74.2861 10.0979 75.5437 10.1027C76.1891 10.1051 76.1918 10.1123 76.1972 10.6959C76.2012 11.1041 76.1744 11.5148 76.2052 11.9207C76.2333 12.2941 76.0916 12.4286 75.6666 12.4214C74.4906 12.4022 73.3145 12.4142 72.1385 12.4142C71.1428 12.4142 71.2725 12.377 71.2671 13.1791C71.2631 13.9236 71.2604 14.6692 71.2671 15.4137C71.2725 15.9096 71.2818 15.9181 71.8551 15.9205C73.3787 15.9253 74.9022 15.9253 76.427 15.9205C77.0805 15.9193 77.0485 15.9144 77.0458 16.4656C77.0431 16.9219 77.0284 17.3794 77.0511 17.8345C77.0672 18.1623 76.9081 18.2343 76.5754 18.2331C73.956 18.2235 71.3353 18.2199 68.7159 18.2367C68.2802 18.2391 68.18 18.0987 68.1827 17.7372C68.1974 15.5986 68.1894 13.4601 68.1894 11.3215L68.1934 11.3227Z" fill="white"/>
<path d="M102.535 31.8885C102.535 29.8243 102.534 27.759 102.535 25.6949C102.535 25.0525 102.541 25.0465 103.207 25.0453C105.719 25.0429 108.23 25.0429 110.741 25.0453C111.382 25.0453 111.385 25.0525 111.392 25.6396C111.396 25.9999 111.392 26.3601 111.392 26.7203C111.392 27.4036 111.449 27.3543 110.718 27.3543C109.249 27.3543 107.779 27.3519 106.311 27.3543C105.62 27.3555 105.616 27.3604 105.613 27.9836C105.609 28.656 105.609 29.3284 105.613 29.9997C105.617 30.6072 105.621 30.6108 106.328 30.6132C107.529 30.6168 108.732 30.6108 109.934 30.6156C110.534 30.618 110.536 30.6253 110.543 31.1704C110.548 31.5547 110.547 31.9389 110.543 32.3231C110.536 32.9151 110.535 32.9211 109.898 32.9235C108.696 32.9283 107.493 32.9271 106.292 32.9235C105.518 32.9211 105.612 32.9451 105.612 33.5635C105.612 34.3561 105.634 35.1486 105.602 35.9399C105.588 36.3301 105.748 36.4274 106.154 36.4238C107.676 36.407 109.2 36.4154 110.722 36.4178C111.381 36.419 111.385 36.4238 111.392 36.9918C111.397 37.4721 111.388 37.9524 111.392 38.4327C111.394 38.644 111.293 38.7377 111.058 38.7281C110.897 38.7209 110.737 38.7281 110.576 38.7281C108.172 38.7281 105.768 38.7293 103.364 38.7281C102.44 38.7281 102.535 38.8049 102.534 38.01C102.531 35.9699 102.534 33.9286 102.534 31.8885H102.535Z" fill="white"/>
<path d="M103.769 11.4019C103.769 13.49 103.771 15.577 103.767 17.6651C103.767 18.2175 103.757 18.2235 103.158 18.2283C102.464 18.2343 101.769 18.2211 101.076 18.2331C100.764 18.2379 100.636 18.1262 100.655 17.8524C100.664 17.7095 100.655 17.5642 100.655 17.4201C100.655 13.3891 100.655 9.35815 100.655 5.32715C100.655 5.18306 100.663 5.03897 100.655 4.89487C100.643 4.65712 100.75 4.54305 101.026 4.54545C101.827 4.55265 102.629 4.55025 103.429 4.54665C103.666 4.54665 103.767 4.64631 103.767 4.85164C103.767 5.01975 103.769 5.18786 103.769 5.35597C103.769 7.37207 103.769 9.38697 103.769 11.4031V11.4019Z" fill="white"/>
<path d="M7.17799 64.2674C7.87292 64.2674 8.43155 64.259 8.99151 64.2698C9.58087 64.2806 10.0165 64.0525 10.3346 63.619C10.4081 63.5193 10.491 63.4233 10.5524 63.3176C10.6527 63.1447 10.8171 63.0414 11.0055 63.1243C11.1872 63.2035 11.0883 63.3752 11.0349 63.5061C10.7502 64.2038 10.4629 64.9002 10.1716 65.5967C10.1355 65.6831 10.0914 65.7756 10.0246 65.8428C9.95106 65.9161 9.83746 65.9269 9.72787 65.8932C9.60225 65.8548 9.59022 65.7612 9.59423 65.6615C9.59824 65.5414 9.60626 65.4213 9.6076 65.3013C9.61027 64.9434 9.3804 64.7669 9.01289 64.7573C8.4262 64.7429 7.83818 64.7633 7.25015 64.7597C7.02964 64.7585 6.90135 64.851 6.83186 65.0275C6.52582 65.7948 6.20107 66.5561 5.92175 67.3306C5.73065 67.8613 5.86696 68.0414 6.46969 68.1003C8.05334 68.2552 9.50202 68.0018 10.6834 66.9475C10.9119 66.7434 11.1284 66.4444 11.6149 66.6677C11.2073 67.2525 10.8104 67.8145 10.4228 68.3825C10.2945 68.571 10.1168 68.6166 9.88423 68.6166C7.50541 68.6118 5.12792 68.613 2.7491 68.6118C2.6208 68.6118 2.45241 68.637 2.42034 68.4869C2.38426 68.3164 2.52993 68.2336 2.6943 68.1867C2.74509 68.1723 2.79721 68.1555 2.84933 68.1531C3.98128 68.0811 4.50649 67.423 4.85262 66.5417C5.34041 65.2989 5.87765 64.0717 6.3895 62.8361C6.47236 62.6343 6.53784 62.4254 6.60199 62.2189C6.85992 61.394 6.81315 61.3159 5.9124 61.0109C5.77876 60.9653 5.56092 60.9833 5.58631 60.7708C5.6077 60.5918 5.76272 60.5498 5.93646 60.5498C8.17496 60.5498 10.4148 60.5498 12.6814 60.5498C12.688 61.173 12.5009 61.7001 12.3954 62.2381C12.3633 62.4038 12.2657 62.4939 12.0693 62.477C11.8942 62.4626 11.8675 62.3474 11.8568 62.2237C11.8488 62.1276 11.8541 62.0304 11.8394 61.9355C11.7352 61.2739 11.5387 61.095 10.8184 61.0685C10.2852 61.0493 9.75059 61.0685 9.21602 61.0697C8.73491 61.0709 8.39546 61.2727 8.22841 61.6749C7.88495 62.5011 7.55486 63.3332 7.17799 64.2662V64.2674Z" fill="white"/>
<path d="M13.3279 68.4469C12.9457 67.5727 12.9845 67.4923 14.1725 66.6253C13.7088 66.4176 13.2999 66.1702 13.1569 65.7007C12.9952 65.1676 13.078 64.6536 13.3159 64.1553C13.9373 62.8549 15.3085 62.2857 16.8534 62.7036C17.1474 62.7828 17.4334 62.7468 17.7234 62.7648C18.0896 62.7876 18.4624 62.724 18.8273 62.8056C18.756 63.1859 18.3604 63.4212 17.6406 63.5117C17.6432 63.9031 17.69 64.3054 17.5457 64.7005C17.1862 65.6875 16.4966 66.3503 15.3553 66.6025C15.0479 66.6697 14.7272 66.6985 14.496 66.9411C14.1498 67.3037 14.2033 67.5883 14.7098 67.7636C15.1321 67.9089 15.5745 68.0062 16.0048 68.1311C16.3857 68.2415 16.7679 68.3532 17.1046 68.5525C17.7087 68.9116 17.829 69.4315 17.4321 69.9791C17.2396 70.2432 16.983 70.4558 16.6877 70.6239C15.1842 71.4788 13.5565 71.6649 11.8472 71.3011C11.342 71.193 10.8729 70.9673 10.7821 70.4414C10.6952 69.937 11.0039 69.5708 11.4155 69.2706C11.9621 68.8707 12.6263 68.6798 13.3293 68.4469H13.3279ZM14.0469 70.7235C14.2073 70.7235 14.3677 70.7295 14.5267 70.7235C15.0907 70.6983 15.6466 70.6227 16.1224 70.3261C16.681 69.9779 16.6489 69.6224 16.0302 69.3919C15.4903 69.1914 14.9263 69.0425 14.377 68.8623C13.6366 68.621 12.7185 68.932 12.3537 69.5528C12.0864 70.0067 12.2481 70.3849 12.788 70.5903C13.1943 70.7452 13.6219 70.7247 14.0483 70.7223L14.0469 70.7235ZM16.4538 63.7374C16.4151 63.5585 16.4832 63.2307 16.113 63.089C15.7468 62.9485 15.4395 63.0962 15.1668 63.316C15.1267 63.3472 15.092 63.3844 15.0586 63.4228C14.4986 64.0821 14.2781 64.8409 14.3289 65.6515C14.361 66.1654 14.7913 66.3455 15.2978 66.109C15.5932 65.9709 15.7856 65.7427 15.946 65.4882C16.2694 64.9754 16.3937 64.4147 16.4525 63.7374H16.4538Z" fill="white"/>
<path d="M7.17653 77.6859C7.59215 77.6859 7.85944 77.6679 8.12271 77.6895C8.94862 77.7555 9.5901 77.5166 9.98434 76.8309C10.0325 76.7457 10.0899 76.6592 10.1661 76.5944C10.2677 76.5079 10.4133 76.4815 10.5323 76.5439C10.6312 76.5968 10.6205 76.7097 10.5817 76.8045C10.2703 77.5694 9.95494 78.3343 9.64489 79.0992C9.58074 79.2577 9.45913 79.3381 9.28272 79.3189C9.06622 79.2949 9.09295 79.1436 9.08493 78.9935C9.04751 78.2394 8.97534 78.1794 8.16414 78.1518C7.37565 78.1254 6.85088 78.4384 6.58984 79.0908C6.4014 79.5639 6.1996 80.0358 6.04458 80.5185C5.86015 81.0961 5.9978 81.2918 6.64998 81.4647C6.85445 81.5188 7.06828 81.5392 7.27408 81.5884C7.39703 81.6184 7.54939 81.6532 7.51063 81.8153C7.47989 81.9486 7.36362 82.0075 7.21528 82.0075C6.7609 82.0087 6.30652 82.0099 5.85214 82.0099C4.80973 82.0099 3.76866 82.0099 2.72625 82.0075C2.6033 82.0075 2.43892 82.0351 2.42155 81.867C2.40685 81.7325 2.51109 81.6388 2.6474 81.604C2.85188 81.5512 3.06169 81.5176 3.27018 81.4755C3.88894 81.3518 4.33396 81.03 4.57318 80.5065C5.32024 78.865 6.03923 77.2128 6.62993 75.5197C6.86781 74.84 6.75288 74.6888 6.01651 74.457C5.96573 74.4414 5.91361 74.4318 5.86416 74.4138C5.7225 74.3645 5.52739 74.3537 5.59287 74.1424C5.63564 74.0067 5.76126 73.9695 5.90292 73.9671C6.06329 73.9647 6.22366 73.9647 6.38403 73.9647C8.06792 73.9647 9.75047 73.9635 11.4344 73.9659C11.6722 73.9659 11.9155 73.9275 12.1881 74.0319C12.1894 74.5951 11.9876 75.1426 11.8834 75.7022C11.858 75.8415 11.7444 75.8931 11.5934 75.8907C11.4197 75.8871 11.3916 75.7815 11.3609 75.6554C11.1595 74.8573 10.6053 74.4622 9.69835 74.4702C9.51125 74.4714 9.32415 74.4786 9.13839 74.4882C8.7241 74.5098 8.4234 74.6948 8.2764 75.0382C7.91423 75.8835 7.56943 76.7349 7.17786 77.6823L7.17653 77.6859Z" fill="white"/>
<path d="M42.1265 81.067C42.645 80.9277 42.8882 80.439 43.4041 80.1568C43.1916 81.2159 41.914 82.2365 40.8943 82.2533C40.3116 82.263 40.019 81.8811 40.2849 81.3828C40.7126 80.5831 41.1883 79.8038 41.64 79.0149C41.8966 78.567 42.1492 78.1179 42.3991 77.6664C42.4699 77.5391 42.5582 77.389 42.4272 77.2701C42.3056 77.1597 42.1131 77.1753 41.9715 77.2389C41.0547 77.6472 40.1726 78.0915 39.7811 79.0245C39.4323 79.8554 39.0741 80.6815 38.7186 81.5101C38.6518 81.6662 38.597 81.8319 38.4994 81.9724C38.3003 82.2593 37.9408 82.3374 37.588 82.1933C37.2579 82.0588 37.1604 81.8427 37.286 81.4752C37.3408 81.3155 37.4317 81.1654 37.5078 81.0129C37.8994 80.224 38.2936 79.4363 38.6852 78.6474C38.8148 78.3845 38.9512 78.1215 38.9819 77.8297C39.0019 77.6412 39.0501 77.425 38.8189 77.3122C38.5796 77.1945 38.4206 77.3686 38.2736 77.4959C38.14 77.6112 38.0384 77.7565 37.9128 77.8801C37.8366 77.9546 37.739 77.987 37.5773 77.8645C37.8513 77.2966 38.164 76.7274 38.6852 76.2807C39.3454 75.7139 40.0029 75.9073 40.186 76.7202C40.2595 77.0468 40.2582 77.3866 40.2943 77.7577C40.6083 77.6868 40.7259 77.425 40.909 77.2461C41.2899 76.8751 41.6521 76.486 42.1278 76.2086C42.6477 75.9049 43.193 75.8724 43.5524 76.1318C43.9654 76.4308 43.9413 76.8331 43.8531 77.2533C43.7823 77.5907 43.6099 77.8873 43.4469 78.1887C42.9591 79.0953 42.4646 79.9995 41.9741 80.9049C41.9207 80.9565 41.8686 81.0202 41.9274 81.0838C41.9888 81.1486 42.0637 81.103 42.1292 81.0682L42.1265 81.067Z" fill="white"/>
<path d="M18.5321 50.2447C18.9758 50.2051 19.1361 49.9433 19.3673 49.7596C19.7322 49.4678 20.1171 49.2157 20.6155 49.158C21.2209 49.0872 21.5764 49.3225 21.7047 49.8629C21.825 50.3684 21.7889 50.8751 21.6179 51.3554C21.0525 52.9429 19.9888 54.1965 18.4064 55.0766C17.8171 55.4045 17.1903 55.5558 16.5074 55.2832C15.7109 54.965 15.485 54.5291 15.7924 53.7954C16.4793 52.1612 17.1769 50.5317 17.8705 48.8999C17.9561 48.6993 18.0322 48.494 18.1258 48.2959C18.3316 47.8564 18.373 47.4601 17.8318 47.1792C17.7195 47.1203 17.6073 47.0279 17.6567 46.8886C17.7075 46.7421 17.8652 46.7697 17.9895 46.7565C18.6176 46.6892 19.247 46.6256 20.0315 46.5439C19.501 47.8552 19.0172 49.05 18.5321 50.2447ZM20.506 51.1273C20.5086 50.4381 20.1064 50.1787 19.5143 50.4693C18.7152 50.8619 17.9895 51.3482 17.6741 52.1816C17.503 52.6343 17.2985 53.0762 17.1195 53.5276C16.895 54.0956 17.185 54.457 17.8492 54.4558C18.1859 54.4558 18.4733 54.3346 18.7258 54.1496C19.8177 53.3439 20.3095 52.2584 20.5046 51.1273H20.506ZM18.6229 50.4681C18.6042 50.4525 18.5828 50.4212 18.5695 50.4236C18.5321 50.4308 18.4987 50.4525 18.4626 50.4681C18.4799 50.4837 18.5013 50.5161 18.5147 50.5137C18.5521 50.5065 18.5855 50.4849 18.6229 50.4681Z" fill="white"/>
<path d="M10.9985 52.7804C10.5214 53.5465 10.0777 54.2538 9.64071 54.9646C9.53914 55.1291 9.40282 55.2 9.19033 55.1988C6.97321 55.1904 4.7561 55.1892 2.54032 55.1808C2.50022 55.1808 2.46013 55.1267 2.4187 55.0979C2.43207 54.7941 2.71138 54.7713 2.93322 54.7497C3.90881 54.6548 4.44872 54.1253 4.76679 53.3436C5.35214 51.9027 5.94417 50.4653 6.53086 49.0256C6.5763 48.9139 6.60169 48.7951 6.6351 48.6786C6.8369 47.9833 6.75538 47.838 6.02703 47.6039C5.9268 47.5715 5.82256 47.5499 5.71965 47.5234C5.63412 47.5018 5.582 47.4478 5.58067 47.3733C5.57799 47.2725 5.62477 47.174 5.72901 47.138C5.8239 47.1056 5.93615 47.1056 6.04173 47.1044C7.32336 47.102 8.60632 47.1008 9.88794 47.1056C10.0309 47.1056 10.2381 47.0467 10.2621 47.2605C10.2809 47.4322 10.1459 47.5138 9.96813 47.5402C9.9414 47.5438 9.91601 47.5523 9.88928 47.5547C8.6718 47.6555 8.11318 48.3796 7.74967 49.3306C7.22981 50.6899 6.64713 52.0299 6.13127 53.3904C5.6956 54.536 5.99763 54.8458 7.34207 54.6921C8.08244 54.608 8.70789 54.2922 9.2478 53.8431C9.58057 53.5657 9.8973 53.2727 10.2073 52.9749C10.3985 52.79 10.5856 52.6399 10.9985 52.7792V52.7804Z" fill="white"/>
<path d="M21.42 80.2349C21.0819 80.9146 20.7745 81.4885 20.2493 81.9376C19.5972 82.4948 18.965 82.3075 18.7071 81.5149C18.6069 81.2063 18.6617 80.8953 18.6109 80.5591C18.3316 80.6 18.2648 80.8317 18.1298 80.983C17.7943 81.3576 17.4789 81.7467 17.0406 82.0301C16.6958 82.2534 16.3256 82.3471 15.9167 82.1586C15.4997 81.9664 15.3901 81.6338 15.4195 81.2532C15.4396 80.9914 15.4703 80.7236 15.5558 80.4751C16.2267 78.5022 17.5631 77.0637 19.7562 76.3456C20.3362 76.1559 21.0365 76.2508 21.4641 75.708C21.551 75.5975 21.7742 75.6119 21.9038 75.7116C22.0722 75.8413 21.9132 75.9746 21.857 76.0947C21.3105 77.239 20.7585 78.3809 20.2092 79.5241C20.0716 79.8098 19.9259 80.0944 19.9112 80.4126C19.9019 80.6036 19.8631 80.8245 20.1063 80.9158C20.3028 80.9902 20.4458 80.8341 20.5981 80.7404C20.832 80.5964 20.9015 80.2745 21.4227 80.2361L21.42 80.2349ZM19.5076 77.0997C19.1682 77.0805 18.8795 77.2078 18.6216 77.3819C17.6727 78.0243 17.0473 78.8708 16.7399 79.8975C16.6717 80.1232 16.6731 80.3754 16.6958 80.6108C16.7346 80.9938 16.9845 81.1283 17.3573 80.9266C18.0696 80.5387 18.7138 80.0596 19.0613 79.3572C19.3526 78.7676 19.5771 78.1516 19.8177 77.5428C19.9607 77.179 19.9005 77.1057 19.5076 77.0985V77.0997Z" fill="white"/>
<path d="M21.3531 66.9968C20.995 67.4086 20.7611 67.6872 20.5139 67.9562C20.2426 68.2528 19.9659 68.5494 19.577 68.7295C18.8754 69.0549 18.1925 68.7247 18.1417 68.021C18.1244 67.7845 18.1444 67.5371 18.2072 67.3078C18.7204 65.4285 19.9512 64.0513 21.853 63.1531C22.2338 62.973 22.6481 62.8541 23.0718 62.8217C23.4366 62.794 23.7453 62.728 23.9779 62.4566C24.0407 62.3834 24.1342 62.3221 24.2278 62.2825C24.3521 62.2297 24.4924 62.2357 24.6087 62.3077C24.765 62.405 24.6608 62.5167 24.61 62.6211C24.2505 63.3692 23.891 64.1161 23.5315 64.8642C23.2883 65.3697 23.0437 65.8752 22.8045 66.3832C22.6896 66.6281 22.6094 66.8803 22.6241 67.1505C22.6321 67.2945 22.6294 67.4506 22.8112 67.5143C22.9836 67.5743 23.1105 67.4723 23.2455 67.393C23.5074 67.2405 23.6037 66.9103 23.9952 66.8262C24.0995 67.1589 23.8522 67.3726 23.7199 67.6019C23.4981 67.985 23.2402 68.3548 22.8539 68.6274C22.2766 69.0345 21.726 68.8904 21.4788 68.2636C21.4093 68.0859 21.3785 67.8913 21.3571 67.7028C21.3371 67.5251 21.3531 67.3438 21.3531 66.998V66.9968ZM19.3806 66.8659C19.4234 67.1793 19.3458 67.4218 19.5944 67.5611C19.8831 67.7232 20.1116 67.5455 20.3134 67.4038C20.9001 66.9895 21.5055 66.5789 21.7955 65.9281C22.0521 65.3505 22.2833 64.7621 22.5158 64.1761C22.6722 63.7835 22.5599 63.6574 22.0989 63.7042C21.9425 63.7198 21.7728 63.7523 21.6431 63.8255C20.3388 64.5508 19.6064 65.6123 19.3806 66.8671V66.8659Z" fill="white"/>
<path d="M36.6072 61.2066C36.4308 61.6929 36.2517 62.1828 36.0566 62.7184C36.6165 62.8661 37.1564 62.6895 37.6563 62.836C37.5502 63.2587 37.2883 63.4728 36.8704 63.4784C36.106 63.4889 35.5964 63.8163 35.3416 64.4607C34.926 65.5126 34.513 66.5644 34.064 67.7064C34.6493 67.6283 35.0235 67.3726 35.4218 67.1528C35.816 66.9367 36.0258 66.502 36.5377 66.3771C36.2196 67.6211 34.5598 68.8555 33.2554 68.8555C32.7102 68.8555 32.4656 68.6045 32.5752 68.123C32.622 67.9141 32.7235 67.7136 32.8051 67.5118C33.3316 66.209 33.8608 64.9074 34.386 63.6117C34.1535 63.4028 33.9036 63.4977 33.6804 63.482C33.484 63.4676 33.2969 63.4652 33.2768 63.2347C33.2581 63.0221 33.3864 62.9045 33.6082 62.9261C34.7442 63.033 35.1518 62.2729 35.6209 61.58C35.8334 61.2654 36.0512 60.9544 36.6085 61.2066H36.6072Z" fill="white"/>
<path d="M26.1856 74.5829C25.9985 75.0956 25.8168 75.5879 25.6083 76.1583H27.1626C27.1314 76.6202 26.9091 76.8552 26.4957 76.8632C25.6938 76.88 25.1624 77.217 24.9013 77.8742C24.5525 78.7544 24.2051 79.6358 23.8549 80.5159C23.7934 80.672 23.7052 80.8209 23.752 81.0611C24.7396 80.9506 25.3063 80.2061 26.1375 79.6922C25.75 81.0274 24.2064 82.1922 22.8874 82.2534C22.2713 82.2823 21.996 81.9857 22.163 81.4357C22.2606 81.1127 22.4143 80.8053 22.5412 80.4895C22.9956 79.3632 23.4513 78.238 23.903 77.1105C23.9204 77.0685 23.9057 77.0157 23.9057 76.9532C23.6812 76.7863 23.4045 76.8896 23.1506 76.8644C22.9715 76.8464 22.8446 76.7947 22.8392 76.611C22.8339 76.4369 22.9315 76.3468 23.1199 76.3276C23.1733 76.3228 23.2268 76.3084 23.2789 76.3108C24.1409 76.3444 24.63 75.8953 24.9842 75.2601C25.0791 75.0896 25.2247 74.9431 25.3317 74.7774C25.5321 74.4676 25.8048 74.4412 26.1843 74.5829H26.1856Z" fill="white"/>
<path d="M36.3451 47.8191C36.1634 48.3102 35.9816 48.8026 35.7745 49.3621H37.318C37.314 50.0694 37.314 50.0622 36.6832 50.0862C36.2877 50.1006 35.7985 49.9361 35.5206 50.1666C35.2559 50.3852 35.1865 50.803 35.0515 51.1393C34.6893 52.0398 34.3378 52.944 33.9837 53.847C33.9329 53.9755 33.818 54.0956 33.9262 54.3033C34.3913 54.2228 34.7695 53.9731 35.1677 53.7521C35.5553 53.5384 35.7651 53.1073 36.2783 52.9776C35.9602 54.2084 34.3646 55.4092 33.0549 55.45C32.3933 55.4705 32.1434 55.1727 32.3706 54.5771C32.7261 53.6489 33.115 52.7315 33.4852 51.8081C33.7017 51.2701 33.9115 50.7298 34.1374 50.1594C33.8567 50.037 33.5921 50.0886 33.3395 50.085C33.1444 50.0814 33.0362 50.0177 33.0348 49.84C33.0335 49.6923 33.0415 49.5098 33.262 49.5338C34.4741 49.6647 34.9071 48.8518 35.4016 48.1205C35.6181 47.7999 35.8573 47.5946 36.3465 47.8179L36.3451 47.8191Z" fill="white"/>
<path d="M50.3079 81.0482C51.1726 80.8513 51.7325 80.2149 52.5157 79.6685C52.1575 81.0098 50.5779 82.1998 49.2615 82.2526C48.624 82.2778 48.3554 81.9536 48.5826 81.3688C49.0664 80.1248 49.5769 78.8904 50.074 77.65C50.1636 77.4267 50.2932 77.2129 50.2986 76.9608C50.0687 76.7867 49.7921 76.8875 49.5381 76.8611C49.3524 76.8419 49.2428 76.7843 49.2401 76.603C49.2388 76.4312 49.3163 76.3328 49.5154 76.3256C49.5689 76.3232 49.621 76.3064 49.6745 76.3088C50.4964 76.3364 50.9935 75.9413 51.333 75.3097C51.4599 75.0744 51.6497 74.8666 51.8194 74.6505C51.9678 74.4608 52.2056 74.4584 52.3981 74.5268C52.6614 74.6193 52.4836 74.8162 52.4395 74.9567C52.3206 75.3409 52.0894 75.6964 52.0359 76.1707H53.5594C53.5158 76.6206 53.3019 76.8511 52.9179 76.8623C51.6711 76.8983 51.6671 76.8971 51.2421 77.9778C50.8612 78.9481 50.491 79.9219 50.1155 80.8933C50.0219 81.1035 50.1101 81.1299 50.3079 81.0458V81.0482Z" fill="white"/>
<path d="M37.0388 53.7605C37.1604 52.1887 37.8327 50.8438 39.1076 49.7535C39.4604 49.4509 39.8747 49.2324 40.3598 49.1459C40.9372 49.0427 41.5666 49.2768 41.8259 49.6815C42.0571 50.0429 42.013 50.9159 41.7444 51.2028C41.6174 51.3385 41.4303 51.3722 41.2526 51.425C40.3665 51.6868 39.4845 51.9581 38.5971 52.2151C38.3512 52.2859 38.1975 52.3736 38.1387 52.6342C37.9877 53.297 38.132 53.9538 38.553 54.1387C39.2025 54.4233 39.6676 54.0631 40.1353 53.7365C40.3665 53.5756 40.5055 53.321 40.7848 53.2141C40.8463 53.1901 40.9425 53.1973 41.004 53.2237C41.0828 53.2586 41.0868 53.3402 41.0414 53.4087C40.5803 54.1183 40.0792 54.8016 39.2466 55.205C38.1146 55.755 37.1244 55.2615 37.0388 54.1195C37.0295 54.0006 37.0388 53.8794 37.0388 53.7593V53.7605ZM38.4501 51.5967C39.153 51.4262 39.709 51.2737 40.2743 51.1596C40.5817 51.0984 40.6485 50.9363 40.6405 50.6985C40.6231 50.1233 40.0631 49.8532 39.5165 50.1798C39.0087 50.4836 38.7374 50.9507 38.4501 51.5967Z" fill="white"/>
<path d="M26.096 53.1744C25.548 54.0882 24.9961 54.8375 24.0566 55.2578C22.9901 55.7345 22.0105 55.2253 21.9691 54.1531C21.8983 52.3099 22.7108 50.7909 24.2504 49.5961C24.7462 49.2107 25.3409 48.9885 26.0318 49.1987C26.5985 49.3716 26.9045 49.7318 26.9205 50.2698C26.9406 50.947 26.7174 51.2544 26.0559 51.4537C25.222 51.7047 24.3934 51.9701 23.5501 52.197C23.216 52.2871 23.073 52.4444 23.0396 52.7421C22.9821 53.2513 22.9073 53.7712 23.4378 54.123C23.8348 54.386 24.4067 54.2239 25.0295 53.764C25.3048 53.5611 25.4585 53.1984 26.096 53.1744ZM23.4218 51.5354C24.1034 51.4705 24.6981 51.2664 25.3102 51.1271C25.512 51.0815 25.5427 50.9482 25.5534 50.8041C25.5721 50.5315 25.536 50.2722 25.2273 50.1257C24.9373 49.9876 24.654 50.0236 24.4027 50.1989C23.9283 50.5315 23.6289 50.9734 23.4231 51.5342L23.4218 51.5354Z" fill="white"/>
<path d="M57.3578 80.0418C56.8352 80.9051 56.2699 81.646 55.3358 82.0747C54.3054 82.549 53.3258 82.0759 53.271 81.0408C53.1708 79.1148 54.0087 77.5345 55.6739 76.3278C56.1429 75.9879 56.7016 75.8198 57.3243 76.0108C57.891 76.1837 58.1984 76.5451 58.2157 77.0818C58.2371 77.7495 58.0073 78.0689 57.3497 78.267C56.5412 78.5108 55.7353 78.7665 54.9188 78.9863C54.5352 79.0883 54.3348 79.2745 54.3241 79.6287C54.3187 79.8196 54.2853 80.0141 54.3094 80.2015C54.4123 80.9844 55.007 81.2641 55.7955 80.9027C56.1069 80.7598 56.3635 80.5485 56.6094 80.3239C56.7711 80.1762 56.8954 79.9625 57.3551 80.043L57.3578 80.0418ZM54.6916 78.4015C55.3799 78.2358 55.9866 78.0833 56.596 77.9452C56.7951 77.8996 56.8325 77.7711 56.8472 77.627C56.874 77.3556 56.8352 77.1023 56.5492 76.9354C56.2312 76.7492 55.9358 76.8189 55.6672 77.0122C55.1994 77.3496 54.9054 77.7903 54.6929 78.4015H54.6916Z" fill="white"/>
<path d="M41.3527 66.641C40.9838 67.3555 40.5054 67.9475 39.8479 68.4182C39.5953 68.5995 39.308 68.7268 38.9952 68.7988C38.2816 68.9621 37.6388 68.6583 37.4089 68.0303C37.2566 67.6161 37.2539 67.1898 37.3221 66.7527C37.5185 65.5051 38.0865 64.4172 39.0019 63.4758C39.4282 63.0363 39.9347 62.6833 40.5842 62.5488C41.1616 62.4299 41.7803 62.6497 42.0637 63.0507C42.3042 63.393 42.2909 64.2587 42.0356 64.5733C41.9006 64.7414 41.6814 64.7702 41.481 64.8303C40.6471 65.0752 39.8198 65.3478 38.9739 65.5567C38.4941 65.6744 38.327 65.9158 38.3511 66.3252C38.3591 66.4681 38.3404 66.6134 38.3511 66.7563C38.4086 67.5176 38.9498 67.825 39.7236 67.5296C40.0978 67.3867 40.3838 67.1322 40.6684 66.8788C40.8275 66.7359 40.9464 66.5042 41.3527 66.6422V66.641ZM38.752 64.9744C39.4015 64.8183 39.9869 64.6682 40.5776 64.5397C40.8475 64.4808 40.9023 64.3272 40.901 64.117C40.8996 63.8565 40.7914 63.6511 40.5361 63.5178C40.2742 63.3797 40.0123 63.4134 39.7837 63.5659C39.2799 63.9033 38.9445 64.3476 38.752 64.9756V64.9744Z" fill="white"/>
<path d="M30.9807 80.0392C30.4581 80.8737 29.9249 81.6038 29.0255 82.0397C27.9777 82.5476 27.1158 82.1585 26.8832 81.1139C26.791 80.7008 26.8605 80.2997 26.942 79.8987C27.1799 78.7111 27.7612 77.6724 28.6767 76.7923C29.0629 76.42 29.5093 76.1162 30.0746 75.9878C30.6639 75.8521 31.28 76.0214 31.5928 76.4032C31.8734 76.7454 31.8841 77.646 31.6061 77.9906C31.4711 78.1588 31.2506 78.1888 31.0502 78.2488C30.1882 78.5034 29.3329 78.7771 28.4655 79.0101C28.0927 79.1098 27.9377 79.2971 27.9457 79.6285C27.951 79.8687 27.9189 80.1124 27.9577 80.3466C28.0526 80.9181 28.4963 81.1559 29.1177 81.0046C29.5494 80.9001 29.8581 80.6371 30.1735 80.3766C30.3606 80.2229 30.4795 79.9611 30.982 80.0416L30.9807 80.0392ZM28.3573 78.3329C28.4856 78.3329 28.5671 78.3473 28.6393 78.3305C29.1271 78.214 29.6068 78.0699 30.0986 77.9762C30.4501 77.909 30.5062 77.7169 30.4822 77.4563C30.4341 76.9244 29.8982 76.6638 29.3943 76.9496C28.8384 77.2654 28.539 77.7493 28.3573 78.3329Z" fill="white"/>
<path d="M26.1428 67.7049C26.8458 67.6149 27.1665 67.0697 27.6784 66.8199C27.9029 66.97 27.7666 67.1021 27.6998 67.2126C27.2521 67.9499 26.656 68.5395 25.7192 68.7832C25.3931 68.8673 25.0791 68.8925 24.8345 68.6403C24.6113 68.4098 24.6902 68.1564 24.7984 67.8982C25.5856 66.0178 26.366 64.135 27.1478 62.2522C27.2227 62.0733 27.2935 61.8932 27.3737 61.7155C27.5808 61.2532 27.6289 60.8293 27.0463 60.5423C26.9527 60.4967 26.8912 60.4126 26.9006 60.2565C27.5528 60.0188 28.2758 60.0692 28.9694 59.9719C29.1725 59.9431 29.2393 60.0884 29.1738 60.2577C29.1124 60.4162 29.0402 60.5699 28.9747 60.7272C28.0766 62.8766 27.1799 65.0272 26.2805 67.1766C26.2163 67.3291 26.1201 67.472 26.1442 67.7061L26.1428 67.7049Z" fill="white"/>
<path d="M11.4771 77.9666C11.7377 77.2906 12.0691 76.7778 12.5235 76.3371C12.8001 76.0694 13.1222 75.828 13.5739 75.9913C14.0056 76.1474 14.1111 76.5004 14.1405 76.8727C14.1593 77.1032 14.1446 77.335 14.1446 77.6928C14.5335 77.3806 14.5896 77.036 14.7834 76.7706C14.9878 76.4896 15.1549 76.1858 15.5184 76.0333C16.1131 75.7824 16.5755 76.0261 16.6383 76.6301C16.6918 77.1369 16.5234 77.4238 16.1078 77.3758C14.778 77.2221 14.2688 78.0759 13.8198 78.9056C13.3654 79.7425 13.0634 80.6443 12.6879 81.5173C12.6117 81.695 12.5382 81.8823 12.4166 82.0348C12.1947 82.3134 11.8753 82.311 11.5532 82.1957C11.2151 82.0744 11.155 81.8235 11.2378 81.5413C11.2913 81.3576 11.3875 81.1835 11.4731 81.0082C11.8927 80.1532 12.319 79.3007 12.7346 78.4433C12.8736 78.1575 13.0099 77.8645 12.9605 77.5427C12.9191 77.2725 12.7213 77.2125 12.4406 77.3302C12.1065 77.4707 12.017 77.8813 11.4771 77.969V77.9666Z" fill="white"/>
<path d="M32.241 77.9715C32.5551 77.2991 32.8678 76.7575 33.3489 76.3085C33.6122 76.0623 33.9182 75.8522 34.3365 75.9734C34.7535 76.0947 34.8657 76.4273 34.9299 76.7636C34.982 77.0313 34.982 77.3075 35.0181 77.7302C35.2947 77.2679 35.4818 76.9341 35.6903 76.6111C35.8654 76.3385 36.0779 76.0947 36.4333 75.9879C36.9545 75.8306 37.3381 76.0335 37.4103 76.5234C37.4316 76.6651 37.4129 76.8104 37.4143 76.9545C37.4156 77.2463 37.274 77.4312 36.9318 77.3675C36.0605 77.2054 35.5567 77.6497 35.0809 78.1997C34.8484 78.4686 34.6613 78.7472 34.5303 79.0642C34.1975 79.8724 33.8594 80.6781 33.5186 81.4838C33.4424 81.6615 33.3689 81.8476 33.2473 82.0013C33.0308 82.2763 32.7208 82.2907 32.3893 82.1766C32.0472 82.059 31.9764 81.8212 32.0606 81.5354C32.114 81.3517 32.1969 81.174 32.2838 80.9987C32.6633 80.2338 33.0469 79.4701 33.4317 78.7064C33.5641 78.4446 33.6897 78.1817 33.7458 77.8959C33.7886 77.6797 33.8514 77.4432 33.6148 77.3063C33.3529 77.155 33.1818 77.3783 32.9974 77.5056C32.7983 77.6437 32.7181 77.9199 32.241 77.9691V77.9715Z" fill="white"/>
<path d="M27.3994 51.0622C27.7135 50.4414 28.0302 49.8206 28.637 49.3739C29.2276 48.9392 29.8531 49.153 30.0081 49.8326C30.0709 50.1076 30.0669 50.3958 30.0977 50.732C30.409 50.6395 30.4291 50.4078 30.5347 50.2421C30.7325 49.9299 30.8942 49.5936 31.2136 49.3595C31.5664 49.1013 32.0595 49.0797 32.3174 49.3007C32.5767 49.5216 32.6409 50.1988 32.4377 50.4582C32.3215 50.6059 32.1504 50.5855 32.0061 50.5663C30.6723 50.3874 30.1698 51.2747 29.7235 52.0985C29.2464 52.9786 28.931 53.9296 28.5421 54.8482C28.4044 55.1748 28.2387 55.4702 27.7589 55.4426C27.2738 55.415 27.0239 55.14 27.1442 54.7174C27.1963 54.5336 27.3045 54.3631 27.3914 54.1878C27.8044 53.3557 28.2227 52.5259 28.6289 51.6914C28.7679 51.4068 28.9042 51.1138 28.8708 50.7908C28.8388 50.4738 28.6142 50.3742 28.3256 50.5591C28.1545 50.6683 28.0169 50.8208 27.8698 50.9601C27.7616 51.0622 27.6761 51.1991 27.4008 51.0646L27.3994 51.0622Z" fill="white"/>
<path d="M13.4872 50.3012C12.827 50.3732 12.6265 50.9688 12.1187 51.1501C11.9075 50.994 12.0545 50.8727 12.124 50.7623C12.6025 50.0082 13.2533 49.4366 14.2169 49.2073C14.5095 49.1376 14.8142 49.08 15.0254 49.3298C15.2031 49.5399 15.139 49.7849 15.0347 50.0154C14.4895 51.2102 13.9375 52.4025 13.4043 53.6009C13.3108 53.8122 13.137 54.0104 13.1771 54.313C13.8266 54.2109 14.1287 53.6742 14.6712 53.3199C14.4801 54.3622 13.3201 55.3672 12.3566 55.4345C11.822 55.4717 11.5708 55.1931 11.7485 54.6996C11.9369 54.1773 12.1788 53.6706 12.3967 53.1566C12.7201 52.3977 13.0435 51.6376 13.3656 50.8788C13.4391 50.707 13.5687 50.5449 13.4845 50.3024L13.4872 50.3012Z" fill="white"/>
<path d="M30.2603 63.7363C29.7377 63.8528 29.56 64.4243 28.992 64.5528C29.3101 63.5946 30.1627 62.8453 31.1503 62.6112C31.4403 62.5427 31.7317 62.4647 31.9695 62.6988C32.2048 62.9318 32.1099 63.1827 31.9923 63.4361C31.5232 64.452 31.0608 65.4702 30.5957 66.4873C30.4246 66.8631 30.2522 67.2378 30.0678 67.6424C30.4661 67.7577 30.6558 67.4827 30.8951 67.329C31.1249 67.1813 31.2425 66.9087 31.5152 66.8211C31.7557 66.9652 31.6154 67.0961 31.5486 67.2065C31.1142 67.9198 30.5342 68.4926 29.6428 68.7543C29.3582 68.8384 29.0682 68.9248 28.8196 68.7015C28.5684 68.4758 28.6726 68.2092 28.7755 67.963C29.2927 66.7334 29.8206 65.5062 30.3418 64.2778C30.3979 64.1458 30.4313 64.0065 30.4768 63.8696C30.4901 63.8132 30.5369 63.7255 30.5128 63.7051C30.4313 63.6354 30.3405 63.6799 30.2629 63.7351L30.2603 63.7363Z" fill="white"/>
<path d="M46.2988 77.1262C45.7415 77.2306 45.5558 77.8382 44.8448 77.9943C45.3941 76.922 46.1184 76.2232 47.3025 75.995C47.8985 75.8798 48.1992 76.1667 48.0014 76.6819C47.7502 77.3375 47.4321 77.9727 47.1394 78.6163C46.7692 79.4293 46.395 80.241 45.9821 81.1404C46.7452 81.0527 47.0018 80.4487 47.5016 80.2278C47.7582 80.3851 47.5845 80.5111 47.5216 80.6168C47.094 81.3361 46.5113 81.9089 45.6172 82.1718C45.3326 82.2559 45.0493 82.3375 44.7913 82.119C44.5187 81.8896 44.6417 81.6411 44.7472 81.3901C45.3232 80.0236 45.8966 78.656 46.4699 77.2883C46.5126 77.2318 46.5554 77.167 46.4953 77.1094C46.4338 77.0505 46.3616 77.0913 46.2988 77.1262Z" fill="white"/>
<path d="M76.8121 0.754652C75.8552 1.64923 75.0133 2.43454 74.1727 3.22104C74.0551 3.33151 73.9214 3.38675 73.7504 3.38675C72.9606 3.38435 72.1694 3.38555 71.2112 3.38555C71.7498 2.79717 72.2563 2.34328 72.6305 1.81374C73.2345 0.956383 74.023 0.592548 75.1483 0.743846C75.6374 0.808688 76.1466 0.754652 76.8121 0.754652Z" fill="white"/>
<path d="M42.6143 46.7513C42.5622 46.8126 42.5114 46.8978 42.4366 46.9603C41.8886 47.4154 41.3394 47.8669 40.7848 48.316C40.7072 48.3784 40.6097 48.4276 40.5121 48.4588C40.4146 48.4901 40.2996 48.5009 40.2114 48.4288C40.1045 48.3412 40.1834 48.2607 40.2341 48.1791C40.5215 47.7216 40.8008 47.2581 41.1001 46.8066C41.2619 46.5628 42.335 46.4199 42.5475 46.6001C42.5796 46.6277 42.5849 46.6817 42.613 46.7525L42.6143 46.7513Z" fill="white"/>
<path d="M40.3997 61.7585C40.6549 61.1846 41.0625 60.6598 41.4073 60.1075C41.5129 59.9394 42.554 59.8469 42.7584 59.9658C42.8613 60.0258 42.8814 60.1447 42.8052 60.2107C42.137 60.7835 41.5303 61.4199 40.7244 61.8486C40.6442 61.8918 40.5159 61.8834 40.3997 61.7585Z" fill="white"/>
<path d="M58.8598 73.3329C58.6446 73.7184 57.2253 75.0356 56.8912 75.1893C56.7282 75.2637 56.5437 75.3082 56.3459 75.1389C56.664 74.6297 56.9888 74.1158 57.3068 73.5983C57.4191 73.4146 57.5648 73.3161 57.8133 73.3293C58.1287 73.3461 58.4468 73.3329 58.8598 73.3329Z" fill="white"/>
<path d="M15.3368 47.981C14.8811 47.9906 14.5122 47.682 14.5029 47.2822C14.4935 46.9063 14.8797 46.5377 15.2967 46.5257C15.723 46.5137 16.1079 46.8487 16.1199 47.2438C16.1333 47.652 15.7938 47.9714 15.3381 47.9798L15.3368 47.981Z" fill="white"/>
<path d="M9.36035 59.9085C9.70782 59.4546 10.0366 59.0296 10.3627 58.6021C10.4415 58.4988 10.5377 58.416 10.6847 58.4184C11.075 58.4268 11.4732 58.3607 12.0105 58.5072C11.3289 59.08 10.6219 59.451 9.97644 59.8893C9.82275 59.9938 9.641 60.0238 9.36169 59.9085H9.36035Z" fill="white"/>
<path d="M49.0292 74.0764C49.0332 74.4763 48.6737 74.7981 48.226 74.7981C47.781 74.7981 47.4188 74.4739 47.4175 74.0764C47.4175 73.6838 47.793 73.3379 48.2207 73.3403C48.6457 73.3415 49.0239 73.6874 49.0292 74.0776V74.0764Z" fill="white"/>
<path d="M33.0776 60.7081C33.0616 61.1092 32.6927 61.4105 32.2383 61.3949C31.7893 61.3805 31.4405 61.0467 31.4592 60.6493C31.4779 60.2638 31.8802 59.9264 32.3012 59.9456C32.7288 59.9648 33.0937 60.3226 33.0776 60.7093V60.7081Z" fill="white"/>
</g>
</svg>
