<svg width="208" height="75" viewBox="0 0 208 75" fill="none" xmlns="http://www.w3.org/2000/svg">
<g opacity="0.6">
<path d="M19.4291 46.9368C19.9205 46.4668 20.0531 45.4411 20.4225 44.3006C20.9767 42.5781 22.5333 40.0953 19.5994 41.6806C17.2645 42.8014 15.7528 42.9968 15.9715 43.7966C16.5526 45.9199 19.1726 47.1797 19.4291 46.9368Z" fill="#24252D" fill-opacity="0.7"/>
<path d="M18.6238 40.587C20.4476 39.7998 27.4737 36.5369 21.4698 37.2336C19.1511 37.5026 19.6908 37.4784 18.5898 39.0718C18.292 39.5093 16.9561 41.3026 18.6238 40.587C19.5294 40.1943 18.3565 40.6965 18.6238 40.587Z" fill="#24252D" fill-opacity="0.7"/>
<path d="M50.7884 26.924C46.2245 26.2909 42.0837 27.9964 39.878 22.3277C38.7303 19.3741 37.631 18.3269 37.0463 17.6346C35.5562 15.8557 33.883 14.803 31.9103 15.1025C28.9173 15.558 26.0686 15.3894 23.3527 13.5405C22.4667 12.938 21.0572 13.8427 20.573 14.1718C20.0404 14.534 19.3876 15.2047 19.1079 15.5706C19.1133 15.5742 19.1205 15.5778 19.1205 15.5778C19.1276 15.5814 19.1294 15.5867 19.1312 15.5903C19.3859 15.4612 19.6908 15.4326 20.0476 15.4326C19.9849 15.671 19.9866 15.8826 20.0189 16.0817C20.0404 16.1669 20.0476 16.2593 20.0889 16.3327C19.7391 16.8349 19.4594 17.3854 19.3589 18.0292C18.9017 21.2034 16.7927 23.671 18.2148 26.3699C19.1133 28.0808 13.3227 35.6 11.438 38.1806C9.94769 40.2178 8.05752 41.405 10.3746 43.7955C11.6998 45.1656 6.01142 52.6096 5.2313 53.8649C3.66572 56.3916 -0.112734 62.3706 1.25917 65.525C1.61597 66.3553 11.0596 71.0071 11.108 70.9426C11.9849 69.6513 10.8444 68.4445 9.3057 65.525C8.09527 63.2277 8.53634 62.2361 7.47653 61.7662C6.56379 61.3662 4.62341 64.2391 3.70163 63.6097C2.08764 62.4907 9.50303 50.4387 10.5951 48.6033C11.3465 47.3157 12.5104 45.6461 12.9586 44.1756C13.3711 42.802 11.2873 43.0585 11.75 41.9465C13.7191 37.1602 17.6177 32.7343 19.784 28.9863C21.4141 26.1637 18.8892 22.7689 20.5498 23.3859C22.8631 24.2431 25.181 23.6262 25.1003 21.5998C25.0088 19.1877 23.3491 18.395 22.4058 16.4001C22.2678 16.0979 22.5654 15.9275 23.1178 15.8432C24.695 16.817 26.4291 17.2779 28.5407 17.2779C29.7404 17.2779 30.9187 17.1309 31.9337 16.973C37.3997 19.5428 37.0625 26.5188 42.0354 28.7362C46.6424 30.7816 59.6779 29.0312 53.8711 40.6447C51.868 44.6437 47.2467 48.6554 42.498 46.2003C38.3626 44.0699 33.2696 53.8488 31.1768 56.311C28.0494 60.0034 23.0818 55.3086 19.2424 57.8641C15.8781 60.0949 19.8754 63.7856 21.4697 65.3242C24.3381 68.0984 23.9095 72.137 26.0507 74.8618C26.8218 75.8383 29.5073 71.3775 28.521 69.7626C27.9884 68.891 27.0935 68.1414 26.4273 67.3793C25.6275 66.4629 20.6592 61.0687 23.5499 60.2169C25.7799 59.5695 28.8635 60.97 30.8756 61.7035C32.4896 62.2935 34.7796 56.7307 35.5005 55.7515C36.4779 54.4209 40.9378 48.4438 42.1573 50.4773C44.5173 54.3886 52.6876 55.4806 48.3101 53.4507C46.2586 52.5038 44.5388 50.6747 46.5688 49.8121C50.4765 48.139 53.7887 45.4221 55.7255 43.15C60.745 37.2768 59.0323 28.0484 50.7884 26.924Z" fill="#24252D" fill-opacity="0.7"/>
<path d="M87.9292 20.2727C84.2206 18.3073 79.7535 18.3799 75.7294 17.8742C69.7236 17.1184 65.0359 17.8859 60.3679 21.5335C59.0695 22.5467 58.216 24.1535 58.7844 25.1543C59.265 25.9863 61.1246 28.3086 62.4338 27.1941C64.9444 25.0538 67.525 22.9341 71.0667 22.5898C71.9294 22.5055 74.4741 22.6974 75.3689 22.7942C80.8672 23.3877 84.4592 24.5086 88.9784 26.0096C91.462 26.8345 89.6705 21.1954 87.9292 20.2727Z" fill="#24252D" fill-opacity="0.7"/>
<path d="M87.7282 33.7955C84.3478 30.3398 79.8681 28.273 75.0567 27.9134C73.1845 27.7753 71.2782 27.9618 69.5423 28.5554C66.9689 29.4342 64.5891 31.3673 62.5771 33.0836C59.6593 35.5745 62.6165 38.5729 65.3172 35.9457C66.9545 34.3658 68.8196 33.2951 70.6343 32.4362C72.4725 31.5593 75.3472 31.197 77.1082 31.5359C81.821 32.4523 85.3628 35.1728 88.6984 38.2949C88.8561 38.441 89.0175 38.6105 89.1718 38.7684C90.6083 38.7961 89.1773 35.2714 87.7282 33.7955Z" fill="#24252D" fill-opacity="0.7"/>
<path d="M51.3578 0.714949C51.2215 0.666493 46.3993 2.26253 46.3993 2.26253C41.3995 3.07587 37.2623 2.34324 32.3541 2.23747C29.7484 2.17919 27.6162 2.60688 25.8112 4.56064C24.0412 6.47144 26.2039 11.3779 28.2008 10.3306C30.2129 9.27616 33.5915 6.60771 36.4984 7.06143C39.4053 7.50795 42.5311 9.27075 45.5654 9.14348C46.1123 9.12193 46.7185 8.99812 47.2798 8.87445C50.2963 8.2163 53.5618 1.47526 51.3578 0.714949Z" fill="#24252D" fill-opacity="0.7"/>
<path d="M67.2847 7.87332C59.2919 9.31338 51.1628 10.0522 44.1905 14.6619C42.9495 15.4787 42.1156 16.4597 42.8097 17.8782C43.3852 19.0457 45.0997 20.9017 46.2869 20.0983C50.3649 17.342 54.0573 14.2888 59.1378 14.1571C61.9138 14.0835 64.5804 15.3281 67.4479 14.6682C70.2114 14.0352 72.9031 13.5187 75.2524 11.816C75.5806 11.416 75.5752 10.8557 75.5017 10.4593C75.0515 8.07235 69.7559 7.42865 67.2847 7.87332Z" fill="#24252D" fill-opacity="0.7"/>
<path d="M85.6337 45.6601C81.8211 42.3622 76.4717 38.1659 71.4164 38.7219C66.6426 39.2455 62.6883 41.9426 58.935 45.2441C56.7094 47.2042 57.4375 53.7551 61.1371 50.9594C64.4421 48.4577 67.9786 45.6925 72.34 45.5903C74.379 45.5419 76.703 46.2681 77.6947 46.5371C79.6494 47.0698 83.1428 48.4363 85.1423 49.5338C85.7969 49.7614 88.5837 48.2084 85.6337 45.6601Z" fill="#24252D" fill-opacity="0.7"/>
<path d="M132.017 10.0615H134.208C135.029 10.0615 135.523 10.2175 135.887 10.5438C136.252 10.8721 136.617 11.4513 136.515 12.2727C136.457 12.7461 136.192 13.4867 135.618 13.9817C135.144 14.3852 134.727 14.4839 134.359 14.5699L135.977 17.2061H134.374L132.816 14.473H132.798L132.463 17.2061H131.141L132.017 10.0615ZM132.921 13.4778H133.77C134.86 13.4778 135.133 12.755 135.18 12.3793C135.228 11.9821 135.07 11.2971 134.037 11.2971H133.189L132.921 13.4778Z" fill="#24252D" fill-opacity="0.7"/>
<path d="M138.314 10.0613H142.155L142.002 11.2969H139.485L139.269 13.0435H141.683L141.531 14.28H139.118L138.911 15.9693H141.43L141.278 17.2058H137.436L138.314 10.0613ZM139.259 8.65167L141.588 7.36768L141.984 8.38087L139.641 9.5411L139.259 8.65167Z" fill="#24252D" fill-opacity="0.7"/>
<path d="M146.262 13.5656H150.921L150.902 13.7197C150.652 15.7561 148.673 17.3495 146.674 17.3495C144.629 17.3495 143.028 15.7767 143.291 13.6328C143.55 11.5292 145.533 9.91797 147.549 9.91797C149.343 9.91797 150.497 11.132 150.737 12.1569H149.154C148.905 11.6826 148.315 11.1518 147.367 11.1518C145.758 11.1518 144.749 12.5218 144.612 13.6426C144.477 14.7339 145.129 16.1138 146.827 16.1138C147.705 16.1138 148.584 15.6315 149.1 14.8011H146.11L146.262 13.5656Z" fill="#24252D" fill-opacity="0.7"/>
<path d="M152.994 10.0615H154.314L153.438 17.206H152.117L152.994 10.0615Z" fill="#24252D" fill-opacity="0.7"/>
<path d="M159.798 9.91797C161.824 9.91797 163.334 11.5391 163.074 13.6516C162.823 15.6987 160.94 17.3495 158.884 17.3495C156.828 17.3495 155.351 15.6987 155.601 13.6516C155.862 11.5391 157.769 9.91797 159.798 9.91797ZM159.036 16.1138C160.397 16.1138 161.591 14.9653 161.753 13.6427C161.92 12.2727 160.987 11.1518 159.644 11.1518C158.302 11.1518 157.095 12.2727 156.927 13.6427C156.763 14.9653 157.674 16.1138 159.036 16.1138Z" fill="#24252D" fill-opacity="0.7"/>
<path d="M164.823 10.0396H166.302L168.581 15.1487H168.602L169.229 10.0396H170.529L169.668 17.0639H168.214L165.908 11.9566H165.888L165.261 17.0639H163.96L164.823 10.0396Z" fill="#24252D" fill-opacity="0.7"/>
<path d="M97.8207 17.8872H101.535L107.249 30.6995H107.296L108.87 17.8872H112.133L109.969 35.5082H106.324L100.539 22.6995H100.493L98.919 35.5082H95.6561L97.8207 17.8872Z" fill="#24252D" fill-opacity="0.7"/>
<path d="M113.275 28.8099C113.775 24.7462 117.472 21.625 121.319 21.625C125.116 21.625 128.059 24.6485 127.554 28.7606C127.015 33.1614 123.286 35.9437 119.562 35.9437C115.57 35.9436 112.804 32.6547 113.275 28.8099ZM124.329 28.8349C124.629 26.3907 122.965 24.5767 120.957 24.5767C119.286 24.5767 116.839 26.0051 116.494 28.8099C116.183 31.3492 117.892 32.9936 119.924 32.9936C122.269 32.9936 124.067 30.9627 124.329 28.8349Z" fill="#24252D" fill-opacity="0.7"/>
<path d="M142.379 22.084L140.731 35.5088H137.782L137.949 34.1539H137.899C137.278 34.8793 136.276 35.9436 134.221 35.9436C131.777 35.9436 130.546 34.7349 129.982 33.8158C129.165 32.3884 129.432 30.2122 129.569 29.0994L130.43 22.084H133.648L132.807 28.93C132.674 30.0194 132.308 32.9936 135.114 32.9936C137.146 32.9936 138.058 31.0819 138.319 28.9541L139.164 22.084L142.379 22.084Z" fill="#24252D" fill-opacity="0.7"/>
<path d="M144.047 22.084H147.528L149.674 30.9859H149.746L153.886 22.084H157.418L150.329 35.5087H147.815L144.047 22.084Z" fill="#24252D" fill-opacity="0.7"/>
<path d="M160.413 30.2363C160.451 31.107 161.478 32.9935 163.775 32.9935C165.202 32.9935 166.341 32.3884 167.083 31.2747H170.47C169.398 33.6938 166.558 35.9435 163.412 35.9435C159.42 35.9435 156.718 32.7506 157.198 28.8348C157.665 25.0366 161.019 21.5522 165.155 21.5522C169.412 21.5522 171.647 25.2295 171.232 28.6161C171.154 29.2455 170.989 29.8015 170.839 30.2363H160.413ZM168.061 27.6477C167.961 25.4966 166.414 24.5049 164.816 24.5049C163.632 24.5049 161.545 25.1568 160.634 27.6477H168.061Z" fill="#24252D" fill-opacity="0.7"/>
<path d="M174.856 17.6084H178.073L175.876 35.5083H172.659L174.856 17.6084Z" fill="#24252D" fill-opacity="0.7"/>
<path d="M180.903 17.6084H184.12L181.922 35.5083H178.706L180.903 17.6084Z" fill="#24252D" fill-opacity="0.7"/>
<path d="M188.229 30.2363C188.27 31.107 189.294 32.9935 191.593 32.9935C193.02 32.9935 194.158 32.3884 194.902 31.2747H198.288C197.215 33.6938 194.376 35.9435 191.231 35.9435C187.239 35.9435 184.535 32.7506 185.015 28.8348C185.482 25.0366 188.837 21.5522 192.974 21.5522C197.23 21.5522 199.465 25.2295 199.05 28.6161C198.971 29.2455 198.806 29.8015 198.657 30.2363H188.229ZM195.877 27.6477C195.781 25.4966 194.23 24.5049 192.635 24.5049C191.451 24.5049 189.361 25.1568 188.451 27.6477H195.877Z" fill="#24252D" fill-opacity="0.7"/>
<path d="M201.354 28.1852C201.399 27.8263 201.731 27.5327 202.092 27.5327H207.168C207.529 27.5327 207.789 27.8263 207.745 28.1852L207.571 29.5908C207.527 29.9496 207.195 30.2432 206.833 30.2432H201.758C201.396 30.2432 201.137 29.9496 201.181 29.5908L201.354 28.1852Z" fill="#24252D" fill-opacity="0.7"/>
<path d="M178.101 41.8628C177.971 42.9317 177.001 43.7951 175.935 43.7951C174.869 43.7951 174.11 42.9317 174.24 41.8628C174.372 40.7985 175.341 39.9351 176.408 39.9351C177.473 39.9351 178.233 40.7985 178.101 41.8628Z" fill="#24252D" fill-opacity="0.7"/>
<path d="M105.229 40.7554H107.713L112.628 59.3502H109.122L107.878 54.5531H101.723L99.2986 59.3502H95.7926L105.229 40.7554ZM103.19 51.31H107.136L105.886 45.6055H105.84L103.19 51.31Z" fill="#24252D" fill-opacity="0.7"/>
<path d="M128.993 45.4047L126.428 66.0134H123.34L124.357 58.0179C122.628 59.8014 120.584 59.8014 120.212 59.8014C116.31 59.8014 114.166 56.0839 114.639 52.2408C115.128 48.2435 118.532 44.9268 122.062 44.9268C124.687 44.9268 125.544 46.46 125.897 47.1648H125.943L126.159 45.4047L128.993 45.4047ZM120.96 56.7375C123.143 56.7375 124.935 54.6268 125.209 52.3924C125.478 50.2045 124.288 47.9934 122.011 47.9934C119.805 47.9934 117.998 50.0279 117.717 52.317C117.373 55.1298 119.033 56.7375 120.96 56.7375Z" fill="#24252D" fill-opacity="0.7"/>
<path d="M142.946 45.4044L141.233 59.3501H138.402L138.576 57.9414H138.529C137.927 58.6955 136.953 59.8011 134.98 59.8011C132.635 59.8011 131.465 58.5457 130.933 57.5908C130.162 56.1095 130.44 53.8482 130.581 52.6924L131.476 45.4043H134.566L133.692 52.5166C133.553 53.6482 133.173 56.7372 135.868 56.7372C137.818 56.7372 138.712 54.7511 138.985 52.5417L139.86 45.4043L142.946 45.4044Z" fill="#24252D" fill-opacity="0.7"/>
<path d="M151.912 48.3707H150.403L150.766 45.4045H152.277L152.847 40.7554H155.933L155.363 45.4045H157.22L156.855 48.3707H155L153.651 59.3502H150.566L151.912 48.3707Z" fill="#24252D" fill-opacity="0.7"/>
<path d="M169.999 59.3504H167.165L167.378 57.6153C166.248 58.8725 164.229 59.8014 162.604 59.8014C159.284 59.8014 156.685 56.9383 157.254 52.29C157.78 48.0193 161.039 44.9268 164.615 44.9268C167.242 44.9268 168.546 46.9631 168.614 47.1648H168.662L168.877 45.4047H171.711L169.999 59.3504ZM164.706 47.9934C162.174 47.9934 160.584 50.356 160.327 52.4426C160.037 54.8034 161.425 56.7375 163.63 56.7375C165.767 56.7375 167.617 54.929 167.934 52.3421C168.288 49.4495 166.542 47.9934 164.706 47.9934Z" fill="#24252D" fill-opacity="0.7"/>
<path d="M180.092 45.4047H182.948L182.8 46.6107C183.376 46.0826 184.587 44.9268 186.537 44.9268C187.651 44.9268 189.282 45.4549 190.178 46.8617C191.172 48.3941 190.886 50.7326 190.754 51.813L189.828 59.3503H186.74L187.584 52.4658C187.728 51.3101 188.134 47.9934 185.533 47.9934C184.977 47.9934 183.941 48.2946 183.269 49.2245C182.605 50.0781 182.426 51.5342 182.283 52.7178L181.468 59.3503H178.381L180.092 45.4047Z" fill="#24252D" fill-opacity="0.7"/>
<path d="M195.933 53.8737C195.962 54.7775 196.928 56.7377 199.136 56.7377C200.506 56.7377 201.605 56.11 202.326 54.9542H205.578C204.527 57.4666 201.777 59.8015 198.761 59.8015C194.928 59.8015 192.362 56.4848 192.862 52.4158C193.347 48.4714 196.599 44.8516 200.57 44.8516C204.659 44.8516 206.767 48.6713 206.335 52.1915C206.256 52.8435 206.092 53.4209 205.942 53.8736L195.933 53.8737ZM203.3 51.1846C203.226 48.9484 201.752 47.9172 200.219 47.9172C199.08 47.9172 197.07 48.596 196.171 51.1846H203.3Z" fill="#24252D" fill-opacity="0.7"/>
<path d="M143.993 59.3432H147.08L148.792 45.3975H145.704L143.993 59.3432Z" fill="#24252D" fill-opacity="0.7"/>
<path d="M149.814 41.6722C149.674 42.802 148.648 43.7138 147.522 43.7138C146.395 43.7138 145.593 42.802 145.731 41.6722C145.869 40.5451 146.896 39.6313 148.022 39.6313C149.149 39.6314 149.953 40.5451 149.814 41.6722Z" fill="#24252D" fill-opacity="0.7"/>
<path d="M172.496 59.3432H175.587L177.298 45.3975H174.21L172.496 59.3432Z" fill="#24252D" fill-opacity="0.7"/>
</g>
</svg>
