<svg width="270" height="47" viewBox="0 0 270 47" fill="none" xmlns="http://www.w3.org/2000/svg">
<g opacity="0.7">
<path d="M22.5262 43.2997C26.1834 35.0989 29.7943 26.878 33.4357 18.6698C33.7536 17.954 33.9578 17.1297 34.8548 16.437C34.8979 24.7589 35.2474 32.7776 34.7148 40.7952C34.5568 43.1786 33.9736 43.7734 31.5965 44.1272C30.9028 44.2303 29.9848 43.8892 29.5953 44.8946C29.8911 45.0115 30.3996 45.1104 31.0491 45.1915L43.6472 45.1915C44.4873 45.0936 45.1084 44.9704 45.3821 44.8241C45.2663 44.3198 44.8453 44.3377 44.4652 44.2861C40.209 43.704 39.8974 43.366 39.8869 39.1098C39.8732 33.9093 39.8816 28.7077 39.8826 23.5072C39.8826 21.2217 39.8426 18.9351 39.9026 16.6517C39.9795 13.7188 40.6606 13.0419 43.5104 12.7945C44.1641 12.7377 44.9316 13.004 45.4137 12.2945C45.219 11.168 44.3515 11.466 43.7304 11.4523C41.6828 11.407 39.63 11.3954 37.5866 11.4007C35.9128 11.4049 34.8895 11.9628 34.2126 13.5788C32.145 18.5193 29.9469 23.404 27.7856 28.3056C26.2676 31.7491 24.7264 35.182 23.0967 38.8414C22.0072 37.8476 21.7871 36.8991 21.4092 36.0516C18.811 30.2236 16.2897 24.3609 13.6305 18.5604C12.5567 16.2191 11.2492 12.6482 10.1333 11.7881C9.13637 11.0206 5.04859 11.5228 2.4557 11.4365C2.06303 11.4238 1.66614 11.4396 1.27558 11.4775C0.814478 11.5228 0.290214 11.5217 0.328113 12.3997C0.867115 12.9661 1.69878 12.7366 2.42833 12.824C4.61381 13.0861 5.31493 13.6283 5.40757 15.7222C5.75077 23.5156 5.80446 31.3132 5.43705 39.1098C5.31283 41.7448 4.02743 43.3671 1.48297 44.0114C0.887117 44.1629 0.156517 44.1829 0.387066 45.1599L12.2156 45.1599C12.064 44.7409 12.0409 44.5756 11.9535 44.4588C11.864 44.3409 11.7208 44.2135 11.584 44.1882C8.02363 43.5439 6.93404 41.1321 6.93194 37.8476C6.92668 31.2301 6.86141 24.6115 6.84351 17.994C6.84246 17.5708 6.62138 17.056 7.13196 16.696C7.89414 17.0128 7.94467 17.7908 8.21733 18.3993C11.9124 26.6696 15.5833 34.9504 19.2963 43.2134C19.5964 43.8808 19.668 44.8493 20.3744 45.1925L21.5429 45.1925C22.1872 44.8578 22.2503 43.9261 22.5293 43.3008L22.5262 43.2997Z" fill="white"/>
<path d="M218.018 44.5786C216.47 44.366 215.549 43.6006 215.425 42.0194C215.149 38.4801 215.12 34.9334 215.144 31.3836C215.154 29.9466 215.895 29.6866 217.105 29.7624C218.062 29.8224 218.708 30.334 219.321 30.9699C221.023 32.7364 222.464 34.7102 223.882 36.701C225.712 39.2697 227.507 41.8657 229.636 44.2028C229.917 44.5112 230.192 44.8839 230.501 45.1903L240.586 45.1903C240.452 44.7323 240.114 44.6091 239.77 44.5744C236.61 44.247 234.522 42.2784 232.584 40.0171C229.513 36.4346 227.024 32.3763 223.358 29.0792C225.247 28.4065 227.04 28.0991 228.578 27.0853C233.6 23.7755 233.686 17.2359 228.716 13.8797C226.909 12.6596 224.856 12.1353 222.73 11.829C217.297 11.0447 211.87 11.8332 206.441 11.8995C205.913 11.9058 205.287 11.8995 205.256 12.7017C205.383 13.2007 205.798 13.1912 206.181 13.2449C209.755 13.7408 210.142 14.1145 210.188 17.6601C210.243 21.8384 210.213 26.0188 210.208 30.1982C210.204 33.747 210.246 37.2968 210.15 40.8424C210.074 43.6375 209.416 44.2428 206.713 44.667C206.187 44.7492 205.374 44.4291 205.146 45.1903L220.842 45.1903C220.007 44.4723 218.955 44.706 218.016 44.5776L218.018 44.5786ZM217.026 12.8617C218.849 12.8807 220.644 13.0775 222.401 13.5439C224.207 14.0229 225.42 15.2104 226.078 16.9337C226.95 19.215 227.047 21.5437 226.31 23.8839C225.695 25.8346 224.414 27.1147 222.421 27.6537C220.583 28.1517 218.707 28.2728 216.811 28.3612C215.517 28.4212 215.131 27.898 215.147 26.7347C215.173 24.764 215.154 22.7922 215.154 20.8215L215.139 20.8215C215.139 18.8508 215.181 16.8779 215.124 14.9082C215.085 13.5397 215.583 12.848 217.026 12.8628L217.026 12.8617Z" fill="#DEDEDE"/>
<path d="M75.3613 44.0585C75.4929 41.5425 75.695 39.0296 75.8393 36.5136C75.8687 35.9956 75.9866 35.3735 75.155 35.125C74.097 35.603 74.2065 36.7768 73.8222 37.659C72.4884 40.7214 70.8219 43.4774 67.1331 43.9754C65.0319 44.2586 62.8959 44.3502 60.7693 44.1228C58.1301 43.8406 57.5458 43.2848 57.3985 40.5571C57.2616 38.0422 57.2384 35.5187 57.2269 32.9985C57.2037 27.5906 57.6995 28.2706 62.8148 28.3254C64.496 28.3433 65.4593 29.2771 65.8183 30.9046C66.0025 31.7415 66.1035 31.9552 66.8984 33.5533C66.8594 29.475 67.1215 25.7672 66.6931 21.9711C66.072 22.5785 66.0709 23.0585 65.8962 23.4733C64.6729 26.3736 64.4865 26.7831 61.321 26.8947C60.5346 26.9221 59.745 26.8758 58.9576 26.901C57.7827 26.9389 57.2258 26.4178 57.2258 25.2188C57.2258 21.5952 57.1932 17.9717 57.1721 14.3482C57.1658 13.2997 57.609 12.7512 58.7344 12.7849C60.624 12.8417 62.5148 12.8417 64.4044 12.8522C67.9669 12.8733 70.125 14.664 71.0904 18.0496C71.3009 18.7876 71.2578 19.8077 72.8284 20.073C72.6505 17.7517 72.4516 15.6115 72.3315 13.466C72.2431 11.8679 71.4588 11.3879 69.8997 11.4047C63.2833 11.4763 56.6647 11.4289 50.0472 11.4542C49.3387 11.4574 48.4512 11.1552 48.0617 12.0364C48.0859 12.5564 48.3839 12.6606 48.6913 12.7428C51.899 13.6039 52.1432 13.8702 52.1674 17.239C52.2032 22.2806 52.1811 27.3232 52.18 32.3658C52.18 34.9661 52.2169 37.5663 52.1558 40.1655C52.0884 43.1006 51.541 43.6669 48.6502 44.1996C48.108 44.2996 47.2985 44.0554 47.2627 45.0923C47.3195 45.1208 47.3774 45.1555 47.4353 45.1923L74.8381 45.1923C75.1529 44.986 75.3308 44.6302 75.3613 44.0596L75.3613 44.0585Z" fill="white"/>
<path d="M143.029 43.9246C143.152 41.6444 143.369 39.3684 143.479 37.0881C143.511 36.4407 143.789 35.6596 142.948 35.1058C141.748 35.4774 141.889 36.6902 141.53 37.5419C140.224 40.6338 138.548 43.3951 134.909 43.9562C132.664 44.3025 130.365 44.4257 128.079 44.0825C125.86 43.7499 125.242 43.1919 125.079 40.899C124.9 38.3862 124.731 35.8627 124.767 33.3467C124.852 27.2966 123.509 28.0641 130.464 28.3472C132.187 28.4167 132.704 29.4568 133.192 31.0286C133.438 31.8192 133.628 32.3076 134.05 33.2835C134.908 31.0602 134.783 23.3899 133.893 22.0656C133.677 22.573 133.522 22.9667 133.375 23.3236C132.282 25.9902 132.194 26.7334 129.349 26.8976C128.484 26.9482 127.613 26.8597 126.749 26.9145C125.37 27.0018 124.711 26.4681 124.74 25.0206C124.809 21.476 124.846 17.9304 124.824 14.3858C124.816 13.1204 125.377 12.7341 126.546 12.7773C128.12 12.8352 129.699 12.7615 131.273 12.8162C135.999 12.9836 137.203 13.9089 138.84 18.4062C139.069 19.0358 138.997 20.1117 140.525 19.8159C140.291 17.4335 140.044 15.0396 139.822 12.6446C139.723 11.5719 138.994 11.4476 138.145 11.4476C131.133 11.4476 124.121 11.4382 117.107 11.454C116.531 11.455 115.775 11.3266 115.721 12.3477C115.887 12.4688 116.045 12.6646 116.242 12.7151C119.477 13.5468 119.796 13.8889 119.83 17.1514C119.871 21.0118 119.843 24.8732 119.842 28.7336C119.841 32.594 119.885 36.4565 119.815 40.3158C119.766 42.9603 119.13 43.6109 116.622 44.1446C116.011 44.2752 115.195 44.1636 114.937 45.0268C115.021 45.0858 115.088 45.1416 115.149 45.1921L142.517 45.1921C142.864 44.9468 142.996 44.5089 143.028 43.9246L143.029 43.9246Z" fill="white"/>
<path d="M109.56 44.4755C108.396 43.7091 108.562 42.309 107.559 41.6415C106.835 41.4899 106.495 42.1426 106.045 42.5216C104.598 43.7186 103.102 44.5892 101.569 45.1903C97.9498 46.6094 94.122 46.4631 90.2658 45.1903C89.8163 45.044 89.3626 44.8829 88.9078 44.7029C83.0599 42.389 80.0311 37.6295 79.4921 31.3605C79.1658 27.5422 79.6627 23.8566 81.167 20.2699C85.3453 10.3342 97.855 8.58345 104.914 13.6597C105.68 14.2082 106.423 14.7904 107.218 15.3915C108.618 14.8851 108.781 12.9681 109.168 11.5637C110.289 13.2955 110.469 22.8533 109.409 24.4377C108.98 23.166 108.637 22.5691 108.377 21.6132C107.336 17.7623 105.278 14.7672 101.408 13.2523C95.0116 10.7489 89.0215 13.2944 86.6644 19.7583C84.6863 25.1662 84.5684 30.7594 86.2812 36.2431C88.5857 43.6007 95.9338 46.5578 102.793 43.0985C106.02 41.471 107.369 38.4802 108.486 35.3061C108.789 34.4597 108.717 33.4565 109.404 32.6754C110.407 34.2703 110.502 41.9016 109.559 44.4755L109.56 44.4755Z" fill="white"/>
<path d="M258.697 44.6556C256.058 44.2629 255.313 43.6892 255.283 41.0752C255.183 32.328 255.22 23.5798 255.158 14.8326C255.148 13.544 255.709 13.2082 256.867 13.2524C258.44 13.3124 260.02 13.2408 261.594 13.2808C265.274 13.3766 266.353 14.2567 267.593 17.7824C267.873 18.5803 267.92 19.9994 269.29 20.3868C269.29 20.0542 269.276 19.752 269.277 19.6204C269.293 17.9676 269.29 16.3138 269.288 14.661C269.284 11.9302 269.266 11.907 266.513 11.906C257.845 11.9028 249.175 11.8754 240.507 11.9197C235.748 11.9439 236.252 11.0996 236.189 16.1411C236.173 17.4307 236.189 18.075 236.189 20.1626C237.313 19.3057 237.748 18.0698 238.09 17.0833C238.942 14.6315 240.466 13.264 243.142 13.303C244.875 13.3282 246.612 13.3335 248.341 13.2493C249.661 13.185 250.167 13.6935 250.161 15.0189C250.123 23.6093 250.177 32.1996 250.099 40.7899C250.071 43.7808 249.314 44.3903 246.267 44.7377C245.698 44.803 244.916 44.4598 244.468 45.1893L260.851 45.1893C260.125 44.5693 259.351 44.7503 258.699 44.6535L258.697 44.6556Z" fill="#DEDEDE"/>
<path d="M178.952 44.6452C175.958 43.4199 175.498 42.5124 176.486 39.4795C176.998 37.9098 177.659 36.3897 178.205 34.8306C178.543 33.8684 179.175 33.522 180.169 33.5347C183.554 33.5747 186.941 33.5662 190.327 33.5715C190.985 33.5725 191.563 33.6536 191.859 34.3832C192.894 36.9339 194.023 39.45 194.979 42.0302C195.462 43.3367 195.048 44.341 193.434 44.5389C192.775 44.62 191.965 44.521 191.5 45.1906L204.581 45.1906C204.687 45.1495 204.785 45.1074 204.863 45.0632C200.209 44.1599 199.748 40.1943 198.362 36.9961C195.017 29.27 191.811 21.4829 188.518 13.7337C188.173 12.921 187.827 12.3936 187.018 11.5229C186.357 12.2988 185.956 12.882 185.634 13.6432C181.899 22.4851 178.184 31.3344 174.479 40.188C173.631 42.2134 172.577 43.9947 170.23 44.5663C169.868 44.6547 169.675 44.8779 169.658 45.1906L179.47 45.1906C179.336 44.8632 179.164 44.7316 178.951 44.6442L178.952 44.6452ZM184.893 18.7911C185.079 18.7911 185.264 18.7932 185.45 18.7932C187.259 23.1568 189.068 27.5204 190.981 32.1366L179.391 32.1366C181.294 27.5193 183.094 23.1547 184.894 18.79L184.893 18.7911Z" fill="#DEDEDE"/>
<path d="M156.789 44.1814C152.324 43.0592 152.029 42.7033 152.022 38.0934C152.01 31.3138 152.011 24.5352 152.034 17.7555C152.036 17.0365 151.776 16.2238 152.496 15.3869C157.673 22.1992 162.744 28.8735 167.926 35.6932C168.679 34.3214 169.233 33.3245 169.747 32.2918C170.262 31.2548 170.067 30.3726 169.363 29.4546C165.099 23.8856 160.862 18.2956 156.645 12.6898C156.029 11.8707 155.36 11.3981 154.29 11.4212C152.006 11.4707 149.718 11.4202 147.433 11.4496C146.855 11.457 146.104 11.3107 146.003 12.3266C146.155 12.4424 146.307 12.6487 146.498 12.6929C150.309 13.592 150.569 13.7888 150.609 17.6566C150.685 24.9079 150.672 32.1602 150.636 39.4125C150.62 42.5338 150.019 43.2055 147.006 43.9919C146.378 44.1561 145.521 44.0161 145.558 45.191L157.839 45.191C157.755 44.3151 157.229 44.2919 156.789 44.1814Z" fill="white"/>
<path d="M70.8296 0.7814C67.962 0.195025 66.386 0.180287 65.8354 1.01195C64.3048 3.32271 62.9151 5.72716 61.4697 8.09477C61.6287 8.2211 61.7877 8.34743 61.9456 8.47376C64.848 5.96087 67.7504 3.44799 70.8296 0.7814Z" fill="white"/>
<path d="M128.142 3.18391C126.869 1.07844 124.738 0.257303 121.747 0.720508C124.813 3.35235 127.35 5.9084 130.514 7.77069C129.869 6.11263 129.021 4.6388 128.141 3.18391L128.142 3.18391Z" fill="white"/>
<path d="M176.065 17.6152C176.908 15.6003 177.421 13.8727 178.28 11.5135C175.415 11.5135 173.009 11.502 169.954 11.502C172.448 12.8295 176.322 13.3106 176.066 17.6152L176.065 17.6152Z" fill="white"/>
<path d="M21.5387 45.1914L20.3701 45.1914C20.5143 45.2609 20.6828 45.3072 20.887 45.3167C21.1565 45.3293 21.3671 45.2798 21.5376 45.1914L21.5387 45.1914Z" fill="white"/>
</g>
</svg>
