<svg width="280" height="75" viewBox="0 0 280 75" fill="none" xmlns="http://www.w3.org/2000/svg">
<g clip-path="url(#clip0_483_595)">
<path d="M65.6297 55.4881H55.4638L52.1404 47.78L51.2851 45.8905C50.8127 44.9249 50.3972 43.926 49.9411 42.9604C49.5745 42.1862 49.1998 41.4204 48.8007 40.6629C48.5156 40.1135 48.1653 39.5808 47.6684 39.2145C47.1064 38.7983 46.3325 38.6568 45.6809 38.9149C45.0781 39.1563 44.7441 39.8805 44.4264 40.4049C43.7911 41.4288 43.286 42.5525 42.6507 43.568C40.826 46.4815 38.4964 49.1119 35.7431 51.1513C31.7436 54.1147 26.7259 55.4299 21.8384 55.4881C17.0569 55.5464 12.1614 54.4726 8.17812 51.684C4.77322 49.3033 2.22361 45.8072 0.944741 41.8033C0.822555 41.4288 0.716661 41.0458 0.618913 40.6629C0.211628 39.098 -0.0164509 37.5081 -0.000159564 35.8932C0.0161318 34.3283 0.244211 32.7634 0.675933 31.265C1.10765 29.7667 1.71858 28.3766 2.51686 27.0697C3.30699 25.7711 4.27633 24.5891 5.39229 23.5653C6.51639 22.5331 7.79527 21.6757 9.16374 21.0264C10.5322 20.3771 12.1369 19.911 13.7009 19.7112C15.3463 19.5031 17.1221 19.8028 18.6861 20.3189C20.2012 20.8183 21.6511 21.6091 22.8078 22.7412C23.5979 23.5236 24.2333 24.4643 24.6243 25.5131C24.0459 24.0314 22.987 22.8078 21.7081 21.9171C20.3967 21.0014 18.8734 20.4188 17.3176 20.1108C16.2586 19.9027 15.1671 19.7861 14.0919 19.8943C13.2529 19.9776 12.4057 20.1774 11.5912 20.4271C10.1005 20.8766 8.68315 21.5675 7.39613 22.4665C6.14984 23.3405 5.04202 24.406 4.10527 25.613C3.16851 26.82 2.41097 28.1602 1.84891 29.5919C1.27871 31.0403 0.920304 32.5719 0.773681 34.1202C0.627059 35.7184 0.708516 37.3416 1.00991 38.9232C1.10765 39.4393 1.22984 39.9471 1.37646 40.4465C2.01997 42.6441 3.04633 44.7168 4.41481 46.5397C7.48573 50.6185 11.9007 52.9243 16.8288 53.7484C19.0689 54.123 21.3578 54.1646 23.6142 53.8649C25.5284 53.6069 27.459 53.1407 29.2184 52.325C33.6823 50.2606 37.3967 46.7811 39.5635 42.2695C40.6387 40.0303 41.3311 37.6163 41.6895 35.1524C41.9013 33.6624 41.9664 32.1474 41.9094 30.6407C41.8198 28.5597 41.4044 26.4704 40.7364 24.4809C40.1011 22.5913 39.1888 20.8766 38.3416 19.0869C37.5759 17.4471 36.7776 15.8239 35.9957 14.1923C34.8715 11.8366 33.7393 9.49756 32.6152 7.14184C31.6947 5.22731 30.7661 3.31277 29.8538 1.3899C29.6339 0.923753 29.4058 0.465928 29.1859 -0.00854492H39.3517L48.7844 19.6529L65.6134 55.4798L65.6297 55.4881Z" fill="url(#paint0_linear_483_595)"/>
<path d="M98.6603 54.1731C98.2693 53.7902 97.8457 53.3823 97.3814 53.091C96.7053 52.6665 96.0781 52.2503 95.3287 51.9589C93.8706 51.4095 92.3066 51.2514 90.7752 51.3846C87.6066 51.6676 84.6823 53.0577 82.1082 54.8973C81.9779 54.9972 81.8557 55.0805 81.7172 55.1803C79.5097 56.8452 77.5385 58.7763 75.5591 60.6742C75.3554 60.874 75.1436 61.0821 74.9237 61.2736C67.0876 68.8402 57.997 74.0094 47.2202 74.9833C57.9562 74.076 67.2342 68.99 75.1355 61.5566C75.3554 61.8646 75.6079 62.1642 75.8768 62.4639C77.4815 64.2619 79.4201 65.727 81.5869 66.7342C83.3626 67.5666 85.228 68.1576 87.1748 68.399C89.8303 68.7236 92.551 68.424 95.0843 67.4833C96.6727 66.8757 98.1471 65.9434 99.2712 64.6448C99.8414 63.9872 100.289 63.2297 100.574 62.414C100.721 61.9645 100.827 61.5066 100.876 61.0405C101.104 58.6598 100.363 55.8629 98.6521 54.1814L98.6603 54.1731ZM98.8883 61.8563C98.1389 63.4711 96.7379 64.6198 95.0354 65.0361C92.7791 65.5854 90.1806 65.0277 88.2826 63.6626C86.8246 62.5971 85.6842 61.1654 84.6171 59.7003C83.9003 58.7098 83.2242 57.6942 82.5644 56.6454C82.3607 56.3124 82.1489 55.9711 81.9697 55.6298C84.4379 53.8152 87.1178 52.45 90.1887 52.1587C92.5673 51.7841 95.068 52.3918 96.9497 53.9983C96.9822 54.0233 97.0067 54.0483 97.0474 54.0816C97.1777 54.2064 97.3162 54.3313 97.4465 54.4561C99.3201 56.379 100.037 59.359 98.8802 61.8646L98.8883 61.8563Z" fill="url(#paint1_linear_483_595)"/>
<path d="M81.2611 54.4811C80.9515 54.6726 80.6583 54.9473 80.3569 55.172C80.0311 55.4217 79.7052 55.6881 79.3794 55.9461C78.7359 56.4789 78.1087 57.0283 77.4896 57.586C76.6425 58.3518 75.8034 59.1176 74.9807 59.9167C74.7689 60.1248 74.5409 60.3246 74.3291 60.5161C74.2476 60.4245 74.1825 60.3246 74.1173 60.2331C73.1887 58.9511 72.4393 57.5693 71.7225 56.1376C70.7776 54.2897 69.9141 52.3834 69.0099 50.4939C67.6089 47.5804 66.216 44.6753 64.8149 41.7619C63.3242 38.6487 61.8336 35.5521 60.3429 32.4389C59.1455 29.9667 57.9644 27.4861 56.7751 25.0139C56.2864 23.99 55.8058 22.9911 55.3089 21.9839H65.4747C65.6865 21.9839 66.607 24.3396 66.7129 24.5394L69.8164 30.9822C72.0972 35.727 74.4594 40.4384 76.618 45.2414C77.343 46.8479 81.1959 54.3895 81.2529 54.4728L81.2611 54.4811Z" fill="url(#paint2_linear_483_595)"/>
<path d="M96.9501 57.4279H91.2236V28.9429H96.9501V57.4279Z" fill="#4A346D"/>
<path d="M107.352 37.6582V40.0888C108.77 37.8247 110.195 36.9673 112.614 36.9673C114.455 36.9673 116.207 37.6499 117.38 38.8069C118.634 40.0888 119.09 41.6704 119.09 44.9168V57.4279H113.779V45.1665C113.779 44.0594 113.657 43.4185 113.323 42.8607C112.818 42.0533 111.816 41.5372 110.774 41.5372C108.729 41.5372 107.344 43.1188 107.344 45.4246V57.4279H102.033V37.6582H107.344H107.352Z" fill="#4A346D"/>
<path d="M129.378 51.6176C129.378 52.5583 129.712 52.8163 130.885 52.8995H131.805V57.4278H127.586C124.995 57.3446 124.034 56.2708 124.075 53.6654V42.1365H121.859V37.5666H124.075V32.2725H129.386V37.5666H131.813V42.1365H129.386V51.6176H129.378Z" fill="#4A346D"/>
<path d="M139.324 48.8457C139.78 51.576 141.751 53.2908 144.382 53.2908C146.345 53.2908 148.015 52.3085 148.854 50.727L153.742 52.0921C151.819 55.9379 148.431 58.1104 144.341 58.1104C138.2 58.1104 133.809 53.6654 133.809 47.5222C133.809 41.379 138.029 36.9756 144.007 36.9756C149.986 36.9756 154.499 41.4206 154.499 47.7802L154.458 48.8457H139.332H139.324ZM149.017 45.7242C148.561 43.1188 146.72 41.5372 144.089 41.5372C141.458 41.5372 139.829 43.0355 139.324 45.7242H149.017Z" fill="#4A346D"/>
<path d="M163.191 37.6582V40.5633C163.737 39.1149 164.111 38.5155 164.901 37.9162C165.74 37.3169 166.865 36.9756 168.038 36.9756C168.16 36.9756 168.372 36.9756 168.665 37.0172V42.5694C168.249 42.5278 167.826 42.4861 167.541 42.4861C166.074 42.4861 164.739 43.1687 163.989 44.2758C163.362 45.1748 163.191 46.0239 163.191 47.9051V57.4279H157.88V37.6582H163.191Z" fill="#4A346D"/>
<path d="M176.436 37.6582V40.1387C177.65 37.9578 179.279 36.9756 181.747 36.9756C184.215 36.9756 186.097 38.1326 187.009 40.2636C188.304 37.9994 190.104 36.9756 192.858 36.9756C194.821 36.9756 196.45 37.6165 197.541 38.8152C198.714 40.1387 199.089 41.5039 199.089 44.4922V57.4362H193.778V45.5244C193.778 42.8357 192.817 41.5538 190.813 41.5538C188.809 41.5538 187.718 43.0022 187.718 45.5244V57.4362H182.407V45.6909C182.407 42.9606 181.405 41.5455 179.482 41.5455C177.56 41.5455 176.428 42.9523 176.428 45.6909V57.4362H171.117V37.6665H176.428L176.436 37.6582Z" fill="#4A346D"/>
<path d="M208.074 48.8457C208.53 51.576 210.501 53.2908 213.132 53.2908C215.095 53.2908 216.765 52.3085 217.604 50.727L222.492 52.0921C220.569 55.9379 217.181 58.1104 213.091 58.1104C206.95 58.1104 202.559 53.6654 202.559 47.5222C202.559 41.379 206.779 36.9756 212.757 36.9756C218.736 36.9756 223.249 41.4206 223.249 47.7802L223.208 48.8457H208.082H208.074ZM217.767 45.7242C217.311 43.1188 215.47 41.5372 212.839 41.5372C210.208 41.5372 208.579 43.0355 208.074 45.7242H217.767Z" fill="#4A346D"/>
<path d="M240.086 52.858V57.4279H224.243L232.348 42.2198H224.992V37.6499H240.664L232.6 52.858H240.078H240.086Z" fill="#4A346D"/>
<path d="M257.265 52.858V57.4279H241.422L249.527 42.2198H242.171V37.6499H257.844L249.779 52.858H257.257H257.265Z" fill="#4A346D"/>
<path d="M280 47.7386C280 53.5488 275.365 58.1187 269.427 58.1187C263.489 58.1187 258.935 53.7236 258.935 47.5721C258.935 41.4206 263.236 36.9839 269.508 36.9839C275.78 36.9839 280 41.5122 280 47.7469V47.7386ZM264.287 47.5638C264.287 50.9767 266.38 53.2824 269.467 53.2824C272.555 53.2824 274.648 50.9351 274.648 47.647C274.648 44.0594 272.685 41.8368 269.508 41.8368C266.331 41.8368 264.287 44.101 264.287 47.5555V47.5638Z" fill="#4A346D"/>
</g>
<defs>
<linearGradient id="paint0_linear_483_595" x1="37.5" y1="-16.5" x2="118.19" y2="11.3985" gradientUnits="userSpaceOnUse">
<stop stop-color="#8B50EA"/>
<stop offset="0.346119" stop-color="#FBAAD4"/>
<stop offset="1" stop-color="#F97E53"/>
</linearGradient>
<linearGradient id="paint1_linear_483_595" x1="53.1629" y1="-18.3082" x2="120.863" y2="7.61616" gradientUnits="userSpaceOnUse">
<stop offset="0.180958" stop-color="#8B50EA"/>
<stop offset="0.51525" stop-color="#FBAAD4"/>
<stop offset="1" stop-color="#F69770"/>
</linearGradient>
<linearGradient id="paint2_linear_483_595" x1="53.1629" y1="-18.3082" x2="120.863" y2="7.61616" gradientUnits="userSpaceOnUse">
<stop offset="0.180958" stop-color="#8B50EA"/>
<stop offset="0.51525" stop-color="#FBAAD4"/>
<stop offset="1" stop-color="#F69770"/>
</linearGradient>
<clipPath id="clip0_483_595">
<rect width="280" height="75" fill="white"/>
</clipPath>
</defs>
</svg>
