<svg width="217" height="73" viewBox="0 0 217 73" fill="none" xmlns="http://www.w3.org/2000/svg">
<g opacity="0.7" clip-path="url(#clip0_423_825)">
<path d="M51.8008 8.10753H57.3963V10.9143C57.4497 10.9525 57.503 10.9906 57.564 11.0211C57.6021 10.9296 57.625 10.8228 57.686 10.7389C59.4546 8.48889 61.8331 7.71091 64.608 7.9321C69.5022 8.33634 72.3228 11.9898 72.8946 16.322C73.1995 18.656 73.0623 20.9441 72.1627 23.1408C70.5085 27.1832 66.7959 29.0061 62.725 28.5561C60.56 28.3196 58.8371 27.3128 57.4192 25.5967C57.4192 27.2671 57.4192 28.9451 57.4192 30.6154C57.4192 32.2858 57.4192 33.9943 57.4192 35.7104H51.8008V8.10753ZM57.3582 18.1754C57.4421 18.7932 57.4878 19.4187 57.6326 20.0212C58.1282 22.1111 59.7977 23.6289 61.7645 23.8043C64.0515 24.0103 65.8735 23.0111 66.7502 20.9746C67.5506 19.1288 67.5659 17.2297 66.7349 15.3915C65.9497 13.6373 64.5546 12.6381 62.6031 12.5618C60.6286 12.4855 59.1421 13.3398 58.1587 15.0559C57.6098 16.0169 57.4039 17.0695 57.3658 18.1831L57.3582 18.1754Z" fill="white"/>
<path d="M21.2543 57.1811C22.3902 58.4396 23.5032 59.6828 24.6619 60.9718C24.3646 61.254 24.0978 61.521 23.8157 61.7727C21.422 63.9083 18.67 65.3346 15.4606 65.6321C8.59191 66.2651 2.89727 62.1464 1.243 56.0142C-0.121578 50.9573 0.777977 46.3047 4.49817 42.4682C7.57801 39.2953 11.4583 38.0902 15.8265 38.5097C18.9902 38.8148 21.7269 40.1343 24.0673 42.2776C24.2503 42.4454 24.4332 42.5903 24.6467 42.7733C23.4879 44.2301 22.3826 45.6183 21.2467 47.0598C21.1018 46.9073 20.9875 46.7776 20.8655 46.6479C19.4704 45.1454 17.8085 44.07 15.7655 43.7267C12.4036 43.1623 9.2094 44.6954 7.66186 47.7463C5.99997 51.0107 6.2058 54.2523 8.37846 57.2269C10.8179 60.56 15.1251 61.2312 18.9216 58.9735C19.3408 58.7218 19.7372 58.4472 20.126 58.1498C20.4996 57.8599 20.8426 57.5396 21.2467 57.1887L21.2543 57.1811Z" fill="white"/>
<path d="M89.4677 28.3731V26.0926C89.361 26.1765 89.3 26.207 89.2543 26.2604C87.9354 27.7782 86.2126 28.4418 84.2686 28.6172C83.0641 28.724 81.8596 28.6935 80.6933 28.3274C77.7278 27.4045 76.1345 24.8112 76.4318 21.6459C76.7444 18.3052 79.1686 16.94 81.387 16.4976C82.2637 16.3222 83.1632 16.2459 84.0628 16.223C85.6789 16.1772 87.2951 16.2077 88.9112 16.2077H89.3915C89.7498 14.4611 88.5682 12.8594 86.7005 12.5238C84.6803 12.1653 82.7668 12.5848 80.922 13.4009C80.4188 13.6221 79.9385 13.8738 79.382 14.1408C78.8027 12.8365 78.2309 11.5399 77.6515 10.2356C77.7202 10.1823 77.7583 10.1289 77.8116 10.106C80.922 8.47376 84.2152 7.63477 87.7525 7.89409C89.3991 8.01613 90.9695 8.42037 92.3265 9.42716C93.9655 10.6323 94.8346 12.295 94.9261 14.2933C95.0328 16.5281 95.0023 18.7705 95.0175 21.0129C95.0328 23.3468 95.0252 25.6731 95.0328 28.007C95.0328 28.1138 95.0328 28.2206 95.0328 28.3655H89.483L89.4677 28.3731ZM89.3991 19.6781C89.3229 19.6629 89.2619 19.64 89.2009 19.64C87.5085 19.6476 85.8162 19.64 84.1238 19.6858C83.6816 19.701 83.2318 19.8612 82.8049 20.0137C82.2713 20.212 81.9435 20.6239 81.7834 21.1654C81.3565 22.5688 82.0578 23.9036 83.4682 24.3536C84.2991 24.6206 85.1605 24.6206 85.9991 24.4299C88.2937 23.9036 89.8642 22.5383 89.3991 19.6705V19.6781Z" fill="white"/>
<path d="M91.9302 44.9851C92.136 44.9775 92.2885 44.9622 92.4333 44.9622C93.9732 44.9622 95.5131 44.9698 97.0531 44.9546C97.419 44.9546 97.5562 45.0385 97.5562 45.4351C97.5486 51.8953 97.5486 58.3632 97.5486 64.8235C97.5486 64.976 97.5333 65.1209 97.5181 65.2811H91.953V61.8717C91.953 61.8717 91.8921 61.8489 91.8616 61.8412C91.7853 61.9404 91.7091 62.0395 91.6481 62.1463C90.314 64.3277 88.3319 65.4108 85.8086 65.4794C84.9167 65.5023 83.9943 65.4642 83.1404 65.243C80.396 64.526 78.8866 62.6039 78.3225 59.8963C78.1776 59.2175 78.1319 58.5081 78.1243 57.8064C78.109 53.6725 78.1167 49.5462 78.1167 45.4122C78.1167 45.2902 78.1167 45.1682 78.1167 45.008H83.7656C83.7656 45.2139 83.7656 45.3893 83.7656 45.5724C83.7656 49.1419 83.7656 52.7038 83.7732 56.2734C83.7732 56.6624 83.8265 57.0666 83.918 57.448C84.2458 58.798 85.0387 59.7666 86.4185 60.087C88.027 60.4531 89.4831 60.1327 90.6266 58.8666C91.5719 57.8217 91.9225 56.5327 91.9302 55.1598C91.9454 51.9716 91.9302 48.7911 91.9378 45.6029C91.9378 45.4199 91.9378 45.2368 91.9378 45.0004L91.9302 44.9851Z" fill="white"/>
<path d="M41.2806 44.993H46.8685V65.2661H41.2806V61.8644C41.2806 61.8644 41.2272 61.8491 41.1967 61.8415C41.1205 61.9635 41.0366 62.0779 40.9604 62.2C39.6492 64.3051 37.7205 65.3805 35.2734 65.472C34.3433 65.5025 33.3675 65.472 32.468 65.2356C29.7007 64.511 28.2065 62.5584 27.6576 59.8355C27.5204 59.172 27.4747 58.4779 27.467 57.7914C27.4518 53.6804 27.4594 49.5617 27.4594 45.4506C27.4594 45.3133 27.4594 45.176 27.4594 45.0006H33.1083V45.5726C33.1083 48.982 33.1083 52.399 33.1083 55.8084C33.1083 56.3194 33.1312 56.8533 33.2455 57.3491C33.703 59.4084 35.4258 60.5296 37.5222 60.1635C39.4891 59.8203 40.8765 58.333 41.1662 56.2431C41.2348 55.7626 41.2577 55.2745 41.2653 54.7863C41.2729 51.7049 41.2653 48.6312 41.2653 45.5498C41.2653 45.382 41.2653 45.2142 41.2653 44.9854L41.2806 44.993Z" fill="white"/>
<path d="M134.377 61.9406C132.997 63.4889 131.358 64.5186 129.407 65.0449C126.983 65.7008 124.551 65.7389 122.157 64.961C118.475 63.7635 116.386 61.1397 115.723 57.3795C115.304 54.9922 115.479 52.6278 116.516 50.4082C118.117 46.9607 120.914 45.1989 124.65 44.8404C126.319 44.6802 127.966 44.8099 129.567 45.3514C132.601 46.3734 134.278 48.6082 135.071 51.6057C135.498 53.2074 135.574 54.8473 135.513 56.5024C135.513 56.6244 135.483 56.7388 135.46 56.8914H121.242C121.456 57.8448 121.829 58.6533 122.447 59.3244C124.01 61.0177 125.961 61.3075 128.103 60.7965C129.201 60.5295 130.169 59.9956 131.015 59.2405C131.137 59.1338 131.267 59.0194 131.419 58.8821C132.403 59.9041 133.371 60.9033 134.377 61.9482V61.9406ZM130.162 53.4668C130.276 50.8125 128.286 48.9362 125.511 49.0201C123.255 49.0887 120.983 51.4303 121.212 53.4668H130.162Z" fill="white"/>
<path d="M120.701 21.9131C121.844 22.8055 123.049 23.4462 124.36 23.8657C125.717 24.3005 127.097 24.6055 128.537 24.3462C129.185 24.2318 129.788 24.003 130.047 23.3165C130.314 22.6072 130.032 21.8597 129.269 21.4708C128.568 21.1123 127.821 20.8453 127.074 20.5784C125.77 20.1055 124.436 19.7318 123.163 19.1902C121.486 18.4733 120.266 17.2605 119.931 15.3919C119.351 12.1427 120.838 9.57995 123.956 8.44349C126.395 7.55111 128.865 7.67314 131.327 8.32908C132.219 8.56553 133.081 8.93163 133.935 9.28249C134.423 9.48079 134.872 9.78588 135.375 10.0681C134.72 11.3952 134.087 12.6842 133.432 14.0114C133.264 13.9275 133.119 13.8588 132.974 13.7825C131.122 12.8139 129.223 12.0207 127.074 12.0969C126.647 12.1122 126.189 12.2266 125.808 12.4096C124.886 12.852 124.764 14.0724 125.602 14.6673C126.052 14.9876 126.586 15.2088 127.112 15.3995C128.53 15.9105 129.978 16.33 131.373 16.8792C132.166 17.1919 132.944 17.6267 133.622 18.1453C135.2 19.3428 135.673 21.036 135.475 22.9428C135.17 25.9251 133.264 27.542 130.573 28.2208C126.525 29.2353 122.728 28.4954 119.26 26.1386C118.947 25.9251 118.863 25.742 119.054 25.3683C119.618 24.2547 120.121 23.1182 120.685 21.9208L120.701 21.9131Z" fill="white"/>
<path d="M115.349 10.1136C114.701 11.4331 114.069 12.7068 113.482 13.9043C112.17 13.3933 110.913 12.8517 109.624 12.417C108.58 12.0661 107.482 11.9288 106.384 12.1805C105.469 12.3865 105.02 12.928 105.081 13.7289C105.126 14.3314 105.485 14.7204 106.003 14.934C106.819 15.2696 107.65 15.5594 108.481 15.8568C109.678 16.2916 110.913 16.6501 112.079 17.1687C113.764 17.9162 115.06 19.0984 115.403 21.0128C115.974 24.1781 114.579 26.6722 111.606 27.8926C110.097 28.5104 108.519 28.6934 106.903 28.6248C104.181 28.5104 101.65 27.8011 99.4013 26.2222C99.226 26.1002 99.0659 25.9629 98.8677 25.8104C99.4699 24.5214 100.072 23.2476 100.69 21.9357C100.85 22.0425 100.972 22.1264 101.094 22.2103C103.076 23.6061 105.256 24.4222 107.696 24.4298C108.229 24.4298 108.793 24.3078 109.281 24.0942C110.31 23.6519 110.455 22.3476 109.556 21.684C109.121 21.3637 108.61 21.1349 108.1 20.9518C106.682 20.4408 105.241 20.0137 103.83 19.4798C103.167 19.2281 102.519 18.8925 101.94 18.4806C100.27 17.2908 99.6529 15.5975 99.8511 13.6068C100.148 10.6932 101.887 8.80168 105.02 8.12286C108.641 7.33726 112.033 8.06947 115.189 9.96864C115.243 9.99915 115.281 10.0449 115.357 10.1136H115.349Z" fill="white"/>
<path d="M69.4566 40.2947V45.8473C69.6624 45.855 69.8301 45.8702 69.9902 45.8702C71.4386 45.8702 72.8871 45.8855 74.3355 45.8702C74.7243 45.8702 74.8768 45.9541 74.8615 46.3736C74.831 47.3804 74.831 48.3872 74.8615 49.3864C74.8768 49.8059 74.7243 49.8974 74.3355 49.8898C72.8718 49.8669 71.4081 49.8898 69.9445 49.8745C69.5709 49.8745 69.4413 49.966 69.4489 50.355C69.4642 52.9635 69.4489 55.5644 69.4642 58.1729C69.4642 58.5924 69.5099 59.0272 69.6167 59.439C69.8225 60.2399 70.3942 60.6441 71.2176 60.667C72.2162 60.6975 73.1234 60.3543 74.0534 59.9348C74.427 61.2924 74.8082 62.6196 75.1588 63.9543C75.1817 64.0535 75.0521 64.2594 74.9378 64.3204C73.2225 65.2586 71.3853 65.6705 69.4413 65.5103C68.7552 65.4569 68.0386 65.3196 67.4059 65.0603C65.0198 64.1069 63.9296 62.223 63.8839 59.7441C63.8229 56.6551 63.8686 53.5584 63.861 50.4694C63.861 50.2864 63.861 50.111 63.861 49.8669H61.0938C61.0938 49.4931 61.0938 49.1804 61.0938 48.8677C61.0938 47.9982 61.1014 47.1287 61.0938 46.2592C61.0938 45.9618 61.1852 45.855 61.4902 45.8626C62.2601 45.8779 63.0377 45.8626 63.8686 45.8626V40.2871H69.4794L69.4566 40.2947Z" fill="white"/>
<path d="M51.8164 37.2739H57.3967V65.2658H51.8164V37.2739Z" fill="white"/>
<path d="M107.84 65.2738H102.237C102.229 65.1137 102.206 64.9535 102.206 64.7857C102.206 58.356 102.206 51.9339 102.199 45.5041C102.199 45.1075 102.275 44.9473 102.717 44.955C104.272 44.9855 105.827 44.9778 107.375 44.955C107.756 44.955 107.87 45.077 107.863 45.4507C107.84 46.4499 107.863 47.4491 107.901 48.4864C109.372 46.0456 111.53 44.8329 114.381 44.749V50.0881C113.519 50.172 112.658 50.172 111.835 50.355C109.319 50.9118 107.863 52.8415 107.855 55.5873C107.84 58.6153 107.855 61.6509 107.855 64.6789C107.855 64.8696 107.84 65.0679 107.832 65.2815L107.84 65.2738Z" fill="white"/>
<path d="M174.964 72.1455C175.124 70.8642 175.292 69.5065 175.467 68.1489C175.787 65.6014 176.115 63.0463 176.435 60.4988C176.786 57.7225 177.136 54.9462 177.495 52.1699C177.632 51.1021 177.769 50.0266 177.899 48.9588C177.96 48.4783 178.227 48.2037 178.608 48.2342C179.004 48.2724 179.233 48.5698 179.172 49.0656C178.913 51.1936 178.646 53.3216 178.379 55.4496C178.059 57.9818 177.739 60.5217 177.418 63.0539C177.068 65.8455 176.709 68.637 176.359 71.4286C176.321 71.7337 176.283 72.0311 176.237 72.3362C176.168 72.8167 175.94 73.0303 175.535 72.9998C175.139 72.9693 174.948 72.7099 174.964 72.1455Z" fill="white"/>
<path d="M170.931 3.24939C170.923 2.80701 171.114 2.57057 171.48 2.51718C171.869 2.46379 172.105 2.68498 172.204 3.05871C172.478 4.11889 172.753 5.17908 173.027 6.23926C174.506 12.0131 175.993 17.7792 177.472 23.553C177.662 24.2852 177.54 24.6437 177.075 24.7581C176.656 24.8573 176.397 24.5903 176.206 23.8657C174.468 17.0928 172.73 10.3198 170.992 3.54685C170.961 3.43244 170.946 3.31041 170.931 3.24939Z" fill="white"/>
<path d="M192.68 38.2351C193.854 38.4563 195.105 38.6928 196.362 38.9368C201.889 39.9894 207.416 41.0419 212.943 42.1021C213.18 42.1479 213.423 42.186 213.66 42.247C214.102 42.3615 214.285 42.6589 214.193 43.0555C214.11 43.4064 213.782 43.5894 213.37 43.5055C211.441 43.1394 209.52 42.7733 207.592 42.3996C202.705 41.4691 197.826 40.5309 192.94 39.6004C192.757 39.5699 192.581 39.5394 192.406 39.4936C192.032 39.3945 191.834 39.1504 191.887 38.7538C191.941 38.3419 192.223 38.2046 192.696 38.2275L192.68 38.2351Z" fill="white"/>
<path d="M168.377 38.9673C168.354 39.28 168.11 39.4478 167.737 39.5241C165.556 39.936 163.376 40.3631 161.196 40.7826C156.79 41.6216 152.376 42.4529 147.969 43.2919C147.443 43.3911 147.131 43.2309 147.047 42.8267C146.963 42.4224 147.207 42.125 147.718 42.0258C154.259 40.775 160.807 39.5241 167.348 38.2809C168.019 38.1512 168.385 38.3724 168.377 38.9749V38.9673Z" fill="white"/>
<path d="M189.044 4.33973C188.831 5.18635 188.648 5.91856 188.457 6.6584C186.971 12.4398 185.484 18.2289 183.998 24.0103C183.982 24.0713 183.967 24.1247 183.952 24.1857C183.815 24.6281 183.517 24.8417 183.159 24.7501C182.77 24.651 182.587 24.3078 182.702 23.8501C182.961 22.8357 183.22 21.8213 183.479 20.7992C184.882 15.3534 186.277 9.90759 187.68 4.46176C187.725 4.28634 187.779 4.05752 187.901 3.98125C188.099 3.86684 188.396 3.77531 188.594 3.84396C188.793 3.9126 188.915 4.18718 189.037 4.3321L189.044 4.33973Z" fill="white"/>
<path d="M209.978 18.1225C209.879 18.2292 209.719 18.4733 209.498 18.6106C207.5 19.892 205.495 21.1657 203.49 22.4318C200.022 24.6361 196.553 26.8404 193.084 29.037C192.475 29.4184 192.139 29.426 191.888 29.0523C191.628 28.6709 191.788 28.32 192.391 27.9311C197.811 24.4912 203.231 21.0437 208.659 17.6038C208.804 17.5123 208.941 17.4131 209.093 17.3521C209.536 17.1691 209.985 17.4665 209.978 18.1072V18.1225Z" fill="white"/>
<path d="M206.776 57.9056C206.593 58.1421 206.486 58.4167 206.319 58.4548C206.075 58.5082 205.724 58.4777 205.533 58.3328C204.573 57.5853 203.643 56.7997 202.705 56.0217C199 52.9556 195.295 49.8894 191.583 46.8233C191.476 46.7394 191.362 46.6555 191.278 46.5487C191.057 46.2818 191.041 45.9843 191.255 45.7097C191.468 45.4352 191.766 45.3894 192.071 45.5648C192.223 45.6563 192.36 45.7784 192.505 45.9004C197.071 49.6759 201.63 53.4437 206.189 57.2268C206.395 57.4022 206.547 57.6463 206.768 57.898L206.776 57.9056Z" fill="white"/>
<path d="M154.632 58.2721C154.442 58.1196 154.198 58.0204 154.129 57.8526C154.053 57.6619 154.099 57.3873 154.175 57.1814C154.221 57.0441 154.403 56.945 154.533 56.8382C158.962 53.1771 163.384 49.5161 167.813 45.855C167.859 45.8169 167.904 45.7787 167.958 45.7406C168.369 45.4126 168.751 45.4126 169.002 45.7253C169.246 46.0304 169.162 46.427 168.766 46.755C164.26 50.4847 159.747 54.2144 155.234 57.9365C155.082 58.0662 154.876 58.1424 154.64 58.2797L154.632 58.2721Z" fill="white"/>
<path d="M169.719 26.1766C169.46 25.9782 169.239 25.8486 169.071 25.6655C165.678 22.0579 162.286 18.4502 158.901 14.8425C158.345 14.2552 157.796 13.6679 157.247 13.073C156.874 12.6688 156.828 12.2722 157.117 11.9899C157.415 11.7077 157.804 11.7688 158.185 12.173C161.806 16.0247 165.427 19.8841 169.04 23.7358C169.429 24.1477 169.841 24.5367 170.184 24.9791C170.313 25.1469 170.344 25.4748 170.275 25.6808C170.214 25.8638 169.948 25.9782 169.726 26.1689L169.719 26.1766Z" fill="white"/>
<path d="M179.469 17.2068C179.469 15.0254 179.469 12.8516 179.469 10.6703C179.469 10.4796 179.454 10.2279 179.553 10.0982C179.698 9.9228 179.949 9.73975 180.155 9.73975C180.338 9.73975 180.574 9.94568 180.696 10.1287C180.796 10.2737 180.773 10.5101 180.773 10.7084C180.773 15.0635 180.773 19.4187 180.773 23.7814C180.773 23.8119 180.773 23.8425 180.773 23.873C180.773 24.4603 180.521 24.7882 180.102 24.773C179.69 24.7577 179.469 24.445 179.461 23.8806C179.461 21.6534 179.461 19.4339 179.461 17.2068H179.469Z" fill="white"/>
<path d="M205.884 48.2423C205.884 48.7991 205.465 49.0813 204.984 48.9135C204.71 48.8143 204.458 48.677 204.199 48.555C200.319 46.7321 196.439 44.9016 192.558 43.0786C192.49 43.0481 192.421 43.0176 192.353 42.9795C191.918 42.7583 191.758 42.4227 191.91 42.0642C192.063 41.7134 192.452 41.599 192.886 41.8049C194.159 42.3922 195.425 42.9871 196.69 43.5897C199.564 44.9397 202.438 46.2973 205.32 47.655C205.625 47.7999 205.892 47.9524 205.884 48.2575V48.2423Z" fill="white"/>
<path d="M154.587 27.542C154.846 27.6183 154.998 27.6564 155.143 27.7022C159.321 29.0598 163.506 30.4174 167.683 31.7751C167.699 31.7751 167.714 31.7751 167.729 31.7903C168.293 31.981 168.499 32.2937 168.347 32.7209C168.217 33.0793 167.859 33.1938 167.34 33.0336C166.586 32.7895 165.839 32.5454 165.084 32.3014C161.631 31.1802 158.17 30.0513 154.716 28.9301C154.571 28.8844 154.365 28.8539 154.312 28.7547C154.19 28.5335 154.038 28.2437 154.091 28.0378C154.144 27.8318 154.442 27.6869 154.587 27.5496V27.542Z" fill="white"/>
<path d="M203.376 35.6723C203.193 35.6876 203.01 35.7105 202.827 35.7181C202.385 35.7333 202.08 35.4893 202.057 35.1155C202.034 34.7494 202.316 34.452 202.751 34.4215C203.711 34.3528 204.664 34.2994 205.625 34.2384C208.926 34.0325 212.219 33.8265 215.52 33.613C216.244 33.5672 216.579 33.7274 216.633 34.1774C216.679 34.6198 216.351 34.8715 215.642 34.9172C211.556 35.1689 207.462 35.4206 203.376 35.6723C203.376 35.6723 203.376 35.6723 203.376 35.6647V35.6723Z" fill="white"/>
<path d="M205.312 28.5865C205.312 28.9145 205.053 29.0823 204.702 29.1967C202.271 29.9823 199.846 30.7756 197.422 31.5612C195.89 32.0569 194.365 32.568 192.825 33.0332C192.597 33.1019 192.246 33.0332 192.048 32.8883C191.91 32.7891 191.849 32.4002 191.941 32.24C192.055 32.034 192.33 31.8662 192.566 31.7823C195.021 30.9739 197.476 30.1806 199.93 29.3798C201.386 28.9069 202.85 28.4264 204.306 27.9611C204.893 27.7781 205.305 28.0069 205.312 28.5865Z" fill="white"/>
<path d="M151.652 17.7637C151.911 17.8857 152.086 17.9391 152.231 18.0383C155.707 20.2349 159.176 22.4391 162.644 24.6434C163.079 24.918 163.201 25.2917 162.995 25.6349C162.789 25.9705 162.393 26.0163 161.951 25.7417C158.467 23.5298 154.983 21.3179 151.499 19.1137C151.194 18.923 150.996 18.6561 151.133 18.3205C151.217 18.1069 151.469 17.9544 151.652 17.7713V17.7637Z" fill="white"/>
<path d="M164.329 59.0957C163.689 59.0957 163.392 58.638 163.582 58.1957C163.636 58.0736 163.727 57.9668 163.803 57.8524C166.09 54.6948 168.385 51.5447 170.68 48.3871C170.764 48.2727 170.84 48.1583 170.939 48.0667C171.206 47.8379 171.503 47.8227 171.77 48.0438C172.021 48.2422 172.09 48.5244 171.938 48.8218C171.877 48.9439 171.793 49.0583 171.716 49.165C169.422 52.3227 167.135 55.4804 164.833 58.6228C164.672 58.8363 164.436 58.9889 164.322 59.088L164.329 59.0957Z" fill="white"/>
<path d="M183.799 60.4609C183.799 60.8422 183.533 61.1321 183.189 61.155C182.824 61.1778 182.549 60.9185 182.488 60.4609C182.359 59.4922 182.244 58.5312 182.122 57.5626C181.772 54.7405 181.413 51.9184 181.063 49.0887C181.002 48.6158 181.215 48.2879 181.604 48.2345C181.985 48.1811 182.29 48.4633 182.351 48.9209C182.831 52.7269 183.311 56.5329 183.792 60.3312C183.792 60.377 183.799 60.4228 183.807 60.4533L183.799 60.4609Z" fill="white"/>
<path d="M155.273 35.5886C152.056 35.3827 148.831 35.1768 145.614 34.9708C145.202 34.9479 144.791 34.9403 144.387 34.9022C143.853 34.8488 143.579 34.5895 143.617 34.1928C143.647 33.7962 143.96 33.5674 144.486 33.5979C146.018 33.6895 147.558 33.7886 149.09 33.8878C151.324 34.0327 153.558 34.1776 155.791 34.3225C155.913 34.3301 156.035 34.3301 156.15 34.3759C156.477 34.4979 156.63 34.7496 156.569 35.0929C156.515 35.4208 156.294 35.5963 155.967 35.6115C155.738 35.6191 155.509 35.6115 155.281 35.6115C155.281 35.6115 155.281 35.5963 155.281 35.5886H155.273Z" fill="white"/>
<path d="M166.898 70.4984C166.426 70.4831 166.159 70.0331 166.357 69.5297C166.784 68.4238 167.226 67.3255 167.661 66.2195C168.576 63.9161 169.475 61.6127 170.413 59.3169C170.504 59.0957 170.725 58.8364 170.939 58.7678C171.465 58.6 171.854 59.111 171.648 59.6754C171.305 60.583 170.931 61.483 170.573 62.3907C169.589 64.8771 168.606 67.3636 167.623 69.8577C167.485 70.2009 167.325 70.4984 166.898 70.5136V70.4984Z" fill="white"/>
<path d="M198.116 4.96542C197.994 5.24762 197.941 5.42305 197.857 5.58322C196.34 8.35952 194.815 11.1282 193.29 13.8969C193.031 14.3698 192.65 14.5147 192.292 14.3011C191.949 14.0952 191.895 13.7367 192.162 13.2638C193.694 10.4799 195.227 7.69596 196.751 4.9044C196.927 4.58405 197.171 4.3171 197.544 4.45439C197.773 4.53829 197.941 4.79762 198.124 4.96542H198.116Z" fill="white"/>
<path d="M171.129 18.908C170.992 19.0835 170.885 19.3504 170.702 19.4191C170.496 19.4877 170.214 19.4114 169.993 19.3199C169.864 19.2665 169.795 19.0606 169.711 18.9157C168.255 16.2614 166.799 13.6148 165.335 10.9605C165.267 10.8385 165.198 10.724 165.152 10.5944C165.023 10.2588 165.13 9.9842 165.427 9.80878C165.724 9.63335 166.014 9.68674 166.25 9.95369C166.326 10.0452 166.38 10.1596 166.441 10.2664C167.912 12.9436 169.383 15.6207 170.855 18.3055C170.946 18.4733 171.015 18.664 171.129 18.9157V18.908Z" fill="white"/>
<path d="M186.444 54.0996C186.582 53.9547 186.726 53.6649 186.932 53.6115C187.138 53.5581 187.428 53.703 187.641 53.8251C187.748 53.8861 187.786 54.0844 187.839 54.2217C188.952 57.0361 190.065 59.8429 191.178 62.6574C191.209 62.7413 191.247 62.8252 191.278 62.9091C191.407 63.3209 191.278 63.6641 190.95 63.7938C190.591 63.9387 190.233 63.7938 190.073 63.3667C188.899 60.415 187.733 57.4556 186.566 54.5039C186.528 54.4047 186.505 54.3056 186.444 54.0768V54.0996Z" fill="white"/>
<path d="M200.533 15.4987C200.395 15.7275 200.327 15.9182 200.197 16.0555C198.185 18.214 196.157 20.3649 194.137 22.5157C193.816 22.8513 193.405 22.8895 193.13 22.6225C192.856 22.3556 192.864 21.9818 193.176 21.6462C195.204 19.4801 197.232 17.3063 199.29 15.1631C199.45 14.9953 199.816 14.9343 200.06 14.98C200.235 15.0106 200.365 15.3004 200.533 15.4987Z" fill="white"/>
<path d="M158.886 34.5129C161.127 34.6502 163.193 34.7875 165.259 34.9095C166.052 34.9553 166.837 35.0087 167.63 35.0544C167.958 35.0697 168.232 35.1765 168.347 35.5121C168.499 35.9773 168.164 36.3892 167.63 36.3587C165.701 36.2443 163.773 36.1222 161.844 36.0002C161.051 35.9544 160.266 35.9011 159.473 35.8477C159.29 35.8324 159.107 35.84 158.924 35.8095C158.467 35.7409 158.253 35.4739 158.299 35.0697C158.345 34.7112 158.619 34.5053 158.878 34.5129H158.886Z" fill="white"/>
<path d="M200.525 63.6032C200.372 63.7939 200.258 64.0609 200.075 64.1295C199.869 64.1982 199.587 64.1219 199.366 64.038C199.244 63.9922 199.168 63.8168 199.076 63.6948C197.537 61.582 196.004 59.4617 194.464 57.3489C194.373 57.2269 194.228 57.0896 194.236 56.9676C194.251 56.7159 194.274 56.365 194.434 56.2582C194.617 56.1362 194.952 56.1896 195.211 56.243C195.326 56.2659 195.417 56.4566 195.501 56.5786C197.049 58.7066 198.596 60.8346 200.136 62.9626C200.266 63.1456 200.365 63.3515 200.517 63.6109L200.525 63.6032Z" fill="white"/>
<path d="M187.077 24.773C186.391 24.7654 186.132 24.2238 186.422 23.6899C187.154 22.3399 187.901 20.9899 188.64 19.6475C189.166 18.6865 189.692 17.7255 190.226 16.7644C190.477 16.3068 190.836 16.1695 191.194 16.3602C191.545 16.5509 191.606 16.9322 191.354 17.3975C190.096 19.6933 188.838 21.9891 187.558 24.2772C187.428 24.506 187.184 24.6662 187.07 24.773H187.077Z" fill="white"/>
<path d="M154.914 49.0276C154.746 48.8751 154.464 48.7378 154.419 48.5471C154.365 48.3259 154.502 48.0514 154.609 47.8226C154.655 47.7234 154.838 47.6853 154.96 47.6242C157.216 46.5641 159.473 45.4963 161.737 44.4437C161.89 44.3751 162.08 44.2606 162.202 44.3064C162.438 44.3903 162.728 44.5276 162.812 44.7259C162.888 44.9013 162.751 45.2064 162.629 45.4047C162.56 45.5268 162.355 45.5801 162.202 45.6488C159.984 46.6937 157.773 47.7387 155.555 48.776C155.379 48.8599 155.189 48.9209 154.914 49.0276Z" fill="white"/>
<path d="M175.917 48.7686C175.84 49.0203 175.802 49.1728 175.749 49.3101C174.849 51.583 173.95 53.8635 173.027 56.1288C172.936 56.35 172.715 56.6093 172.501 56.678C171.968 56.8458 171.594 56.3119 171.815 55.717C172.151 54.8322 172.509 53.9627 172.86 53.0856C173.416 51.6898 173.965 50.2864 174.522 48.8906C174.575 48.7533 174.613 48.555 174.727 48.494C174.933 48.372 175.208 48.227 175.406 48.2804C175.619 48.3415 175.772 48.616 175.924 48.7686H175.917Z" fill="white"/>
<path d="M199.656 34.6277C200.121 34.6049 200.441 34.8566 200.448 35.2455C200.456 35.6193 200.174 35.8862 199.686 35.9244C198.123 36.0311 196.561 36.1227 194.998 36.2142C194.22 36.26 193.45 36.3057 192.673 36.3591C192.208 36.3896 191.918 36.1837 191.88 35.8023C191.834 35.3828 192.086 35.093 192.558 35.0625C194.929 34.91 197.292 34.7727 199.663 34.6201L199.656 34.6277Z" fill="white"/>
<path d="M182.923 63.8473C182.915 63.3515 183.128 63.0769 183.487 63.0388C183.853 63.0006 184.135 63.2295 184.188 63.6566C184.432 65.5252 184.668 67.3939 184.912 69.2626C184.958 69.6363 185.019 70.0177 185.049 70.3914C185.08 70.7804 184.889 71.0321 184.501 71.1084C184.173 71.177 183.83 70.9406 183.776 70.5668C183.479 68.3092 183.205 66.0439 182.923 63.8473Z" fill="white"/>
<path d="M188.861 47.7998C189.09 47.9676 189.311 48.0591 189.433 48.2269C190.599 49.8058 191.75 51.3922 192.894 52.9863C193.153 53.3524 193.115 53.7338 192.818 53.955C192.505 54.1838 192.109 54.0999 191.834 53.7261C190.698 52.1702 189.555 50.6066 188.442 49.0278C188.305 48.8295 188.274 48.4863 188.335 48.2422C188.373 48.0744 188.648 47.9676 188.861 47.7998Z" fill="white"/>
<path d="M146.11 24.7885C146.193 24.8114 146.338 24.8419 146.483 24.8876C148.206 25.4444 149.921 26.0012 151.644 26.558C151.713 26.5809 151.789 26.6038 151.858 26.6343C152.224 26.7944 152.368 27.0843 152.239 27.4504C152.109 27.8089 151.812 27.969 151.431 27.847C149.563 27.2444 147.703 26.6419 145.843 26.0317C145.5 25.9173 145.317 25.658 145.385 25.2919C145.454 24.9563 145.683 24.7732 146.11 24.7885Z" fill="white"/>
<path d="M159.054 66.2652C158.825 66.0898 158.558 65.9906 158.505 65.8228C158.429 65.6093 158.444 65.2889 158.558 65.1059C159.008 64.4194 159.511 63.7635 159.992 63.0999C160.525 62.3601 161.067 61.6202 161.608 60.8804C161.92 60.4533 162.286 60.3617 162.614 60.5982C162.942 60.8423 162.965 61.216 162.652 61.6431C161.654 63.0236 160.655 64.4118 159.641 65.7771C159.511 65.9525 159.29 66.0669 159.054 66.25V66.2652Z" fill="white"/>
<path d="M179.469 3.17307C179.469 2.37984 179.469 1.58661 179.469 0.793384C179.469 0.267107 179.721 -0.00747253 180.14 0.000154681C180.537 0.00778189 180.773 0.282361 180.773 0.785757C180.773 2.35696 180.773 3.92054 180.773 5.49174C180.773 6.02565 180.537 6.30786 180.125 6.31548C179.713 6.31548 179.469 6.02565 179.469 5.507C179.469 4.72902 179.469 3.95105 179.469 3.17307Z" fill="white"/>
<path d="M208.148 49.02C208.4 49.1115 208.545 49.1573 208.682 49.2183C210.123 49.8971 211.571 50.5683 213.012 51.2548C213.492 51.4836 213.66 51.8116 213.484 52.1853C213.317 52.5514 212.943 52.6506 212.478 52.437C211.007 51.7506 209.536 51.0565 208.064 50.37C207.698 50.2022 207.493 49.9124 207.645 49.531C207.729 49.3175 207.996 49.1726 208.148 49.02Z" fill="white"/>
<path d="M206.296 9.38164C206.159 9.61046 206.082 9.80114 205.953 9.93843C204.832 11.1435 203.711 12.341 202.583 13.5308C202.255 13.8817 201.867 13.9198 201.585 13.6529C201.31 13.3936 201.325 12.9817 201.646 12.6385C202.766 11.441 203.894 10.2435 205.023 9.04605C205.259 8.79435 205.549 8.68757 205.838 8.84774C206.029 8.94689 206.143 9.19096 206.303 9.38164H206.296Z" fill="white"/>
<path d="M152.902 49.7677C152.826 49.8593 152.704 50.1033 152.513 50.1949C151.011 50.9271 149.494 51.6364 147.977 52.3381C147.596 52.5135 147.238 52.3839 147.093 52.0483C146.94 51.7127 147.062 51.3542 147.436 51.1711C148.945 50.4542 150.455 49.7372 151.979 49.0431C152.444 48.8296 152.925 49.1499 152.909 49.7677H152.902Z" fill="white"/>
<path d="M208.232 27.9993C207.912 27.9993 207.691 27.8467 207.615 27.5111C207.546 27.1755 207.661 26.8933 207.988 26.7637C208.37 26.6111 208.766 26.4967 209.155 26.3747C210.313 26.0009 211.465 25.6196 212.623 25.2611C213.05 25.1238 213.409 25.2916 213.508 25.6501C213.599 25.9857 213.508 26.2984 213.18 26.4128C211.587 26.9543 209.978 27.4654 208.377 27.984C208.331 27.9993 208.286 27.9916 208.232 27.9993Z" fill="white"/>
<path d="M162.622 3.77539C162.713 3.85166 162.965 3.9737 163.071 4.17201C163.704 5.27795 164.314 6.39915 164.924 7.51272C165.13 7.90171 165.031 8.2907 164.711 8.4585C164.383 8.63392 164.009 8.51189 163.796 8.13053C163.178 7.03221 162.576 5.92626 161.974 4.82032C161.692 4.30167 161.943 3.79827 162.622 3.77539Z" fill="white"/>
<path d="M192.223 65.9677C192.307 66.0516 192.551 66.1889 192.642 66.3949C193.092 67.455 193.511 68.5305 193.923 69.6135C194.06 69.9796 193.93 70.2771 193.572 70.4373C193.244 70.5898 192.886 70.4602 192.741 70.1017C192.291 69.0186 191.857 67.9355 191.453 66.8372C191.27 66.3491 191.59 65.9448 192.23 65.9677H192.223Z" fill="white"/>
<path d="M164.84 26.1385C165.099 26.2529 165.275 26.3139 165.427 26.4054C166.304 26.9546 167.18 27.5114 168.049 28.0682C168.484 28.3504 168.598 28.7165 168.37 29.0597C168.149 29.3877 167.798 29.4334 167.371 29.1665C166.456 28.5944 165.534 28.03 164.649 27.4122C164.466 27.2826 164.329 26.9165 164.36 26.6876C164.39 26.4817 164.68 26.3139 164.855 26.1309L164.84 26.1385Z" fill="white"/>
<path d="M164.848 44.36C164.672 44.1845 164.39 44.0244 164.345 43.8261C164.299 43.6125 164.421 43.2235 164.589 43.132C165.557 42.621 166.548 42.171 167.546 41.7286C167.859 41.5913 168.164 41.7286 168.316 42.0337C168.461 42.3388 168.431 42.682 168.118 42.8345C167.127 43.3303 166.121 43.7879 165.115 44.2532C165.061 44.2761 164.993 44.2684 164.932 44.2761C164.901 44.2989 164.878 44.3295 164.848 44.3523V44.36Z" fill="white"/>
<path d="M174.026 24.2164C173.858 24.3842 173.714 24.6587 173.515 24.6969C173.294 24.7426 172.913 24.6511 172.814 24.491C172.296 23.652 171.838 22.7748 171.381 21.8977C171.228 21.6002 171.373 21.3257 171.64 21.1579C171.914 20.9824 172.258 20.9824 172.418 21.257C172.951 22.1418 173.424 23.057 173.919 23.9647C173.95 24.0104 173.935 24.0867 173.942 24.1477C173.965 24.1706 173.996 24.2011 174.019 24.224L174.026 24.2164Z" fill="white"/>
<path d="M185.194 48.2346C185.286 48.3261 185.53 48.4634 185.629 48.6693C185.941 49.3786 186.216 50.1032 186.49 50.8278C186.635 51.2015 186.505 51.5066 186.147 51.6515C185.796 51.7965 185.469 51.6897 185.309 51.3159C185.004 50.5914 184.699 49.8515 184.432 49.1117C184.264 48.6464 184.592 48.204 185.194 48.2269V48.2346Z" fill="white"/>
<path d="M192.147 24.2087C192.154 24.7426 190.973 26.0697 190.576 26.0468C190.371 26.0316 190.089 25.8943 189.989 25.7265C189.89 25.5587 189.898 25.2154 190.012 25.0629C190.34 24.6282 190.721 24.2239 191.141 23.8731C191.285 23.751 191.613 23.751 191.804 23.8197C191.979 23.8883 192.078 24.1324 192.147 24.2087Z" fill="white"/>
</g>
<defs>
<clipPath id="clip0_423_825">
<rect width="216" height="73" fill="white" transform="translate(0.640625)"/>
</clipPath>
</defs>
</svg>
