<svg width="109" height="67" viewBox="0 0 109 67" fill="none" xmlns="http://www.w3.org/2000/svg">
<g opacity="0.7" clip-path="url(#clip0_423_882)">
<path d="M15.53 0.829216C23.7 0.79725 30.4252 7.47807 30.4533 15.6493C30.4813 23.8325 23.8683 30.4654 15.6161 30.5333C7.42605 30.6012 0.700849 23.9763 0.640731 15.7851C0.584621 7.58396 7.27576 0.863179 15.53 0.829216Z" fill="white"/>
<path d="M57.0132 0.945034C60.7505 0.945034 64.3857 0.785206 68.0008 0.996978C70.8203 1.1628 73.2651 3.71606 73.8502 6.53503C74.4795 9.56177 73.1408 12.6305 70.4836 14.2447C70.2311 14.3986 69.9666 14.5324 69.6981 14.6823C70.66 15.2057 71.6539 15.6233 72.5096 16.2346C75.261 18.2025 76.3932 21.7007 75.4073 24.9113C74.4294 28.0939 71.5898 30.3974 68.2512 30.4933C64.6542 30.5952 61.0531 30.5312 57.4541 30.5352C57.3278 30.5352 57.1995 30.4833 57.0172 30.4453V0.945034H57.0132Z" fill="white"/>
<path d="M31.2246 1.29262C32.954 0.843106 34.5952 0.179819 36.2825 0.0279822C39.6131 -0.271696 42.5448 1.86001 43.8534 5.25437C46.208 11.3558 48.5406 17.4652 50.8852 23.5707C51.6808 25.6425 52.4783 27.7142 53.2739 29.778C49.4103 31.8818 45.9876 32.1175 42.9576 29.4564C42.0459 28.6552 41.2743 27.5244 40.8295 26.3917C37.6192 18.2364 34.5071 10.0432 31.3669 1.86201C31.3328 1.77211 31.3208 1.67621 31.2266 1.29462L31.2246 1.29262Z" fill="white"/>
<path d="M23.5977 66.7463V56.0678C25.7038 56.0678 27.7879 55.846 29.8039 56.1237C32.405 56.4813 32.9861 59.4042 31.3469 60.9805C31.7297 61.8056 32.2888 62.5588 32.417 63.3799C32.6855 65.106 31.5072 66.5585 29.6215 66.7103C27.6436 66.8701 25.6417 66.7463 23.5957 66.7463H23.5977ZM25.9102 64.6146C26.9783 64.6146 27.9362 64.6505 28.8901 64.6026C29.5815 64.5666 30.0985 64.231 30.1185 63.4478C30.1406 62.6327 29.5714 62.333 28.9041 62.2911C27.9262 62.2291 26.9423 62.2751 25.9102 62.2751V64.6146ZM25.9163 60.2093C26.9242 60.2093 27.8901 60.3052 28.822 60.1634C29.2107 60.1034 29.7117 59.592 29.8219 59.1904C30.0103 58.5071 29.4392 58.1695 28.82 58.1355C27.8721 58.0856 26.9202 58.1215 25.9183 58.1215V60.2073L25.9163 60.2093Z" fill="white"/>
<path d="M50.27 39.8071C51.0776 39.8071 51.8151 39.7392 52.5285 39.8371C52.8411 39.881 53.2018 40.2027 53.3821 40.4944C54.6687 42.5821 55.9131 44.6939 57.372 46.7696V39.8611H59.6244V50.6495C58.8108 50.6495 57.9872 50.6994 57.1776 50.6195C56.9351 50.5955 56.6726 50.2399 56.5123 49.9782C55.2338 47.8825 53.9773 45.7747 52.5184 43.7009V50.6075H50.27V39.8051V39.8071Z" fill="white"/>
<path d="M6.31974 50.8353C3.10543 50.8274 0.710732 48.406 0.736783 45.1914C0.762834 41.9689 3.15954 39.6174 6.40391 39.6334C9.6082 39.6494 12.041 42.0987 12.0109 45.2733C11.9788 48.4619 9.54407 50.8413 6.31974 50.8333V50.8353ZM6.43797 48.6497C8.32568 48.6377 9.64827 47.2212 9.64026 45.2194C9.63224 43.2575 8.25554 41.819 6.38587 41.821C4.49215 41.821 3.1375 43.2315 3.12748 45.2134C3.11545 47.2392 4.48815 48.6637 6.43797 48.6517V48.6497Z" fill="white"/>
<path d="M6.44408 55.9858H8.56625V66.9341C7.80275 66.7702 7.09336 66.6044 6.37795 66.4766C6.23968 66.4526 6.07135 66.5725 5.92106 66.6324C4.16762 67.3296 2.44624 66.8801 1.39016 65.4477C0.350123 64.0392 0.398217 61.7976 1.49838 60.4271C2.59854 59.0525 4.25579 58.669 5.98118 59.3862C6.0974 59.4341 6.21964 59.4681 6.44609 59.544V55.9858H6.44408ZM6.44008 63.0123C6.44208 61.8655 5.67257 61.0064 4.65457 61.0164C3.64459 61.0264 2.86506 61.9215 2.8871 63.0443C2.90915 64.1331 3.65862 64.9662 4.63654 64.9842C5.66055 65.0021 6.43807 64.1551 6.44008 63.0123Z" fill="white"/>
<path d="M56.6464 66.91C55.8569 66.7781 55.1695 66.6582 54.4822 66.5563C54.3439 66.5364 54.1876 66.5663 54.0534 66.6123C52.1216 67.2856 50.4663 66.856 49.4383 65.4036C48.4504 64.0091 48.5065 61.8015 49.5625 60.4469C50.6607 59.0404 52.2679 58.7008 54.2297 59.456C54.2858 59.478 54.358 59.458 54.4982 59.458V56.0137H56.6464V66.91ZM54.5062 63.0301C54.5163 61.8714 53.7728 61.0163 52.7568 61.0143C51.7408 61.0143 50.9934 61.8714 51.0034 63.0281C51.0134 64.1449 51.7188 64.9561 52.7047 64.984C53.7347 65.012 54.4962 64.1869 54.5062 63.0301Z" fill="white"/>
<path d="M15.8105 50.3598V53.6063H13.7043V42.9338C14.4658 43.0816 15.1672 43.2274 15.8726 43.3433C16.0109 43.3653 16.1712 43.2894 16.3135 43.2354C18.127 42.5582 19.8324 42.9997 20.8524 44.4162C21.8604 45.8167 21.8363 48.0263 20.7943 49.3728C19.6981 50.7913 18.0108 51.1949 16.2273 50.4717C16.1391 50.4357 16.0409 50.4197 15.8085 50.3578L15.8105 50.3598ZM15.8165 46.8675C15.8165 48.0383 16.5519 48.8514 17.594 48.8354C18.5939 48.8194 19.3033 48.0283 19.3214 46.9115C19.3394 45.7587 18.598 44.8877 17.588 44.8737C16.574 44.8597 15.8165 45.7128 15.8165 46.8675Z" fill="white"/>
<path d="M30.2168 47.4113H25.1729C25.4093 49.0415 26.9163 49.3032 28.7118 48.0106C29.1467 48.4182 29.5996 48.8417 30.0444 49.2593C28.9863 50.8556 26.7279 51.357 24.8743 50.442C23.0908 49.561 22.3193 47.4672 23.0186 45.4034C23.6358 43.5834 25.3632 42.5585 27.2529 42.8921C29.2168 43.2378 30.357 44.9259 30.2148 47.4133L30.2168 47.4113ZM25.221 45.8729H27.804C27.8541 45.767 27.9042 45.6612 27.9543 45.5553C27.5275 45.3115 27.1267 44.9459 26.6698 44.854C26.0045 44.7222 25.4594 45.0258 25.221 45.8729Z" fill="white"/>
<path d="M17.4917 63.5697H12.54C12.8125 65.178 14.3014 65.4258 16.0228 64.1351C16.4657 64.5427 16.9246 64.9622 17.3755 65.3778C16.2773 66.9721 14.0069 67.4596 12.2033 66.5266C10.4158 65.6016 9.67035 63.372 10.4759 61.3481C11.1773 59.58 13.0089 58.661 14.8726 59.1385C16.7162 59.612 17.8063 61.3901 17.4937 63.5697H17.4917ZM12.5981 62.0054H15.1531C15.2012 61.8975 15.2493 61.7897 15.2974 61.6818C14.8565 61.448 14.4357 61.0984 13.9668 61.0125C13.3315 60.8946 12.8366 61.2223 12.5981 62.0074V62.0054Z" fill="white"/>
<path d="M65.5159 65.4496C63.9188 67.1298 61.6644 67.4474 59.961 66.3406C58.3479 65.2917 57.7788 63.1001 58.6284 61.2021C59.3779 59.5279 61.1193 58.6828 62.9128 59.1244C64.7645 59.5799 65.7785 61.1842 65.6181 63.5456H60.5903C61.0011 65.1998 62.2696 65.3916 64.1593 64.1649C64.5961 64.5785 65.047 65.006 65.5159 65.4496ZM63.3196 62.0033C63.0711 61.2581 62.6223 60.8785 61.979 61.0103C61.4941 61.1102 61.0592 61.4638 60.6023 61.7056L60.7526 62.0033H63.3196Z" fill="white"/>
<path d="M37.8155 66.9802C35.489 66.9942 33.7375 65.2741 33.7515 62.9865C33.7656 60.7429 35.487 59.0308 37.7494 59.0148C40.0439 58.9968 41.8354 60.7569 41.8254 63.0205C41.8174 65.2561 40.084 66.9662 37.8155 66.9802ZM39.5369 62.9785C39.5249 61.8757 38.7854 61.0846 37.7734 61.0886C36.7234 61.0925 36 61.9257 36.032 63.0904C36.0621 64.1792 36.8376 64.9724 37.8376 64.9384C38.8335 64.9025 39.5489 64.0773 39.5369 62.9785Z" fill="white"/>
<path d="M79.6538 46.8854C79.6498 44.5799 81.3912 42.8518 83.6998 42.8737C85.9702 42.8957 87.6816 44.5999 87.6916 46.8515C87.7016 49.157 85.9822 50.8452 83.6356 50.8332C81.3331 50.8232 79.6578 49.161 79.6538 46.8854ZM81.8922 46.8734C81.8922 47.9882 82.6858 48.8313 83.7118 48.8034C84.6977 48.7774 85.4472 47.9483 85.4512 46.8834C85.4552 45.8106 84.7198 44.9995 83.7218 44.9755C82.6557 44.9495 81.8962 45.7407 81.8942 46.8734H81.8922Z" fill="white"/>
<path d="M97.9117 44.3863C99.096 43.0917 100.473 42.6422 102.104 43.0218C103.429 43.3294 104.304 44.2045 104.386 45.569C104.485 47.2132 104.41 48.8695 104.41 50.7514C103.637 50.6376 102.932 50.5037 102.22 50.4478C101.952 50.4258 101.663 50.5736 101.393 50.6675C99.4106 51.3568 97.583 50.1821 97.6852 48.2781C97.7514 47.0654 98.6792 46.1644 100.066 46.0445C100.719 45.9886 101.383 46.0345 102.312 46.0345C101.986 45.613 101.803 45.1635 101.477 45.0016C100.641 44.5841 99.9457 45.0016 99.2824 45.6849C98.8215 45.2474 98.3766 44.8278 97.9117 44.3883V44.3863ZM102.342 47.9045C102.266 47.8126 102.188 47.7187 102.112 47.6268C101.561 47.6268 100.99 47.5369 100.461 47.6508C99.8535 47.7806 99.6711 48.5458 100.166 48.7476C100.607 48.9274 101.204 48.9074 101.671 48.7676C101.956 48.6817 102.124 48.2062 102.342 47.9045Z" fill="white"/>
<path d="M41.8496 46.0346C41.4508 45.5951 41.1682 45.0057 40.8456 44.9858C40.1522 44.9398 39.4388 45.1856 38.7334 45.3114C38.7254 45.4353 38.7174 45.5591 38.7074 45.683C38.2846 45.2814 37.8617 44.8819 37.4449 44.4863C38.3807 43.1098 40.1342 42.5524 41.7894 43.0678C43.1581 43.4934 43.8655 44.5482 43.8755 46.2124C43.8856 47.6669 43.8755 49.1193 43.8755 50.7536C43.0539 50.6497 42.3606 50.5318 41.6612 50.4879C41.3706 50.4699 41.07 50.6097 40.7774 50.6896C39.6853 50.9813 38.6453 50.9374 37.7936 50.1043C37.1163 49.443 36.9499 48.6159 37.2365 47.7148C37.5852 46.616 38.4529 46.1665 39.505 46.0506C40.1883 45.9747 40.8857 46.0366 41.8476 46.0366L41.8496 46.0346ZM41.9197 47.6189C41.0259 47.6189 40.4708 47.563 39.9398 47.6469C39.7274 47.6809 39.4929 48.0005 39.4028 48.2383C39.3486 48.3821 39.541 48.7837 39.6432 48.7917C40.1763 48.8276 40.7434 48.8676 41.2404 48.7158C41.4848 48.6418 41.6031 48.1564 41.9197 47.6189Z" fill="white"/>
<path d="M62.7907 45.6388C62.398 45.2453 62.0052 44.8517 61.6204 44.4661C62.6445 43.0836 64.3779 42.5542 66.0051 43.0756C67.4098 43.5251 68.0731 44.594 68.0771 46.428C68.0811 47.8125 68.0771 49.197 68.0771 50.7913C67.2355 50.6435 66.5341 50.4816 65.8247 50.4137C65.5622 50.3877 65.2816 50.5895 65.0051 50.6714C63.921 50.9871 62.8789 50.9491 62.0192 50.136C61.3058 49.4627 61.1175 48.6097 61.4381 47.6727C61.8088 46.5898 62.6765 46.1523 63.7286 46.0444C64.3819 45.9785 65.0472 46.0324 65.965 46.0324C65.6363 45.6289 65.3798 45.0275 65.0913 45.0115C64.3698 44.9716 63.6324 45.1973 62.901 45.3172C62.8649 45.4251 62.8268 45.531 62.7907 45.6388ZM66.0612 47.6387C65.1975 47.6387 64.6003 47.5428 64.0512 47.6647C63.4721 47.7925 63.3258 48.6017 63.8168 48.7655C64.2957 48.9253 64.9109 48.8794 65.4019 48.7235C65.6584 48.6436 65.7766 48.1322 66.0612 47.6387Z" fill="white"/>
<path d="M67.045 60.579C68.2153 59.1765 69.9948 58.6611 71.5739 59.2605C72.648 59.668 73.4115 60.4272 73.4636 61.6039C73.5397 63.2881 73.4836 64.9803 73.4836 66.8883C72.7061 66.7804 71.9927 66.6525 71.2733 66.5986C71.0128 66.5786 70.7342 66.7264 70.4677 66.8103C69.4177 67.138 68.4157 67.0761 67.55 66.3508C66.8186 65.7375 66.6362 64.9144 66.8426 64.0034C67.065 63.0124 67.9087 62.3072 69.091 62.2013C69.7784 62.1394 70.4777 62.1893 71.4376 62.1893C71.111 61.7678 70.8705 61.1804 70.61 61.1704C69.8525 61.1424 69.087 61.3482 68.3235 61.4621L68.3275 61.7917C67.8987 61.3862 67.4698 60.9806 67.045 60.581V60.579ZM71.4296 64.0014C71.3394 63.8655 71.2492 63.7277 71.1591 63.5918C70.4938 63.7316 69.8184 63.8455 69.1712 64.0453C69.093 64.0693 69.1191 64.8005 69.1692 64.8085C69.6922 64.9024 70.2573 65.0342 70.7483 64.9104C71.0348 64.8385 71.2052 64.319 71.4276 64.0014H71.4296Z" fill="white"/>
<path d="M89.3127 42.9158C90.1344 43.0736 90.8157 43.2294 91.503 43.3214C91.6954 43.3473 91.9139 43.1995 92.1163 43.1196C93.9999 42.3644 96.0399 43.4212 96.2323 45.4211C96.3966 47.1193 96.2664 48.8474 96.2664 50.6135H94.0921C94.0921 49.201 94.1202 47.7866 94.0841 46.3741C94.0541 45.2273 93.2064 44.572 92.3267 45.0895C91.9058 45.3372 91.5572 46.0145 91.5131 46.5239C91.4008 47.8365 91.475 49.1671 91.475 50.5756H89.3127V42.9158Z" fill="white"/>
<path d="M80.0925 59.2505H82.2568V66.8843C81.4953 66.7824 80.8059 66.6765 80.1106 66.6046C79.9202 66.5846 79.7058 66.6445 79.5214 66.7165C77.4253 67.5396 75.6137 66.4747 75.4614 64.2411C75.3612 62.7547 75.4113 61.2563 75.4013 59.7639C75.4013 59.6061 75.4394 59.4483 75.4635 59.2505H77.6337C77.6337 60.3633 77.6317 61.4761 77.6337 62.5909C77.6337 62.9885 77.6457 63.386 77.6598 63.7836C77.6838 64.4389 78.0125 64.8585 78.6737 64.9284C79.3811 65.0043 79.8661 64.6227 79.9703 63.9634C80.0905 63.2182 80.0685 62.447 80.0845 61.6879C80.1006 60.8987 80.0885 60.1076 80.0885 59.2505H80.0925Z" fill="white"/>
<path d="M87.463 64.7966C86.9339 65.5058 86.5692 66.3629 85.922 66.7465C85.3889 67.0602 84.5212 66.8104 83.6174 66.8104C84.3549 65.6856 84.9621 64.6647 85.6675 63.7177C86.1243 63.1064 86.0883 62.6509 85.6494 62.0555C85.0082 61.1845 84.4611 60.2455 83.8559 59.3085C85.5853 58.861 86.8257 59.2146 87.4209 61.1565C88.0121 59.2466 89.2585 58.845 91.02 59.3125C90.3947 60.2794 89.8196 61.2384 89.1703 62.1454C88.7936 62.6729 88.7375 63.0724 89.1483 63.6279C89.8557 64.5828 90.4689 65.6077 91.2264 66.7645C90.3106 66.7645 89.4048 67.0182 88.8257 66.6945C88.2124 66.3509 87.9079 65.4579 87.463 64.7966Z" fill="white"/>
<path d="M73.9605 48.7119V50.486C71.666 51.2152 70.2012 50.2103 70.125 47.8468C70.0969 46.9857 70.121 46.1227 70.121 45.2137C69.8004 45.1337 69.5218 45.0638 69.1812 44.9799V43.1619C69.4316 43.1079 69.7102 43.048 70.0729 42.9681C70.101 42.3527 70.131 41.7054 70.1651 40.9922H72.2913V42.998C72.8984 43.03 73.3874 43.058 73.9625 43.0879V45.0119C73.4716 45.0518 72.9586 45.0918 72.3333 45.1437C72.3333 46.0328 72.2993 46.8859 72.3414 47.7369C72.3915 48.7538 73.2592 48.588 73.9605 48.7099V48.7119Z" fill="white"/>
<path d="M108.641 50.6218H106.554V39.8833H108.641V50.6218Z" fill="white"/>
<path d="M43.3303 59.1844C44.198 59.3302 44.9996 58.9047 45.6729 59.534C46.3342 59.3722 47.0837 59.1884 47.9534 58.9746V61.0883C45.8312 61.6817 45.5567 62.0533 45.5507 64.3528C45.5487 65.112 45.5507 65.8732 45.5507 66.7163H43.3303C43.3303 65.4856 43.3303 64.239 43.3303 62.9903C43.3303 61.7416 43.3303 60.5509 43.3303 59.1844Z" fill="white"/>
<path d="M33.97 43.3873C34.7816 43.2155 35.5291 43.0577 36.3707 42.8799V44.9477C34.2045 45.559 33.9399 45.9186 33.9359 48.2421C33.9359 49.0013 33.9359 49.7585 33.9359 50.5876H31.7737V43.1116C32.5372 43.1656 33.3368 42.6981 33.972 43.3873H33.97Z" fill="white"/>
<path d="M75.8743 43.0815H77.9523V50.5755H75.8743V43.0815Z" fill="white"/>
<path d="M28.6475 39.7494C28.4391 41.5135 27.3991 42.2966 25.6597 41.991C25.7619 40.2368 26.9502 39.3458 28.6475 39.7494Z" fill="white"/>
<path d="M76.8964 42.1627C76.169 42.0668 75.664 41.7032 75.668 40.9021C75.672 40.1209 76.1129 39.6614 76.8984 39.6534C77.692 39.6454 78.1308 40.1209 78.1489 40.8881C78.1689 41.6812 77.6679 42.0648 76.8944 42.1627H76.8964Z" fill="white"/>
</g>
<defs>
<clipPath id="clip0_423_882">
<rect width="108" height="67" fill="white" transform="translate(0.640625)"/>
</clipPath>
</defs>
</svg>
