<svg width="89" height="89" viewBox="0 0 89 89" fill="none" xmlns="http://www.w3.org/2000/svg">
<g opacity="0.6" clip-path="url(#clip0_549_664)">
<path d="M3.28058 0.63583C4.78753 0.643355 6.29826 0.729892 7.80143 0.63583C8.97603 0.564344 9.58787 0.974451 10.0751 2.05427C12.4432 7.29537 14.8981 12.4988 17.3228 17.7136C17.5079 18.1087 17.7005 18.5037 17.9007 18.895C18.1273 19.3427 18.3237 19.1998 18.4898 18.8461C18.7316 18.3382 18.9771 17.834 19.2112 17.3223C21.5642 12.2091 23.936 7.10725 26.2437 1.97526C26.6818 0.997026 27.1765 0.477807 28.3322 0.598206C30.3793 0.812666 32.4641 0.293447 34.496 0.887915H34.5225C34.0957 0.948114 33.752 1.21149 33.2912 1.2604C31.0553 1.48991 30.7305 1.74952 30.6512 4.04085C30.451 9.91028 30.4548 15.7872 30.6512 21.6567C30.7268 23.9066 30.9798 24.0571 33.3063 24.4559C33.6462 24.5124 34.1523 24.407 34.0579 24.9827C33.9937 25.389 33.5707 25.2949 33.2799 25.2987C30.266 25.3062 27.2559 25.31 24.242 25.2987C23.9511 25.2987 23.5244 25.3815 23.4715 24.9714C23.3959 24.3957 23.902 24.5124 24.242 24.4559C26.4438 24.0797 26.8857 23.7824 26.9008 21.8335C26.9462 16.5284 27.0821 11.2196 26.8253 5.91455C26.9575 5.80168 27.033 5.62484 26.8971 5.52326C26.712 5.38405 26.678 5.59474 26.6289 5.72267C24.9256 8.71005 23.6868 11.9194 22.2062 15.0159C20.7484 18.0673 19.385 21.1638 17.9649 24.2302C17.7874 24.6102 17.7118 25.1708 17.202 25.2159C16.5297 25.2761 16.4957 24.5989 16.3031 24.185C13.6291 18.451 10.9777 12.7095 8.32264 6.9718C8.16401 6.62942 8.02049 6.28327 7.85053 5.94841C7.80143 5.85059 7.70324 5.72643 7.61259 5.71138C7.31045 5.6587 7.40109 5.93336 7.38221 6.07257C7.34822 6.3209 7.36332 6.57298 7.36332 6.8213C7.36332 11.7087 7.34822 16.5924 7.3671 21.4798C7.37465 23.8389 7.59371 24.0533 9.99577 24.4634C10.3281 24.5199 10.8456 24.392 10.7511 24.9827C10.6869 25.3965 10.2639 25.2987 9.97689 25.3025C7.58616 25.3138 5.19543 25.31 2.80847 25.31C2.50255 25.31 2.0871 25.3551 2.06822 24.9413C2.038 24.3844 2.53276 24.5124 2.88023 24.4559C5.08212 24.1173 5.51646 23.7185 5.53156 21.6153C5.56933 15.8512 5.54667 10.0909 5.54667 4.3268C5.54667 2.75409 5.0368 1.42218 3.19371 1.28673C3.22392 1.07227 3.25414 0.854053 3.28435 0.639593L3.28058 0.63583Z" fill="#24252D" fill-opacity="0.7"/>
<path d="M53.8333 73.9022C56.9115 73.8796 59.9933 73.8872 63.0715 73.8157C63.8835 73.7969 64.3291 74.1769 64.7861 74.7375C67.0824 77.5593 69.3976 80.3699 71.7128 83.1767C71.9394 83.4513 72.1358 83.9743 72.4984 83.8765C73.0649 83.7184 72.7477 83.1353 72.7552 82.7515C72.7854 80.6859 72.7552 78.6166 72.7741 76.5472C72.7817 75.4975 72.8043 74.4741 71.3616 74.365C71.2143 74.3537 70.965 74.3462 71.0028 74.0565C71.0406 73.7818 71.2709 73.8495 71.422 73.8495C72.3662 73.8345 73.3104 73.827 74.2546 73.842C74.7532 73.8495 75.2479 73.906 75.7465 73.9398C75.6558 74.681 74.9609 74.3386 74.5832 74.5682C73.8467 75.0197 73.9223 75.7157 73.9185 76.3967C73.9109 79.7792 73.9185 83.1654 73.9185 86.5478C73.9185 86.9241 73.9336 87.3003 73.9109 87.6765C73.8921 87.9587 74.0242 88.3387 73.5937 88.4403C73.3104 88.508 73.1442 88.2861 72.9856 88.0979C72.6646 87.7142 72.3398 87.3304 72.0225 86.9429C69.6318 84.0345 67.2486 81.1224 64.8503 78.2177C64.6728 77.9995 64.5104 77.6007 64.1441 77.7926C64.0157 77.8603 64.0081 78.2328 64.0081 78.4698C64.0006 81.0396 64.0043 83.6093 64.0081 86.1753C64.0081 87.0821 64.2347 87.7969 65.3451 87.827C65.5642 87.8346 65.8965 87.827 65.8323 88.207C65.7719 88.5645 65.4433 88.4554 65.2318 88.4591C64.0383 88.478 62.8411 88.4704 61.6476 88.4667C61.4097 88.4667 61.1113 88.5306 61.0131 88.2371C60.8847 87.8534 61.2321 87.827 61.4512 87.8233C62.7957 87.8007 62.9091 86.8827 62.9091 85.8743C62.9091 82.8681 62.9355 79.8582 62.8977 76.852C62.8751 74.9181 60.303 73.5937 58.5808 74.5569C57.9765 74.8955 57.8972 75.4486 57.8934 75.9979C57.8708 79.4443 57.8783 82.8907 57.8859 86.3371C57.8859 87.3304 58.4109 87.8233 59.4042 87.8496C59.5817 87.8534 59.7554 87.9437 59.7403 88.1882C59.7252 88.4667 59.4948 88.4177 59.3324 88.4516C59.2115 88.4779 59.0831 88.4667 58.9547 88.4667C55.3516 88.4667 51.7485 88.4667 48.1417 88.4554C47.8546 88.4554 47.4354 88.6059 47.3334 88.2221C47.2126 87.7593 47.6922 87.8421 47.9491 87.7443C48.6666 87.4734 48.644 86.9391 48.4438 86.3559C48.2814 85.8819 48.0246 85.4341 47.9075 84.9525C47.6318 83.8501 46.9671 83.4513 45.8529 83.5943C45.2335 83.6733 44.5952 83.6093 43.9683 83.6093C41.7739 83.6093 40.8751 84.407 40.554 86.5553C40.4483 87.2589 40.6938 87.6314 41.3698 87.7668C41.6078 87.8158 41.9401 87.8383 41.925 88.1318C41.8986 88.5983 41.4756 88.4516 41.1999 88.4554C40.131 88.4704 39.0622 88.4629 37.9896 88.4554C37.8083 88.4554 37.5968 88.4478 37.5552 88.207C37.5175 88.0001 37.6081 87.8534 37.8196 87.7932C39.1075 87.4282 39.3908 86.2543 39.8402 85.246C41.3623 81.8109 42.8428 78.357 44.3535 74.9143C44.565 74.4327 44.5952 73.6464 45.2524 73.6689C45.7736 73.6877 45.8038 74.4214 45.9927 74.8654C47.5298 78.4999 49.0368 82.1457 50.5966 85.7727C51.4502 87.7556 52.5303 88.2371 54.3697 87.8383C55.3214 87.6314 55.6424 87.0821 55.65 86.2694C55.6802 82.823 55.6613 79.3766 55.6764 75.9339C55.684 74.6585 54.7285 74.4703 53.8107 74.2183C53.8485 74.1204 53.8598 74.0151 53.8484 73.9097L53.8333 73.9022ZM44.633 82.6273C44.886 82.6273 45.1353 82.6311 45.3884 82.6273C46.8575 82.5897 46.8727 82.5822 46.3024 81.16C45.8605 80.0538 45.3619 78.974 44.92 77.8678C44.7085 77.3411 44.5084 77.2884 44.2704 77.8264C43.8852 78.6843 43.5377 79.5572 43.1412 80.4075C41.9892 82.8982 42.2121 82.6198 44.6368 82.6236L44.633 82.6273Z" fill="#24252D" fill-opacity="0.7"/>
<path d="M36.1239 0.628187C38.6431 0.628187 41.1622 0.628187 43.6813 0.63195C43.7078 0.846409 43.7342 1.06087 43.7644 1.27533C42.3443 1.47098 41.8722 2.53199 41.876 3.70211C41.8987 8.89053 41.453 14.0902 42.1782 19.2599C42.5672 22.0365 44.1686 23.5528 46.9823 24.0306C52.013 24.881 55.6916 21.9651 55.8087 16.9046C55.9031 12.7132 55.8578 8.51805 55.8427 4.32292C55.8352 1.89237 55.5934 1.65157 53.1083 1.2377C52.8817 1.20008 52.5531 1.2678 52.5267 0.951758C52.4964 0.598088 52.8364 0.620662 53.0668 0.620662C55.5821 0.609375 58.0937 0.613137 60.6091 0.609375C60.8092 0.609375 60.9981 0.658287 61.0396 0.861459C61.1114 1.24899 60.7866 1.19256 60.56 1.2377C58.0748 1.74564 57.6934 2.17079 57.6707 4.70669C57.6367 8.58577 57.6405 12.4686 57.6367 16.3477C57.6367 17.356 57.5121 18.3456 57.3195 19.3313C56.7038 22.4692 54.7739 24.4558 51.76 25.3287C49.2446 26.0586 46.6499 25.9946 44.1157 25.3776C40.8487 24.5837 38.7299 22.0591 38.39 18.7256C37.9519 14.4176 38.2163 10.0945 38.1445 5.77898C38.1332 5.03026 38.1181 4.27777 38.0765 3.52904C38.0048 2.25733 37.4685 1.37315 36.071 1.24899L36.1277 0.624425L36.1239 0.628187Z" fill="#24252D" fill-opacity="0.7"/>
<path d="M78.5224 50.4734C76.0675 50.4734 73.6163 50.4771 71.1614 50.4696C70.8139 50.4696 70.289 50.59 70.2625 50.0783C70.2436 49.7058 70.7157 49.7999 71.0065 49.7397C72.9894 49.3333 73.2764 49.0436 73.2877 46.9856C73.318 42.0981 73.318 37.2107 73.2877 32.3233C73.2726 29.9755 73.1669 29.9003 70.8555 29.4262C70.6138 29.3773 70.3003 29.3848 70.2776 29.0876C70.2398 28.606 70.6666 28.6888 70.9386 28.6888C75.9731 28.6775 81.0038 28.6812 86.0383 28.6888C86.4764 28.6888 86.9938 28.6399 87.0354 29.2607C87.1185 30.5098 87.1638 31.7627 87.2053 33.0118C87.2129 33.2677 87.1071 33.531 86.7937 33.4972C86.6464 33.4821 86.4198 33.3015 86.4009 33.1736C85.9552 29.9116 83.5267 30.0432 81.136 30.0846C80.0671 30.1034 78.9908 30.1674 77.9295 30.0658C76.702 29.9492 76.4452 30.4684 76.4943 31.5746C76.5774 33.3881 76.566 35.2091 76.4943 37.0226C76.4565 38.0497 76.7247 38.5238 77.8464 38.4448C79.0361 38.3583 80.2371 38.4561 81.4306 38.3959C83.3945 38.2981 83.7231 38.0196 84.3463 36.1083C84.4407 35.8224 84.3878 35.3935 84.7655 35.3784C85.1772 35.3596 85.1696 35.7622 85.1696 36.0745C85.1696 38.1438 85.1696 40.2094 85.1621 42.2787C85.1621 42.5195 85.1545 42.813 84.8297 42.8506C84.5125 42.8845 84.4671 42.6136 84.3727 42.3803C83.2963 39.7203 83.2548 39.6676 80.4637 39.7015C79.2211 39.7165 77.6575 39.1634 76.8191 39.9423C75.958 40.7361 76.5962 42.3126 76.5358 43.5429C76.4754 44.7921 76.5547 46.0487 76.5132 47.3016C76.4792 48.4529 76.9022 49.0775 78.1447 49.0512C79.8443 49.0135 81.5401 49.0399 83.2397 49.0248C84.9959 49.0098 86.1516 47.9977 87.092 46.6695C87.4168 46.2105 87.6737 45.7026 87.9909 45.236C88.1269 45.0404 88.3157 44.8146 88.6103 44.9538C88.9087 45.0931 88.818 45.3414 88.7387 45.5822C88.278 46.9479 87.7983 48.3062 87.3677 49.6795C87.1223 50.4621 86.552 50.4884 85.8872 50.4847C83.4323 50.4658 80.9811 50.4771 78.5262 50.4771L78.5224 50.4734Z" fill="#24252D" fill-opacity="0.7"/>
<path d="M58.8527 50.4732C56.462 50.4732 54.0713 50.477 51.6843 50.4657C51.3331 50.4657 50.7968 50.6275 50.7137 50.176C50.6041 49.5928 51.1895 49.8035 51.4992 49.7358C53.3423 49.3369 53.6143 49.1037 53.6294 47.2525C53.6671 42.1807 53.6709 37.1052 53.6332 32.0334C53.618 29.9189 53.4745 29.8286 51.3331 29.4223C51.0385 29.3658 50.6155 29.4147 50.691 28.967C50.759 28.572 51.1782 28.6811 51.4615 28.6811C54.3545 28.6735 57.2476 28.6811 60.1406 28.6811C62.0895 28.6811 64.0421 28.7526 65.9871 28.6547C67.1806 28.5945 67.5885 29.0423 67.4865 30.1522C67.4639 30.4005 67.5545 30.6639 67.5017 30.9009C67.3204 31.7625 68.1135 33.0643 67.1466 33.3879C66.5499 33.5873 66.6254 32.056 66.176 31.4013C65.685 30.6827 65.0618 30.2011 64.1743 30.1823C62.0366 30.1371 59.8989 30.1259 57.7612 30.0807C57.1343 30.0694 56.8548 30.314 56.8586 30.9536C56.8737 33.1471 56.8812 35.3368 56.8548 37.5304C56.8435 38.328 57.2853 38.4409 57.935 38.4258C59.1926 38.3995 60.4503 38.4446 61.708 38.3957C63.7701 38.3129 64.0647 38.0646 64.7521 36.0254C64.8428 35.7545 64.7597 35.3406 65.2242 35.382C65.5641 35.4121 65.5377 35.7281 65.5377 35.9652C65.5415 38.0947 65.5377 40.2243 65.5302 42.3538C65.5302 42.6285 65.4131 42.8693 65.1223 42.8429C64.9938 42.8317 64.7974 42.5984 64.7861 42.4554C64.552 39.7314 62.6295 39.5658 60.5485 39.69C59.3739 39.7615 57.8707 39.1595 57.1116 39.9684C56.3676 40.7585 56.9077 42.2409 56.8737 43.4148C56.8359 44.7919 56.8774 46.1689 56.9001 47.546C56.9152 48.528 57.3911 49.0472 58.4184 49.0359C60.1784 49.0171 61.9422 49.051 63.7022 49.0058C65.1071 48.9682 66.2402 48.3286 67.0635 47.1961C67.5432 46.5414 67.9624 45.8416 68.4194 45.1681C68.5743 44.9424 68.8122 44.8295 69.0653 44.9612C69.2428 45.0553 69.2465 45.2735 69.1823 45.4578C68.6725 46.9365 68.1664 48.4151 67.6452 49.8938C67.3921 50.6124 66.7576 50.4694 66.21 50.4694C63.7588 50.477 61.3039 50.4694 58.8527 50.4694V50.4732Z" fill="#24252D" fill-opacity="0.7"/>
<path d="M47.0727 32.0638C47.0727 33.0646 47.0765 34.0692 47.0652 35.07C47.0652 35.307 47.0765 35.6043 46.729 35.6344C46.4155 35.6607 46.3211 35.4161 46.2569 35.1678C46.0945 34.5621 45.9774 33.9413 45.7622 33.3581C44.8482 30.8485 42.2082 29.2645 39.6588 29.6558C38.1443 29.8891 37.083 30.7281 36.6487 32.1616C36.2257 33.5612 37.0264 34.5583 38.0801 35.371C39.5266 36.4922 41.162 37.3049 42.752 38.1928C43.6849 38.712 44.6253 39.2237 45.5053 39.8257C48.0396 41.564 48.98 43.8929 48.236 46.4326C47.5033 48.9384 45.1428 50.703 42.3177 50.925C40.5086 51.0679 38.8279 50.6014 37.1548 50.037C36.2521 49.7323 35.3721 49.3071 34.8207 50.6315C34.6205 51.1131 34.1371 50.925 34.1295 50.4133C34.1031 48.2235 34.1295 46.03 34.1446 43.8403C34.1446 43.6409 34.2768 43.449 34.4543 43.4603C34.6054 43.4678 34.8282 43.6145 34.8736 43.75C35.0549 44.2842 35.1531 44.8411 35.323 45.3791C36.3239 48.5471 39.9043 50.3455 43.0391 49.2582C45.5431 48.3928 46.2456 45.6312 44.4554 43.6597C43.7264 42.8545 42.7596 42.3804 41.838 41.8386C40.1611 40.8529 38.4313 39.9424 36.8224 38.855C34.1673 37.0641 33.2571 34.5771 34.19 32.0751C35.1342 29.5317 37.895 27.9477 40.8712 28.2148C42.076 28.3239 43.2166 28.655 44.3119 29.1517C45.0823 29.5016 45.7622 29.6257 46.204 28.6926C46.3136 28.4631 46.4495 28.2336 46.7517 28.2976C47.1973 28.3916 47.0652 28.7754 47.0727 29.0614C47.0878 30.0622 47.0803 31.0667 47.0765 32.0676L47.0727 32.0638Z" fill="#24252D" fill-opacity="0.7"/>
<path d="M56.273 59.4655C56.273 57.9003 56.2919 56.3389 56.2655 54.7737C56.2504 53.8745 55.9482 53.1747 54.8643 53.1446C54.6566 53.1371 54.3355 53.1785 54.3658 52.7984C54.3884 52.5313 54.6264 52.5388 54.7925 52.5388C56.6167 52.5238 58.4409 52.5238 60.2652 52.52C60.4653 52.52 60.6579 52.5652 60.7033 52.7721C60.7864 53.1634 60.4502 53.1408 60.2349 53.1483C58.947 53.186 58.7167 54.0212 58.7204 55.0672C58.7355 57.8213 58.6902 60.5792 58.7658 63.3333C58.8073 64.8834 59.1888 66.3959 60.8543 67.0243C62.6785 67.7128 64.4461 67.4682 66.021 66.268C66.7537 65.7074 67.1314 64.9399 67.2372 64.0181C67.5846 60.9592 67.5053 57.8928 67.3882 54.8264C67.3505 53.8256 66.9766 53.1333 65.8246 53.1295C65.6736 53.1295 65.3941 52.9753 65.3941 52.8925C65.3941 52.584 65.6547 52.5275 65.9191 52.5275C69.7185 52.5275 73.518 52.5275 77.3175 52.5275C77.5932 52.5275 77.8349 52.6141 77.8387 52.9076C77.8387 52.9866 77.5479 53.1371 77.3855 53.1408C75.973 53.1747 75.8143 54.1341 75.8106 55.2177C75.8106 58.5362 75.8294 61.8584 75.7992 65.1769C75.7879 66.3922 75.8446 67.4871 77.427 67.6187C77.6083 67.6338 77.8161 67.7128 77.8085 67.9273C77.8009 68.3374 77.4421 68.1944 77.2458 68.1944C75.4858 68.2132 73.722 68.2094 71.962 68.1944C71.7996 68.1944 71.5314 68.1267 71.4974 68.0288C71.3803 67.6714 71.7203 67.6263 71.9355 67.6075C73.2876 67.4946 73.4991 66.5954 73.4954 65.4854C73.4803 62.039 73.5105 58.5964 73.4803 55.15C73.4689 53.5923 72.5927 52.8323 70.9876 52.8586C69.4466 52.885 68.593 53.6149 68.5591 55.0973C68.5062 57.4752 68.5666 59.8568 68.5326 62.2384C68.4533 67.4682 64.0155 70.1847 59.219 67.9423C57.5458 67.1597 56.579 65.809 56.4657 63.9767C56.375 62.4792 56.4468 60.9743 56.4468 59.4693C56.3864 59.4693 56.3297 59.4693 56.2693 59.4693L56.273 59.4655Z" fill="#24252D" fill-opacity="0.7"/>
<path d="M52.0054 72.6343C49.1425 72.1414 46.6272 70.9148 44.4593 69.011C43.7341 68.3714 42.8617 68.029 42.0534 67.5549C38.9791 65.7527 37.5288 62.3816 38.2502 58.6718C38.9338 55.1614 41.4265 52.7422 44.988 52.2832C47.9528 51.9031 50.2756 53.1147 51.9676 55.4888C54.8342 59.5071 53.5237 65.1884 49.1992 67.7092C48.255 68.2585 48.1291 68.9596 48.8215 69.8124C49.6751 70.8621 50.7137 71.6372 52.0356 71.9984C52.0243 72.2091 52.0129 72.4236 52.0016 72.6343H52.0054ZM50.6155 60.5944C50.6419 59.0142 50.4909 57.4716 49.8261 56.008C49.0255 54.2434 47.6809 53.2463 45.717 53.2351C43.7303 53.2238 42.3178 54.2472 41.6455 56.0343C40.52 59.0104 40.5276 62.043 41.8079 64.9927C42.5482 66.7009 43.9192 67.6227 45.8114 67.5963C47.7716 67.57 49.1274 66.573 49.9319 64.8196C50.5513 63.4765 50.6457 62.043 50.6155 60.5944Z" fill="#24252D" fill-opacity="0.7"/>
<path d="M5.26717 68.1944C4.45138 68.1944 3.63558 68.2057 2.81979 68.1944C2.26082 68.1868 1.31661 68.3261 1.21086 68.0928C0.848288 67.3064 1.96245 67.5773 2.20794 67.0732C2.44211 66.5991 2.53653 66.1288 2.5403 65.6359C2.55164 62.1368 2.55164 58.6377 2.5403 55.1349C2.5403 54.2357 2.46855 53.3364 1.29395 53.1446C1.08623 53.1107 0.957815 52.9941 0.98803 52.7796C1.02202 52.5463 1.22219 52.5125 1.41103 52.52C4.60245 52.6216 7.82408 52.2115 10.9702 53.0166C13.9463 53.7804 15.8838 56.3953 16.0387 59.7025C16.2086 63.3634 14.5355 66.2341 11.5782 67.4419C9.53876 68.2734 7.40108 68.1868 5.27095 68.1944H5.26717ZM4.86305 60.4437C4.86305 62.2572 4.87061 64.0745 4.85928 65.888C4.85928 66.4975 4.92348 66.9678 5.69773 67.0882C10.0146 67.7617 12.4734 65.4591 13.123 62.2083C13.3458 61.0946 13.3345 59.9696 13.1683 58.8447C12.6622 55.387 9.82202 53.216 6.34357 53.5772C5.31249 53.6826 4.76863 54.0062 4.83284 55.1876C4.93103 56.9333 4.85928 58.6904 4.85928 60.4437H4.86305Z" fill="#24252D" fill-opacity="0.7"/>
<path d="M78.5527 80.9982C78.5527 79.497 78.5376 77.992 78.5603 76.4908C78.5792 75.4335 78.5867 74.4252 77.1289 74.3537C76.974 74.3462 76.7172 74.3236 76.7738 74.0414C76.8229 73.8044 77.042 73.842 77.2044 73.842C80.4714 73.8345 83.7383 73.842 87.009 73.8345C87.5114 73.8345 87.8702 73.9662 87.8966 74.5418C87.9306 75.2303 87.9835 75.9151 87.9872 76.6036C87.9872 76.7504 87.8097 76.8971 87.7115 77.0438C87.6247 76.9611 87.4925 76.8933 87.4623 76.7918C86.4236 73.4469 83.6288 75.1363 81.5629 74.7713C81.0001 74.6735 80.8566 75.1739 80.849 75.6517C80.8415 76.2161 80.7924 76.7842 80.849 77.3411C80.9397 78.3005 80.3467 79.6663 81.2192 80.1291C82.2653 80.6859 83.6741 80.3849 84.9167 80.2081C85.5436 80.1178 85.8647 79.6512 86.0006 79.053C86.0535 78.8197 86.0837 78.5225 86.4047 78.5338C86.8051 78.5488 86.6578 78.9025 86.6616 79.1057C86.6804 80.2946 86.6729 81.4835 86.6616 82.6725C86.6616 82.8305 86.7069 83.0525 86.4425 83.1052C86.2008 83.1503 86.0837 82.9923 86.0535 82.8192C85.9289 82.0855 85.638 81.476 84.8298 81.3519C83.6439 81.1675 82.4466 81.1901 81.2607 81.333C80.8037 81.3895 80.8453 81.8936 80.8415 82.2624C80.8339 83.5755 80.8415 84.8923 80.8415 86.2054C80.8415 86.9165 81.0492 87.4583 81.8839 87.4545C83.1378 87.447 84.3992 87.4771 85.6494 87.3755C86.8353 87.2815 87.4849 86.3935 88.059 85.4642C88.2516 85.1519 88.4442 84.6139 88.8295 84.8321C89.1845 85.0315 88.8106 85.5018 88.7048 85.8442C88.171 87.5825 86.9851 88.4504 85.1471 88.4478C82.5713 88.4478 79.9955 88.4629 77.4159 88.4554C77.144 88.4554 76.7096 88.5645 76.7323 88.0942C76.7474 87.8195 77.0911 87.812 77.3328 87.8007C78.3337 87.748 78.5565 87.1084 78.5527 86.2619C78.5414 84.5085 78.5527 82.7552 78.5527 81.0057V80.9982Z" fill="#24252D" fill-opacity="0.7"/>
<path d="M34.1297 68.1947C33.6916 68.1947 33.2497 68.221 32.8116 68.1909C32.3281 68.1571 31.569 68.4355 31.4217 68.0367C31.1498 67.303 32.1166 67.619 32.4112 67.2578C32.6832 66.923 32.7549 66.5919 32.6189 66.2232C32.3168 65.4029 31.9731 64.5978 31.671 63.7776C31.467 63.2207 31.0818 63.0288 30.5115 63.0439C29.6353 63.0665 28.7553 63.0476 27.8753 63.0476C25.2881 63.0476 25.3032 63.0552 24.3817 65.3841C23.97 66.4226 23.6565 67.3594 25.273 67.54C25.4807 67.5626 25.6205 67.698 25.6129 67.905C25.5978 68.2963 25.2655 68.1872 25.054 68.1947C24.3628 68.2135 23.6717 68.2285 22.9843 68.1872C22.3082 68.1495 21.2734 68.5183 21.0392 68.0178C20.6766 67.2465 21.9268 67.5099 22.2516 66.9531C22.6292 66.3059 23.0145 65.6663 23.3129 64.9778C24.918 61.2642 26.5156 57.5469 28.1396 53.8409C28.3776 53.2991 28.4078 52.3623 29.1103 52.4037C29.741 52.4413 29.7788 53.3669 30.0167 53.9199C31.5879 57.5959 33.1062 61.2943 34.6849 64.9665C35.1419 66.0313 35.4704 67.2691 36.8943 67.5438C37.0869 67.5814 37.1965 67.7169 37.1851 67.9351C37.17 68.2248 36.9283 68.1796 36.7697 68.1834C35.8897 68.1984 35.0135 68.1909 34.1335 68.1909L34.1297 68.1947ZM28.4116 62.1033C29.1707 61.9415 30.1338 62.393 31.01 61.8286C31.2895 61.648 31.3424 61.6179 31.2291 61.5803C30.334 61.3056 30.3793 60.4215 30.0394 59.7931C29.4313 58.6682 29.2614 57.325 28.3511 56.3467C27.8299 57.4792 27.2974 58.6042 26.7875 59.7442C26.0876 61.3144 26.6276 62.1008 28.4078 62.1033H28.4116Z" fill="#24252D" fill-opacity="0.7"/>
<path d="M33.4764 81.0281C33.4764 82.5896 33.4764 84.1547 33.4764 85.7162C33.4764 86.7546 33.4688 87.8043 34.9531 87.8118C35.142 87.8118 35.3572 87.8871 35.3723 88.0865C35.395 88.4214 35.1193 88.459 34.8625 88.459C33.2309 88.459 31.5993 88.459 29.9677 88.4515C29.7335 88.4515 29.4314 88.4703 29.4465 88.1166C29.4541 87.9247 29.6354 87.8307 29.8393 87.8269C31.0177 87.8043 31.282 87.0556 31.2783 86.0623C31.2707 82.6874 31.2556 79.3087 31.2896 75.9338C31.2972 75.1098 30.9875 74.8577 30.1905 74.8615C28.7553 74.869 27.3617 74.8464 26.9349 76.6524C26.882 76.8706 26.7801 77.1829 26.4515 77.0437C26.3533 77.0023 26.342 76.7389 26.3004 76.5734C26.2853 76.5132 26.3004 76.4492 26.3004 76.3853C26.2475 74.6846 27.0772 73.8356 28.7893 73.8381C31.4256 73.8381 34.0618 73.8343 36.698 73.8381C38.3863 73.8419 38.3863 73.8494 38.4429 75.5839C38.4542 75.9601 38.4807 76.3326 38.4769 76.7088C38.4769 76.8857 38.4769 77.1415 38.2201 77.1114C38.103 77.0964 37.9595 76.8894 37.9141 76.7427C37.714 76.0617 37.4458 75.4183 36.7396 75.1361C35.7802 74.7524 34.6774 74.6244 33.7974 75.0233C33.076 75.3506 33.5104 76.3815 33.4802 77.0926C33.4273 78.402 33.4651 79.7188 33.4651 81.0319L33.4764 81.0281Z" fill="#24252D" fill-opacity="0.7"/>
<path d="M62.6221 21.0059C62.9355 21.0059 63.2452 21.0059 63.5587 21.0059C64.4614 21.0059 64.3141 21.3671 63.8722 21.8675C62.5994 23.3198 61.3379 24.7834 60.0689 26.2394C59.8688 26.4689 59.627 26.7436 59.3022 26.5103C59.0756 26.3485 59.2003 26.0513 59.272 25.8143C59.5855 24.8059 59.9027 23.7976 60.2162 22.7893C60.5889 21.5978 61.3883 21.0034 62.6145 21.0059H62.6221Z" fill="#24252D" fill-opacity="0.7"/>
<path d="M19.9401 54.221C19.6833 55.5642 19.4302 56.9111 19.1696 58.2543C19.113 58.5478 19.1243 58.9504 18.6938 58.9165C18.3047 58.8827 18.3085 58.4801 18.2556 58.1941C18.0177 56.8472 17.7571 55.5002 17.5909 54.1457C17.4814 53.2503 17.5192 52.2194 18.7693 52.2683C19.9552 52.3134 20.0119 53.2804 19.9401 54.221Z" fill="#24252D" fill-opacity="0.7"/>
<path d="M43.7642 1.27552C43.7378 1.06106 43.7114 0.846605 43.6812 0.632145C44.2817 0.564421 45.2372 0.165601 45.2901 0.959478C45.3316 1.57276 44.3157 1.23414 43.7642 1.27176V1.27552Z" fill="#24252D" fill-opacity="0.7"/>
<path d="M36.1238 0.628321L36.0671 1.25289C35.5119 1.3018 34.9265 1.47487 34.5186 0.891693H34.4922C34.9681 0.387524 35.5421 0.477823 36.1238 0.632083V0.628321Z" fill="#24252D" fill-opacity="0.7"/>
<path d="M3.2805 0.635732C3.25028 0.850191 3.22007 1.06841 3.18985 1.28287C3.00479 1.29416 2.81595 1.33179 2.63466 1.31297C2.34007 1.28664 1.93972 1.29792 1.99638 0.857716C2.04925 0.447609 2.44582 0.526621 2.73663 0.526621C2.91792 0.526621 3.09921 0.598107 3.27672 0.635732H3.2805Z" fill="#24252D" fill-opacity="0.7"/>
<path d="M52.0054 72.6344C52.0167 72.4237 52.028 72.2092 52.0394 71.9985C52.2244 71.9985 52.417 71.9722 52.5983 71.9985C52.8929 72.0437 53.3121 72.0211 53.2819 72.4425C53.2517 72.8639 52.8363 72.7661 52.5492 72.7585C52.3679 72.7548 52.1867 72.6795 52.0054 72.6344Z" fill="#24252D" fill-opacity="0.7"/>
<path d="M53.8333 73.9023C53.8446 74.0077 53.8333 74.1093 53.7955 74.2109C53.7237 74.1507 53.6557 74.0905 53.584 74.0303C53.6671 73.9889 53.7502 73.9437 53.8295 73.9023H53.8333Z" fill="#24252D" fill-opacity="0.7"/>
<path d="M26.625 5.72269C26.6741 5.59853 26.7081 5.38784 26.8932 5.52329C27.0291 5.62487 26.9498 5.80171 26.8214 5.91458C26.7572 5.85062 26.693 5.78666 26.6288 5.71893L26.625 5.72269Z" fill="#24252D" fill-opacity="0.7"/>
</g>
<defs>
<clipPath id="clip0_549_664">
<rect width="88" height="88" fill="white" transform="translate(0.980469 0.474121)"/>
</clipPath>
</defs>
</svg>
