<svg width="217" height="74" viewBox="0 0 217 74" fill="none" xmlns="http://www.w3.org/2000/svg">
<g opacity="0.7" clip-path="url(#clip0_549_274)">
<path d="M51.583 8.4962H57.1785V11.303C57.2319 11.3411 57.2853 11.3793 57.3463 11.4098C57.3844 11.3183 57.4072 11.2115 57.4682 11.1276C59.2369 8.87756 61.6153 8.09959 64.3902 8.32077C69.2844 8.72502 72.1051 12.3784 72.6768 16.7107C72.9817 19.0446 72.8445 21.3328 71.945 23.5294C70.2907 27.5718 66.5781 29.3947 62.5073 28.9447C60.3422 28.7083 58.6194 27.7015 57.2014 25.9854C57.2014 27.6557 57.2014 29.3337 57.2014 31.0041C57.2014 32.6744 57.2014 34.3829 57.2014 36.0991H51.583V8.4962ZM57.1404 18.5641C57.2243 19.1819 57.27 19.8073 57.4149 20.4099C57.9104 22.4998 59.5799 24.0176 61.5467 24.193C63.8337 24.3989 65.6557 23.3998 66.5324 21.3633C67.3328 19.5175 67.3481 17.6183 66.5171 15.7802C65.7319 14.0259 64.3369 13.0268 62.3853 12.9505C60.4108 12.8742 58.9243 13.7285 57.9409 15.4446C57.392 16.4056 57.1862 17.4582 57.1481 18.5717L57.1404 18.5641Z" fill="white"/>
<path d="M21.0365 57.5698C22.1724 58.8283 23.2854 60.0715 24.4442 61.3605C24.1468 61.6427 23.88 61.9097 23.598 62.1614C21.2042 64.297 18.4522 65.7233 15.2428 66.0207C8.37414 66.6538 2.6795 62.5351 1.02523 56.4028C-0.339351 51.346 0.560204 46.6934 4.2804 42.8569C7.36023 39.684 11.2405 38.4789 15.6087 38.8984C18.7724 39.2035 21.5092 40.523 23.8495 42.6662C24.0325 42.834 24.2155 42.9789 24.4289 43.162C23.2702 44.6188 22.1648 46.0069 21.0289 47.4485C20.8841 47.2959 20.7697 47.1663 20.6477 47.0366C19.2527 45.5341 17.5908 44.4586 15.5477 44.1154C12.1858 43.551 8.99163 45.0841 7.44409 48.1349C5.7822 51.3994 5.98803 54.6409 8.16068 57.6156C10.6002 60.9486 14.9073 61.6198 18.7038 59.3622C19.1231 59.1105 19.5195 58.8359 19.9083 58.5384C20.2818 58.2486 20.6249 57.9283 21.0289 57.5774L21.0365 57.5698Z" fill="white"/>
<path d="M89.25 28.7618V26.4813C89.1432 26.5652 89.0822 26.5957 89.0365 26.6491C87.7177 28.1669 85.9948 28.8305 84.0508 29.0059C82.8463 29.1127 81.6419 29.0822 80.4755 28.7161C77.51 27.7932 75.9167 25.1999 76.214 22.0346C76.5266 18.6939 78.9508 17.3286 81.1692 16.8863C82.0459 16.7108 82.9455 16.6346 83.845 16.6117C85.4612 16.5659 87.0773 16.5964 88.6935 16.5964H89.1737C89.532 14.8498 88.3504 13.2481 86.4827 12.9125C84.4625 12.554 82.549 12.9735 80.7042 13.7896C80.201 14.0108 79.7208 14.2625 79.1643 14.5294C78.5849 13.2252 78.0131 11.9286 77.4338 10.6243C77.5024 10.5709 77.5405 10.5175 77.5939 10.4947C80.7042 8.86243 83.9975 8.02344 87.5347 8.28277C89.1814 8.4048 90.7518 8.80904 92.1087 9.81583C93.7477 11.0209 94.6168 12.6837 94.7083 14.682C94.815 16.9168 94.7845 19.1592 94.7998 21.4016C94.815 23.7355 94.8074 26.0618 94.815 28.3957C94.815 28.5025 94.815 28.6093 94.815 28.7542H89.2652L89.25 28.7618ZM89.1814 20.0668C89.1051 20.0515 89.0441 20.0287 88.9831 20.0287C87.2908 20.0363 85.5984 20.0287 83.906 20.0744C83.4638 20.0897 83.0141 20.2499 82.5872 20.4024C82.0535 20.6007 81.7257 21.0126 81.5656 21.5541C81.1387 22.9575 81.8401 24.2923 83.2504 24.7423C84.0813 25.0092 84.9428 25.0092 85.7813 24.8185C88.076 24.2923 89.6464 22.927 89.1814 20.0592V20.0668Z" fill="white"/>
<path d="M91.7129 45.3738C91.9187 45.3661 92.0712 45.3509 92.216 45.3509C93.7559 45.3509 95.2959 45.3585 96.8358 45.3433C97.2017 45.3433 97.3389 45.4272 97.3389 45.8238C97.3313 52.284 97.3313 58.7519 97.3313 65.2121C97.3313 65.3647 97.316 65.5096 97.3008 65.6698H91.7357V62.2604C91.7357 62.2604 91.6748 62.2375 91.6443 62.2299C91.568 62.3291 91.4918 62.4282 91.4308 62.535C90.0967 64.7164 88.1147 65.7994 85.5913 65.8681C84.6994 65.891 83.777 65.8528 82.9232 65.6316C80.1788 64.9147 78.6693 62.9926 78.1052 60.285C77.9604 59.6061 77.9146 58.8968 77.907 58.1951C77.8917 54.0612 77.8994 49.9348 77.8994 45.8009C77.8994 45.6789 77.8994 45.5568 77.8994 45.3967H83.5483C83.5483 45.6026 83.5483 45.778 83.5483 45.9611C83.5483 49.5306 83.5483 53.0925 83.5559 56.662C83.5559 57.051 83.6093 57.4553 83.7007 57.8366C84.0285 59.1866 84.8214 60.1553 86.2012 60.4756C87.8097 60.8417 89.2658 60.5214 90.4093 59.2553C91.3546 58.2104 91.7053 56.9214 91.7129 55.5485C91.7281 52.3603 91.7129 49.1797 91.7205 45.9916C91.7205 45.8085 91.7205 45.6255 91.7205 45.389L91.7129 45.3738Z" fill="white"/>
<path d="M41.0633 45.3817H46.6512V65.6548H41.0633V62.253C41.0633 62.253 41.0099 62.2378 40.9794 62.2302C40.9032 62.3522 40.8193 62.4666 40.7431 62.5886C39.4319 64.6937 37.5032 65.7692 35.0561 65.8607C34.126 65.8912 33.1502 65.8607 32.2507 65.6243C29.4834 64.8997 27.9892 62.9471 27.4403 60.2242C27.3031 59.5606 27.2574 58.8666 27.2498 58.1801C27.2345 54.069 27.2421 49.9503 27.2421 45.8393C27.2421 45.702 27.2421 45.5647 27.2421 45.3893H32.891V45.9613C32.891 49.3707 32.891 52.7877 32.891 56.197C32.891 56.7081 32.9139 57.242 33.0283 57.7377C33.4857 59.7971 35.2085 60.9183 37.305 60.5522C39.2718 60.2089 40.6592 58.7216 40.9489 56.6318C41.0175 56.1513 41.0404 55.6631 41.048 55.175C41.0557 52.0936 41.048 49.0198 41.048 45.9384C41.048 45.7706 41.048 45.6028 41.048 45.374L41.0633 45.3817Z" fill="white"/>
<path d="M134.16 62.3293C132.78 63.8776 131.141 64.9072 129.189 65.4335C126.765 66.0895 124.333 66.1276 121.939 65.3496C118.257 64.1522 116.168 61.5284 115.505 57.7682C115.086 55.3809 115.261 53.0164 116.298 50.7969C117.899 47.3494 120.697 45.5875 124.432 45.2291C126.102 45.0689 127.748 45.1985 129.349 45.7401C132.383 46.7621 134.06 48.9969 134.853 51.9944C135.28 53.5961 135.356 55.2359 135.295 56.8911C135.295 57.0131 135.265 57.1275 135.242 57.28H121.024C121.238 58.2334 121.611 59.0419 122.229 59.7131C123.792 61.4064 125.743 61.6962 127.886 61.1852C128.983 60.9182 129.951 60.3843 130.798 59.6292C130.92 59.5224 131.049 59.408 131.202 59.2707C132.185 60.2928 133.153 61.292 134.16 62.3369V62.3293ZM129.944 53.8554C130.058 51.2012 128.068 49.3249 125.294 49.4088C123.037 49.4774 120.765 51.819 120.994 53.8554H129.944Z" fill="white"/>
<path d="M120.483 22.3018C121.627 23.1942 122.831 23.8349 124.142 24.2544C125.499 24.6891 126.879 24.9942 128.32 24.7349C128.968 24.6205 129.57 24.3917 129.829 23.7052C130.096 22.9959 129.814 22.2484 129.052 21.8594C128.351 21.501 127.603 21.234 126.856 20.9671C125.553 20.4942 124.219 20.1204 122.946 19.5789C121.268 18.8619 120.049 17.6492 119.713 15.7806C119.134 12.5314 120.62 9.96862 123.738 8.83216C126.178 7.93978 128.648 8.06182 131.11 8.71776C132.002 8.9542 132.864 9.32031 133.717 9.67116C134.205 9.86946 134.655 10.1746 135.158 10.4568C134.503 11.7839 133.87 13.0729 133.214 14.4C133.047 14.3161 132.902 14.2475 132.757 14.1712C130.904 13.2026 129.006 12.4093 126.856 12.4856C126.429 12.5009 125.972 12.6153 125.591 12.7983C124.668 13.2407 124.547 14.461 125.385 15.056C125.835 15.3763 126.368 15.5975 126.894 15.7882C128.312 16.2992 129.761 16.7187 131.156 17.2679C131.949 17.5806 132.726 18.0153 133.405 18.534C134.983 19.7314 135.456 21.4247 135.257 23.3315C134.952 26.3137 133.047 27.9307 130.355 28.6095C126.307 29.6239 122.511 28.8841 119.042 26.5273C118.73 26.3137 118.646 26.1307 118.837 25.7569C119.401 24.6434 119.904 23.5069 120.468 22.3094L120.483 22.3018Z" fill="white"/>
<path d="M115.131 10.5022C114.483 11.8217 113.85 13.0955 113.263 14.293C111.952 13.7819 110.694 13.2404 109.406 12.8056C108.362 12.4548 107.264 12.3175 106.166 12.5692C105.251 12.7751 104.801 13.3167 104.862 14.1175C104.908 14.7201 105.266 15.1091 105.785 15.3226C106.601 15.6582 107.432 15.9481 108.262 16.2455C109.459 16.6803 110.694 17.0387 111.861 17.5574C113.545 18.3049 114.841 19.4871 115.184 21.4015C115.756 24.5668 114.361 27.0609 111.388 28.2813C109.879 28.8991 108.301 29.0821 106.684 29.0135C103.963 28.8991 101.432 28.1897 99.183 26.6109C99.0077 26.4889 98.8476 26.3516 98.6494 26.199C99.2517 24.91 99.8539 23.6363 100.471 22.3244C100.631 22.4312 100.753 22.5151 100.875 22.599C102.858 23.9948 105.038 24.8109 107.477 24.8185C108.011 24.8185 108.575 24.6965 109.063 24.4829C110.092 24.0405 110.237 22.7363 109.337 22.0727C108.903 21.7524 108.392 21.5235 107.881 21.3405C106.463 20.8295 105.023 20.4023 103.612 19.8684C102.949 19.6167 102.301 19.2811 101.722 18.8693C100.052 17.6794 99.4346 15.9862 99.6328 13.9955C99.9301 11.0819 101.668 9.19035 104.801 8.51153C108.423 7.72593 111.815 8.45814 114.971 10.3573C115.024 10.3878 115.062 10.4336 115.139 10.5022H115.131Z" fill="white"/>
<path d="M69.2388 40.6834V46.236C69.4446 46.2436 69.6123 46.2589 69.7724 46.2589C71.2209 46.2589 72.6693 46.2742 74.1177 46.2589C74.5065 46.2589 74.659 46.3428 74.6437 46.7623C74.6133 47.7691 74.6133 48.7759 74.6437 49.775C74.659 50.1945 74.5065 50.2861 74.1177 50.2784C72.654 50.2556 71.1904 50.2784 69.7267 50.2632C69.3531 50.2632 69.2235 50.3547 69.2312 50.7437C69.2464 53.3522 69.2312 55.9531 69.2464 58.5616C69.2464 58.9811 69.2922 59.4158 69.3989 59.8277C69.6047 60.6286 70.1765 61.0328 70.9998 61.0557C71.9984 61.0862 72.9056 60.743 73.8357 60.3235C74.2092 61.6811 74.5904 63.0082 74.9411 64.343C74.9639 64.4422 74.8343 64.6481 74.72 64.7091C73.0047 65.6473 71.1675 66.0591 69.2235 65.899C68.5374 65.8456 67.8208 65.7083 67.1881 65.449C64.802 64.4956 63.7119 62.6116 63.6661 60.1328C63.6051 57.0438 63.6509 53.9471 63.6433 50.8581C63.6433 50.675 63.6433 50.4996 63.6433 50.2556H60.876C60.876 49.8818 60.876 49.5691 60.876 49.2564C60.876 48.3869 60.8836 47.5174 60.876 46.6479C60.876 46.3504 60.9675 46.2436 61.2724 46.2513C62.0423 46.2665 62.8199 46.2513 63.6509 46.2513V40.6758H69.2617L69.2388 40.6834Z" fill="white"/>
<path d="M51.5986 37.6626H57.1789V65.6544H51.5986V37.6626Z" fill="white"/>
<path d="M107.623 65.6625H102.02C102.012 65.5023 101.989 65.3422 101.989 65.1744C101.989 58.7446 101.989 52.3225 101.981 45.8928C101.981 45.4962 102.058 45.336 102.5 45.3436C104.055 45.3741 105.61 45.3665 107.158 45.3436C107.539 45.3436 107.653 45.4657 107.646 45.8394C107.623 46.8386 107.646 47.8377 107.684 48.875C109.155 46.4343 111.312 45.2216 114.164 45.1377V50.4767C113.302 50.5606 112.441 50.5606 111.617 50.7437C109.102 51.3005 107.646 53.2302 107.638 55.976C107.623 59.004 107.638 62.0396 107.638 65.0676C107.638 65.2583 107.623 65.4566 107.615 65.6701L107.623 65.6625Z" fill="white"/>
<path d="M174.746 72.5342C174.906 71.2528 175.074 69.8952 175.249 68.5375C175.569 65.9901 175.897 63.4349 176.217 60.8875C176.568 58.1111 176.919 55.3348 177.277 52.5585C177.414 51.4907 177.551 50.4153 177.681 49.3475C177.742 48.867 178.009 48.5924 178.39 48.6229C178.786 48.661 179.015 48.9585 178.954 49.4543C178.695 51.5823 178.428 53.7102 178.161 55.8382C177.841 58.3705 177.521 60.9103 177.201 63.4426C176.85 66.2341 176.492 69.0257 176.141 71.8172C176.103 72.1223 176.065 72.4198 176.019 72.7249C175.95 73.2054 175.722 73.419 175.318 73.3884C174.921 73.3579 174.731 73.0986 174.746 72.5342Z" fill="white"/>
<path d="M170.713 3.63806C170.705 3.19569 170.896 2.95924 171.262 2.90585C171.651 2.85246 171.887 3.07365 171.986 3.44738C172.261 4.50756 172.535 5.56775 172.81 6.62793C174.288 12.4017 175.775 18.1679 177.254 23.9417C177.445 24.6739 177.323 25.0324 176.858 25.1468C176.438 25.2459 176.179 24.979 175.988 24.2544C174.25 17.4814 172.512 10.7085 170.774 3.93552C170.744 3.82112 170.728 3.69908 170.713 3.63806Z" fill="white"/>
<path d="M192.463 38.6238C193.637 38.845 194.887 39.0814 196.145 39.3255C201.672 40.3781 207.198 41.4306 212.725 42.4908C212.962 42.5366 213.206 42.5747 213.442 42.6357C213.884 42.7501 214.067 43.0476 213.976 43.4442C213.892 43.7951 213.564 43.9781 213.152 43.8942C211.224 43.5281 209.303 43.162 207.374 42.7883C202.487 41.8577 197.608 40.9196 192.722 39.9891C192.539 39.9586 192.363 39.9281 192.188 39.8823C191.815 39.7831 191.616 39.5391 191.67 39.1425C191.723 38.7306 192.005 38.5933 192.478 38.6162L192.463 38.6238Z" fill="white"/>
<path d="M168.16 39.356C168.137 39.6687 167.893 39.8365 167.519 39.9128C165.339 40.3246 163.159 40.7518 160.979 41.1713C156.572 42.0103 152.158 42.8416 147.752 43.6806C147.226 43.7798 146.914 43.6196 146.83 43.2154C146.746 42.8111 146.99 42.5137 147.501 42.4145C154.041 41.1636 160.59 39.9128 167.131 38.6695C167.802 38.5399 168.167 38.7611 168.16 39.3636V39.356Z" fill="white"/>
<path d="M188.826 4.7284C188.613 5.57502 188.43 6.30723 188.239 7.04707C186.753 12.8285 185.266 18.6175 183.78 24.399C183.765 24.46 183.749 24.5134 183.734 24.5744C183.597 25.0168 183.3 25.2303 182.941 25.1388C182.552 25.0397 182.37 24.6964 182.484 24.2388C182.743 23.2244 183.002 22.21 183.261 21.1879C184.664 15.7421 186.059 10.2963 187.462 4.85043C187.508 4.67501 187.561 4.44619 187.683 4.36992C187.881 4.25551 188.179 4.16398 188.377 4.23263C188.575 4.30127 188.697 4.57585 188.819 4.72077L188.826 4.7284Z" fill="white"/>
<path d="M209.761 18.5111C209.661 18.6179 209.501 18.862 209.28 18.9993C207.283 20.2807 205.278 21.5544 203.273 22.8205C199.804 25.0248 196.336 27.229 192.867 29.4257C192.257 29.807 191.922 29.8147 191.67 29.4409C191.411 29.0596 191.571 28.7087 192.173 28.3197C197.594 24.8799 203.014 21.4324 208.442 17.9925C208.587 17.901 208.724 17.8018 208.876 17.7408C209.318 17.5577 209.768 17.8552 209.761 18.4959V18.5111Z" fill="white"/>
<path d="M206.559 58.2943C206.376 58.5308 206.269 58.8053 206.101 58.8435C205.857 58.8969 205.507 58.8664 205.316 58.7214C204.356 57.974 203.426 57.1884 202.488 56.4104C198.783 53.3442 195.078 50.2781 191.365 47.212C191.259 47.1281 191.144 47.0442 191.06 46.9374C190.839 46.6704 190.824 46.373 191.038 46.0984C191.251 45.8238 191.548 45.7781 191.853 45.9535C192.006 46.045 192.143 46.167 192.288 46.2891C196.854 50.0646 201.413 53.8324 205.972 57.6155C206.178 57.7909 206.33 58.035 206.551 58.2867L206.559 58.2943Z" fill="white"/>
<path d="M154.414 58.6608C154.224 58.5082 153.98 58.4091 153.911 58.2413C153.835 58.0506 153.881 57.776 153.957 57.5701C154.003 57.4328 154.186 57.3336 154.315 57.2268C158.744 53.5658 163.166 49.9047 167.595 46.2437C167.641 46.2055 167.687 46.1674 167.74 46.1293C168.152 45.8013 168.533 45.8013 168.784 46.114C169.028 46.4191 168.944 46.8157 168.548 47.1437C164.043 50.8734 159.53 54.6031 155.017 58.3252C154.864 58.4548 154.658 58.5311 154.422 58.6684L154.414 58.6608Z" fill="white"/>
<path d="M169.502 26.5652C169.242 26.3669 169.021 26.2373 168.854 26.0542C165.461 22.4465 162.069 18.8389 158.684 15.2312C158.128 14.6439 157.579 14.0566 157.03 13.4617C156.656 13.0574 156.61 12.6608 156.9 12.3786C157.197 12.0964 157.586 12.1574 157.967 12.5617C161.589 16.4134 165.21 20.2728 168.823 24.1245C169.212 24.5364 169.624 24.9254 169.967 25.3678C170.096 25.5356 170.127 25.8635 170.058 26.0695C169.997 26.2525 169.73 26.3669 169.509 26.5576L169.502 26.5652Z" fill="white"/>
<path d="M179.252 17.5955C179.252 15.4141 179.252 13.2403 179.252 11.0589C179.252 10.8683 179.237 10.6166 179.336 10.4869C179.48 10.3115 179.732 10.1284 179.938 10.1284C180.121 10.1284 180.357 10.3344 180.479 10.5174C180.578 10.6623 180.555 10.8988 180.555 11.0971C180.555 15.4522 180.555 19.8073 180.555 24.1701C180.555 24.2006 180.555 24.2311 180.555 24.2616C180.555 24.8489 180.304 25.1769 179.884 25.1616C179.473 25.1464 179.252 24.8337 179.244 24.2693C179.244 22.0421 179.244 19.8226 179.244 17.5955H179.252Z" fill="white"/>
<path d="M205.667 48.6309C205.667 49.1877 205.247 49.4699 204.767 49.3021C204.493 49.203 204.241 49.0657 203.982 48.9437C200.102 47.1208 196.221 45.2902 192.341 43.4673C192.272 43.4368 192.204 43.4063 192.135 43.3682C191.701 43.147 191.541 42.8114 191.693 42.4529C191.846 42.1021 192.234 41.9876 192.669 42.1936C193.942 42.7809 195.207 43.3758 196.473 43.9783C199.347 45.3284 202.221 46.686 205.103 48.0436C205.407 48.1886 205.674 48.3411 205.667 48.6462V48.6309Z" fill="white"/>
<path d="M154.369 27.9307C154.628 28.0069 154.78 28.0451 154.925 28.0908C159.103 29.4485 163.288 30.8061 167.466 32.1638C167.481 32.1638 167.496 32.1638 167.511 32.179C168.076 32.3697 168.281 32.6824 168.129 33.1095C167.999 33.468 167.641 33.5824 167.123 33.4223C166.368 33.1782 165.621 32.9341 164.866 32.69C161.413 31.5688 157.952 30.44 154.498 29.3188C154.354 29.2731 154.148 29.2425 154.094 29.1434C153.972 28.9222 153.82 28.6324 153.873 28.4264C153.927 28.2205 154.224 28.0756 154.369 27.9383V27.9307Z" fill="white"/>
<path d="M203.158 36.061C202.975 36.0763 202.792 36.0991 202.609 36.1068C202.167 36.122 201.862 35.878 201.839 35.5042C201.816 35.1381 202.098 34.8407 202.533 34.8101C203.493 34.7415 204.446 34.6881 205.407 34.6271C208.708 34.4212 212.001 34.2152 215.302 34.0017C216.026 33.9559 216.362 34.1161 216.415 34.5661C216.461 35.0084 216.133 35.2601 215.424 35.3059C211.338 35.5576 207.244 35.8093 203.158 36.061C203.158 36.061 203.158 36.061 203.158 36.0534V36.061Z" fill="white"/>
<path d="M205.095 28.9752C205.095 29.3032 204.835 29.471 204.485 29.5854C202.053 30.371 199.629 31.1642 197.204 31.9498C195.672 32.4456 194.147 32.9566 192.607 33.4219C192.379 33.4905 192.028 33.4219 191.83 33.277C191.693 33.1778 191.632 32.7888 191.723 32.6287C191.838 32.4227 192.112 32.2549 192.348 32.171C194.803 31.3625 197.258 30.5693 199.712 29.7685C201.169 29.2956 202.632 28.815 204.088 28.3498C204.675 28.1667 205.087 28.3956 205.095 28.9752Z" fill="white"/>
<path d="M151.434 18.1523C151.693 18.2744 151.868 18.3278 152.013 18.4269C155.489 20.6236 158.958 22.8278 162.427 25.0321C162.861 25.3067 162.983 25.6804 162.777 26.0236C162.571 26.3592 162.175 26.405 161.733 26.1304C158.249 23.9185 154.765 21.7066 151.281 19.5024C150.976 19.3117 150.778 19.0447 150.915 18.7091C150.999 18.4956 151.251 18.343 151.434 18.16V18.1523Z" fill="white"/>
<path d="M164.112 59.4843C163.471 59.4843 163.174 59.0267 163.365 58.5843C163.418 58.4623 163.509 58.3555 163.586 58.2411C165.873 55.0834 168.167 51.9334 170.462 48.7757C170.546 48.6613 170.622 48.5469 170.721 48.4554C170.988 48.2266 171.285 48.2113 171.552 48.4325C171.804 48.6308 171.872 48.913 171.72 49.2105C171.659 49.3325 171.575 49.4469 171.499 49.5537C169.204 52.7114 166.917 55.869 164.615 59.0115C164.455 59.225 164.218 59.3776 164.104 59.4767L164.112 59.4843Z" fill="white"/>
<path d="M183.581 60.8496C183.581 61.2309 183.314 61.5208 182.971 61.5436C182.605 61.5665 182.331 61.3072 182.27 60.8496C182.14 59.8809 182.026 58.9199 181.904 57.9512C181.553 55.1292 181.195 52.3071 180.844 49.4774C180.783 49.0045 180.997 48.6765 181.386 48.6232C181.767 48.5698 182.072 48.852 182.133 49.3096C182.613 53.1156 183.093 56.9216 183.573 60.7199C183.573 60.7657 183.581 60.8114 183.589 60.8419L183.581 60.8496Z" fill="white"/>
<path d="M155.055 35.9773C151.838 35.7714 148.613 35.5654 145.396 35.3595C144.985 35.3366 144.573 35.329 144.169 35.2908C143.635 35.2375 143.361 34.9781 143.399 34.5815C143.429 34.1849 143.742 33.9561 144.268 33.9866C145.8 34.0781 147.34 34.1773 148.873 34.2764C151.106 34.4213 153.34 34.5663 155.573 34.7112C155.695 34.7188 155.817 34.7188 155.932 34.7646C156.26 34.8866 156.412 35.1383 156.351 35.4815C156.298 35.8095 156.077 35.9849 155.749 36.0002C155.52 36.0078 155.291 36.0002 155.063 36.0002C155.063 36.0002 155.063 35.9849 155.063 35.9773H155.055Z" fill="white"/>
<path d="M166.681 70.8871C166.208 70.8718 165.941 70.4218 166.139 69.9184C166.566 68.8125 167.008 67.7142 167.443 66.6082C168.358 64.3048 169.257 62.0014 170.195 59.7056C170.286 59.4844 170.508 59.2251 170.721 59.1564C171.247 58.9886 171.636 59.4996 171.43 60.0641C171.087 60.9717 170.713 61.8717 170.355 62.7794C169.372 65.2658 168.388 67.7523 167.405 70.2464C167.268 70.5896 167.108 70.8871 166.681 70.9023V70.8871Z" fill="white"/>
<path d="M197.898 5.35409C197.776 5.63629 197.723 5.81172 197.639 5.97189C196.122 8.74819 194.597 11.5169 193.073 14.2855C192.813 14.7584 192.432 14.9034 192.074 14.6898C191.731 14.4839 191.678 14.1254 191.944 13.6525C193.477 10.8686 195.009 8.08463 196.534 5.29307C196.709 4.97273 196.953 4.70577 197.327 4.84306C197.555 4.92696 197.723 5.18629 197.906 5.35409H197.898Z" fill="white"/>
<path d="M170.912 19.2967C170.775 19.4721 170.668 19.7391 170.485 19.8077C170.279 19.8764 169.997 19.8001 169.776 19.7086C169.646 19.6552 169.578 19.4493 169.494 19.3043C168.038 16.6501 166.582 14.0034 165.118 11.3492C165.049 11.2271 164.981 11.1127 164.935 10.9831C164.806 10.6475 164.912 10.3729 165.21 10.1974C165.507 10.022 165.797 10.0754 166.033 10.3424C166.109 10.4339 166.163 10.5483 166.223 10.6551C167.695 13.3322 169.166 16.0094 170.637 18.6942C170.729 18.862 170.797 19.0526 170.912 19.3043V19.2967Z" fill="white"/>
<path d="M186.227 54.4883C186.364 54.3434 186.509 54.0536 186.714 54.0002C186.92 53.9468 187.21 54.0917 187.423 54.2137C187.53 54.2747 187.568 54.473 187.622 54.6103C188.735 57.4248 189.848 60.2316 190.961 63.046C190.991 63.1299 191.029 63.2138 191.06 63.2977C191.189 63.7096 191.06 64.0528 190.732 64.1825C190.374 64.3274 190.015 64.1825 189.855 63.7554C188.681 60.8036 187.515 57.8443 186.349 54.8925C186.31 54.7934 186.288 54.6942 186.227 54.4654V54.4883Z" fill="white"/>
<path d="M200.315 15.8874C200.178 16.1162 200.109 16.3069 199.979 16.4441C197.967 18.6026 195.939 20.7535 193.919 22.9044C193.599 23.24 193.187 23.2781 192.913 23.0112C192.638 22.7442 192.646 22.3705 192.958 22.0349C194.986 19.8688 197.014 17.695 199.072 15.5518C199.232 15.384 199.598 15.323 199.842 15.3687C200.018 15.3992 200.147 15.6891 200.315 15.8874Z" fill="white"/>
<path d="M158.668 34.9016C160.91 35.0389 162.975 35.1762 165.041 35.2982C165.834 35.344 166.619 35.3973 167.412 35.4431C167.74 35.4584 168.014 35.5651 168.129 35.9007C168.281 36.366 167.946 36.7779 167.412 36.7474C165.484 36.6329 163.555 36.5109 161.626 36.3889C160.833 36.3431 160.048 36.2897 159.255 36.2363C159.072 36.2211 158.889 36.2287 158.706 36.1982C158.249 36.1296 158.036 35.8626 158.081 35.4584C158.127 35.0999 158.401 34.8939 158.661 34.9016H158.668Z" fill="white"/>
<path d="M200.307 63.9919C200.155 64.1826 200.04 64.4496 199.857 64.5182C199.652 64.5868 199.369 64.5106 199.148 64.4267C199.026 64.3809 198.95 64.2055 198.859 64.0834C197.319 61.9707 195.786 59.8503 194.247 57.7376C194.155 57.6156 194.01 57.4783 194.018 57.3562C194.033 57.1046 194.056 56.7537 194.216 56.6469C194.399 56.5249 194.734 56.5783 194.994 56.6317C195.108 56.6545 195.199 56.8452 195.283 56.9673C196.831 59.0953 198.378 61.2232 199.918 63.3512C200.048 63.5343 200.147 63.7402 200.3 63.9995L200.307 63.9919Z" fill="white"/>
<path d="M186.86 25.1617C186.173 25.154 185.914 24.6125 186.204 24.0786C186.936 22.7286 187.683 21.3786 188.422 20.0362C188.948 19.0752 189.474 18.1141 190.008 17.1531C190.26 16.6955 190.618 16.5582 190.976 16.7489C191.327 16.9395 191.388 17.3209 191.136 17.7862C189.878 20.0819 188.621 22.3777 187.34 24.6659C187.21 24.8947 186.966 25.0549 186.852 25.1617H186.86Z" fill="white"/>
<path d="M154.697 49.4163C154.529 49.2638 154.247 49.1265 154.201 48.9358C154.148 48.7146 154.285 48.44 154.392 48.2112C154.438 48.1121 154.621 48.0739 154.743 48.0129C156.999 46.9527 159.256 45.8849 161.52 44.8324C161.672 44.7637 161.863 44.6493 161.985 44.6951C162.221 44.779 162.511 44.9163 162.595 45.1146C162.671 45.29 162.534 45.5951 162.412 45.7934C162.343 45.9154 162.137 45.9688 161.985 46.0375C159.766 47.0824 157.556 48.1273 155.337 49.1646C155.162 49.2485 154.971 49.3095 154.697 49.4163Z" fill="white"/>
<path d="M175.699 49.1572C175.623 49.4089 175.585 49.5615 175.532 49.6988C174.632 51.9717 173.733 54.2522 172.81 56.5175C172.719 56.7387 172.498 56.998 172.284 57.0667C171.75 57.2345 171.377 56.7006 171.598 56.1056C171.933 55.2209 172.292 54.3514 172.642 53.4742C173.199 52.0785 173.748 50.6751 174.304 49.2793C174.358 49.142 174.396 48.9437 174.51 48.8827C174.716 48.7606 174.99 48.6157 175.189 48.6691C175.402 48.7301 175.554 49.0047 175.707 49.1572H175.699Z" fill="white"/>
<path d="M199.438 35.0164C199.903 34.9935 200.224 35.2452 200.231 35.6342C200.239 36.008 199.957 36.2749 199.469 36.313C197.906 36.4198 196.343 36.5113 194.78 36.6029C194.003 36.6486 193.233 36.6944 192.455 36.7478C191.99 36.7783 191.701 36.5724 191.663 36.191C191.617 35.7715 191.868 35.4817 192.341 35.4512C194.712 35.2986 197.075 35.1613 199.446 35.0088L199.438 35.0164Z" fill="white"/>
<path d="M182.704 64.2359C182.697 63.7402 182.91 63.4656 183.268 63.4275C183.634 63.3893 183.916 63.6181 183.97 64.0453C184.214 65.9139 184.45 67.7826 184.694 69.6512C184.74 70.025 184.801 70.4063 184.831 70.7801C184.862 71.1691 184.671 71.4208 184.282 71.497C183.955 71.5657 183.611 71.3292 183.558 70.9555C183.261 68.6978 182.986 66.4326 182.704 64.2359Z" fill="white"/>
<path d="M188.644 48.1885C188.873 48.3563 189.094 48.4478 189.216 48.6156C190.382 50.1944 191.533 51.7809 192.677 53.375C192.936 53.7411 192.898 54.1224 192.6 54.3436C192.288 54.5724 191.891 54.4886 191.617 54.1148C190.481 52.5589 189.338 50.9953 188.225 49.4165C188.087 49.2181 188.057 48.8749 188.118 48.6309C188.156 48.4631 188.43 48.3563 188.644 48.1885Z" fill="white"/>
<path d="M145.892 25.1772C145.976 25.2 146.121 25.2305 146.265 25.2763C147.988 25.8331 149.703 26.3899 151.426 26.9467C151.495 26.9695 151.571 26.9924 151.64 27.0229C152.006 27.1831 152.151 27.4729 152.021 27.839C151.891 28.1975 151.594 28.3577 151.213 28.2357C149.345 27.6331 147.485 27.0306 145.625 26.4204C145.282 26.306 145.099 26.0467 145.168 25.6805C145.236 25.345 145.465 25.1619 145.892 25.1772Z" fill="white"/>
<path d="M158.836 66.6539C158.608 66.4785 158.341 66.3793 158.287 66.2115C158.211 65.9979 158.226 65.6776 158.341 65.4945C158.79 64.8081 159.294 64.1522 159.774 63.4886C160.308 62.7488 160.849 62.0089 161.39 61.2691C161.703 60.8419 162.069 60.7504 162.396 60.9869C162.724 61.2309 162.747 61.6047 162.434 62.0318C161.436 63.4123 160.437 64.8005 159.423 66.1657C159.294 66.3412 159.073 66.4556 158.836 66.6386V66.6539Z" fill="white"/>
<path d="M179.251 3.56174C179.251 2.76851 179.251 1.97529 179.251 1.18206C179.251 0.655779 179.503 0.381199 179.922 0.388827C180.318 0.396454 180.555 0.671033 180.555 1.17443C180.555 2.74563 180.555 4.30921 180.555 5.88042C180.555 6.41432 180.318 6.69653 179.907 6.70415C179.495 6.70415 179.251 6.41432 179.251 5.89567C179.251 5.11769 179.251 4.33972 179.251 3.56174Z" fill="white"/>
<path d="M207.931 49.4087C208.182 49.5002 208.327 49.546 208.464 49.607C209.905 50.2858 211.354 50.957 212.795 51.6435C213.275 51.8723 213.443 52.2003 213.267 52.574C213.099 52.9401 212.726 53.0392 212.261 52.8257C210.79 52.1392 209.318 51.4452 207.847 50.7587C207.481 50.5909 207.275 50.3011 207.428 49.9197C207.512 49.7062 207.778 49.5612 207.931 49.4087Z" fill="white"/>
<path d="M206.078 9.77032C205.941 9.99913 205.865 10.1898 205.735 10.3271C204.615 11.5322 203.494 12.7297 202.366 13.9195C202.038 14.2704 201.649 14.3085 201.367 14.0416C201.093 13.7822 201.108 13.3704 201.428 13.0271C202.549 11.8297 203.677 10.6322 204.805 9.43472C205.042 9.18302 205.331 9.07624 205.621 9.23641C205.812 9.33556 205.926 9.57964 206.086 9.77032H206.078Z" fill="white"/>
<path d="M152.684 50.1564C152.607 50.2479 152.485 50.492 152.295 50.5835C150.793 51.3157 149.276 52.0251 147.759 52.7268C147.378 52.9022 147.019 52.7725 146.875 52.4369C146.722 52.1013 146.844 51.7429 147.218 51.5598C148.727 50.8428 150.236 50.1259 151.761 49.4318C152.226 49.2183 152.706 49.5386 152.691 50.1564H152.684Z" fill="white"/>
<path d="M208.015 28.3879C207.694 28.3879 207.473 28.2354 207.397 27.8998C207.328 27.5642 207.443 27.282 207.771 27.1523C208.152 26.9998 208.548 26.8854 208.937 26.7634C210.096 26.3896 211.247 26.0083 212.406 25.6498C212.832 25.5125 213.191 25.6803 213.29 26.0388C213.381 26.3744 213.29 26.6871 212.962 26.8015C211.369 27.343 209.76 27.854 208.159 28.3727C208.114 28.3879 208.068 28.3803 208.015 28.3879Z" fill="white"/>
<path d="M162.403 4.16406C162.495 4.24033 162.747 4.36237 162.853 4.56068C163.486 5.66662 164.096 6.78782 164.706 7.90139C164.912 8.29038 164.812 8.67937 164.492 8.84717C164.164 9.02259 163.791 8.90056 163.577 8.5192C162.96 7.42088 162.358 6.31494 161.755 5.20899C161.473 4.69034 161.725 4.18694 162.403 4.16406Z" fill="white"/>
<path d="M192.006 66.3564C192.089 66.4403 192.333 66.5776 192.425 66.7835C192.875 67.8437 193.294 68.9191 193.706 70.0022C193.843 70.3683 193.713 70.6658 193.355 70.8259C193.027 70.9785 192.669 70.8488 192.524 70.4903C192.074 69.4073 191.64 68.3242 191.236 67.2259C191.053 66.7378 191.373 66.3335 192.013 66.3564H192.006Z" fill="white"/>
<path d="M164.622 26.5272C164.881 26.6416 165.057 26.7026 165.209 26.7941C166.086 27.3433 166.963 27.9001 167.832 28.4568C168.266 28.739 168.381 29.1052 168.152 29.4484C167.931 29.7763 167.58 29.8221 167.153 29.5552C166.238 28.9831 165.316 28.4187 164.432 27.8009C164.249 27.6712 164.111 27.3051 164.142 27.0763C164.172 26.8704 164.462 26.7026 164.637 26.5195L164.622 26.5272Z" fill="white"/>
<path d="M164.63 44.7486C164.455 44.5732 164.173 44.413 164.127 44.2147C164.081 44.0012 164.203 43.6122 164.371 43.5207C165.339 43.0096 166.33 42.5596 167.329 42.1173C167.641 41.98 167.946 42.1173 168.099 42.4223C168.243 42.7274 168.213 43.0707 167.9 43.2232C166.909 43.719 165.903 44.1766 164.897 44.6419C164.843 44.6647 164.775 44.6571 164.714 44.6647C164.683 44.6876 164.661 44.7181 164.63 44.741V44.7486Z" fill="white"/>
<path d="M173.808 24.605C173.64 24.7728 173.495 25.0474 173.297 25.0856C173.076 25.1313 172.695 25.0398 172.596 24.8796C172.077 24.0406 171.62 23.1635 171.163 22.2864C171.01 21.9889 171.155 21.7143 171.422 21.5465C171.696 21.3711 172.039 21.3711 172.199 21.6457C172.733 22.5304 173.206 23.4457 173.701 24.3533C173.732 24.3991 173.716 24.4754 173.724 24.5364C173.747 24.5593 173.777 24.5898 173.8 24.6127L173.808 24.605Z" fill="white"/>
<path d="M184.977 48.6232C185.068 48.7148 185.312 48.852 185.411 49.058C185.724 49.7673 185.998 50.4919 186.273 51.2165C186.418 51.5902 186.288 51.8953 185.93 52.0402C185.579 52.1851 185.251 52.0783 185.091 51.7046C184.786 50.98 184.481 50.2402 184.215 49.5004C184.047 49.0351 184.375 48.5927 184.977 48.6156V48.6232Z" fill="white"/>
<path d="M191.929 24.5973C191.936 25.1312 190.755 26.4584 190.358 26.4355C190.152 26.4202 189.87 26.2829 189.771 26.1151C189.672 25.9473 189.68 25.6041 189.794 25.4516C190.122 25.0168 190.503 24.6126 190.922 24.2617C191.067 24.1397 191.395 24.1397 191.586 24.2083C191.761 24.277 191.86 24.5211 191.929 24.5973Z" fill="white"/>
</g>
<defs>
<clipPath id="clip0_549_274">
<rect width="216" height="73" fill="white" transform="translate(0.422852 0.388672)"/>
</clipPath>
</defs>
</svg>
