<svg width="89" height="89" viewBox="0 0 89 89" fill="none" xmlns="http://www.w3.org/2000/svg">
<g opacity="0.7" clip-path="url(#clip0_549_369)">
<path d="M2.46466 0.902432C3.97161 0.909957 5.48234 0.996493 6.98552 0.902432C8.16011 0.830945 8.77195 1.24105 9.25916 2.32088C11.6272 7.56197 14.0822 12.7654 16.5069 17.9802C16.692 18.3753 16.8846 18.7703 17.0847 19.1616C17.3114 19.6093 17.5077 19.4664 17.6739 19.1127C17.9156 18.6048 18.1611 18.1006 18.3953 17.5889C20.7483 12.4757 23.1201 7.37385 25.4277 2.24186C25.8659 1.26363 26.3606 0.744409 27.5163 0.864807C29.5634 1.07927 31.6482 0.560049 33.6801 1.15452H33.7065C33.2798 1.21472 32.9361 1.47809 32.4753 1.527C30.2394 1.75651 29.9146 2.01612 29.8353 4.30745C29.6351 10.1769 29.6389 16.0538 29.8353 21.9233C29.9108 24.1732 30.1639 24.3237 32.4904 24.7225C32.8303 24.779 33.3364 24.6736 33.242 25.2493C33.1778 25.6556 32.7548 25.5615 32.464 25.5653C29.4501 25.5728 26.4399 25.5766 23.426 25.5653C23.1352 25.5653 22.7084 25.6481 22.6556 25.238C22.58 24.6623 23.0861 24.779 23.426 24.7225C25.6279 24.3463 26.0698 24.049 26.0849 22.1001C26.1302 16.795 26.2662 11.4862 26.0094 6.18115C26.1416 6.06828 26.2171 5.89144 26.0811 5.78986C25.8961 5.65065 25.8621 5.86134 25.813 5.98927C24.1096 8.97665 22.8708 12.186 21.3903 15.2825C19.9325 18.3339 18.569 21.4304 17.149 24.4968C16.9714 24.8768 16.8959 25.4374 16.386 25.4825C15.7138 25.5427 15.6798 24.8655 15.4871 24.4516C12.8132 18.7176 10.1618 12.9761 7.50672 7.2384C7.34809 6.89602 7.20457 6.54987 7.03462 6.21501C6.98552 6.11719 6.88732 5.99303 6.79668 5.97798C6.49453 5.92531 6.58517 6.19996 6.56629 6.33918C6.5323 6.5875 6.5474 6.83958 6.5474 7.0879C6.5474 11.9753 6.5323 16.859 6.55118 21.7464C6.55874 24.1055 6.77779 24.3199 9.17985 24.73C9.51221 24.7865 10.0296 24.6586 9.93522 25.2493C9.87101 25.6631 9.44801 25.5653 9.16097 25.5691C6.77024 25.5804 4.37951 25.5766 1.99255 25.5766C1.68663 25.5766 1.27118 25.6217 1.2523 25.2079C1.22208 24.651 1.71685 24.779 2.06431 24.7225C4.2662 24.3839 4.70054 23.9851 4.71565 21.8819C4.75341 16.1178 4.73075 10.3575 4.73075 4.5934C4.73075 3.02069 4.22088 1.68878 2.37779 1.55334C2.40801 1.33888 2.43822 1.12065 2.46843 0.906194L2.46466 0.902432Z" fill="white"/>
<path d="M53.0179 74.1688C56.096 74.1462 59.1779 74.1538 62.256 74.0823C63.068 74.0635 63.5137 74.4435 63.9707 75.0041C66.267 77.8259 68.5822 80.6365 70.8974 83.4433C71.124 83.7179 71.3204 84.2409 71.683 84.1431C72.2495 83.985 71.9322 83.4019 71.9398 83.0181C71.97 80.9525 71.9398 78.8832 71.9587 76.8138C71.9662 75.7641 71.9889 74.7407 70.5462 74.6316C70.3989 74.6203 70.1496 74.6128 70.1874 74.3231C70.2251 74.0484 70.4555 74.1161 70.6066 74.1161C71.5508 74.1011 72.495 74.0936 73.4392 74.1086C73.9377 74.1161 74.4325 74.1726 74.931 74.2064C74.8404 74.9476 74.1455 74.6053 73.7678 74.8348C73.0313 75.2863 73.1068 75.9823 73.1031 76.6633C73.0955 80.0458 73.1031 83.432 73.1031 86.8144C73.1031 87.1907 73.1182 87.5669 73.0955 87.9431C73.0766 88.2253 73.2088 88.6053 72.7783 88.7069C72.495 88.7747 72.3288 88.5527 72.1702 88.3645C71.8492 87.9808 71.5244 87.597 71.2071 87.2095C68.8164 84.3011 66.4332 81.389 64.0349 78.4843C63.8574 78.2661 63.695 77.8673 63.3286 78.0592C63.2002 78.1269 63.1927 78.4994 63.1927 78.7364C63.1851 81.3062 63.1889 83.8759 63.1927 86.4419C63.1927 87.3487 63.4193 88.0635 64.5297 88.0936C64.7487 88.1012 65.0811 88.0936 65.0169 88.4737C64.9565 88.8311 64.6279 88.722 64.4164 88.7257C63.2229 88.7446 62.0256 88.737 60.8322 88.7333C60.5942 88.7333 60.2959 88.7972 60.1977 88.5038C60.0692 88.12 60.4167 88.0936 60.6358 88.0899C61.9803 88.0673 62.0936 87.1493 62.0936 86.1409C62.0936 83.1347 62.1201 80.1248 62.0823 77.1186C62.0596 75.1847 59.4876 73.8603 57.7654 74.8235C57.1611 75.1621 57.0818 75.7152 57.078 76.2645C57.0553 79.7109 57.0629 83.1573 57.0704 86.6037C57.0704 87.597 57.5954 88.0899 58.5887 88.1162C58.7662 88.12 58.94 88.2103 58.9249 88.4548C58.9098 88.7333 58.6794 88.6844 58.517 88.7182C58.3961 88.7446 58.2677 88.7333 58.1393 88.7333C54.5362 88.7333 50.9331 88.7333 47.3262 88.722C47.0392 88.722 46.62 88.8725 46.518 88.4887C46.3971 88.0259 46.8768 88.1087 47.1336 88.0109C47.8512 87.74 47.8286 87.2057 47.6284 86.6225C47.466 86.1485 47.2092 85.7007 47.0921 85.2191C46.8164 84.1167 46.1516 83.7179 45.0375 83.8609C44.4181 83.9399 43.7798 83.8759 43.1528 83.8759C40.9585 83.8759 40.0596 84.6736 39.7386 86.8219C39.6328 87.5255 39.8783 87.898 40.5544 88.0334C40.7923 88.0824 41.1247 88.1049 41.1096 88.3984C41.0832 88.8649 40.6601 88.7182 40.3844 88.722C39.3156 88.737 38.2468 88.7295 37.1741 88.722C36.9928 88.722 36.7813 88.7144 36.7398 88.4737C36.702 88.2667 36.7927 88.12 37.0042 88.0598C38.2921 87.6948 38.5753 86.5209 39.0248 85.5126C40.5468 82.0775 42.0274 78.6236 43.5381 75.1809C43.7496 74.6993 43.7798 73.913 44.437 73.9355C44.9582 73.9543 44.9884 74.688 45.1772 75.132C46.7144 78.7665 48.2213 82.4123 49.7812 86.0393C50.6347 88.0222 51.7149 88.5038 53.5542 88.1049C54.506 87.898 54.827 87.3487 54.8346 86.536C54.8648 83.0896 54.8459 79.6432 54.861 76.2005C54.8686 74.9251 53.913 74.7369 52.9953 74.4849C53.033 74.387 53.0443 74.2817 53.033 74.1763L53.0179 74.1688ZM43.8176 82.8939C44.0706 82.8939 44.3199 82.8977 44.5729 82.8939C46.0421 82.8563 46.0572 82.8488 45.4869 81.4266C45.045 80.3204 44.5465 79.2406 44.1046 78.1344C43.8931 77.6077 43.6929 77.555 43.455 78.093C43.0698 78.9509 42.7223 79.8238 42.3257 80.6741C41.1738 83.1648 41.3966 82.8864 43.8213 82.8902L43.8176 82.8939Z" fill="white"/>
<path d="M35.3087 0.894789C37.8279 0.894789 40.347 0.894789 42.8662 0.898551C42.8926 1.11301 42.919 1.32747 42.9492 1.54193C41.5292 1.73758 41.0571 2.79859 41.0608 3.96871C41.0835 9.15713 40.6378 14.3568 41.363 19.5265C41.752 22.3031 43.3534 23.8194 46.1671 24.2972C51.1978 25.1476 54.8765 22.2317 54.9935 17.1712C55.088 12.9798 55.0426 8.78465 55.0275 4.58952C55.02 2.15897 54.7783 1.91818 52.2931 1.50431C52.0665 1.46668 51.7379 1.53441 51.7115 1.21836C51.6813 0.864689 52.0212 0.887264 52.2516 0.887264C54.7669 0.875977 57.2785 0.879739 59.7939 0.875977C59.9941 0.875977 60.1829 0.924888 60.2244 1.12806C60.2962 1.51559 59.9714 1.45916 59.7448 1.50431C57.2596 2.01224 56.8782 2.43739 56.8555 4.97329C56.8215 8.85238 56.8253 12.7352 56.8215 16.6143C56.8215 17.6227 56.6969 18.6122 56.5043 19.5979C55.8886 22.7358 53.9587 24.7224 50.9448 25.5953C48.4294 26.3252 45.8347 26.2612 43.3005 25.6442C40.0335 24.8503 37.9147 22.3257 37.5748 18.9922C37.1367 14.6842 37.4011 10.3611 37.3293 6.04559C37.318 5.29686 37.3029 4.54437 37.2614 3.79564C37.1896 2.52393 36.6533 1.63975 35.2559 1.51559L35.3125 0.891026L35.3087 0.894789Z" fill="white"/>
<path d="M77.7068 50.74C75.2518 50.74 72.8007 50.7437 70.3457 50.7362C69.9983 50.7362 69.4733 50.8566 69.4468 50.3449C69.428 49.9724 69.9001 50.0665 70.1909 50.0063C72.1737 49.5999 72.4607 49.3102 72.4721 47.2522C72.5023 42.3647 72.5023 37.4773 72.4721 32.5899C72.457 30.2421 72.3512 30.1669 70.0398 29.6928C69.7981 29.6439 69.4846 29.6514 69.4619 29.3542C69.4242 28.8726 69.851 28.9554 70.1229 28.9554C75.1574 28.9441 80.1881 28.9478 85.2226 28.9554C85.6607 28.9554 86.1782 28.9065 86.2197 29.5273C86.3028 30.7764 86.3481 32.0293 86.3897 33.2784C86.3972 33.5343 86.2915 33.7976 85.978 33.7638C85.8307 33.7487 85.6041 33.5681 85.5852 33.4402C85.1395 30.1782 82.711 30.3098 80.3203 30.3512C79.2515 30.37 78.1751 30.434 77.1138 30.3324C75.8863 30.2158 75.6295 30.735 75.6786 31.8412C75.7617 33.6547 75.7504 35.4757 75.6786 37.2892C75.6408 38.3163 75.909 38.7904 77.0307 38.7114C78.2204 38.6249 79.4214 38.7227 80.6149 38.6625C82.5789 38.5647 82.9074 38.2862 83.5306 36.3749C83.625 36.089 83.5722 35.6601 83.9498 35.645C84.3615 35.6262 84.354 36.0288 84.354 36.3411C84.354 38.4104 84.354 40.476 84.3464 42.5453C84.3464 42.7861 84.3389 43.0796 84.014 43.1172C83.6968 43.1511 83.6515 42.8802 83.5571 42.6469C82.4807 39.9869 82.4391 39.9342 79.648 39.9681C78.4055 39.9831 76.8419 39.43 76.0034 40.2089C75.1423 41.0027 75.7806 42.5792 75.7201 43.8095C75.6597 45.0587 75.739 46.3153 75.6975 47.5682C75.6635 48.7195 76.0865 49.3441 77.3291 49.3178C79.0286 49.2801 80.7244 49.3065 82.424 49.2914C84.1802 49.2764 85.3359 48.2643 86.2764 46.9361C86.6012 46.4771 86.858 45.9692 87.1753 45.5026C87.3112 45.307 87.5001 45.0812 87.7946 45.2204C88.093 45.3597 88.0024 45.608 87.9231 45.8488C87.4623 47.2145 86.9826 48.5728 86.5521 49.9461C86.3066 50.7287 85.7363 50.755 85.0716 50.7513C82.6166 50.7324 80.1655 50.7437 77.7105 50.7437L77.7068 50.74Z" fill="white"/>
<path d="M58.0378 50.7398C55.6471 50.7398 53.2563 50.7436 50.8694 50.7323C50.5181 50.7323 49.9818 50.8941 49.8987 50.4426C49.7892 49.8594 50.3746 50.0701 50.6843 50.0024C52.5274 49.6035 52.7993 49.3703 52.8144 47.5191C52.8522 42.4474 52.856 37.3718 52.8182 32.3C52.8031 30.1855 52.6596 30.0952 50.5181 29.6889C50.2235 29.6324 49.8005 29.6814 49.8761 29.2336C49.944 28.8386 50.3633 28.9477 50.6465 28.9477C53.5396 28.9401 56.4326 28.9477 59.3257 28.9477C61.2745 28.9477 63.2271 29.0192 65.1722 28.9213C66.3657 28.8611 66.7736 29.3089 66.6716 30.4188C66.6489 30.6671 66.7396 30.9305 66.6867 31.1675C66.5054 32.0291 67.2986 33.3309 66.3317 33.6545C65.735 33.8539 65.8105 32.3226 65.361 31.6679C64.8701 30.9493 64.2469 30.4677 63.3593 30.4489C61.2216 30.4037 59.084 30.3925 56.9463 30.3473C56.3193 30.336 56.0398 30.5806 56.0436 31.2202C56.0587 33.4137 56.0663 35.6034 56.0398 37.797C56.0285 38.5946 56.4704 38.7075 57.12 38.6924C58.3777 38.6661 59.6354 38.7112 60.8931 38.6623C62.9552 38.5795 63.2498 38.3312 63.9372 36.292C64.0278 36.0211 63.9447 35.6072 64.4093 35.6486C64.7492 35.6787 64.7228 35.9947 64.7228 36.2318C64.7265 38.3613 64.7228 40.4909 64.7152 42.6204C64.7152 42.8951 64.5981 43.1359 64.3073 43.1095C64.1789 43.0983 63.9825 42.865 63.9712 42.722C63.737 39.998 61.8146 39.8324 59.7336 39.9566C58.559 40.0281 57.0558 39.4261 56.2967 40.235C55.5526 41.0251 56.0927 42.5075 56.0587 43.6814C56.021 45.0585 56.0625 46.4355 56.0852 47.8126C56.1003 48.7946 56.5762 49.3138 57.6034 49.3025C59.3634 49.2837 61.1272 49.3176 62.8872 49.2724C64.2922 49.2348 65.4253 48.5952 66.2486 47.4627C66.7283 46.808 67.1475 46.1082 67.6045 45.4347C67.7593 45.209 67.9973 45.0961 68.2503 45.2278C68.4278 45.3219 68.4316 45.5401 68.3674 45.7244C67.8575 47.2031 67.3514 48.6817 66.8302 50.1604C66.5772 50.879 65.9427 50.736 65.395 50.736C62.9439 50.7436 60.4889 50.736 58.0378 50.736V50.7398Z" fill="white"/>
<path d="M46.257 32.3304C46.257 33.3312 46.2608 34.3358 46.2495 35.3366C46.2495 35.5736 46.2608 35.8709 45.9133 35.901C45.5999 35.9273 45.5054 35.6827 45.4412 35.4344C45.2788 34.8287 45.1618 34.2079 44.9465 33.6247C44.0325 31.1151 41.3925 29.5311 38.8431 29.9224C37.3286 30.1557 36.2673 30.9947 35.833 32.4282C35.41 33.8278 36.2107 34.8249 37.2644 35.6376C38.7109 36.7588 40.3463 37.5715 41.9364 38.4594C42.8692 38.9786 43.8097 39.4903 44.6897 40.0923C47.2239 41.8306 48.1643 44.1595 47.4203 46.6992C46.6876 49.205 44.3271 50.9696 41.502 51.1916C39.6929 51.3345 38.0122 50.868 36.3391 50.3036C35.4364 49.9989 34.5564 49.5737 34.005 50.8981C33.8048 51.3797 33.3214 51.1916 33.3139 50.6799C33.2874 48.4901 33.3139 46.2966 33.329 44.1069C33.329 43.9075 33.4612 43.7156 33.6387 43.7269C33.7897 43.7344 34.0126 43.8811 34.0579 44.0166C34.2392 44.5508 34.3374 45.1077 34.5073 45.6457C35.5082 48.8137 39.0886 50.6122 42.2234 49.5248C44.7274 48.6594 45.4299 45.8978 43.6397 43.9263C42.9108 43.1211 41.9439 42.647 41.0224 42.1052C39.3455 41.1195 37.6157 40.209 36.0067 39.1216C33.3516 37.3307 32.4414 34.8437 33.3743 32.3417C34.3185 29.7983 37.0794 28.2143 40.0555 28.4814C41.2603 28.5905 42.4009 28.9216 43.4962 29.4183C44.2667 29.7682 44.9465 29.8923 45.3884 28.9592C45.4979 28.7297 45.6339 28.5002 45.936 28.5642C46.3817 28.6582 46.2495 29.042 46.257 29.328C46.2721 30.3288 46.2646 31.3333 46.2608 32.3342L46.257 32.3304Z" fill="white"/>
<path d="M55.4581 59.7321C55.4581 58.1669 55.477 56.6055 55.4506 55.0403C55.4355 54.1411 55.1333 53.4413 54.0494 53.4112C53.8416 53.4037 53.5206 53.4451 53.5508 53.065C53.5735 52.7979 53.8114 52.8054 53.9776 52.8054C55.8018 52.7904 57.626 52.7904 59.4502 52.7866C59.6504 52.7866 59.843 52.8318 59.8883 53.0387C59.9714 53.43 59.6353 53.4074 59.42 53.4149C58.1321 53.4526 57.9017 54.2878 57.9055 55.3338C57.9206 58.0879 57.8753 60.8458 57.9508 63.5999C57.9924 65.15 58.3738 66.6625 60.0394 67.2909C61.8636 67.9794 63.6312 67.7348 65.2061 66.5346C65.9388 65.974 66.3165 65.2065 66.4222 64.2847C66.7697 61.2258 66.6904 58.1594 66.5733 55.093C66.5355 54.0922 66.1616 53.3999 65.0097 53.3961C64.8586 53.3961 64.5791 53.2419 64.5791 53.1591C64.5791 52.8506 64.8397 52.7941 65.1041 52.7941C68.9036 52.7941 72.7031 52.7941 76.5026 52.7941C76.7783 52.7941 77.02 52.8807 77.0238 53.1742C77.0238 53.2532 76.733 53.4037 76.5706 53.4074C75.158 53.4413 74.9994 54.4007 74.9956 55.4843C74.9956 58.8028 75.0145 62.125 74.9843 65.4435C74.973 66.6588 75.0296 67.7537 76.6121 67.8853C76.7934 67.9004 77.0011 67.9794 76.9936 68.1939C76.986 68.604 76.6272 68.461 76.4308 68.461C74.6708 68.4798 72.907 68.476 71.147 68.461C70.9846 68.461 70.7165 68.3933 70.6825 68.2955C70.5654 67.938 70.9053 67.8929 71.1206 67.8741C72.4727 67.7612 72.6842 66.862 72.6804 65.752C72.6653 62.3056 72.6955 58.863 72.6653 55.4166C72.654 53.8589 71.7778 53.0989 70.1726 53.1252C68.6317 53.1516 67.7781 53.8815 67.7441 55.3639C67.6912 57.7418 67.7517 60.1234 67.7177 62.505C67.6384 67.7348 63.2006 70.4513 58.404 68.2089C56.7309 67.4263 55.764 66.0756 55.6507 64.2433C55.5601 62.7458 55.6318 61.2409 55.6318 59.7359C55.5714 59.7359 55.5148 59.7359 55.4543 59.7359L55.4581 59.7321Z" fill="white"/>
<path d="M51.1895 72.9009C48.3266 72.408 45.8113 71.1814 43.6434 69.2776C42.9182 68.638 42.0458 68.2956 41.2375 67.8215C38.1632 66.0193 36.7129 62.6482 37.4343 58.9384C38.1179 55.428 40.6106 53.0088 44.1721 52.5498C47.1369 52.1697 49.4597 53.3813 51.1517 55.7554C54.0183 59.7737 52.7077 65.455 48.3833 67.9758C47.4391 68.5251 47.3132 69.2262 48.0056 70.079C48.8592 71.1287 49.8978 71.9038 51.2197 72.265C51.2083 72.4757 51.197 72.6902 51.1857 72.9009H51.1895ZM49.7996 60.861C49.826 59.2808 49.6749 57.7382 49.0102 56.2746C48.2095 54.51 46.865 53.5129 44.901 53.5017C42.9144 53.4904 41.5019 54.5138 40.8296 56.3009C39.7041 59.277 39.7117 62.3096 40.992 65.2593C41.7323 66.9675 43.1033 67.8893 44.9955 67.8629C46.9556 67.8366 48.3115 66.8396 49.116 65.0863C49.7354 63.7431 49.8298 62.3096 49.7996 60.861Z" fill="white"/>
<path d="M4.4515 68.461C3.6357 68.461 2.81991 68.4723 2.00412 68.461C1.44515 68.4534 0.50094 68.5927 0.395189 68.3594C0.0326137 67.573 1.14678 67.8439 1.39227 67.3398C1.62643 66.8657 1.72085 66.3954 1.72463 65.9025C1.73596 62.4034 1.73596 58.9043 1.72463 55.4015C1.72463 54.5023 1.65287 53.603 0.478279 53.4112C0.270554 53.3773 0.142142 53.2607 0.172356 53.0462C0.206348 52.8129 0.406519 52.7791 0.59536 52.7866C3.78678 52.8882 7.00841 52.4781 10.1545 53.2832C13.1306 54.047 15.0681 56.6619 15.223 59.9691C15.393 63.63 13.7198 66.5007 10.7626 67.7085C8.72309 68.54 6.5854 68.4534 4.45527 68.461H4.4515ZM4.04738 60.7103C4.04738 62.5238 4.05493 64.3411 4.0436 66.1546C4.0436 66.7641 4.10781 67.2344 4.88206 67.3548C9.19897 68.0283 11.6577 65.7257 12.3073 62.4749C12.5301 61.3612 12.5188 60.2363 12.3526 59.1113C11.8465 55.6536 9.00635 53.4826 5.52789 53.8438C4.49682 53.9492 3.95296 54.2728 4.01716 55.4542C4.11536 57.2 4.0436 58.957 4.0436 60.7103H4.04738Z" fill="white"/>
<path d="M77.7373 81.2648C77.7373 79.7636 77.7222 78.2586 77.7448 76.7574C77.7637 75.7001 77.7713 74.6918 76.3134 74.6203C76.1586 74.6128 75.9018 74.5902 75.9584 74.308C76.0075 74.071 76.2266 74.1086 76.389 74.1086C79.6559 74.1011 82.9229 74.1086 86.1936 74.1011C86.6959 74.1011 87.0547 74.2328 87.0812 74.8084C87.1152 75.4969 87.168 76.1817 87.1718 76.8702C87.1718 77.017 86.9943 77.1637 86.8961 77.3104C86.8092 77.2277 86.677 77.1599 86.6468 77.0584C85.6082 73.7135 82.8133 75.4029 80.7474 75.0379C80.1847 74.9401 80.0412 75.4405 80.0336 75.9183C80.0261 76.4827 79.977 77.0508 80.0336 77.6077C80.1242 78.5671 79.5313 79.9329 80.4037 80.3957C81.4499 80.9525 82.8587 80.6515 84.1012 80.4747C84.7282 80.3844 85.0492 79.9178 85.1852 79.3196C85.2381 79.0863 85.2683 78.7891 85.5893 78.8004C85.9897 78.8154 85.8424 79.1691 85.8461 79.3723C85.865 80.5612 85.8575 81.7501 85.8461 82.9391C85.8461 83.0971 85.8915 83.3191 85.6271 83.3718C85.3854 83.4169 85.2683 83.2589 85.2381 83.0858C85.1134 82.3521 84.8226 81.7426 84.0144 81.6185C82.8285 81.4341 81.6312 81.4567 80.4453 81.5996C79.9883 81.6561 80.0298 82.1603 80.026 82.529C80.0185 83.8421 80.026 85.1589 80.026 86.472C80.026 87.1831 80.2338 87.7249 81.0685 87.7212C82.3224 87.7136 83.5838 87.7437 84.8339 87.6421C86.0199 87.5481 86.6695 86.6601 87.2436 85.7308C87.4362 85.4185 87.6288 84.8805 88.014 85.0987C88.3691 85.2981 87.9952 85.7684 87.8894 86.1108C87.3556 87.8491 86.1697 88.717 84.3316 88.7144C81.7558 88.7144 79.18 88.7295 76.6005 88.722C76.3285 88.722 75.8942 88.8311 75.9169 88.3608C75.932 88.0861 76.2757 88.0786 76.5174 88.0673C77.5182 88.0146 77.7411 87.375 77.7373 86.5285C77.726 84.7752 77.7373 83.0218 77.7373 81.2723V81.2648Z" fill="white"/>
<path d="M33.314 68.4613C32.8759 68.4613 32.434 68.4876 31.9959 68.4575C31.5125 68.4237 30.7533 68.7021 30.606 68.3033C30.3341 67.5696 31.301 67.8856 31.5955 67.5244C31.8675 67.1896 31.9392 66.8585 31.8033 66.4898C31.5011 65.6695 31.1574 64.8644 30.8553 64.0442C30.6513 63.4873 30.2661 63.2954 29.6958 63.3105C28.8196 63.3331 27.9396 63.3142 27.0596 63.3142C24.4725 63.3142 24.4876 63.3218 23.566 65.6507C23.1543 66.6892 22.8409 67.626 24.4574 67.8066C24.6651 67.8292 24.8048 67.9646 24.7973 68.1716C24.7822 68.5629 24.4498 68.4538 24.2383 68.4613C23.5471 68.4801 22.856 68.4951 22.1686 68.4538C21.4925 68.4161 20.4577 68.7849 20.2235 68.2844C19.861 67.5131 21.1111 67.7765 21.4359 67.2197C21.8136 66.5725 22.1988 65.9329 22.4972 65.2444C24.1023 61.5308 25.6999 57.8135 27.324 54.1075C27.5619 53.5657 27.5921 52.6289 28.2946 52.6703C28.9253 52.7079 28.9631 53.6335 29.201 54.1865C30.7722 57.8625 32.2905 61.5609 33.8692 65.2331C34.3262 66.2979 34.6548 67.5357 36.0786 67.8104C36.2713 67.848 36.3808 67.9835 36.3695 68.2017C36.3543 68.4914 36.1126 68.4462 35.954 68.45C35.074 68.465 34.1978 68.4575 33.3178 68.4575L33.314 68.4613ZM27.5959 62.3699C28.355 62.2081 29.3181 62.6596 30.1943 62.0952C30.4738 61.9146 30.5267 61.8845 30.4134 61.8469C29.5183 61.5722 29.5636 60.6881 29.2237 60.0597C28.6156 58.9348 28.4457 57.5916 27.5355 56.6133C27.0143 57.7458 26.4817 58.8708 25.9719 60.0108C25.2719 61.581 25.812 62.3674 27.5921 62.3699H27.5959Z" fill="white"/>
<path d="M32.6612 81.2947C32.6612 82.8562 32.6612 84.4213 32.6612 85.9828C32.6612 87.0212 32.6536 88.0709 34.1379 88.0784C34.3268 88.0784 34.5421 88.1537 34.5572 88.3531C34.5798 88.688 34.3041 88.7256 34.0473 88.7256C32.4157 88.7256 30.7841 88.7256 29.1525 88.7181C28.9184 88.7181 28.6162 88.7369 28.6313 88.3832C28.6389 88.1913 28.8202 88.0973 29.0241 88.0935C30.2025 88.0709 30.4669 87.3222 30.4631 86.3289C30.4555 82.954 30.4404 79.5753 30.4744 76.2004C30.482 75.3764 30.1723 75.1243 29.3754 75.1281C27.9402 75.1356 26.5465 75.113 26.1197 76.919C26.0669 77.1372 25.9649 77.4495 25.6363 77.3103C25.5381 77.2689 25.5268 77.0055 25.4852 76.84C25.4701 76.7798 25.4852 76.7158 25.4852 76.6519C25.4324 74.9512 26.262 74.1022 27.9742 74.1047C30.6104 74.1047 33.2466 74.1009 35.8828 74.1047C37.5711 74.1085 37.5711 74.116 37.6277 75.8505C37.639 76.2267 37.6655 76.5992 37.6617 76.9754C37.6617 77.1523 37.6617 77.4081 37.4049 77.378C37.2878 77.363 37.1443 77.156 37.099 77.0093C36.8988 76.3283 36.6306 75.6849 35.9244 75.4027C34.9651 75.019 33.8622 74.891 32.9822 75.2899C32.2609 75.6172 32.6952 76.6481 32.665 77.3592C32.6121 78.6686 32.6499 79.9854 32.6499 81.2985L32.6612 81.2947Z" fill="white"/>
<path d="M61.8069 21.2725C62.1204 21.2725 62.4301 21.2725 62.7435 21.2725C63.6462 21.2725 63.4989 21.6337 63.057 22.1341C61.7842 23.5864 60.5228 25.05 59.2537 26.506C59.0536 26.7356 58.8119 27.0102 58.487 26.7769C58.2604 26.6152 58.3851 26.3179 58.4568 26.0809C58.7703 25.0725 59.0876 24.0642 59.401 23.0559C59.7737 21.8644 60.5731 21.27 61.7993 21.2725H61.8069Z" fill="white"/>
<path d="M19.1252 54.4876C18.8683 55.8308 18.6153 57.1777 18.3547 58.5209C18.298 58.8144 18.3094 59.217 17.8788 59.1831C17.4898 59.1493 17.4936 58.7467 17.4407 58.4607C17.2028 57.1138 16.9422 55.7668 16.776 54.4123C16.6665 53.5169 16.7042 52.486 17.9543 52.5349C19.1403 52.58 19.1969 53.547 19.1252 54.4876Z" fill="white"/>
<path d="M42.9493 1.54213C42.9229 1.32767 42.8964 1.11321 42.8662 0.898747C43.4667 0.831022 44.4223 0.432203 44.4751 1.22608C44.5167 1.83936 43.5007 1.50074 42.9493 1.53836V1.54213Z" fill="white"/>
<path d="M35.3083 0.894922L35.2517 1.51949C34.6965 1.5684 34.1111 1.74147 33.7032 1.15829H33.6768C34.1526 0.654125 34.7267 0.744424 35.3083 0.898685V0.894922Z" fill="white"/>
<path d="M2.46531 0.902333C2.4351 1.11679 2.40488 1.33502 2.37467 1.54948C2.1896 1.56076 2.00076 1.59839 1.81947 1.57957C1.52488 1.55324 1.12454 1.56452 1.18119 1.12432C1.23407 0.714211 1.63063 0.793222 1.92145 0.793222C2.10274 0.793222 2.28402 0.864709 2.46153 0.902333H2.46531Z" fill="white"/>
<path d="M51.1895 72.901C51.2008 72.6903 51.2121 72.4758 51.2234 72.2651C51.4085 72.2651 51.6011 72.2388 51.7824 72.2651C52.077 72.3103 52.4962 72.2877 52.466 72.7091C52.4358 73.1305 52.0203 73.0327 51.7333 73.0251C51.552 73.0214 51.3707 72.9461 51.1895 72.901Z" fill="white"/>
<path d="M53.0178 74.1689C53.0292 74.2743 53.0178 74.3759 52.9801 74.4775C52.9083 74.4173 52.8403 74.3571 52.7686 74.2969C52.8516 74.2555 52.9347 74.2103 53.014 74.1689H53.0178Z" fill="white"/>
<path d="M25.8096 5.9893C25.8587 5.86514 25.8927 5.65444 26.0777 5.78989C26.2137 5.89147 26.1344 6.06831 26.006 6.18118C25.9418 6.11722 25.8776 6.05326 25.8133 5.98553L25.8096 5.9893Z" fill="white"/>
</g>
<defs>
<clipPath id="clip0_549_369">
<rect width="88" height="88" fill="white" transform="translate(0.165039 0.740723)"/>
</clipPath>
</defs>
</svg>
