<svg width="243" height="51" viewBox="0 0 243 51" fill="none" xmlns="http://www.w3.org/2000/svg">
<g opacity="0.7" clip-path="url(#clip0_549_331)">
<path d="M168.628 7.92185C166.92 12.8402 165.211 17.7585 163.51 22.6787C163.423 22.9284 163.311 23.0285 163.039 23.0256C161.801 23.0123 160.562 23.0123 159.324 23.0256C159.049 23.0285 158.94 22.9218 158.854 22.6758C157.287 18.1941 155.707 13.7161 154.14 9.23435C153.948 8.68247 153.807 8.11248 153.642 7.55107C153.533 7.42144 153.508 7.26703 153.513 7.10499C153.459 7.00491 153.431 6.89339 153.39 6.78759C153.363 6.7304 153.342 6.84001 153.385 6.79426C153.443 6.8953 153.446 7.0173 153.51 7.11643C153.547 7.32231 153.501 7.53201 153.548 7.73694C153.894 10.6412 153.713 13.5588 153.767 16.4698C153.804 18.481 153.799 20.4931 153.842 22.5043C153.852 22.937 153.715 23.038 153.305 23.0285C152.131 23.0028 150.957 23.0075 149.783 23.0266C149.447 23.0323 149.356 22.9284 149.357 22.5986C149.366 16.3249 149.367 10.0503 149.356 3.7756C149.356 3.42102 149.449 3.32094 149.806 3.3238C151.838 3.34096 153.87 3.3381 155.901 3.32571C156.199 3.3238 156.345 3.40863 156.449 3.7022C157.816 7.58157 159.214 11.4505 160.562 15.3355C160.984 16.5537 160.983 17.8576 161.105 19.132C161.162 19.2788 161.119 19.4322 161.136 19.5676C161.156 19.4332 161.101 19.2788 161.173 19.1348C161.287 18.2084 161.376 17.2781 161.523 16.3564C161.744 14.9714 162.339 13.698 162.794 12.3846C163.792 9.49743 164.822 6.62174 165.825 3.73652C165.93 3.43437 166.061 3.32094 166.392 3.3238C168.441 3.34096 170.489 3.34 172.536 3.3238C172.886 3.32094 172.996 3.40672 172.995 3.77083C172.983 10.0474 172.984 16.324 172.994 22.6015C172.994 22.9389 172.892 23.0304 172.562 23.0256C171.355 23.0085 170.149 23.0094 168.942 23.0256C168.625 23.0295 168.5 22.9608 168.502 22.611C168.525 18.4266 168.525 14.2423 168.552 10.0579C168.557 9.37923 168.66 8.70154 168.717 8.02384C168.733 7.83702 168.76 7.6502 168.759 7.46243C168.798 7.29086 168.886 7.13359 168.869 7.00491C168.85 7.12024 168.815 7.29181 168.756 7.4548C168.762 7.62351 168.749 7.78746 168.627 7.9209L168.628 7.92185Z" fill="white"/>
<path d="M179.953 37.2505C179.176 33.9135 177.286 31.5573 173.938 30.5097C172.211 29.9702 170.434 29.9273 168.663 30.1809C165.659 30.6108 163.312 32.0824 161.995 34.8657C160.453 38.1245 160.412 41.5159 161.56 44.8987C162.457 47.538 164.295 49.3042 166.956 50.1849C168.705 50.7635 170.505 50.8616 172.315 50.61C175.047 50.2306 177.271 49.002 178.735 46.5943C179.89 44.6947 180.287 42.6034 180.249 40.2244C180.293 39.3427 180.195 38.2894 179.953 37.2505ZM174.703 44.2114C173.995 46.0682 172.489 47.0318 170.492 47.0252C168.518 47.0194 167.093 46.0453 166.351 44.1838C165.862 42.958 165.709 41.6751 165.737 40.4236C165.719 39.1215 165.847 37.8986 166.3 36.7282C167.086 34.7027 168.518 33.6876 170.557 33.699C172.567 33.7095 174.095 34.7608 174.791 36.772C175.647 39.2464 175.64 41.7542 174.703 44.2114Z" fill="white"/>
<path d="M148.888 29.0858C148.888 28.736 148.803 28.6216 148.439 28.6283C147.217 28.6502 145.994 28.654 144.773 28.6264C144.379 28.6178 144.306 28.755 144.308 29.1125C144.322 31.5526 144.318 33.9927 144.312 36.4327C144.312 36.5776 144.382 36.7425 144.24 36.8865C144.139 36.7978 144.044 36.7158 143.952 36.631C140.878 33.8182 136.268 34.5808 134.368 38.2857C132.945 41.0603 132.901 43.9732 134.062 46.8365C135.852 51.2496 141.346 51.5699 143.926 49.0192C144.159 48.7886 144.401 48.5646 144.693 48.2853C144.693 48.861 144.713 49.3691 144.686 49.8742C144.668 50.2183 144.755 50.3441 145.128 50.3356C146.238 50.3108 147.35 50.3146 148.46 50.3337C148.796 50.3394 148.888 50.2383 148.887 49.9066C148.879 42.9657 148.878 36.0257 148.888 29.0858ZM143.78 45.4401C142.718 47.4399 139.964 47.5847 138.711 45.6975C138.052 44.7043 137.912 43.5767 137.983 42.4196C138.039 41.4969 138.222 40.6 138.786 39.826C139.98 38.1837 142.422 38.2123 143.569 39.887C144.177 40.7725 144.344 41.7762 144.338 42.9133C144.35 43.7378 144.215 44.6214 143.78 45.4401Z" fill="white"/>
<path d="M75.9243 29.0648C75.9243 28.7455 75.8585 28.6225 75.5097 28.6282C74.2715 28.6492 73.0334 28.6501 71.7952 28.6282C71.434 28.6215 71.3425 28.7302 71.3453 29.0829C71.3596 31.5077 71.3539 33.9326 71.3501 36.3574C71.3501 36.5233 71.3968 36.6977 71.311 36.8597C71.1728 36.853 71.1175 36.7444 71.0422 36.6729C68.055 33.8773 63.5256 34.5054 61.5392 38.0693C60.0046 40.8201 59.955 43.7492 61.0369 46.6544C62.7097 51.1467 68.1227 51.5823 70.7906 49.1774C71.0918 48.9058 71.3453 48.5827 71.6208 48.2834C71.7304 48.8619 71.7456 49.3785 71.7247 49.8933C71.7113 50.2068 71.7809 50.3412 72.1355 50.3346C73.2621 50.3126 74.3897 50.3126 75.5163 50.3346C75.8747 50.3422 75.9243 50.2002 75.9233 49.8913C75.9167 42.9495 75.9157 36.0066 75.9233 29.0648H75.9243ZM71.0146 45.0417C70.5675 46.2474 69.6782 46.947 68.36 47.0061C66.9989 47.0671 66.019 46.4266 65.5005 45.2075C64.7857 43.5242 64.8104 41.8047 65.6387 40.1586C66.1487 39.1464 67.0342 38.6345 68.2771 38.625C69.5048 38.6402 70.4341 39.275 70.9383 40.4579C71.5807 41.962 71.5798 43.5166 71.0146 45.0417Z" fill="white"/>
<path d="M121.829 1.85211C121.829 1.49753 121.697 1.43939 121.385 1.4432C120.164 1.4575 118.941 1.46703 117.72 1.43843C117.322 1.4289 117.258 1.57188 117.261 1.92359C117.274 4.34748 117.268 6.77137 117.268 9.19526V9.75953C117.111 9.62037 117.04 9.55937 116.971 9.49455C114.044 6.72562 109.652 7.28894 107.598 10.7461C106.119 13.2329 106.021 15.936 106.759 18.6487C108.24 24.0922 114.61 24.6088 117.385 21.2671C117.445 21.1956 117.493 21.0583 117.657 21.1241C117.657 21.6273 117.675 22.1344 117.65 22.6396C117.635 22.9599 117.752 23.0409 118.058 23.0361C119.168 23.0199 120.28 23.0199 121.39 23.0361C121.709 23.0409 121.829 22.9665 121.828 22.6205C121.818 15.6977 121.818 8.77492 121.829 1.85211ZM116.871 17.8862C116.378 19.0386 115.52 19.7039 114.243 19.7506C113.038 19.7954 112.084 19.2988 111.557 18.2198C110.667 16.3974 110.657 14.5168 111.682 12.7601C112.788 10.8652 115.553 10.9653 116.651 12.8726C117.139 13.7199 117.296 14.6483 117.276 15.6501C117.297 16.3993 117.181 17.1627 116.871 17.8862Z" fill="white"/>
<path d="M108.091 30.0754C109.827 30.0382 111.449 30.3976 113.068 30.7922C113.387 30.8694 113.431 30.9885 113.33 31.2773C113.029 32.1276 112.748 32.9845 112.47 33.8433C112.391 34.0873 112.314 34.2112 112.006 34.113C110.959 33.7823 109.882 33.5964 108.785 33.5382C107.985 33.4953 107.201 33.5802 106.451 33.8814C105.953 34.0815 105.534 34.3866 105.276 34.8727C104.861 35.6571 105.068 36.4673 105.812 37.0058C106.516 37.5139 107.335 37.777 108.134 38.082C109.199 38.4899 110.253 38.9217 111.293 39.3954C115.399 41.2655 115.085 46.851 112.004 49.0233C110.555 50.0451 108.934 50.5179 107.196 50.6151C104.953 50.7409 102.774 50.3701 100.642 49.681C100.301 49.5704 100.278 49.4408 100.401 49.1444C100.759 48.2817 101.113 47.4172 101.425 46.5375C101.544 46.2058 101.695 46.1924 101.982 46.2772C103.429 46.7062 104.887 47.0789 106.417 47.0093C107.123 46.9769 107.802 46.832 108.406 46.444C109.817 45.5376 109.75 43.718 108.266 42.9545C107.095 42.3512 105.828 41.9737 104.605 41.4943C103.56 41.0844 102.6 40.5354 101.785 39.7633C99.1703 37.2861 99.8575 32.9053 103.132 31.1458C104.697 30.3051 106.389 30.0401 108.091 30.0783V30.0754Z" fill="white"/>
<path d="M72.1292 23.4259C69.5756 23.4173 67.1479 22.9293 64.9919 21.4805C62.6719 19.9211 61.367 17.705 60.9791 14.9694C60.6359 12.5522 60.878 10.1912 62.0514 8.00088C63.4411 5.40828 65.661 3.90037 68.4881 3.23316C71.4791 2.52687 74.4053 2.8681 77.2905 3.81459C77.5231 3.89084 77.5279 3.99188 77.4735 4.19776C77.2238 5.14616 76.9817 6.09646 76.7606 7.05057C76.6786 7.4042 76.5042 7.35654 76.243 7.26885C74.8199 6.79131 73.3645 6.53777 71.8537 6.57781C68.3909 6.6674 65.9708 8.94927 65.7039 12.393C65.5342 14.5844 66.0871 16.5183 67.7808 18.0014C69.386 19.4074 71.3209 19.7591 73.3864 19.5694C74.3662 19.4798 75.328 19.2701 76.2735 19.0032C76.5766 18.9174 76.6939 18.988 76.7796 19.2787C77.0532 20.2033 77.3372 21.1259 77.647 22.04C77.7471 22.3345 77.6909 22.447 77.4011 22.5537C75.6988 23.1828 73.9402 23.4497 72.1292 23.424V23.4259Z" fill="white"/>
<path d="M213.2 41.0796C212.855 39.2772 212.172 37.6559 210.698 36.4616C209.612 35.5809 208.343 35.1662 206.97 35.0681C204.177 34.8698 201.787 35.6705 200.096 38.0171C198.954 39.6022 198.624 41.419 198.713 43.3386C198.839 46.0466 199.981 48.1988 202.392 49.4751C205.663 51.2051 209.001 50.861 212.304 49.4627C212.522 49.3712 212.47 49.2454 212.402 49.0881C212.102 48.3904 211.787 47.6975 211.521 46.9864C211.381 46.6128 211.241 46.5241 210.836 46.6699C209.395 47.1894 207.924 47.524 206.364 47.3019C204.82 47.0827 203.612 46.1324 203.304 44.8294C203.223 44.4891 203.269 44.3538 203.67 44.3595C205.226 44.3814 206.782 44.3681 208.338 44.3681C209.895 44.3681 211.386 44.3528 212.91 44.3776C213.318 44.3843 213.408 44.2556 213.405 43.8705C213.399 42.9345 213.377 42.0023 213.2 41.0796ZM208.858 41.2893C207.955 41.2855 207.052 41.2874 206.151 41.2874C205.249 41.2874 204.408 41.2817 203.538 41.2913C203.284 41.2941 203.136 41.2455 203.2 40.95C203.433 39.8634 203.916 38.9312 204.992 38.4861C206.051 38.0476 207.105 38.1096 208.045 38.8302C208.753 39.3716 209.038 40.1551 209.198 40.9967C209.253 41.2922 209.064 41.2903 208.858 41.2893Z" fill="white"/>
<path d="M78.4741 40.3827C78.4741 38.8453 78.4846 37.3078 78.4665 35.7704C78.4627 35.4196 78.5513 35.3062 78.9154 35.3128C80.1212 35.3357 81.3288 35.3367 82.5346 35.3128C82.9311 35.3052 83.0445 35.4225 83.0436 35.818C83.035 38.6232 83.0321 41.4283 83.0655 44.2335C83.0817 45.5898 83.8595 46.5125 85.1462 46.8375C86.8486 47.2674 88.2783 46.339 88.5862 44.609C88.6701 44.1391 88.6929 43.6664 88.692 43.1907C88.6853 40.7344 88.6929 38.2772 88.672 35.8209C88.6682 35.4206 88.7864 35.3176 89.1772 35.3252C90.3829 35.35 91.5906 35.3462 92.7963 35.3271C93.1518 35.3214 93.2557 35.4301 93.2538 35.7856C93.2395 38.4802 93.2586 41.1748 93.2395 43.8684C93.2319 44.9159 93.1128 45.952 92.6848 46.9319C92.0042 48.4884 90.848 49.5664 89.2629 50.104C86.8219 50.9323 84.3522 50.9266 81.9712 49.8848C79.7456 48.9107 78.5894 47.1235 78.4865 44.7082C78.4255 43.2689 78.475 41.8239 78.475 40.3818C78.475 40.3818 78.4741 40.3818 78.4731 40.3818L78.4741 40.3827Z" fill="white"/>
<path d="M182.325 40.3531C182.325 38.8166 182.333 37.2792 182.318 35.7427C182.314 35.4119 182.41 35.3099 182.744 35.3147C183.966 35.3328 185.188 35.3357 186.41 35.3138C186.786 35.3071 186.895 35.4167 186.894 35.7942C186.886 38.5984 186.882 41.4026 186.912 44.2068C186.928 45.6155 187.744 46.5592 189.106 46.868C190.602 47.2073 191.886 46.4677 192.334 45.0065C192.507 44.4403 192.542 43.8579 192.54 43.2688C192.532 40.7811 192.54 38.2943 192.521 35.8065C192.518 35.4415 192.604 35.3166 192.99 35.3242C194.227 35.349 195.465 35.3424 196.703 35.3271C197.016 35.3233 197.105 35.4186 197.105 35.7322C197.092 38.4735 197.108 41.2138 197.093 43.9551C197.085 45.4211 196.798 46.8213 195.91 48.0375C194.913 49.4034 193.526 50.1669 191.895 50.45C189.652 50.8389 187.428 50.7874 185.367 49.6655C183.443 48.617 182.436 46.9442 182.341 44.7729C182.276 43.3022 182.329 41.8267 182.329 40.3531C182.328 40.3531 182.327 40.3531 182.326 40.3531H182.325Z" fill="white"/>
<path d="M116.569 40.0404C116.569 38.6155 116.581 37.1895 116.561 35.7646C116.556 35.4033 116.667 35.308 117.02 35.3137C118.242 35.3337 119.464 35.3328 120.686 35.3137C121.03 35.308 121.108 35.431 121.106 35.7512C121.095 38.2066 121.093 40.6619 121.105 43.1172C121.108 43.733 121.114 44.3525 121.26 44.9578C121.51 46.0025 122.504 46.8184 123.634 46.9127C124.987 47.0252 125.958 46.5 126.428 45.4029C126.707 44.75 126.792 44.0637 126.791 43.3622C126.788 40.8592 126.794 38.3562 126.771 35.8532C126.767 35.4395 126.866 35.3118 127.293 35.3223C128.514 35.3528 129.737 35.3404 130.958 35.3271C131.258 35.3242 131.37 35.3966 131.368 35.7217C131.355 38.4144 131.383 41.108 131.349 43.8007C131.336 44.7929 131.244 45.7909 130.864 46.7345C130.167 48.4616 128.914 49.6245 127.156 50.1706C124.733 50.9227 122.297 50.9027 119.961 49.8409C117.897 48.9039 116.797 47.2254 116.587 44.9778C116.434 43.3336 116.572 41.6846 116.567 40.0385L116.569 40.0404Z" fill="white"/>
<path d="M235.296 13.4225C234.82 11.3293 233.845 9.57933 231.845 8.55468C230.592 7.9132 229.249 7.74926 227.868 7.82456C225.697 7.9437 223.866 8.77677 222.529 10.522C221.176 12.2863 220.811 14.3184 220.994 16.4936C221.242 19.4303 223.109 21.8675 225.927 22.7501C228.817 23.6556 231.653 23.404 234.417 22.1887C234.669 22.0781 234.653 21.959 234.561 21.7512C234.254 21.0563 233.942 20.3624 233.672 19.6523C233.537 19.2978 233.377 19.2777 233.043 19.395C231.55 19.9221 230.03 20.2929 228.429 19.9974C227.04 19.741 225.973 19.09 225.544 17.6478C225.431 17.2713 225.472 17.1093 225.928 17.116C227.452 17.1389 228.977 17.1246 230.501 17.1246C232.025 17.1246 233.582 17.115 235.121 17.1322C235.47 17.136 235.591 17.0397 235.593 16.6804C235.597 15.5833 235.539 14.4929 235.296 13.4225ZM231.035 14.0249C230.148 14.0315 229.261 14.0277 228.374 14.0277C227.486 14.0277 226.6 14.023 225.713 14.0315C225.47 14.0344 225.372 13.9725 225.41 13.7065C225.645 12.0556 226.941 10.9786 228.612 11.0319C230.078 11.0787 231.115 12.1529 231.376 13.7952C231.426 14.104 231.186 14.0239 231.035 14.0249Z" fill="white"/>
<path d="M104.297 13.4873C103.814 11.3417 102.825 9.5469 100.765 8.51939C99.447 7.86171 98.0325 7.71111 96.5923 7.83598C94.3924 8.02852 92.568 8.96261 91.3041 10.806C90.0755 12.5989 89.7295 14.6149 90.0069 16.7452C90.3596 19.4417 91.7493 21.4338 94.2627 22.487C97.3462 23.7786 100.429 23.4621 103.452 22.1706C103.71 22.061 103.612 21.9132 103.545 21.7531C103.246 21.0544 102.929 20.3634 102.657 19.6542C102.525 19.3063 102.373 19.2749 102.034 19.394C100.542 19.9163 99.0228 20.2919 97.4215 19.9993C96.0318 19.7448 94.9586 19.0909 94.5296 17.6574C94.3762 17.1446 94.4 17.1255 94.9262 17.1255C96.4493 17.1245 97.9734 17.1245 99.4966 17.1245C101.02 17.1245 102.544 17.1102 104.068 17.135C104.455 17.1407 104.571 16.9997 104.567 16.6499C104.556 15.589 104.531 14.5272 104.297 13.4873ZM100.063 14.0306C99.1591 14.0249 98.2555 14.0277 97.351 14.0277C96.4464 14.0277 95.6077 14.0258 94.7355 14.0296C94.5277 14.0296 94.339 14.0296 94.4 13.7332C94.6278 12.6218 95.1292 11.681 96.2368 11.2531L99.3164 11.7001C99.936 12.2291 100.204 12.9516 100.375 13.7227C100.44 14.0134 100.283 14.0315 100.063 14.0306Z" fill="white"/>
<path d="M189.945 12.9585C189.945 14.3206 189.943 15.6836 189.945 17.0457C189.95 20.274 187.784 22.758 184.499 23.2183C182.578 23.4871 180.662 23.4557 178.847 22.6522C176.648 21.6799 175.421 19.9795 175.278 17.5804C175.096 14.5265 175.301 11.4687 175.258 8.41288C175.255 8.19175 175.325 8.10406 175.556 8.10596C176.857 8.11359 178.159 8.12026 179.46 8.10311C179.823 8.09834 179.775 8.3128 179.775 8.53393C179.775 10.324 179.764 12.114 179.779 13.904C179.787 14.9954 179.718 16.0887 179.841 17.1791C180.008 18.6565 180.971 19.582 182.427 19.6392C183.993 19.7002 184.987 18.912 185.284 17.3783C185.375 16.9094 185.393 16.4366 185.392 15.961C185.386 13.5209 185.392 11.0817 185.373 8.64164C185.37 8.26228 185.446 8.11931 185.861 8.12884C187.066 8.15744 188.273 8.15076 189.479 8.1317C189.83 8.12598 189.947 8.22606 189.942 8.58636C189.924 10.0437 189.934 11.5011 189.934 12.9585C189.938 12.9585 189.941 12.9585 189.945 12.9585Z" fill="white"/>
<path d="M219.121 13.1021C219.121 14.4327 219.138 15.7643 219.117 17.0939C219.07 20.1679 217.394 22.3306 214.392 23.0607C212.286 23.5735 210.166 23.524 208.137 22.6795C205.752 21.6872 204.533 19.8104 204.462 17.2798C204.38 14.3507 204.451 11.4188 204.439 8.48784C204.438 8.15709 204.56 8.09895 204.854 8.10181C206.092 8.11516 207.33 8.12087 208.567 8.09895C208.923 8.09228 209.019 8.18855 209.017 8.54599C209.005 11.2711 209.006 13.9962 209.021 16.7213C209.027 17.7326 209.32 18.6228 210.24 19.2033C212.059 20.3518 214.21 19.3882 214.542 17.2741C214.61 16.8337 214.637 16.3943 214.636 15.9501C214.63 13.4948 214.636 11.0385 214.617 8.58316C214.614 8.22668 214.711 8.12373 215.069 8.12945C216.291 8.15042 217.513 8.14661 218.735 8.13136C219.05 8.12755 219.141 8.23049 219.138 8.53931C219.125 10.0606 219.132 11.5809 219.132 13.1021C219.128 13.1021 219.125 13.1021 219.121 13.1021Z" fill="white"/>
<path d="M220.178 50.5271C218.479 50.5633 216.842 50.2278 215.244 49.6711C214.932 49.5625 214.815 49.4538 214.945 49.1031C215.21 48.392 215.455 47.6704 215.647 46.9375C215.756 46.519 215.927 46.5114 216.278 46.6363C217.494 47.07 218.744 47.3473 220.047 47.2968C220.609 47.2749 221.147 47.1615 221.63 46.8536C222.015 46.6077 222.266 46.275 222.242 45.7994C222.218 45.3285 221.914 45.0464 221.506 44.8967C220.525 44.5384 219.531 44.2152 218.547 43.8616C217.738 43.5709 216.976 43.1944 216.305 42.6397C214.584 41.2156 214.573 37.7471 216.879 36.1744C217.917 35.4671 219.066 35.1125 220.305 35.0229C222.07 34.8952 223.78 35.1488 225.444 35.755C225.761 35.8703 225.827 35.9856 225.717 36.3002C225.464 37.016 225.235 37.7404 225.026 38.4696C224.937 38.7774 224.807 38.8041 224.525 38.7098C223.329 38.3075 222.111 38.0397 220.839 38.2551C220.637 38.2894 220.434 38.3428 220.249 38.4238C219.753 38.6392 219.462 39.0739 219.501 39.5324C219.544 40.0309 219.895 40.2758 220.316 40.4226C221.378 40.7915 222.449 41.1337 223.51 41.5044C224.233 41.757 224.913 42.0992 225.497 42.6034C227.334 44.1933 227.197 47.4722 225.227 49.0783C224.091 50.0047 222.753 50.3984 221.32 50.5204C220.942 50.5528 220.558 50.5252 220.178 50.5252V50.5271Z" fill="white"/>
<path d="M229.574 42.8038C229.574 41.6152 229.565 40.4266 229.581 39.238C229.585 38.9292 229.498 38.8177 229.18 38.8329C228.656 38.8567 228.132 38.832 227.608 38.8424C227.387 38.8472 227.299 38.7767 227.302 38.546C227.311 37.5795 227.313 36.6121 227.302 35.6455C227.299 35.3882 227.397 35.3196 227.637 35.3253C228.145 35.3386 228.654 35.3091 229.161 35.3358C229.508 35.3539 229.588 35.2195 229.582 34.8983C229.564 33.9794 229.589 33.0596 229.568 32.1408C229.561 31.8014 229.632 31.669 230.008 31.6766C231.246 31.7023 232.484 31.6995 233.722 31.6842C234.05 31.6804 234.162 31.7681 234.154 32.1065C234.132 33.0415 234.161 33.9766 234.139 34.9116C234.131 35.25 234.241 35.3443 234.572 35.3367C235.412 35.3157 236.255 35.3386 237.096 35.3253C237.382 35.3205 237.527 35.3701 237.519 35.7094C237.497 36.6283 237.501 37.5481 237.517 38.4669C237.522 38.7557 237.439 38.8529 237.141 38.8463C236.268 38.8282 235.395 38.8501 234.522 38.8339C234.232 38.8282 234.139 38.9187 234.141 39.2104C234.155 41.3502 234.145 43.4901 234.163 45.6299C234.17 46.5326 234.748 47.1111 235.683 47.2017C236.286 47.2598 236.891 47.2551 237.473 47.0568C237.703 46.9786 237.785 47.0473 237.826 47.2674C237.977 48.0919 238.134 48.9155 238.302 49.7371C238.338 49.9115 238.305 49.9963 238.129 50.0516C236.241 50.6455 234.325 50.8227 232.423 50.2013C230.629 49.6151 229.679 48.2625 229.608 46.3219C229.565 45.1505 229.6 43.9762 229.6 42.8038C229.591 42.8038 229.583 42.8038 229.574 42.8038Z" fill="white"/>
<path d="M194.072 15.4279C194.072 14.1717 194.054 13.1251 194.081 12.0804C194.092 11.6915 193.963 11.5905 193.597 11.6143C193.139 11.6429 192.676 11.6096 192.217 11.6258C191.959 11.6353 191.851 11.5667 191.856 11.2845C191.871 10.3342 191.869 9.38298 191.857 8.43268C191.853 8.17342 191.955 8.1086 192.193 8.11528C192.685 8.12862 193.179 8.09812 193.669 8.12671C194.019 8.14673 194.139 8.04569 194.129 7.68063C194.103 6.77799 194.134 5.87439 194.114 4.97175C194.106 4.62098 194.175 4.47039 194.575 4.47992C195.781 4.50851 196.987 4.50375 198.194 4.48468C198.538 4.47896 198.664 4.55808 198.654 4.92695C198.626 5.84484 198.657 6.76464 198.637 7.68349C198.631 8.00757 198.712 8.12671 199.057 8.11718C199.897 8.09335 200.739 8.12385 201.58 8.10193C201.917 8.09335 202.059 8.15912 202.046 8.53848C202.016 9.40871 202.022 10.2818 202.044 11.153C202.053 11.5 201.957 11.6286 201.591 11.6181C200.734 11.5934 199.877 11.6201 199.021 11.6048C198.732 11.6 198.637 11.6915 198.639 11.9832C198.653 14.0115 198.635 16.0399 198.658 18.0682C198.673 19.2949 199.287 19.8706 200.527 19.9145C201.007 19.9316 201.481 19.9011 201.937 19.7524C202.208 19.6638 202.3 19.7553 202.348 20.0212C202.483 20.7837 202.642 21.5425 202.796 22.3021C202.838 22.5109 202.827 22.6615 202.578 22.7377C200.703 23.3096 198.815 23.4993 196.923 22.8588C195.196 22.2735 194.264 20.9677 194.137 19.1615C194.043 17.8471 194.1 16.5326 194.072 15.4298V15.4279Z" fill="white"/>
<path d="M138.139 15.1584C138.139 16.1411 138.131 17.1229 138.141 18.1056C138.154 19.2503 138.755 19.8556 139.901 19.909C140.411 19.9328 140.919 19.9214 141.405 19.7498C141.673 19.6554 141.781 19.7536 141.828 20.0091C141.975 20.8021 142.126 21.5942 142.286 22.3843C142.32 22.5492 142.308 22.6569 142.128 22.7122C140.079 23.3346 138.021 23.5739 135.993 22.6808C134.49 22.0183 133.743 20.8068 133.642 19.1722C133.499 16.8455 133.596 14.5169 133.583 12.1884C133.58 11.7413 133.49 11.564 133.015 11.6117C132.575 11.6555 132.127 11.6088 131.683 11.625C131.432 11.6346 131.355 11.544 131.358 11.2981C131.368 10.3478 131.372 9.39655 131.356 8.44625C131.351 8.15267 131.48 8.10788 131.727 8.11455C132.219 8.12789 132.712 8.10311 133.203 8.12408C133.5 8.13742 133.581 8.02972 133.577 7.74377C133.562 6.79347 133.581 5.84221 133.566 4.89191C133.561 4.59357 133.633 4.47633 133.96 4.4811C135.229 4.50016 136.499 4.49921 137.768 4.48396C138.071 4.48014 138.142 4.58308 138.137 4.86617C138.122 5.81648 138.144 6.76773 138.125 7.71803C138.118 8.03258 138.216 8.12217 138.526 8.1155C139.383 8.09644 140.24 8.12217 141.097 8.10216C141.416 8.09453 141.499 8.20319 141.493 8.50916C141.475 9.4118 141.473 10.3154 141.494 11.218C141.502 11.5459 141.378 11.6203 141.08 11.6146C140.239 11.5993 139.397 11.6231 138.557 11.6022C138.231 11.5945 138.117 11.6822 138.124 12.0225C138.145 13.0681 138.132 14.1137 138.132 15.1594C138.134 15.1594 138.135 15.1594 138.138 15.1594L138.139 15.1584Z" fill="white"/>
<path d="M242.36 12.2482C242.36 15.6548 242.35 19.0614 242.373 22.468C242.375 22.9417 242.237 23.0437 241.788 23.0313C240.615 22.9989 239.44 23.0113 238.265 23.0266C237.957 23.0304 237.86 22.9417 237.86 22.6243C237.869 15.7006 237.869 8.77681 237.861 1.8521C237.861 1.55471 237.925 1.43652 238.251 1.44128C239.473 1.45939 240.696 1.46797 241.917 1.43747C242.332 1.42698 242.367 1.59665 242.366 1.93311C242.356 5.37117 242.36 8.80922 242.36 12.2482Z" fill="white"/>
<path d="M83.9273 10.2609C84.3419 9.71092 84.6707 9.27056 85.0711 8.88739C86.2892 7.72167 88.287 7.63779 89.7254 8.14106C89.9274 8.2116 89.9379 8.33741 89.8912 8.51184C89.6062 9.59749 89.3212 10.6841 89.0448 11.7717C88.9876 11.9976 88.8856 12.0557 88.6454 12.029C88.0459 11.9623 87.4368 11.9337 86.8411 12.0385C85.337 12.3026 84.4315 13.4321 84.4058 15.1497C84.3695 17.5888 84.3753 20.0289 84.3905 22.469C84.3934 22.9103 84.3104 23.0685 83.8291 23.0533C82.6243 23.0142 81.4166 23.0304 80.2109 23.0476C79.8992 23.0523 79.8115 22.9608 79.8115 22.6491C79.8211 17.9434 79.8211 13.2376 79.8115 8.53281C79.8115 8.19444 79.9126 8.1058 80.2414 8.11152C81.3366 8.13058 82.4318 8.12867 83.526 8.11247C83.8329 8.1077 83.9463 8.19158 83.9311 8.51089C83.9063 9.04657 83.9244 9.5832 83.9244 10.2609H83.9273Z" fill="white"/>
<path d="M124.87 15.5425C124.87 13.2311 124.879 10.9197 124.86 8.60828C124.858 8.20796 124.973 8.10311 125.366 8.11073C126.587 8.13551 127.808 8.12884 129.029 8.11359C129.338 8.10978 129.441 8.20605 129.44 8.51773C129.433 13.2197 129.433 17.9226 129.44 22.6245C129.44 22.9429 129.326 23.0287 129.023 23.0249C127.786 23.0115 126.548 23.0058 125.312 23.0277C124.951 23.0344 124.858 22.9238 124.861 22.5711C124.877 20.2283 124.869 17.8845 124.869 15.5416L124.87 15.5425Z" fill="white"/>
<path d="M155.024 43.9674C153.834 43.9674 152.643 43.9598 151.453 43.9731C151.17 43.976 151.064 43.9064 151.07 43.6043C151.088 42.6063 151.084 41.6074 151.071 40.6094C151.069 40.3492 151.137 40.2501 151.416 40.252C153.828 40.2615 156.241 40.2606 158.654 40.252C158.915 40.252 159.017 40.3187 159.013 40.5961C158.999 41.6102 158.998 42.6244 159.013 43.6386C159.018 43.9302 158.891 43.9731 158.643 43.9712C157.437 43.9626 156.231 43.9674 155.024 43.9674Z" fill="white"/>
<path d="M127.082 6.12592C126.448 6.12592 125.813 6.11544 125.178 6.13069C124.905 6.13736 124.783 6.07826 124.787 5.76849C124.803 4.56464 124.8 3.35985 124.79 2.156C124.788 1.91485 124.853 1.82335 125.109 1.82526C126.443 1.83574 127.775 1.83669 129.109 1.82526C129.386 1.8224 129.457 1.92057 129.455 2.18269C129.443 3.37128 129.442 4.55892 129.455 5.74752C129.458 6.03156 129.38 6.14022 129.082 6.13164C128.416 6.11258 127.75 6.12592 127.082 6.12592Z" fill="white"/>
<path d="M101.553 2.52964C101.477 2.63735 101.42 2.73171 101.35 2.81654C100.317 4.07567 99.2769 5.33003 98.2523 6.59583C98.0712 6.81982 97.9282 6.85699 97.6671 6.71878C96.9541 6.34229 96.2268 5.99247 95.4977 5.64743C95.2775 5.54354 95.2231 5.44727 95.3518 5.22041C96.163 3.79067 96.9646 2.35616 97.7633 0.919748C97.8548 0.755805 97.9311 0.68813 98.1265 0.786306C99.1997 1.3277 100.28 1.85575 101.356 2.39143C101.423 2.42479 101.48 2.47721 101.553 2.52964Z" fill="white"/>
<path d="M153.552 7.73694C153.415 7.52534 153.482 7.28896 153.47 7.06211C153.503 7.02398 153.533 7.02779 153.559 7.06878C153.588 7.22986 153.617 7.38999 153.645 7.55108C153.614 7.61303 153.583 7.67499 153.552 7.7379V7.73694Z" fill="white"/>
<path d="M168.629 7.92174C168.659 7.76352 168.69 7.60529 168.719 7.44802C168.746 7.40036 168.775 7.3956 168.807 7.4423C168.797 7.63961 168.835 7.84358 168.718 8.02564C168.688 7.99132 168.658 7.95701 168.628 7.9227L168.629 7.92174Z" fill="white"/>
<path d="M161.176 19.1357V19.5665C161.06 19.3892 161.095 19.2596 161.108 19.1328C161.131 19.1338 161.153 19.1347 161.176 19.1357Z" fill="white"/>
<path d="M168.807 7.44133H168.764L168.72 7.44704C168.756 7.28501 168.791 7.12392 168.837 6.9209C168.952 7.13155 168.893 7.28691 168.808 7.44037L168.807 7.44133Z" fill="white"/>
<path d="M153.559 7.06879C153.53 7.06308 153.499 7.06117 153.47 7.06212C153.366 6.98587 153.353 6.88865 153.417 6.72852C153.474 6.86386 153.517 6.96585 153.559 7.06879Z" fill="white"/>
<path d="M49.5959 40.4361C49.5702 42.3348 49.7122 44.2383 49.5225 46.1322C49.3118 48.2339 47.1911 50.1431 45.0779 50.144C31.7661 50.1507 18.4542 50.1507 5.14234 50.144C2.90527 50.1431 0.774954 48.1024 0.638652 45.872C0.564305 44.7825 0.621495 43.6921 0.608151 42.6017C0.599572 41.8744 0.603385 41.1462 0.608151 40.4189C0.661528 40.2426 0.814034 40.2445 0.955102 40.2245C2.43822 40.3636 3.92706 40.4609 5.41685 40.4065C10.1912 40.2331 14.7969 39.3047 19.1633 37.303C22.569 35.7418 25.6306 33.6839 28.4062 31.1733C29.7882 29.9237 31.0388 28.5635 32.2293 27.1385C32.3399 27.006 32.4333 26.8526 32.6029 26.7801C33.1815 26.7029 33.6895 26.9736 34.2081 27.1433C37.0304 28.0698 39.6554 29.3832 42.0278 31.1838C45.1856 33.58 47.62 36.5805 49.4987 40.0491C49.5349 40.1768 49.5616 40.3065 49.5968 40.4351L49.5959 40.4361Z" fill="#FEFEFE"/>
<path d="M0.640716 5.53523C0.756048 3.60508 2.48794 1.71019 4.45432 1.35562C4.81366 1.2908 5.173 1.2603 5.53901 1.26125C8.77118 1.26983 12.0043 1.27269 15.2365 1.27746C15.3947 1.44617 15.3547 1.65777 15.3623 1.85793C15.3852 2.51466 15.3194 3.17329 15.4033 3.82812C15.5015 5.50187 15.6635 7.1699 15.9237 8.8284C16.5356 12.7402 17.5126 16.5519 19.073 20.2006C19.4342 21.046 19.8536 21.8648 20.3292 22.6521C20.5399 23.001 20.5103 23.285 20.2596 23.6024C16.9398 27.8039 12.8984 31.0456 7.8409 32.9453C5.67341 33.7593 3.42776 34.2263 1.12873 34.4522C0.927617 34.4723 0.663592 34.558 0.605449 34.2197C0.607355 24.8453 0.605449 15.4729 0.608308 6.0995C0.608308 5.91173 0.573994 5.71919 0.641669 5.53428L0.640716 5.53523Z" fill="#FEFEFE"/>
<path d="M29.0474 1.27652C32.2329 1.27175 35.4174 1.26603 38.6029 1.26317C40.7427 1.26127 42.8816 1.24697 45.0215 1.26889C47.2852 1.29177 49.386 3.28197 49.5452 5.51427C49.5948 5.66964 49.5719 5.82882 49.5719 5.98609C49.5728 11.6898 49.5728 17.3935 49.5728 23.0972C49.5728 23.7225 49.5204 23.7587 48.9275 23.5138C45.3503 22.0354 41.6225 21.1814 37.7784 20.7887C36.4211 20.6495 35.06 20.5838 33.6989 20.5256C33.2928 20.5085 33.0212 20.3645 32.7953 20.029C31.579 18.2161 30.807 16.2116 30.217 14.1289C29.545 11.7584 29.1513 9.33931 28.9826 6.88111C28.8787 5.36558 28.7291 3.85196 28.8444 2.33071C28.9998 1.99615 28.7891 1.59011 29.0484 1.27556L29.0474 1.27652Z" fill="#FEFEFE"/>
<path d="M28.9525 2.31363C28.9144 4.0074 28.9878 5.70021 29.1527 7.38254C29.5349 11.2695 30.2774 15.0707 32.097 18.5851C32.2209 18.8233 32.3791 19.0454 32.4906 19.2894C32.849 20.0701 33.3504 20.3951 34.3045 20.4218C38.67 20.5428 42.9592 21.2043 47.0969 22.6655C47.7536 22.8972 48.3979 23.164 49.0461 23.4185C49.1919 23.4757 49.3301 23.5529 49.5246 23.5358C49.5246 23.3547 49.5246 23.1821 49.5246 23.0087C49.5227 17.2878 49.5208 11.5669 49.5208 5.84604C49.5208 5.73643 49.537 5.62586 49.5465 5.51625C49.658 5.68973 49.6161 5.88608 49.6161 6.07194C49.6208 14.0404 49.6208 22.0088 49.6218 29.9772C49.6218 30.0401 49.6123 30.1031 49.6075 30.1669C49.5646 30.2012 49.5179 30.207 49.4674 30.1841C49.2806 30.0869 49.1452 29.9277 49.0032 29.7799C46.5965 27.2703 43.819 25.2562 40.7183 23.6988C37.7816 22.2233 34.6829 21.1967 31.445 20.6058C29.8523 20.315 28.2519 20.0834 26.6315 20.0177C26.4085 20.0081 26.1912 19.9576 26.0063 19.8146C25.4706 18.9244 25.1751 17.935 24.8596 16.958C23.9303 14.0804 23.4146 11.118 23.1144 8.11648C22.9152 6.13009 22.8637 4.13607 22.9047 2.14015C22.9075 1.98193 22.9142 1.8237 22.9628 1.66929C23.0286 1.36047 23.2326 1.30232 23.5233 1.30423C25.2018 1.31567 26.8794 1.32043 28.5579 1.30137C28.9182 1.29756 29.0516 1.40145 28.9973 1.75317C28.9687 1.93808 29.0354 2.13253 28.9534 2.31363H28.9525Z" fill="#C4C4C6"/>
<path d="M23.0504 1.73386C22.9779 4.5657 23.1152 7.3842 23.5108 10.1913C23.9769 13.5035 24.7337 16.7338 26.0881 19.8068C25.561 20.0412 25.2913 19.9602 25.0053 19.4379C24.441 18.4085 23.9835 17.3304 23.5946 16.2257C22.366 12.7314 21.6092 9.13135 21.2184 5.45405C21.1555 4.85928 21.0545 4.2626 21.0954 3.65734C21.1012 3.04351 21.0935 2.43062 21.0993 1.81774C21.1012 1.63187 21.0745 1.43743 21.207 1.27539C21.817 1.27539 22.427 1.27539 23.037 1.27634C23.1257 1.42599 23.099 1.57945 23.0504 1.73386Z" fill="#FEFEFE"/>
<path d="M23.0505 1.73388C23.0457 1.58138 23.0419 1.42887 23.0371 1.27637C25.0407 1.27637 27.0442 1.27637 29.0487 1.27637C28.9944 1.61951 29.1335 1.98171 28.9524 2.31341C28.9416 1.67479 28.6106 1.35548 27.9592 1.35548C26.5152 1.35548 25.0702 1.36978 23.6262 1.34404C23.2964 1.33832 23.1391 1.4508 23.0505 1.73388Z" fill="#CDCDCE"/>
<path d="M1.02048 40.3419C1.94505 40.2218 2.87152 40.1217 3.79228 39.9788C8.90122 39.1857 13.5088 37.1946 17.6684 34.1502C20.7223 31.9141 23.3445 29.2442 25.5854 26.2018C25.8055 25.9025 26.0219 25.7652 26.4041 25.7976C28.5202 25.9759 30.6228 26.2237 32.6655 26.8356C31.637 28.0356 30.6247 29.2509 29.4828 30.3499C27.0542 32.688 24.3882 34.7001 21.421 36.3196C18.1831 38.0867 14.747 39.2829 11.125 39.9444C9.55605 40.2313 7.96808 40.3686 6.37249 40.4744C4.79977 40.5783 3.2404 40.4563 1.67531 40.4372C1.45608 40.4344 1.23781 40.3753 1.01953 40.3429L1.02048 40.3419Z" fill="#C4C4C6"/>
</g>
<defs>
<clipPath id="clip0_549_331">
<rect width="242.21" height="50" fill="white" transform="translate(0.162109 0.740723)"/>
</clipPath>
</defs>
</svg>
