<svg width="238" height="57" viewBox="0 0 238 57" fill="none" xmlns="http://www.w3.org/2000/svg">
<g opacity="0.7" clip-path="url(#clip0_423_823)">
<path d="M0.369141 21.8334C0.369141 11.0363 7.21956 2.26074 16.6369 2.26074C18.9376 2.33396 21.1856 2.96865 23.1849 4.10951C25.1842 5.25038 26.8742 6.86281 28.1077 8.80634L27.3697 9.2395C26.2159 7.41668 24.6359 5.90191 22.766 4.82585C20.8962 3.74979 18.7927 3.14475 16.6369 3.06289C8.82388 3.06289 5.40669 13.0096 5.40669 21.7852C5.40669 30.5608 8.7597 40.4915 16.6369 40.4915C18.7909 40.4101 20.893 39.8069 22.7625 38.7338C24.632 37.6608 26.213 36.1499 27.3697 34.331L28.1077 34.7481C26.8798 36.7006 25.1922 38.3224 23.1926 39.4719C21.1929 40.6214 18.942 41.2634 16.6369 41.3418C7.21956 41.39 0.369141 32.6144 0.369141 21.8334ZM50.9692 24.2719L50.9692 40.5397L46.5253 40.5397L46.5253 37.9407C45.7617 38.9682 44.7669 39.8014 43.6213 40.3728C42.4757 40.9442 41.2117 41.2377 39.9315 41.2295C34.3966 41.2295 32.1185 39.4327 32.1185 35.2294C32.0864 30.7052 36.402 28.0581 46.5253 28.0581L46.5253 22.8441C46.5732 22.2553 46.4931 21.6631 46.2904 21.1083C46.0877 20.5534 45.7672 20.0491 45.3511 19.6298C44.9349 19.2106 44.4329 18.8865 43.8795 18.6798C43.3261 18.473 42.7346 18.3886 42.1455 18.4322C40.8784 18.3873 39.6157 18.605 38.4368 19.0716C37.2579 19.5382 36.1882 20.2436 35.2951 21.1435L34.7175 20.5499C35.6972 19.5726 36.8687 18.8086 38.1581 18.3061C39.4475 17.8036 40.8269 17.5734 42.2096 17.6301C47.0386 17.6301 50.9692 19.6996 50.9692 24.2719ZM46.5253 35.7588L46.5253 28.8442C37.7015 28.8442 36.8994 31.9245 36.8994 34.9567C36.8994 37.9888 37.4769 40.2188 41.1027 40.2188C42.9958 40.2188 46.5253 38.1011 46.5253 35.7588ZM77.665 23.6302L77.665 40.5397L73.1889 40.5397L73.1889 21.9296C73.1889 20.1328 72.451 18.4322 69.9803 18.4322C66.6915 18.4322 62.3277 22.9403 62.3277 26.1811L62.3277 40.6199L57.8838 40.6199L57.8838 18.7531L62.3438 18.7531L62.3438 23.0526C63.1309 21.4414 64.347 20.0783 65.8584 19.1132C67.3698 18.148 69.1179 17.6182 70.9108 17.5819C76.0607 17.5819 77.665 20.5018 77.665 23.6302ZM105.468 2.05218L105.468 40.5557L101.072 40.5557L101.072 36.4968C100.507 37.8381 99.5715 38.9909 98.3755 39.8205C97.1795 40.65 95.7721 41.122 94.3178 41.1814C91.2638 41.1015 88.3663 39.8135 86.2609 37.5998C84.1555 35.3862 83.0143 32.4277 83.0876 29.3736C83.0405 27.87 83.2905 26.3718 83.8233 24.9649C84.3561 23.5581 85.1611 22.2701 86.1924 21.1748C87.2236 20.0794 88.4608 19.1983 89.833 18.5818C91.2053 17.9653 92.6857 17.6255 94.1894 17.5819C95.6749 17.664 97.1083 18.1576 98.3294 19.0076C99.5505 19.8575 100.511 21.0303 101.104 22.3949L101.104 2.05218L105.468 2.05218ZM101.072 33.7374L101.072 24.8495C100.853 23.1675 100.062 21.612 98.8323 20.4437C97.6026 19.2753 96.0088 18.5652 94.3178 18.4322C88.7348 18.4322 87.9005 23.5339 87.9005 29.3736C87.9005 35.2133 88.6866 40.3311 94.3178 40.3311C96.0312 40.1792 97.6394 39.4399 98.8703 38.2383C100.101 37.0367 100.879 35.4466 101.072 33.7374ZM117.372 40.5397L112.896 40.5397L112.896 2.03613L117.372 2.03613L117.372 40.5397ZM141.934 34.7962L142.559 35.2775C141.767 37.006 140.505 38.4764 138.916 39.5206C137.327 40.5647 135.476 41.1403 133.575 41.1814C127.832 41.1814 123.211 35.9192 123.211 29.3736C123.211 22.828 127.832 17.5819 133.575 17.5819C134.815 17.5984 136.04 17.8617 137.177 18.3565C138.314 18.8512 139.341 19.5676 140.198 20.4637C141.056 21.3598 141.726 22.4177 142.17 23.5756C142.614 24.7335 142.823 25.9683 142.784 27.2078L128.105 27.2078L128.105 29.3255C128.105 35.1813 128.474 40.283 133.575 40.283C135.341 40.2342 137.057 39.6952 138.533 38.7262C140.01 37.7571 141.187 36.3964 141.934 34.7962ZM128.153 26.4538L138.26 26.4538C138.099 21.9778 137.249 18.4322 133.575 18.4322C129.324 18.4322 128.345 21.9296 128.153 26.4538ZM152.827 40.5397L148.367 40.5397L148.367 2.03613L152.827 2.03613L152.827 40.5397ZM161.009 18.7531L165.469 18.7531L165.469 40.5557L161.009 40.5557L161.009 18.7531ZM193.015 44.743C192.978 46.215 192.649 47.665 192.048 49.0091C191.446 50.3532 190.584 51.5646 189.511 52.5733C188.439 53.5819 187.176 54.3677 185.798 54.8852C184.419 55.4027 182.952 55.6416 181.48 55.5881C176.314 55.5881 171.742 52.6683 171.742 48.0318C171.75 46.8269 172.086 45.6469 172.713 44.6182C173.341 43.5895 174.236 42.7509 175.304 42.1921C174.19 42.0555 173.162 41.5267 172.404 40.7005C171.645 39.8743 171.206 38.8048 171.164 37.684C171.195 37.0517 171.35 36.4317 171.621 35.8595C171.892 35.2872 172.273 34.7741 172.743 34.3494C173.212 33.9246 173.761 33.5967 174.357 33.3843C174.953 33.1719 175.586 33.0793 176.218 33.1117L177.485 33.1117C176.035 32.5018 174.792 31.4849 173.906 30.1839C173.021 28.8829 172.531 27.3533 172.496 25.78C172.608 23.5057 173.616 21.3684 175.3 19.8352C176.983 18.302 179.205 17.4977 181.48 17.598C183.095 17.5835 184.687 17.9869 186.101 18.7691L192.518 18.7691L192.518 19.6194L187.384 19.6194C188.329 20.3476 189.097 21.2799 189.63 22.3468C190.163 23.4136 190.449 24.5873 190.464 25.78C190.352 28.0542 189.344 30.1915 187.66 31.7247C185.977 33.2579 183.755 34.0623 181.48 33.962L176.218 33.962C174.614 33.962 172.496 34.8123 172.496 36.4647C172.506 36.6948 172.562 36.9204 172.663 37.1277C172.763 37.3349 172.905 37.5194 173.079 37.6698C173.254 37.8201 173.457 37.9331 173.677 38.0018C173.896 38.0705 174.128 38.0933 174.357 38.069L186.101 38.069C187.897 38.0557 189.627 38.7471 190.92 39.9948C192.213 41.2424 192.965 42.9471 193.015 44.743ZM191.844 46.4435C191.848 45.898 191.744 45.3571 191.538 44.8521C191.332 44.3471 191.027 43.8881 190.642 43.5016C190.257 43.1151 189.799 42.8089 189.295 42.6006C188.791 42.3924 188.25 42.2862 187.705 42.2884L178.448 42.2884C177.686 42.2778 176.928 42.4183 176.221 42.7018C175.513 42.9852 174.868 43.4061 174.324 43.9401C173.779 44.474 173.346 45.1105 173.049 45.8128C172.752 46.5151 172.596 47.2693 172.592 48.0318C172.592 51.7538 176.539 54.7378 181.689 54.7378C187.159 54.7378 191.844 49.957 191.844 46.4435ZM177.405 25.7639C177.405 29.6945 177.935 33.0956 181.496 33.0956C185.058 33.0956 185.587 29.6945 185.587 25.7639C185.587 21.8334 185.042 18.4322 181.48 18.4322C177.919 18.4322 177.389 21.8334 177.389 25.7639L177.405 25.7639ZM217.048 23.6302L217.048 40.5397L212.572 40.5397L212.572 21.9296C212.572 20.1328 211.882 18.4322 209.363 18.4322C206.154 18.4322 201.711 22.9403 201.711 26.1811L201.711 40.6199L197.331 40.6199L197.331 2.11635L201.791 2.11635L201.791 23.0526C202.578 21.4414 203.794 20.0783 205.305 19.1132C206.817 18.148 208.565 17.6182 210.358 17.5819C215.508 17.5819 217.048 20.5018 217.048 23.6302ZM230.011 19.6034L230.011 38.1011C230.011 39.1118 230.492 40.283 231.711 40.283C232.675 40.2013 233.606 39.8875 234.423 39.3685L234.856 40.1225C233.752 40.8067 232.481 41.1731 231.182 41.1814C228.102 41.1814 225.551 40.0102 225.551 36.561L225.551 19.6034L221.829 19.6034L221.829 18.7531L225.551 18.7531L225.551 11.3572L230.011 11.3572L230.011 18.7531L236.925 18.7531L236.925 19.6034L230.011 19.6034ZM163.207 11.5337C162.515 11.5295 161.852 11.2526 161.363 10.7631C160.873 10.2736 160.596 9.61089 160.592 8.91864C160.592 7.47476 163.207 4.3303 163.207 2.11635C163.207 4.3303 165.886 7.47476 165.886 8.91864C165.882 9.26627 165.809 9.60967 165.672 9.92924C165.536 10.2488 165.337 10.5383 165.088 10.7811C164.839 11.0239 164.545 11.2154 164.222 11.3445C163.9 11.4736 163.555 11.5379 163.207 11.5337Z" fill="white"/>
</g>
<defs>
<clipPath id="clip0_423_823">
<rect width="237.438" height="56.151" fill="white" transform="translate(0 0.784668)"/>
</clipPath>
</defs>
</svg>
