<svg width="280" height="75" viewBox="0 0 280 75" fill="none" xmlns="http://www.w3.org/2000/svg">
<g clip-path="url(#clip0_423_764)">
<path d="M65.6297 55.4879H55.4638L52.1404 47.7798L51.2851 45.8902C50.8127 44.9246 50.3972 43.9257 49.9411 42.9601C49.5745 42.186 49.1998 41.4202 48.8007 40.6627C48.5156 40.1133 48.1653 39.5806 47.6684 39.2143C47.1064 38.7981 46.3325 38.6566 45.6809 38.9146C45.0781 39.156 44.7441 39.8802 44.4264 40.4046C43.7911 41.4285 43.286 42.5523 42.6507 43.5678C40.826 46.4812 38.4964 49.1116 35.7431 51.151C31.7436 54.1144 26.7259 55.4296 21.8384 55.4879C17.0569 55.5462 12.1614 54.4723 8.17811 51.6838C4.77322 49.3031 2.22361 45.807 0.944741 41.8031C0.822555 41.4285 0.716661 41.0456 0.618913 40.6627C0.211628 39.0978 -0.0164509 37.5079 -0.000159564 35.893C0.0161318 34.3281 0.244211 32.7631 0.675933 31.2648C1.10765 29.7665 1.71858 28.3763 2.51686 27.0695C3.30699 25.7709 4.27633 24.5889 5.39229 23.565C6.51639 22.5328 7.79527 21.6755 9.16374 21.0262C10.5322 20.3769 12.1369 19.9107 13.7009 19.711C15.3463 19.5029 17.1221 19.8025 18.6861 20.3186C20.2012 20.8181 21.6511 21.6089 22.8078 22.7409C23.5979 23.5234 24.2333 24.464 24.6243 25.5129C24.0459 24.0312 22.987 22.8075 21.7081 21.9169C20.3967 21.0012 18.8734 20.4185 17.3176 20.1105C16.2586 19.9024 15.1671 19.7859 14.0919 19.8941C13.2529 19.9773 12.4057 20.1771 11.5912 20.4268C10.1005 20.8763 8.68315 21.5672 7.39613 22.4662C6.14984 23.3403 5.04202 24.4058 4.10527 25.6127C3.16851 26.8197 2.41097 28.1599 1.84891 29.5917C1.27871 31.04 0.920304 32.5717 0.773681 34.12C0.627059 35.7182 0.708516 37.3414 1.00991 38.923C1.10765 39.439 1.22984 39.9468 1.37646 40.4463C2.01997 42.6438 3.04633 44.7165 4.41481 46.5395C7.48573 50.6183 11.9007 52.9241 16.8288 53.7482C19.0689 54.1227 21.3578 54.1644 23.6142 53.8647C25.5284 53.6066 27.459 53.1405 29.2184 52.3247C33.6823 50.2604 37.3967 46.7809 39.5635 42.2692C40.6387 40.0301 41.3311 37.6161 41.6895 35.1521C41.9013 33.6621 41.9664 32.1472 41.9094 30.6405C41.8198 28.5595 41.4044 26.4701 40.7364 24.4807C40.1011 22.5911 39.1888 20.8763 38.3416 19.0867C37.5759 17.4468 36.7776 15.8236 35.9957 14.1921C34.8715 11.8364 33.7393 9.49732 32.6152 7.1416C31.6947 5.22706 30.7661 3.31252 29.8538 1.38966C29.6339 0.923508 29.4058 0.465684 29.1859 -0.00878906H39.3517L48.7844 19.6527L65.6134 55.4796L65.6297 55.4879Z" fill="url(#paint0_linear_423_764)"/>
<path d="M98.6607 54.173C98.2698 53.79 97.8462 53.3822 97.3819 53.0908C96.7058 52.6663 96.0786 52.2501 95.3292 51.9587C93.8711 51.4094 92.3071 51.2512 90.7757 51.3844C87.607 51.6674 84.6827 53.0575 82.1087 54.8971C81.9784 54.997 81.8562 55.0803 81.7177 55.1802C79.5102 56.845 77.539 58.7762 75.5596 60.6741C75.3559 60.8738 75.1441 61.0819 74.9242 61.2734C67.088 68.84 57.9975 74.0092 47.2207 74.9832C57.9567 74.0758 67.2347 68.9898 75.136 61.5564C75.3559 61.8644 75.6084 62.1641 75.8772 62.4637C77.4819 64.2617 79.4206 65.7268 81.5874 66.734C83.3631 67.5664 85.2285 68.1574 87.1753 68.3988C89.8308 68.7234 92.5515 68.4238 95.0848 67.4832C96.6732 66.8755 98.1476 65.9432 99.2717 64.6446C99.8419 63.987 100.29 63.2296 100.575 62.4138C100.722 61.9643 100.827 61.5065 100.876 61.0403C101.104 58.6596 100.363 55.8627 98.6526 54.1813L98.6607 54.173ZM98.8888 61.8561C98.1394 63.4709 96.7384 64.6197 95.0359 65.0359C92.7796 65.5853 90.1811 65.0276 88.2831 63.6624C86.8251 62.5969 85.6847 61.1652 84.6176 59.7001C83.9007 58.7096 83.2247 57.694 82.5649 56.6452C82.3612 56.3122 82.1494 55.971 81.9702 55.6297C84.4384 53.815 87.1183 52.4499 90.1892 52.1585C92.5678 51.7839 95.0685 52.3916 96.9501 53.9981C96.9827 54.0231 97.0072 54.0481 97.0479 54.0814C97.1782 54.2062 97.3167 54.3311 97.447 54.456C99.3205 56.3788 100.037 59.3589 98.8807 61.8644L98.8888 61.8561Z" fill="url(#paint1_linear_423_764)"/>
<path d="M81.2617 54.4811C80.9522 54.6726 80.659 54.9473 80.3576 55.172C80.0317 55.4217 79.7059 55.6881 79.3801 55.9461C78.7366 56.4789 78.1094 57.0283 77.4903 57.586C76.6431 58.3518 75.8041 59.1176 74.9814 59.9167C74.7696 60.1248 74.5415 60.3246 74.3298 60.5161C74.2483 60.4245 74.1831 60.3246 74.118 60.2331C73.1894 58.9511 72.44 57.5693 71.7231 56.1376C70.7782 54.2897 69.9148 52.3834 69.0106 50.4939C67.6096 47.5804 66.2167 44.6753 64.8156 41.7619C63.3249 38.6487 61.8343 35.5521 60.3436 32.4389C59.1462 29.9667 57.9651 27.4861 56.7758 25.0139C56.287 23.99 55.8065 22.9911 55.3096 21.9839H65.4754C65.6872 21.9839 66.6076 24.3396 66.7135 24.5394L69.817 30.9822C72.0978 35.7269 74.4601 40.4384 76.6187 45.2414C77.3437 46.8479 81.1966 54.3895 81.2536 54.4728L81.2617 54.4811Z" fill="url(#paint2_linear_423_764)"/>
<path d="M96.9501 57.4279H91.2236V28.9429H96.9501V57.4279Z" fill="white"/>
<path d="M107.352 37.6582V40.0888C108.77 37.8247 110.195 36.9673 112.614 36.9673C114.455 36.9673 116.207 37.6499 117.38 38.8069C118.634 40.0888 119.09 41.6704 119.09 44.9168V57.4279H113.779V45.1665C113.779 44.0594 113.657 43.4185 113.323 42.8607C112.818 42.0533 111.816 41.5372 110.774 41.5372C108.729 41.5372 107.344 43.1188 107.344 45.4246V57.4279H102.033V37.6582H107.344H107.352Z" fill="white"/>
<path d="M129.378 51.6176C129.378 52.5583 129.712 52.8163 130.885 52.8995H131.805V57.4278H127.586C124.995 57.3446 124.034 56.2708 124.075 53.6654V42.1365H121.859V37.5666H124.075V32.2725H129.386V37.5666H131.813V42.1365H129.386V51.6176H129.378Z" fill="white"/>
<path d="M139.324 48.8457C139.78 51.576 141.751 53.2908 144.382 53.2908C146.345 53.2908 148.015 52.3085 148.854 50.727L153.742 52.0921C151.819 55.9379 148.431 58.1104 144.341 58.1104C138.2 58.1104 133.809 53.6654 133.809 47.5222C133.809 41.379 138.029 36.9756 144.007 36.9756C149.986 36.9756 154.499 41.4206 154.499 47.7802L154.458 48.8457H139.332H139.324ZM149.017 45.7242C148.561 43.1188 146.72 41.5372 144.089 41.5372C141.458 41.5372 139.829 43.0355 139.324 45.7242H149.017Z" fill="white"/>
<path d="M163.191 37.6582V40.5633C163.737 39.1149 164.111 38.5155 164.901 37.9162C165.74 37.3169 166.865 36.9756 168.038 36.9756C168.16 36.9756 168.372 36.9756 168.665 37.0172V42.5694C168.249 42.5278 167.826 42.4861 167.541 42.4861C166.074 42.4861 164.739 43.1687 163.989 44.2758C163.362 45.1748 163.191 46.0239 163.191 47.9051V57.4279H157.88V37.6582H163.191Z" fill="white"/>
<path d="M176.436 37.6582V40.1387C177.65 37.9578 179.279 36.9756 181.747 36.9756C184.215 36.9756 186.097 38.1326 187.009 40.2636C188.304 37.9994 190.104 36.9756 192.858 36.9756C194.821 36.9756 196.45 37.6165 197.541 38.8152C198.714 40.1387 199.089 41.5039 199.089 44.4922V57.4362H193.778V45.5244C193.778 42.8357 192.817 41.5538 190.813 41.5538C188.809 41.5538 187.718 43.0022 187.718 45.5244V57.4362H182.407V45.6909C182.407 42.9606 181.405 41.5455 179.482 41.5455C177.56 41.5455 176.428 42.9523 176.428 45.6909V57.4362H171.117V37.6665H176.428L176.436 37.6582Z" fill="white"/>
<path d="M208.074 48.8457C208.53 51.576 210.501 53.2908 213.132 53.2908C215.095 53.2908 216.765 52.3085 217.604 50.727L222.492 52.0921C220.569 55.9379 217.181 58.1104 213.091 58.1104C206.95 58.1104 202.559 53.6654 202.559 47.5222C202.559 41.379 206.779 36.9756 212.757 36.9756C218.736 36.9756 223.249 41.4206 223.249 47.7802L223.208 48.8457H208.082H208.074ZM217.767 45.7242C217.311 43.1188 215.47 41.5372 212.839 41.5372C210.208 41.5372 208.579 43.0355 208.074 45.7242H217.767Z" fill="white"/>
<path d="M240.086 52.858V57.4279H224.243L232.348 42.2198H224.992V37.6499H240.664L232.6 52.858H240.078H240.086Z" fill="white"/>
<path d="M257.265 52.858V57.4279H241.422L249.527 42.2198H242.171V37.6499H257.844L249.779 52.858H257.257H257.265Z" fill="white"/>
<path d="M280 47.7386C280 53.5488 275.365 58.1187 269.427 58.1187C263.489 58.1187 258.935 53.7236 258.935 47.5721C258.935 41.4206 263.236 36.9839 269.508 36.9839C275.78 36.9839 280 41.5122 280 47.7469V47.7386ZM264.287 47.5638C264.287 50.9767 266.38 53.2824 269.467 53.2824C272.555 53.2824 274.648 50.9351 274.648 47.647C274.648 44.0594 272.685 41.8368 269.508 41.8368C266.331 41.8368 264.287 44.101 264.287 47.5555V47.5638Z" fill="white"/>
</g>
<defs>
<linearGradient id="paint0_linear_423_764" x1="19.9999" y1="-0.000117674" x2="82.2455" y2="10.1797" gradientUnits="userSpaceOnUse">
<stop offset="0.174" stop-color="#8B50EA"/>
<stop offset="0.536799" stop-color="#FBAAD4"/>
<stop offset="0.857731" stop-color="#F97E53"/>
</linearGradient>
<linearGradient id="paint1_linear_423_764" x1="48.5514" y1="37.4703" x2="121.043" y2="61.6786" gradientUnits="userSpaceOnUse">
<stop offset="0.174" stop-color="#8B50EA"/>
<stop offset="0.536799" stop-color="#FBAAD4"/>
<stop offset="0.857731" stop-color="#F97E53"/>
</linearGradient>
<linearGradient id="paint2_linear_423_764" x1="55.9527" y1="-0.619689" x2="94.5181" y2="3.19969" gradientUnits="userSpaceOnUse">
<stop offset="0.174" stop-color="#8B50EA"/>
<stop offset="0.536799" stop-color="#FBAAD4"/>
<stop offset="0.857731" stop-color="#F97E53"/>
</linearGradient>
<clipPath id="clip0_423_764">
<rect width="280" height="75" fill="white"/>
</clipPath>
</defs>
</svg>
