<svg width="205" height="146" viewBox="0 0 205 146" fill="none" xmlns="http://www.w3.org/2000/svg">
<path d="M6.21726 144.764H0V114H6.21726V144.764Z" fill="#49336C"/>
<path d="M17.5109 123.412V126.037C19.0497 123.592 20.5974 122.666 23.2241 122.666C25.2228 122.666 27.1242 123.403 28.3977 124.653C29.7597 126.037 30.2549 127.745 30.2549 131.251V144.763H24.4887V131.521C24.4887 130.326 24.3561 129.633 23.9935 129.031C23.4451 128.159 22.3574 127.602 21.2253 127.602C19.0055 127.602 17.5021 129.31 17.5021 131.8V144.763H11.7358V123.412H17.5021H17.5109Z" fill="#49336C"/>
<path d="M41.4249 138.488C41.4249 139.504 41.7875 139.783 43.061 139.873H44.0603V144.764H39.4792C36.6669 144.674 35.6233 143.514 35.6675 140.7V128.249H33.262V123.313H35.6675V117.596H41.4337V123.313H44.0692V128.249H41.4337V138.488H41.4249Z" fill="#49336C"/>
<path d="M52.2231 135.496C52.7184 138.444 54.8586 140.296 57.7152 140.296C59.8466 140.296 61.6596 139.235 62.5705 137.527L67.8768 139.002C65.7897 143.155 62.1106 145.501 57.671 145.501C51.0027 145.501 46.2358 140.701 46.2358 134.066C46.2358 127.431 50.817 122.676 57.3084 122.676C63.7998 122.676 68.6993 127.476 68.6993 134.345L68.6551 135.496H52.232H52.2231ZM62.7474 132.124C62.2521 129.31 60.2534 127.602 57.3968 127.602C54.5403 127.602 52.7715 129.221 52.2231 132.124H62.7474Z" fill="#49336C"/>
<path d="M78.1358 123.413V126.55C78.7284 124.986 79.1352 124.339 79.9931 123.692C80.904 123.044 82.1244 122.676 83.398 122.676C83.5306 122.676 83.7606 122.676 84.0789 122.721V128.717C83.6279 128.672 83.168 128.627 82.8585 128.627C81.2666 128.627 79.8162 129.364 79.0025 130.56C78.3216 131.531 78.1358 132.448 78.1358 134.48V144.764H72.3696V123.413H78.1358Z" fill="#49336C"/>
<path d="M92.516 123.413V126.092C93.8338 123.737 95.6025 122.676 98.2822 122.676C100.962 122.676 103.005 123.925 103.995 126.227C105.402 123.782 107.356 122.676 110.345 122.676C112.477 122.676 114.245 123.368 115.431 124.663C116.704 126.092 117.111 127.566 117.111 130.794V144.773H111.345V131.909C111.345 129.005 110.301 127.62 108.125 127.62C105.95 127.62 104.765 129.185 104.765 131.909V144.773H98.9986V132.088C98.9986 129.14 97.9108 127.611 95.8236 127.611C93.7365 127.611 92.5072 129.131 92.5072 132.088V144.773H86.741V123.422H92.5072L92.516 123.413Z" fill="#49336C"/>
<path d="M126.866 135.496C127.361 138.444 129.501 140.296 132.358 140.296C134.489 140.296 136.302 139.235 137.213 137.527L142.519 139.002C140.432 143.155 136.753 145.501 132.314 145.501C125.645 145.501 120.878 140.701 120.878 134.066C120.878 127.431 125.46 122.676 131.951 122.676C138.442 122.676 143.342 127.476 143.342 134.345L143.298 135.496H126.875H126.866ZM137.39 132.124C136.895 129.31 134.896 127.602 132.039 127.602C129.183 127.602 127.414 129.221 126.866 132.124H137.39Z" fill="#49336C"/>
<path d="M161.622 139.828V144.764H144.421L153.22 128.339H145.234V123.403H162.25L153.495 139.828H161.613H161.622Z" fill="#49336C"/>
<path d="M180.274 139.828V144.764H163.073L171.872 128.339H163.886V123.403H180.902L172.146 139.828H180.265H180.274Z" fill="#49336C"/>
<path d="M204.957 134.3C204.957 140.575 199.925 145.51 193.478 145.51C187.031 145.51 182.087 140.763 182.087 134.12C182.087 127.476 186.756 122.685 193.566 122.685C200.376 122.685 204.957 127.575 204.957 134.309V134.3ZM187.897 134.111C187.897 137.797 190.17 140.287 193.522 140.287C196.874 140.287 199.147 137.752 199.147 134.201C199.147 130.326 197.015 127.926 193.566 127.926C190.117 127.926 187.897 130.371 187.897 134.102V134.111Z" fill="#49336C"/>
<path d="M83.8936 70.9317H70.8988L66.6505 61.0786L65.5572 58.6632C64.9533 57.4289 64.4222 56.152 63.8391 54.9177C63.3706 53.9281 62.8916 52.9492 62.3814 51.9809C62.017 51.2786 61.5692 50.5976 60.9341 50.1295C60.2156 49.5974 59.2264 49.4165 58.3934 49.7464C57.6229 50.055 57.196 50.9807 56.7899 51.651C55.9777 52.9598 55.3321 54.3963 54.5199 55.6945C52.1875 59.4186 49.2096 62.7811 45.6901 65.388C40.5776 69.176 34.1635 70.8572 27.916 70.9317C21.8039 71.0062 15.5459 69.6336 10.4542 66.069C6.1018 63.0258 2.84268 58.5568 1.20792 53.4387C1.05173 52.9598 0.916368 52.4704 0.791418 51.9809C0.270793 49.9805 -0.0207572 47.9481 6.7794e-05 45.8839C0.0208928 43.8835 0.312443 41.883 0.864306 39.9677C1.41617 38.0524 2.19711 36.2755 3.21753 34.6049C4.22755 32.945 5.46663 31.434 6.89315 30.1252C8.33007 28.8058 9.96484 27.7098 11.7141 26.8799C13.4634 26.0499 15.5147 25.454 17.5139 25.1987C19.6172 24.9326 21.8872 25.3157 23.8864 25.9754C25.8231 26.6139 27.6765 27.6247 29.1551 29.0718C30.1651 30.072 30.9773 31.2744 31.4771 32.6151C30.7378 30.7211 29.3842 29.1569 27.7494 28.0184C26.073 26.8479 24.1258 26.1031 22.1371 25.7094C20.7834 25.4434 19.3882 25.2944 18.0137 25.4328C16.9412 25.5392 15.8583 25.7945 14.8171 26.1137C12.9116 26.6883 11.0998 27.5715 9.45462 28.7207C7.86151 29.8379 6.44541 31.1999 5.24797 32.7428C4.05053 34.2857 3.08217 35.9988 2.36371 37.829C1.63483 39.6804 1.17668 41.6383 0.989256 43.6174C0.801831 45.6604 0.905956 47.7353 1.29122 49.757C1.41617 50.4167 1.57236 51.0658 1.75978 51.7043C2.58237 54.5134 3.89434 57.1629 5.64365 59.4931C9.56916 64.707 15.2127 67.6544 21.5123 68.7078C24.3757 69.1867 27.3017 69.2399 30.1859 68.8568C32.6329 68.527 35.1006 67.9311 37.3497 66.8883C43.0558 64.2495 47.8039 59.8017 50.5736 54.0345C51.9481 51.1722 52.8331 48.0865 53.2913 44.9369C53.562 43.0322 53.6453 41.0956 53.5724 39.1697C53.4579 36.5096 52.9268 33.8388 52.073 31.2957C51.2608 28.8803 50.0946 26.6883 49.0117 24.4006C48.033 22.3044 47.0125 20.2295 46.0129 18.144C44.576 15.1327 43.1287 12.1427 41.6917 9.13144C40.5151 6.68411 39.3281 4.23679 38.1619 1.77882C37.8808 1.18295 37.5892 0.597722 37.3081 -0.00878906H50.3029L62.3606 25.1242L83.8728 70.9211L83.8936 70.9317Z" fill="url(#paint0_linear_549_846)"/>
<path d="M126.116 69.251C125.616 68.7615 125.075 68.2401 124.481 67.8677C123.617 67.325 122.815 66.793 121.857 66.4206C119.994 65.7183 117.994 65.5162 116.037 65.6864C111.986 66.0482 108.248 67.8251 104.958 70.1767C104.791 70.3044 104.635 70.4108 104.458 70.5385C101.636 72.6666 99.1165 75.1352 96.5863 77.5612C96.326 77.8166 96.0553 78.0826 95.7741 78.3274C85.7573 87.9996 74.1369 94.6074 60.3612 95.8523C74.0849 94.6925 85.9447 88.1911 96.0449 78.6891C96.326 79.0828 96.6488 79.4659 96.9924 79.849C99.0437 82.1473 101.522 84.0201 104.292 85.3076C106.561 86.3716 108.946 87.1271 111.435 87.4357C114.829 87.8506 118.307 87.4676 121.545 86.2652C123.576 85.4885 125.46 84.2967 126.897 82.6368C127.626 81.7962 128.199 80.8279 128.563 79.7851C128.751 79.2105 128.886 78.6253 128.948 78.0294C129.24 74.9862 128.292 71.411 126.106 69.2616L126.116 69.251ZM126.408 79.0722C125.45 81.1365 123.659 82.6049 121.483 83.1369C118.598 83.8392 115.277 83.1263 112.851 81.3812C110.987 80.0192 109.529 78.189 108.165 76.3163C107.249 75.0501 106.384 73.7519 105.541 72.4112C105.281 71.9856 105.01 71.5493 104.781 71.1131C107.936 68.7934 111.362 67.0484 115.287 66.676C118.328 66.1971 121.524 66.9739 123.93 69.0275C123.971 69.0595 124.002 69.0914 124.054 69.1339C124.221 69.2935 124.398 69.4532 124.565 69.6128C126.96 72.0707 127.876 75.88 126.397 79.0828L126.408 79.0722Z" fill="url(#paint1_linear_549_846)"/>
<path d="M103.875 69.6447C103.479 69.8894 103.105 70.2405 102.719 70.5278C102.303 70.8471 101.886 71.1876 101.47 71.5174C100.647 72.1984 99.8454 72.9007 99.0541 73.6136C97.9712 74.5925 96.8987 75.5715 95.847 76.593C95.5763 76.859 95.2847 77.1143 95.014 77.3591C94.9099 77.242 94.8266 77.1143 94.7433 76.9973C93.5563 75.3586 92.5983 73.5923 91.682 71.7621C90.4742 69.3999 89.3704 66.9633 88.2147 64.5479C86.4237 60.8237 84.6432 57.1101 82.8522 53.3859C80.9467 49.4064 79.0412 45.4481 77.1358 41.4685C75.6051 38.3083 74.0953 35.1374 72.5751 31.9772C71.9503 30.6684 71.336 29.3915 70.7008 28.104H83.6956C83.9664 28.104 85.143 31.1153 85.2783 31.3706L89.2455 39.6064C92.161 45.6715 95.1806 51.6941 97.9399 57.8337C98.8666 59.8873 103.792 69.5276 103.865 69.634L103.875 69.6447Z" fill="url(#paint2_linear_549_846)"/>
<defs>
<linearGradient id="paint0_linear_549_846" x1="47.9359" y1="-21.0896" x2="151.08" y2="14.5727" gradientUnits="userSpaceOnUse">
<stop stop-color="#8B50EA"/>
<stop offset="0.346119" stop-color="#FBAAD4"/>
<stop offset="1" stop-color="#F97E53"/>
</linearGradient>
<linearGradient id="paint1_linear_549_846" x1="67.9576" y1="-23.4007" x2="154.498" y2="9.73797" gradientUnits="userSpaceOnUse">
<stop offset="0.180958" stop-color="#8B50EA"/>
<stop offset="0.51525" stop-color="#FBAAD4"/>
<stop offset="1" stop-color="#F69770"/>
</linearGradient>
<linearGradient id="paint2_linear_549_846" x1="67.9576" y1="-23.4007" x2="154.498" y2="9.73797" gradientUnits="userSpaceOnUse">
<stop offset="0.180958" stop-color="#8B50EA"/>
<stop offset="0.51525" stop-color="#FBAAD4"/>
<stop offset="1" stop-color="#F69770"/>
</linearGradient>
</defs>
</svg>
