<svg width="885" height="658" viewBox="0 0 885 658" fill="none" xmlns="http://www.w3.org/2000/svg">
<g opacity="0.1">
<path d="M575.533 486.666H486.386L457.242 419.071L449.742 402.501C445.599 394.034 441.956 385.274 437.956 376.806C434.741 370.018 431.455 363.302 427.955 356.659C425.455 351.842 422.384 347.17 418.026 343.958C413.097 340.308 406.311 339.067 400.597 341.33C395.311 343.447 392.382 349.798 389.596 354.397C384.025 363.375 379.596 373.23 374.024 382.135C358.023 407.684 337.594 430.751 313.45 448.635C278.377 474.621 234.375 486.155 191.516 486.666C149.585 487.177 106.655 477.76 71.7247 453.306C41.8662 432.43 19.5081 401.771 8.29326 366.66C7.22178 363.375 6.29317 360.017 5.43598 356.659C1.86439 342.936 -0.135699 328.994 0.00716449 314.833C0.150028 301.109 2.15012 287.386 5.93601 274.247C9.72189 261.107 15.0793 248.917 22.0796 237.457C29.0085 226.069 37.5089 215.704 47.295 206.725C57.1526 197.674 68.3674 190.155 80.368 184.461C92.3685 178.768 106.441 174.68 120.155 172.928C134.585 171.103 150.157 173.731 163.872 178.257C177.158 182.637 189.873 189.571 200.016 199.499C206.945 206.36 212.517 214.609 215.946 223.806C210.874 210.813 201.588 200.083 190.373 192.272C178.872 184.242 165.515 179.133 151.871 176.432C142.585 174.607 133.013 173.585 123.584 174.534C116.227 175.264 108.798 177.016 101.655 179.206C88.5826 183.148 76.1535 189.206 64.8673 197.09C53.9382 204.754 44.2235 214.098 36.0088 224.682C27.7941 235.267 21.151 247.019 16.2222 259.575C11.222 272.276 8.07896 285.707 6.79319 299.284C5.50741 313.3 6.22173 327.534 8.86471 341.403C9.72189 345.929 10.7934 350.382 12.0791 354.762C17.7223 374.033 26.7227 392.209 38.7232 408.195C65.653 443.963 104.369 464.183 147.585 471.41C167.229 474.694 187.301 475.059 207.088 472.431C223.875 470.169 240.804 466.081 256.233 458.927C295.378 440.824 327.951 410.312 346.952 370.748C356.381 351.112 362.452 329.943 365.595 308.336C367.452 295.27 368.024 281.984 367.524 268.772C366.738 250.523 363.095 232.201 357.238 214.755C351.666 198.185 343.666 183.147 336.237 167.453C329.522 153.073 322.522 138.839 315.664 124.532C305.807 103.874 295.878 83.3617 286.02 62.7037C277.948 45.9146 269.805 29.1255 261.805 12.2634C259.876 8.17558 257.876 4.16078 255.947 0H345.094L427.812 172.417L575.391 486.593L575.533 486.666Z" fill="#8A8A8A"/>
<path d="M865.19 475.134C861.761 471.777 858.046 468.2 853.975 465.645C848.046 461.922 842.546 458.272 835.974 455.717C823.188 450.9 809.473 449.513 796.044 450.681C768.257 453.162 742.613 465.353 720.04 481.485C718.897 482.361 717.826 483.091 716.611 483.967C697.253 498.566 679.967 515.501 662.609 532.144C660.823 533.896 658.966 535.721 657.037 537.4C588.32 603.754 508.602 649.084 414.098 657.625C508.245 649.668 589.606 605.068 658.894 539.882C660.823 542.583 663.038 545.211 665.395 547.839C679.467 563.606 696.468 576.453 715.469 585.286C731.041 592.585 747.398 597.768 764.471 599.885C787.757 602.732 811.616 600.104 833.831 591.855C847.76 586.526 860.689 578.351 870.547 566.964C875.547 561.197 879.476 554.554 881.976 547.401C883.262 543.459 884.19 539.444 884.619 535.356C886.619 514.479 880.119 489.953 865.118 475.207L865.19 475.134ZM867.19 542.51C860.618 556.671 848.332 566.745 833.402 570.394C813.616 575.212 790.829 570.321 774.185 558.35C761.399 549.006 751.399 536.451 742.041 523.604C735.755 514.917 729.826 506.012 724.04 496.814C722.255 493.894 720.397 490.902 718.826 487.909C740.47 471.995 763.971 460.024 790.901 457.469C811.759 454.184 833.688 459.513 850.189 473.601C850.475 473.82 850.689 474.039 851.046 474.331C852.189 475.426 853.403 476.521 854.546 477.616C870.976 494.478 877.262 520.611 867.118 542.583L867.19 542.51Z" fill="#8A8A8A"/>
<path d="M712.611 477.837C709.897 479.516 707.325 481.925 704.682 483.896C701.825 486.086 698.968 488.421 696.11 490.684C690.467 495.356 684.967 500.174 679.538 505.065C672.109 511.78 664.752 518.496 657.537 525.504C655.68 527.328 653.68 529.08 651.823 530.759C651.108 529.956 650.537 529.08 649.965 528.277C641.822 517.036 635.25 504.919 628.964 492.363C620.678 476.158 613.107 459.442 605.178 442.872C592.891 417.323 580.677 391.847 568.39 366.299C555.318 338.998 542.246 311.844 529.174 284.543C518.674 262.863 508.316 241.11 497.887 219.43C493.601 210.452 489.387 201.692 485.029 192.86H574.176C576.033 192.86 584.105 213.518 585.034 215.27L612.249 271.769C632.25 313.377 652.965 354.692 671.895 396.811C678.252 410.899 712.04 477.034 712.54 477.764L712.611 477.837Z" fill="#8A8A8A"/>
</g>
</svg>
