<svg width="447" height="391" viewBox="0 0 447 391" fill="none" xmlns="http://www.w3.org/2000/svg">
<path d="M1.0003 336.588L1 77.6707C1 16.387 25.4501 1.17234 66.9588 1.17234H187.496C250.135 1.17232 294.924 -3.39336 316.186 34.4763C328.573 56.5396 318.742 72.9441 346.597 101.379C383.736 138.562 445.577 101.379 445.577 173.012V325.323C445.577 366.584 419.426 388.68 387.756 388.96C299.21 389.745 109.044 390.843 56.7426 388.96C4.44117 387.077 1.0003 350.18 1.0003 336.588Z" fill="#FCAFCF"/>
<path d="M1.0003 336.588L1 77.6707C1 16.387 25.4501 1.17234 66.9588 1.17234H187.496C250.135 1.17232 294.924 -3.39336 316.186 34.4763C328.573 56.5396 318.742 72.9441 346.597 101.379C383.736 138.562 445.577 101.379 445.577 173.012V325.323C445.577 366.584 419.426 388.68 387.756 388.96C299.21 389.745 109.044 390.843 56.7426 388.96C4.44117 387.077 1.0003 350.18 1.0003 336.588Z" />
<path d="M1.0003 336.588L1 77.6707C1 16.387 25.4501 1.17234 66.9588 1.17234H187.496C250.135 1.17232 294.924 -3.39336 316.186 34.4763C328.573 56.5396 318.742 72.9441 346.597 101.379C383.736 138.562 445.577 101.379 445.577 173.012V325.323C445.577 366.584 419.426 388.68 387.756 388.96C299.21 389.745 109.044 390.843 56.7426 388.96C4.44117 387.077 1.0003 350.18 1.0003 336.588Z" />
<path d="M1.0003 336.588L1 77.6707C1 16.387 25.4501 1.17234 66.9588 1.17234H187.496C250.135 1.17232 294.924 -3.39336 316.186 34.4763C328.573 56.5396 318.742 72.9441 346.597 101.379C383.736 138.562 445.577 101.379 445.577 173.012V325.323C445.577 366.584 419.426 388.68 387.756 388.96C299.21 389.745 109.044 390.843 56.7426 388.96C4.44117 387.077 1.0003 350.18 1.0003 336.588Z" />
</svg>
