<svg width="24" height="24" viewBox="0 0 24 24" fill="none" xmlns="http://www.w3.org/2000/svg">
<path d="M12 17.4751L5.93486 11.628L7.14686 10.4401L11.1429 14.2913V0H12.8571V14.2913L16.8514 10.4418L18.0651 11.628L12 17.4751ZM2.76857 23.1305C1.98 23.1305 1.32171 22.876 0.793714 22.3672C0.264571 21.8572 0 21.2222 0 20.4622V16.459H1.71429V20.4622C1.71429 20.7155 1.824 20.9485 2.04343 21.1611C2.264 21.3726 2.50571 21.4783 2.76857 21.4783H21.2314C21.4943 21.4783 21.736 21.3726 21.9566 21.1611C22.176 20.9485 22.2857 20.7155 22.2857 20.4622V16.459H24V20.4622C24 21.2222 23.736 21.8566 23.208 22.3655C22.6789 22.8755 22.02 23.1305 21.2314 23.1305H2.76857Z" fill="#F69770"/>
</svg>
