<svg width="25" height="25" viewBox="0 0 25 25" xmlns="http://www.w3.org/2000/svg">
<path d="M11.6672 0.584321C11.7293 0.413102 11.8427 0.265168 11.9918 0.160625C12.141 0.0560824 12.3187 0 12.5009 0C12.683 0 12.8608 0.0560824 13.0099 0.160625C13.1591 0.265168 13.2724 0.413102 13.3346 0.584321L14.1825 2.90094C14.8466 4.71751 15.8992 6.36722 17.2669 7.73487C18.6346 9.10253 20.2843 10.1552 22.1008 10.8193L24.4157 11.6672C24.5869 11.7293 24.7348 11.8427 24.8394 11.9918C24.9439 12.141 25 12.3187 25 12.5009C25 12.683 24.9439 12.8608 24.8394 13.0099C24.7348 13.1591 24.5869 13.2724 24.4157 13.3346L22.1008 14.1825C20.2843 14.8466 18.6346 15.8992 17.2669 17.2669C15.8992 18.6346 14.8466 20.2843 14.1825 22.1008L13.3346 24.4157C13.2724 24.5869 13.1591 24.7348 13.0099 24.8394C12.8608 24.9439 12.683 25 12.5009 25C12.3187 25 12.141 24.9439 11.9918 24.8394C11.8427 24.7348 11.7293 24.5869 11.6672 24.4157L10.8193 22.1008C10.1552 20.2843 9.10253 18.6346 7.73487 17.2669C6.36722 15.8992 4.71751 14.8466 2.90094 14.1825L0.584321 13.3346C0.413102 13.2724 0.265168 13.1591 0.160625 13.0099C0.0560824 12.8608 0 12.683 0 12.5009C0 12.3187 0.0560824 12.141 0.160625 11.9918C0.265168 11.8427 0.413102 11.7293 0.584321 11.6672L2.90094 10.8193C4.71751 10.1552 6.36722 9.10253 7.73487 7.73487C9.10253 6.36722 10.1552 4.71751 10.8193 2.90094L11.6672 0.584321Z"/>
</svg>
