<svg width="37" height="36" viewBox="0 0 37 36" xmlns="http://www.w3.org/2000/svg">
<path fill-rule="evenodd" clip-rule="evenodd" d="M27.7979 8.97453C28.4373 9.61468 28.4373 10.6526 27.7979 11.2927L11.4509 27.6591C10.8115 28.2992 9.77487 28.2992 9.13548 27.6591C8.49608 27.0189 8.49608 25.981 9.13548 25.3409L25.4824 8.97453C26.1218 8.33438 27.1585 8.33438 27.7979 8.97453Z"/>
<path fill-rule="evenodd" clip-rule="evenodd" d="M27.7979 8.9747C28.1049 9.28212 28.2774 9.69906 28.2774 10.1338L28.2774 24.4981C28.2774 25.4035 27.5444 26.1374 26.6401 26.1374C25.7359 26.1374 25.0029 25.4035 25.0029 24.4981L25.0029 11.773L11.5425 11.773C10.6382 11.7731 9.90519 11.0392 9.90519 10.1338C9.90518 9.22852 10.6382 8.49462 11.5425 8.49462L26.6401 8.49459C27.0744 8.49459 27.4908 8.66729 27.7979 8.9747Z"/>
</svg>
