<svg width="217" height="73" viewBox="0 0 217 73" fill="none" xmlns="http://www.w3.org/2000/svg">
<g opacity="0.6" clip-path="url(#clip0_549_564)">
<path d="M52.1123 8.10753H57.7078V10.9143C57.7612 10.9525 57.8146 10.9906 57.8756 11.0211C57.9137 10.9296 57.9365 10.8228 57.9975 10.7389C59.7661 8.48889 62.1446 7.71091 64.9195 7.9321C69.8137 8.33634 72.6344 11.9898 73.2061 16.322C73.511 18.656 73.3738 20.9441 72.4743 23.1408C70.82 27.1832 67.1074 29.0061 63.0366 28.5561C60.8715 28.3196 59.1487 27.3128 57.7307 25.5967C57.7307 27.2671 57.7307 28.9451 57.7307 30.6154C57.7307 32.2858 57.7307 33.9943 57.7307 35.7104H52.1123V8.10753ZM57.6697 18.1754C57.7536 18.7932 57.7993 19.4187 57.9442 20.0212C58.4397 22.1111 60.1092 23.6289 62.076 23.8043C64.363 24.0103 66.185 23.0111 67.0617 20.9746C67.8621 19.1288 67.8774 17.2297 67.0464 15.3915C66.2612 13.6373 64.8662 12.6381 62.9146 12.5618C60.9401 12.4855 59.4536 13.3398 58.4702 15.0559C57.9213 16.0169 57.7155 17.0695 57.6774 18.1831L57.6697 18.1754Z" fill="#24252D" fill-opacity="0.7"/>
<path d="M21.5653 57.1811C22.7012 58.4396 23.8142 59.6828 24.973 60.9718C24.6757 61.254 24.4088 61.521 24.1268 61.7727C21.733 63.9083 18.981 65.3346 15.7716 65.6321C8.90295 66.2651 3.2083 62.1464 1.55404 56.0142C0.189457 50.9573 1.08901 46.3047 4.80921 42.4682C7.88904 39.2953 11.7693 38.0902 16.1375 38.5097C19.3012 38.8148 22.038 40.1343 24.3783 42.2776C24.5613 42.4454 24.7443 42.5903 24.9577 42.7733C23.799 44.2301 22.6936 45.6183 21.5577 47.0598C21.4129 46.9073 21.2985 46.7776 21.1765 46.6479C19.7815 45.1454 18.1196 44.0699 16.0765 43.7267C12.7146 43.1623 9.52044 44.6954 7.9729 47.7463C6.31101 51.0107 6.51684 54.2523 8.68949 57.2269C11.129 60.56 15.4362 61.2312 19.2326 58.9735C19.6519 58.7218 20.0483 58.4472 20.4371 58.1498C20.8106 57.8599 21.1537 57.5396 21.5577 57.1887L21.5653 57.1811Z" fill="#24252D" fill-opacity="0.7"/>
<path d="M89.7793 28.3731V26.0926C89.6725 26.1765 89.6115 26.207 89.5658 26.2604C88.247 27.7782 86.5241 28.4418 84.5801 28.6172C83.3756 28.724 82.1712 28.6935 81.0048 28.3274C78.0393 27.4045 76.446 24.8112 76.7433 21.6459C77.0559 18.3052 79.4801 16.94 81.6985 16.4976C82.5752 16.3222 83.4747 16.2459 84.3743 16.223C85.9905 16.1772 87.6066 16.2077 89.2228 16.2077H89.703C90.0613 14.4611 88.8797 12.8594 87.012 12.5238C84.9918 12.1653 83.0783 12.5848 81.2335 13.4009C80.7303 13.6221 80.2501 13.8738 79.6936 14.1408C79.1142 12.8365 78.5424 11.5399 77.9631 10.2356C78.0317 10.1823 78.0698 10.1289 78.1232 10.106C81.2335 8.47376 84.5268 7.63477 88.064 7.89409C89.7106 8.01613 91.2811 8.42037 92.638 9.42716C94.277 10.6323 95.1461 12.295 95.2376 14.2933C95.3443 16.5281 95.3138 18.7705 95.3291 21.0129C95.3443 23.3468 95.3367 25.6731 95.3443 28.007C95.3443 28.1138 95.3443 28.2206 95.3443 28.3655H89.7945L89.7793 28.3731ZM89.7106 19.6781C89.6344 19.6629 89.5734 19.64 89.5124 19.64C87.8201 19.6476 86.1277 19.64 84.4353 19.6858C83.9931 19.701 83.5434 19.8612 83.1165 20.0137C82.5828 20.212 82.255 20.6239 82.0949 21.1654C81.668 22.5688 82.3694 23.9036 83.7797 24.3536C84.6106 24.6206 85.4721 24.6206 86.3106 24.4299C88.6053 23.9036 90.1757 22.5383 89.7106 19.6705V19.6781Z" fill="#24252D" fill-opacity="0.7"/>
<path d="M92.2414 44.9851C92.4473 44.9775 92.5997 44.9622 92.7446 44.9622C94.2845 44.9622 95.8244 44.9698 97.3643 44.9546C97.7303 44.9546 97.8675 45.0385 97.8675 45.4351C97.8599 51.8953 97.8599 58.3632 97.8599 64.8235C97.8599 64.976 97.8446 65.1209 97.8294 65.2811H92.2643V61.8717C92.2643 61.8717 92.2033 61.8489 92.1728 61.8412C92.0966 61.9404 92.0204 62.0395 91.9594 62.1463C90.6253 64.3277 88.6432 65.4108 86.1199 65.4794C85.228 65.5023 84.3055 65.4642 83.4517 65.243C80.7073 64.526 79.1979 62.6039 78.6338 59.8963C78.4889 59.2175 78.4432 58.5081 78.4356 57.8064C78.4203 53.6725 78.4279 49.5462 78.4279 45.4122C78.4279 45.2902 78.4279 45.1682 78.4279 45.008H84.0768C84.0768 45.2139 84.0768 45.3893 84.0768 45.5724C84.0768 49.1419 84.0768 52.7038 84.0845 56.2734C84.0845 56.6624 84.1378 57.0666 84.2293 57.448C84.5571 58.798 85.3499 59.7666 86.7298 60.087C88.3383 60.4531 89.7943 60.1327 90.9379 58.8666C91.8831 57.8217 92.2338 56.5327 92.2414 55.1598C92.2567 51.9716 92.2414 48.7911 92.2491 45.6029C92.2491 45.4199 92.2491 45.2368 92.2491 45.0004L92.2414 44.9851Z" fill="#24252D" fill-opacity="0.7"/>
<path d="M41.5921 44.993H47.18V65.2661H41.5921V61.8644C41.5921 61.8644 41.5387 61.8491 41.5082 61.8415C41.432 61.9635 41.3481 62.0779 41.2719 62.2C39.9607 64.3051 38.032 65.3805 35.5849 65.472C34.6548 65.5025 33.679 65.472 32.7795 65.2356C30.0122 64.511 28.518 62.5584 27.9692 59.8355C27.8319 59.172 27.7862 58.4779 27.7786 57.7914C27.7633 53.6804 27.7709 49.5617 27.7709 45.4506C27.7709 45.3133 27.7709 45.176 27.7709 45.0006H33.4199V45.5726C33.4199 48.982 33.4199 52.399 33.4199 55.8084C33.4199 56.3194 33.4427 56.8533 33.5571 57.3491C34.0145 59.4084 35.7374 60.5296 37.8338 60.1635C39.8006 59.8203 41.188 58.333 41.4777 56.2431C41.5463 55.7626 41.5692 55.2745 41.5768 54.7863C41.5845 51.7049 41.5768 48.6312 41.5768 45.5498C41.5768 45.382 41.5768 45.2142 41.5768 44.9854L41.5921 44.993Z" fill="#24252D" fill-opacity="0.7"/>
<path d="M134.688 61.9406C133.309 63.4889 131.669 64.5186 129.718 65.0449C127.294 65.7008 124.862 65.7389 122.468 64.961C118.786 63.7635 116.697 61.1397 116.034 57.3795C115.615 54.9922 115.79 52.6278 116.827 50.4082C118.428 46.9607 121.225 45.1989 124.961 44.8404C126.63 44.6802 128.277 44.8099 129.878 45.3514C132.912 46.3734 134.589 48.6082 135.382 51.6057C135.809 53.2074 135.885 54.8473 135.824 56.5024C135.824 56.6244 135.794 56.7388 135.771 56.8914H121.553C121.767 57.8448 122.14 58.6533 122.758 59.3244C124.321 61.0177 126.272 61.3075 128.414 60.7965C129.512 60.5295 130.48 59.9956 131.326 59.2405C131.448 59.1338 131.578 59.0194 131.73 58.8821C132.714 59.9041 133.682 60.9033 134.688 61.9482V61.9406ZM130.473 53.4668C130.587 50.8125 128.597 48.9362 125.822 49.0201C123.566 49.0887 121.294 51.4303 121.523 53.4668H130.473Z" fill="#24252D" fill-opacity="0.7"/>
<path d="M121.012 21.9131C122.156 22.8055 123.36 23.4462 124.671 23.8657C126.028 24.3005 127.408 24.6055 128.849 24.3462C129.497 24.2318 130.099 24.003 130.358 23.3165C130.625 22.6072 130.343 21.8597 129.581 21.4708C128.879 21.1123 128.132 20.8453 127.385 20.5784C126.082 20.1055 124.748 19.7318 123.474 19.1902C121.797 18.4733 120.578 17.2605 120.242 15.3919C119.663 12.1427 121.149 9.57995 124.267 8.44349C126.707 7.55111 129.177 7.67314 131.639 8.32908C132.531 8.56553 133.392 8.93163 134.246 9.28249C134.734 9.48079 135.184 9.78588 135.687 10.0681C135.031 11.3952 134.399 12.6842 133.743 14.0114C133.575 13.9275 133.431 13.8588 133.286 13.7825C131.433 12.8139 129.535 12.0207 127.385 12.0969C126.958 12.1122 126.501 12.2266 126.12 12.4096C125.197 12.852 125.075 14.0724 125.914 14.6673C126.364 14.9876 126.897 15.2088 127.423 15.3995C128.841 15.9105 130.29 16.33 131.685 16.8792C132.478 17.1919 133.255 17.6267 133.934 18.1453C135.512 19.3428 135.984 21.036 135.786 22.9428C135.481 25.9251 133.575 27.542 130.884 28.2208C126.836 29.2353 123.04 28.4954 119.571 26.1386C119.259 25.9251 119.175 25.742 119.365 25.3683C119.93 24.2547 120.433 23.1182 120.997 21.9208L121.012 21.9131Z" fill="#24252D" fill-opacity="0.7"/>
<path d="M115.66 10.1136C115.012 11.4331 114.38 12.7068 113.793 13.9043C112.481 13.3933 111.224 12.8517 109.935 12.417C108.891 12.0661 107.793 11.9288 106.695 12.1805C105.781 12.3865 105.331 12.928 105.392 13.7289C105.437 14.3314 105.796 14.7204 106.314 14.934C107.13 15.2696 107.961 15.5594 108.792 15.8568C109.989 16.2916 111.224 16.6501 112.39 17.1687C114.075 17.9162 115.371 19.0984 115.714 21.0128C116.285 24.1781 114.89 26.6722 111.917 27.8926C110.408 28.5104 108.83 28.6934 107.214 28.6248C104.492 28.5104 101.961 27.8011 99.7123 26.2222C99.537 26.1002 99.3769 25.9629 99.1787 25.8104C99.781 24.5214 100.383 23.2476 101.001 21.9357C101.161 22.0425 101.283 22.1264 101.405 22.2103C103.387 23.6061 105.567 24.4222 108.007 24.4298C108.54 24.4298 109.104 24.3078 109.592 24.0942C110.621 23.6519 110.766 22.3476 109.867 21.684C109.432 21.3637 108.921 21.1349 108.411 20.9518C106.993 20.4408 105.552 20.0137 104.142 19.4798C103.478 19.2281 102.83 18.8925 102.251 18.4806C100.581 17.2908 99.9639 15.5975 100.162 13.6068C100.459 10.6932 102.198 8.80168 105.331 8.12286C108.952 7.33726 112.344 8.06947 115.5 9.96864C115.554 9.99915 115.592 10.0449 115.668 10.1136H115.66Z" fill="#24252D" fill-opacity="0.7"/>
<path d="M69.7678 40.2947V45.8473C69.9737 45.855 70.1414 45.8702 70.3015 45.8702C71.7499 45.8702 73.1983 45.8855 74.6468 45.8702C75.0356 45.8702 75.188 45.9541 75.1728 46.3736C75.1423 47.3804 75.1423 48.3872 75.1728 49.3864C75.188 49.8059 75.0356 49.8974 74.6468 49.8898C73.1831 49.8669 71.7194 49.8898 70.2557 49.8745C69.8822 49.8745 69.7526 49.966 69.7602 50.355C69.7755 52.9635 69.7602 55.5644 69.7755 58.1729C69.7755 58.5924 69.8212 59.0272 69.9279 59.439C70.1338 60.2399 70.7055 60.6441 71.5288 60.667C72.5275 60.6975 73.4347 60.3543 74.3647 59.9348C74.7383 61.2924 75.1194 62.6196 75.4701 63.9543C75.493 64.0535 75.3634 64.2594 75.249 64.3204C73.5338 65.2586 71.6966 65.6705 69.7526 65.5103C69.0665 65.4569 68.3499 65.3196 67.7172 65.0603C65.3311 64.1069 64.2409 62.223 64.1952 59.7441C64.1342 56.6551 64.1799 53.5584 64.1723 50.4694C64.1723 50.2864 64.1723 50.111 64.1723 49.8669H61.405C61.405 49.4931 61.405 49.1804 61.405 48.8677C61.405 47.9982 61.4127 47.1287 61.405 46.2592C61.405 45.9618 61.4965 45.855 61.8014 45.8626C62.5714 45.8779 63.349 45.8626 64.1799 45.8626V40.2871H69.7907L69.7678 40.2947Z" fill="#24252D" fill-opacity="0.7"/>
<path d="M52.1274 37.2739H57.7077V65.2658H52.1274V37.2739Z" fill="#24252D" fill-opacity="0.7"/>
<path d="M108.152 65.2738H102.548C102.541 65.1137 102.518 64.9535 102.518 64.7857C102.518 58.356 102.518 51.9339 102.51 45.5041C102.51 45.1075 102.586 44.9473 103.029 44.955C104.584 44.9855 106.139 44.9778 107.687 44.955C108.068 44.955 108.182 45.077 108.174 45.4507C108.152 46.4499 108.174 47.4491 108.213 48.4864C109.684 46.0456 111.841 44.8329 114.692 44.749V50.0881C113.831 50.172 112.969 50.172 112.146 50.355C109.63 50.9118 108.174 52.8415 108.167 55.5873C108.152 58.6153 108.167 61.6509 108.167 64.6789C108.167 64.8696 108.152 65.0679 108.144 65.2815L108.152 65.2738Z" fill="#24252D" fill-opacity="0.7"/>
<path d="M175.275 72.1455C175.435 70.8642 175.603 69.5065 175.778 68.1489C176.098 65.6014 176.426 63.0463 176.746 60.4988C177.097 57.7225 177.448 54.9462 177.806 52.1699C177.943 51.1021 178.08 50.0266 178.21 48.9588C178.271 48.4783 178.538 48.2037 178.919 48.2342C179.315 48.2724 179.544 48.5698 179.483 49.0656C179.224 51.1936 178.957 53.3216 178.69 55.4496C178.37 57.9818 178.05 60.5217 177.73 63.0539C177.379 65.8455 177.021 68.637 176.67 71.4286C176.632 71.7337 176.594 72.0311 176.548 72.3362C176.48 72.8167 176.251 73.0303 175.847 72.9998C175.45 72.9693 175.26 72.7099 175.275 72.1455Z" fill="#24252D" fill-opacity="0.7"/>
<path d="M171.242 3.24939C171.235 2.80701 171.425 2.57057 171.791 2.51718C172.18 2.46379 172.416 2.68498 172.516 3.05871C172.79 4.11889 173.064 5.17908 173.339 6.23926C174.818 12.0131 176.304 17.7792 177.783 23.553C177.974 24.2852 177.852 24.6437 177.387 24.7581C176.968 24.8573 176.708 24.5903 176.518 23.8657C174.78 17.0928 173.042 10.3198 171.303 3.54685C171.273 3.43244 171.258 3.31041 171.242 3.24939Z" fill="#24252D" fill-opacity="0.7"/>
<path d="M192.992 38.2351C194.166 38.4563 195.416 38.6928 196.674 38.9368C202.201 39.9894 207.728 41.0419 213.254 42.1021C213.491 42.1479 213.735 42.186 213.971 42.247C214.413 42.3615 214.596 42.6589 214.505 43.0555C214.421 43.4064 214.093 43.5894 213.681 43.5055C211.753 43.1394 209.832 42.7733 207.903 42.3996C203.016 41.4691 198.137 40.5309 193.251 39.6004C193.068 39.5699 192.892 39.5394 192.717 39.4936C192.344 39.3945 192.145 39.1504 192.199 38.7538C192.252 38.3419 192.534 38.2046 193.007 38.2275L192.992 38.2351Z" fill="#24252D" fill-opacity="0.7"/>
<path d="M168.688 38.9673C168.666 39.28 168.422 39.4478 168.048 39.5241C165.868 39.936 163.687 40.3631 161.507 40.7826C157.101 41.6216 152.687 42.4529 148.281 43.2919C147.755 43.3911 147.442 43.2309 147.358 42.8267C147.274 42.4224 147.518 42.125 148.029 42.0258C154.57 40.775 161.118 39.5241 167.659 38.2809C168.33 38.1512 168.696 38.3724 168.688 38.9749V38.9673Z" fill="#24252D" fill-opacity="0.7"/>
<path d="M189.355 4.33973C189.142 5.18635 188.959 5.91856 188.768 6.6584C187.282 12.4398 185.795 18.2289 184.309 24.0103C184.293 24.0713 184.278 24.1247 184.263 24.1857C184.126 24.6281 183.828 24.8417 183.47 24.7501C183.081 24.651 182.898 24.3078 183.013 23.8501C183.272 22.8357 183.531 21.8213 183.79 20.7992C185.193 15.3534 186.588 9.90759 187.991 4.46176C188.036 4.28634 188.09 4.05752 188.212 3.98125C188.41 3.86684 188.707 3.77531 188.906 3.84396C189.104 3.9126 189.226 4.18718 189.348 4.3321L189.355 4.33973Z" fill="#24252D" fill-opacity="0.7"/>
<path d="M210.289 18.1225C210.19 18.2292 210.03 18.4733 209.809 18.6106C207.811 19.892 205.807 21.1657 203.802 22.4318C200.333 24.6361 196.864 26.8404 193.396 29.037C192.786 29.4184 192.45 29.426 192.199 29.0523C191.94 28.6709 192.1 28.32 192.702 27.9311C198.122 24.4912 203.542 21.0437 208.97 17.6038C209.115 17.5123 209.252 17.4131 209.405 17.3521C209.847 17.1691 210.297 17.4665 210.289 18.1072V18.1225Z" fill="#24252D" fill-opacity="0.7"/>
<path d="M207.087 57.9056C206.904 58.1421 206.798 58.4167 206.63 58.4548C206.386 58.5082 206.035 58.4777 205.845 58.3328C204.884 57.5853 203.954 56.7997 203.016 56.0217C199.311 52.9556 195.607 49.8894 191.894 46.8233C191.787 46.7394 191.673 46.6555 191.589 46.5487C191.368 46.2818 191.353 45.9843 191.566 45.7097C191.78 45.4352 192.077 45.3894 192.382 45.5648C192.534 45.6563 192.672 45.7784 192.816 45.9004C197.383 49.6759 201.942 53.4437 206.5 57.2268C206.706 57.4022 206.859 57.6463 207.08 57.898L207.087 57.9056Z" fill="#24252D" fill-opacity="0.7"/>
<path d="M154.944 58.2721C154.753 58.1196 154.509 58.0204 154.441 57.8526C154.364 57.6619 154.41 57.3873 154.486 57.1814C154.532 57.0441 154.715 56.945 154.845 56.8382C159.274 53.1771 163.695 49.5161 168.124 45.855C168.17 45.8169 168.216 45.7787 168.269 45.7406C168.681 45.4126 169.062 45.4126 169.314 45.7253C169.558 46.0304 169.474 46.427 169.077 46.755C164.572 50.4847 160.059 54.2144 155.546 57.9365C155.393 58.0662 155.188 58.1424 154.951 58.2797L154.944 58.2721Z" fill="#24252D" fill-opacity="0.7"/>
<path d="M170.03 26.1766C169.771 25.9782 169.55 25.8486 169.382 25.6655C165.99 22.0579 162.597 18.4502 159.213 14.8425C158.656 14.2552 158.107 13.6679 157.558 13.073C157.185 12.6688 157.139 12.2722 157.429 11.9899C157.726 11.7077 158.115 11.7688 158.496 12.173C162.117 16.0247 165.738 19.8841 169.352 23.7358C169.74 24.1477 170.152 24.5367 170.495 24.9791C170.625 25.1469 170.655 25.4748 170.587 25.6808C170.526 25.8638 170.259 25.9782 170.038 26.1689L170.03 26.1766Z" fill="#24252D" fill-opacity="0.7"/>
<path d="M179.781 17.2068C179.781 15.0254 179.781 12.8516 179.781 10.6703C179.781 10.4796 179.765 10.2279 179.864 10.0982C180.009 9.9228 180.261 9.73975 180.467 9.73975C180.65 9.73975 180.886 9.94568 181.008 10.1287C181.107 10.2737 181.084 10.5101 181.084 10.7084C181.084 15.0635 181.084 19.4187 181.084 23.7814C181.084 23.8119 181.084 23.8425 181.084 23.873C181.084 24.4603 180.833 24.7882 180.413 24.773C180.002 24.7577 179.781 24.445 179.773 23.8806C179.773 21.6534 179.773 19.4339 179.773 17.2068H179.781Z" fill="#24252D" fill-opacity="0.7"/>
<path d="M206.195 48.2423C206.195 48.7991 205.776 49.0813 205.296 48.9135C205.021 48.8143 204.77 48.677 204.511 48.555C200.63 46.7321 196.75 44.9016 192.87 43.0786C192.801 43.0481 192.733 43.0176 192.664 42.9795C192.229 42.7583 192.069 42.4227 192.222 42.0642C192.374 41.7134 192.763 41.599 193.198 41.8049C194.471 42.3922 195.736 42.9871 197.002 43.5897C199.876 44.9397 202.75 46.2973 205.631 47.655C205.936 47.7999 206.203 47.9524 206.195 48.2575V48.2423Z" fill="#24252D" fill-opacity="0.7"/>
<path d="M154.898 27.542C155.157 27.6183 155.309 27.6564 155.454 27.7022C159.632 29.0598 163.817 30.4174 167.995 31.7751C168.01 31.7751 168.025 31.7751 168.04 31.7903C168.605 31.981 168.81 32.2937 168.658 32.7209C168.528 33.0793 168.17 33.1938 167.652 33.0336C166.897 32.7895 166.15 32.5454 165.395 32.3014C161.942 31.1802 158.481 30.0513 155.027 28.9301C154.883 28.8844 154.677 28.8539 154.623 28.7547C154.501 28.5335 154.349 28.2437 154.402 28.0378C154.456 27.8318 154.753 27.6869 154.898 27.5496V27.542Z" fill="#24252D" fill-opacity="0.7"/>
<path d="M203.687 35.6723C203.504 35.6876 203.321 35.7105 203.138 35.7181C202.696 35.7333 202.391 35.4893 202.368 35.1155C202.346 34.7494 202.628 34.452 203.062 34.4215C204.023 34.3528 204.976 34.2994 205.936 34.2384C209.237 34.0325 212.53 33.8265 215.831 33.613C216.556 33.5672 216.891 33.7274 216.944 34.1774C216.99 34.6198 216.662 34.8715 215.953 34.9172C211.867 35.1689 207.773 35.4206 203.687 35.6723C203.687 35.6723 203.687 35.6723 203.687 35.6647V35.6723Z" fill="#24252D" fill-opacity="0.7"/>
<path d="M205.624 28.5865C205.624 28.9145 205.364 29.0823 205.014 29.1967C202.582 29.9823 200.158 30.7756 197.733 31.5612C196.201 32.0569 194.676 32.568 193.137 33.0332C192.908 33.1019 192.557 33.0332 192.359 32.8883C192.222 32.7891 192.161 32.4002 192.252 32.24C192.367 32.034 192.641 31.8662 192.877 31.7823C195.332 30.9739 197.787 30.1806 200.242 29.3798C201.698 28.9069 203.161 28.4264 204.617 27.9611C205.204 27.7781 205.616 28.0069 205.624 28.5865Z" fill="#24252D" fill-opacity="0.7"/>
<path d="M151.963 17.7637C152.222 17.8857 152.397 17.9391 152.542 18.0383C156.018 20.2349 159.487 22.4392 162.956 24.6434C163.39 24.918 163.512 25.2917 163.306 25.6349C163.101 25.9705 162.704 26.0163 162.262 25.7417C158.778 23.5298 155.294 21.3179 151.81 19.1137C151.505 18.923 151.307 18.6561 151.444 18.3205C151.528 18.1069 151.78 17.9544 151.963 17.7713V17.7637Z" fill="#24252D" fill-opacity="0.7"/>
<path d="M164.64 59.0957C164 59.0957 163.703 58.638 163.893 58.1957C163.947 58.0736 164.038 57.9668 164.114 57.8524C166.401 54.6948 168.696 51.5447 170.991 48.3871C171.075 48.2727 171.151 48.1583 171.25 48.0667C171.517 47.8379 171.814 47.8227 172.081 48.0438C172.332 48.2422 172.401 48.5244 172.249 48.8218C172.188 48.9439 172.104 49.0583 172.028 49.165C169.733 52.3227 167.446 55.4804 165.144 58.6228C164.984 58.8363 164.747 58.9889 164.633 59.088L164.64 59.0957Z" fill="#24252D" fill-opacity="0.7"/>
<path d="M184.111 60.4609C184.111 60.8423 183.844 61.1321 183.501 61.155C183.135 61.1779 182.86 60.9185 182.799 60.4609C182.67 59.4922 182.555 58.5312 182.433 57.5626C182.083 54.7405 181.725 51.9184 181.374 49.0887C181.313 48.6158 181.526 48.2879 181.915 48.2345C182.296 48.1811 182.601 48.4633 182.662 48.9209C183.142 52.7269 183.623 56.5329 184.103 60.3312C184.103 60.377 184.111 60.4228 184.118 60.4533L184.111 60.4609Z" fill="#24252D" fill-opacity="0.7"/>
<path d="M155.584 35.5886C152.367 35.3827 149.142 35.1768 145.925 34.9708C145.513 34.9479 145.102 34.9403 144.698 34.9022C144.164 34.8488 143.89 34.5895 143.928 34.1928C143.958 33.7962 144.271 33.5674 144.797 33.5979C146.329 33.6895 147.869 33.7886 149.401 33.8878C151.635 34.0327 153.869 34.1776 156.102 34.3225C156.224 34.3301 156.346 34.3301 156.461 34.3759C156.788 34.4979 156.941 34.7496 156.88 35.0929C156.827 35.4208 156.605 35.5963 156.278 35.6115C156.049 35.6191 155.82 35.6115 155.592 35.6115C155.592 35.6115 155.592 35.5963 155.592 35.5886H155.584Z" fill="#24252D" fill-opacity="0.7"/>
<path d="M167.209 70.4984C166.737 70.4831 166.47 70.0331 166.668 69.5297C167.095 68.4238 167.537 67.3255 167.972 66.2195C168.887 63.9161 169.786 61.6127 170.724 59.3169C170.815 59.0957 171.036 58.8364 171.25 58.7678C171.776 58.6 172.165 59.111 171.959 59.6754C171.616 60.583 171.242 61.483 170.884 62.3907C169.9 64.8771 168.917 67.3636 167.934 69.8577C167.796 70.2009 167.636 70.4984 167.209 70.5137V70.4984Z" fill="#24252D" fill-opacity="0.7"/>
<path d="M198.427 4.96542C198.305 5.24762 198.252 5.42305 198.168 5.58322C196.651 8.35952 195.126 11.1282 193.601 13.8969C193.342 14.3698 192.961 14.5147 192.603 14.3011C192.26 14.0952 192.206 13.7367 192.473 13.2638C194.006 10.4799 195.538 7.69596 197.062 4.9044C197.238 4.58405 197.482 4.3171 197.855 4.45439C198.084 4.53829 198.252 4.79762 198.435 4.96542H198.427Z" fill="#24252D" fill-opacity="0.7"/>
<path d="M171.44 18.908C171.303 19.0835 171.196 19.3504 171.014 19.4191C170.808 19.4877 170.526 19.4114 170.305 19.3199C170.175 19.2665 170.106 19.0606 170.022 18.9157C168.566 16.2614 167.11 13.6148 165.647 10.9605C165.578 10.8385 165.509 10.724 165.464 10.5944C165.334 10.2588 165.441 9.9842 165.738 9.80878C166.035 9.63335 166.325 9.68674 166.561 9.95369C166.638 10.0452 166.691 10.1596 166.752 10.2664C168.223 12.9436 169.695 15.6207 171.166 18.3055C171.257 18.4733 171.326 18.664 171.44 18.9157V18.908Z" fill="#24252D" fill-opacity="0.7"/>
<path d="M186.756 54.0996C186.893 53.9547 187.038 53.6649 187.244 53.6115C187.45 53.5581 187.739 53.703 187.953 53.8251C188.059 53.8861 188.098 54.0844 188.151 54.2217C189.264 57.0361 190.377 59.8429 191.49 62.6574C191.52 62.7413 191.559 62.8252 191.589 62.9091C191.719 63.3209 191.589 63.6641 191.261 63.7938C190.903 63.9387 190.545 63.7938 190.385 63.3667C189.211 60.415 188.044 57.4556 186.878 54.5039C186.84 54.4047 186.817 54.3056 186.756 54.0767V54.0996Z" fill="#24252D" fill-opacity="0.7"/>
<path d="M200.844 15.4987C200.706 15.7275 200.638 15.9182 200.508 16.0555C198.496 18.214 196.468 20.3649 194.448 22.5157C194.127 22.8513 193.716 22.8895 193.441 22.6225C193.167 22.3556 193.175 21.9818 193.487 21.6462C195.515 19.4801 197.543 17.3063 199.601 15.1631C199.761 14.9953 200.127 14.9343 200.371 14.98C200.546 15.0106 200.676 15.3004 200.844 15.4987Z" fill="#24252D" fill-opacity="0.7"/>
<path d="M159.197 34.5129C161.439 34.6502 163.505 34.7875 165.57 34.9095C166.363 34.9553 167.148 35.0087 167.941 35.0544C168.269 35.0697 168.544 35.1765 168.658 35.5121C168.81 35.9773 168.475 36.3892 167.941 36.3587C166.013 36.2443 164.084 36.1222 162.155 36.0002C161.362 35.9544 160.577 35.9011 159.784 35.8477C159.601 35.8324 159.418 35.84 159.235 35.8095C158.778 35.7409 158.565 35.4739 158.61 35.0697C158.656 34.7112 158.931 34.5053 159.19 34.5129H159.197Z" fill="#24252D" fill-opacity="0.7"/>
<path d="M200.836 63.6032C200.684 63.7939 200.569 64.0609 200.386 64.1295C200.181 64.1982 199.899 64.1219 199.677 64.038C199.555 63.9922 199.479 63.8168 199.388 63.6948C197.848 61.582 196.316 59.4617 194.776 57.3489C194.684 57.2269 194.539 57.0896 194.547 56.9676C194.562 56.7159 194.585 56.365 194.745 56.2582C194.928 56.1362 195.264 56.1896 195.523 56.243C195.637 56.2659 195.729 56.4566 195.812 56.5786C197.36 58.7066 198.907 60.8346 200.447 62.9626C200.577 63.1456 200.676 63.3515 200.829 63.6109L200.836 63.6032Z" fill="#24252D" fill-opacity="0.7"/>
<path d="M187.389 24.773C186.702 24.7654 186.443 24.2238 186.733 23.6899C187.465 22.3399 188.212 20.9899 188.951 19.6475C189.477 18.6865 190.003 17.7255 190.537 16.7644C190.789 16.3068 191.147 16.1695 191.505 16.3602C191.856 16.5509 191.917 16.9322 191.665 17.3975C190.407 19.6933 189.15 21.9891 187.869 24.2772C187.739 24.506 187.495 24.6662 187.381 24.773H187.389Z" fill="#24252D" fill-opacity="0.7"/>
<path d="M155.226 49.0276C155.058 48.8751 154.776 48.7378 154.73 48.5471C154.677 48.3259 154.814 48.0514 154.921 47.8226C154.966 47.7234 155.149 47.6853 155.271 47.6242C157.528 46.5641 159.784 45.4963 162.049 44.4437C162.201 44.3751 162.392 44.2606 162.514 44.3064C162.75 44.3903 163.04 44.5276 163.123 44.7259C163.2 44.9013 163.062 45.2064 162.941 45.4047C162.872 45.5268 162.666 45.5801 162.514 45.6488C160.295 46.6937 158.084 47.7387 155.866 48.776C155.691 48.8599 155.5 48.9209 155.226 49.0276Z" fill="#24252D" fill-opacity="0.7"/>
<path d="M176.228 48.7686C176.152 49.0203 176.114 49.1728 176.06 49.3101C175.161 51.583 174.261 53.8635 173.339 56.1288C173.247 56.35 173.026 56.6093 172.813 56.678C172.279 56.8458 171.905 56.3119 172.127 55.717C172.462 54.8322 172.82 53.9627 173.171 53.0856C173.727 51.6898 174.276 50.2864 174.833 48.8906C174.886 48.7533 174.924 48.555 175.039 48.494C175.244 48.372 175.519 48.227 175.717 48.2804C175.931 48.3415 176.083 48.616 176.236 48.7686H176.228Z" fill="#24252D" fill-opacity="0.7"/>
<path d="M199.967 34.6277C200.432 34.6049 200.752 34.8566 200.76 35.2455C200.768 35.6193 200.486 35.8862 199.998 35.9244C198.435 36.0311 196.872 36.1227 195.309 36.2142C194.532 36.26 193.762 36.3057 192.984 36.3591C192.519 36.3896 192.229 36.1837 192.191 35.8023C192.146 35.3828 192.397 35.093 192.87 35.0625C195.241 34.91 197.604 34.7727 199.975 34.6201L199.967 34.6277Z" fill="#24252D" fill-opacity="0.7"/>
<path d="M183.234 63.8473C183.226 63.3515 183.44 63.0769 183.798 63.0388C184.164 63.0006 184.446 63.2295 184.499 63.6566C184.743 65.5252 184.98 67.3939 185.224 69.2626C185.269 69.6363 185.33 70.0177 185.361 70.3914C185.391 70.7804 185.201 71.0321 184.812 71.1084C184.484 71.177 184.141 70.9406 184.088 70.5668C183.79 68.3092 183.516 66.0439 183.234 63.8473Z" fill="#24252D" fill-opacity="0.7"/>
<path d="M189.172 47.7998C189.401 47.9676 189.622 48.0591 189.744 48.2269C190.911 49.8058 192.062 51.3922 193.205 52.9863C193.464 53.3524 193.426 53.7338 193.129 53.955C192.816 54.1838 192.42 54.0999 192.146 53.7261C191.01 52.1702 189.866 50.6066 188.753 49.0278C188.616 48.8295 188.585 48.4863 188.646 48.2422C188.685 48.0744 188.959 47.9676 189.172 47.7998Z" fill="#24252D" fill-opacity="0.7"/>
<path d="M146.421 24.7885C146.504 24.8114 146.649 24.8419 146.794 24.8876C148.517 25.4444 150.232 26.0012 151.955 26.558C152.024 26.5809 152.1 26.6038 152.169 26.6343C152.535 26.7944 152.679 27.0843 152.55 27.4504C152.42 27.8089 152.123 27.969 151.742 27.847C149.874 27.2444 148.014 26.6419 146.154 26.0317C145.811 25.9173 145.628 25.658 145.696 25.2919C145.765 24.9563 145.994 24.7732 146.421 24.7885Z" fill="#24252D" fill-opacity="0.7"/>
<path d="M159.365 66.2652C159.136 66.0898 158.87 65.9906 158.816 65.8228C158.74 65.6093 158.755 65.2889 158.87 65.1059C159.319 64.4194 159.822 63.7635 160.303 63.0999C160.836 62.3601 161.378 61.6202 161.919 60.8804C162.231 60.4533 162.597 60.3617 162.925 60.5982C163.253 60.8423 163.276 61.216 162.963 61.6431C161.965 63.0236 160.966 64.4118 159.952 65.7771C159.822 65.9525 159.601 66.0669 159.365 66.25V66.2652Z" fill="#24252D" fill-opacity="0.7"/>
<path d="M179.781 3.17307C179.781 2.37984 179.781 1.58661 179.781 0.793384C179.781 0.267107 180.032 -0.00747253 180.451 0.000154681C180.848 0.00778189 181.084 0.282361 181.084 0.785757C181.084 2.35696 181.084 3.92054 181.084 5.49174C181.084 6.02565 180.848 6.30785 180.436 6.31548C180.024 6.31548 179.781 6.02565 179.781 5.507C179.781 4.72902 179.781 3.95105 179.781 3.17307Z" fill="#24252D" fill-opacity="0.7"/>
<path d="M208.459 49.02C208.711 49.1115 208.856 49.1573 208.993 49.2183C210.434 49.8971 211.882 50.5683 213.323 51.2548C213.803 51.4836 213.971 51.8116 213.796 52.1853C213.628 52.5514 213.255 52.6506 212.789 52.437C211.318 51.7506 209.847 51.0565 208.376 50.37C208.01 50.2022 207.804 49.9124 207.956 49.531C208.04 49.3175 208.307 49.1726 208.459 49.02Z" fill="#24252D" fill-opacity="0.7"/>
<path d="M206.607 9.38164C206.47 9.61046 206.394 9.80114 206.264 9.93843C205.143 11.1435 204.023 12.341 202.894 13.5308C202.567 13.8817 202.178 13.9198 201.896 13.6529C201.621 13.3936 201.637 12.9817 201.957 12.6385C203.077 11.441 204.206 10.2435 205.334 9.04605C205.57 8.79435 205.86 8.68757 206.15 8.84774C206.34 8.94689 206.455 9.19096 206.615 9.38164H206.607Z" fill="#24252D" fill-opacity="0.7"/>
<path d="M153.213 49.7677C153.137 49.8593 153.015 50.1033 152.824 50.1949C151.323 50.9271 149.805 51.6364 148.288 52.3381C147.907 52.5135 147.549 52.3839 147.404 52.0483C147.252 51.7127 147.374 51.3542 147.747 51.1711C149.257 50.4542 150.766 49.7372 152.291 49.0431C152.756 48.8296 153.236 49.1499 153.221 49.7677H153.213Z" fill="#24252D" fill-opacity="0.7"/>
<path d="M208.543 27.9993C208.223 27.9993 208.002 27.8467 207.926 27.5111C207.857 27.1755 207.972 26.8933 208.299 26.7637C208.681 26.6111 209.077 26.4967 209.466 26.3747C210.624 26.0009 211.776 25.6196 212.934 25.2611C213.361 25.1238 213.72 25.2916 213.819 25.6501C213.91 25.9857 213.819 26.2984 213.491 26.4128C211.898 26.9543 210.289 27.4654 208.688 27.984C208.642 27.9993 208.597 27.9916 208.543 27.9993Z" fill="#24252D" fill-opacity="0.7"/>
<path d="M162.933 3.77539C163.024 3.85166 163.276 3.9737 163.383 4.17201C164.015 5.27795 164.625 6.39915 165.235 7.51272C165.441 7.90171 165.342 8.2907 165.022 8.4585C164.694 8.63392 164.32 8.51189 164.107 8.13053C163.489 7.03221 162.887 5.92626 162.285 4.82032C162.003 4.30167 162.254 3.79827 162.933 3.77539Z" fill="#24252D" fill-opacity="0.7"/>
<path d="M192.534 65.9677C192.618 66.0516 192.862 66.1889 192.954 66.3949C193.403 67.455 193.823 68.5305 194.234 69.6135C194.372 69.9796 194.242 70.2771 193.884 70.4373C193.556 70.5898 193.198 70.4602 193.053 70.1017C192.603 69.0186 192.168 67.9355 191.764 66.8372C191.581 66.3491 191.902 65.9448 192.542 65.9677H192.534Z" fill="#24252D" fill-opacity="0.7"/>
<path d="M165.151 26.1385C165.41 26.2529 165.586 26.3139 165.738 26.4054C166.615 26.9546 167.492 27.5114 168.361 28.0682C168.795 28.3504 168.91 28.7165 168.681 29.0597C168.46 29.3877 168.109 29.4334 167.682 29.1665C166.767 28.5945 165.845 28.03 164.961 27.4122C164.778 27.2826 164.641 26.9165 164.671 26.6876C164.701 26.4817 164.991 26.3139 165.167 26.1309L165.151 26.1385Z" fill="#24252D" fill-opacity="0.7"/>
<path d="M165.159 44.36C164.983 44.1845 164.701 44.0244 164.656 43.8261C164.61 43.6125 164.732 43.2235 164.9 43.132C165.868 42.621 166.859 42.171 167.857 41.7286C168.17 41.5913 168.475 41.7286 168.627 42.0337C168.772 42.3388 168.742 42.682 168.429 42.8345C167.438 43.3303 166.432 43.7879 165.426 44.2532C165.372 44.2761 165.304 44.2684 165.243 44.2761C165.212 44.2989 165.189 44.3295 165.159 44.3523V44.36Z" fill="#24252D" fill-opacity="0.7"/>
<path d="M174.337 24.2164C174.17 24.3842 174.025 24.6587 173.827 24.6969C173.606 24.7426 173.224 24.6511 173.125 24.491C172.607 23.652 172.15 22.7748 171.692 21.8977C171.54 21.6002 171.684 21.3257 171.951 21.1579C172.226 20.9824 172.569 20.9824 172.729 21.257C173.263 22.1418 173.735 23.057 174.231 23.9647C174.261 24.0104 174.246 24.0867 174.254 24.1477C174.276 24.1706 174.307 24.2011 174.33 24.224L174.337 24.2164Z" fill="#24252D" fill-opacity="0.7"/>
<path d="M185.506 48.2346C185.597 48.3261 185.841 48.4634 185.94 48.6693C186.253 49.3786 186.527 50.1032 186.801 50.8278C186.946 51.2015 186.817 51.5066 186.458 51.6515C186.108 51.7965 185.78 51.6897 185.62 51.3159C185.315 50.5914 185.01 49.8515 184.743 49.1117C184.575 48.6464 184.903 48.204 185.506 48.2269V48.2346Z" fill="#24252D" fill-opacity="0.7"/>
<path d="M192.458 24.2087C192.466 24.7426 191.284 26.0697 190.888 26.0468C190.682 26.0316 190.4 25.8943 190.301 25.7265C190.202 25.5587 190.209 25.2154 190.324 25.0629C190.651 24.6282 191.033 24.2239 191.452 23.8731C191.597 23.751 191.924 23.751 192.115 23.8197C192.29 23.8883 192.39 24.1324 192.458 24.2087Z" fill="#24252D" fill-opacity="0.7"/>
</g>
<defs>
<clipPath id="clip0_549_564">
<rect width="216" height="73" fill="white" transform="translate(0.951904)"/>
</clipPath>
</defs>
</svg>
