<svg width="218" height="37" viewBox="0 0 218 37" fill="none" xmlns="http://www.w3.org/2000/svg">
<g opacity="0.6">
<path d="M18.8205 34.5615C21.7642 27.9605 24.6707 21.3433 27.6018 14.7363C27.8577 14.1601 28.0221 13.4966 28.7441 12.9391C28.7788 19.6376 29.0601 26.092 28.6314 32.5456C28.5042 34.4641 28.0348 34.9428 26.1214 35.2275C25.563 35.3106 24.8241 35.036 24.5106 35.8453C24.7487 35.9393 25.158 36.019 25.6808 36.0842L35.8213 36.0842C36.4975 36.0054 36.9975 35.9063 37.2178 35.7885C37.1246 35.3826 36.7856 35.397 36.4797 35.3555C33.0538 34.8869 32.803 34.6149 32.7945 31.189C32.7835 27.0029 32.7903 22.8161 32.7911 18.63C32.7911 16.7904 32.7589 14.9499 32.8072 13.1119C32.8691 10.7511 33.4173 10.2063 35.7112 10.0072C36.2374 9.9614 36.8551 10.1758 37.2432 9.60465C37.0865 8.69796 36.3882 8.93777 35.8883 8.92675C34.2401 8.89031 32.5877 8.88099 30.943 8.88523C29.5957 8.88862 28.772 9.33773 28.2272 10.6384C26.5629 14.6152 24.7936 18.547 23.0539 22.4924C21.832 25.2641 20.5915 28.0274 19.2797 30.9729C18.4027 30.173 18.2256 29.4095 17.9214 28.7273C15.8301 24.0363 13.8006 19.3173 11.6601 14.6482C10.7958 12.7637 9.74339 9.88937 8.84517 9.19706C8.04271 8.57933 4.75236 8.98353 2.66528 8.91404C2.34921 8.90387 2.02975 8.91658 1.71537 8.94709C1.34422 8.98353 0.922229 8.98268 0.952734 9.68939C1.38659 10.1453 2.05601 9.96055 2.64324 10.0309C4.40239 10.2419 4.96674 10.6783 5.04131 12.3637C5.31756 18.6368 5.36077 24.9133 5.06504 31.189C4.96505 33.3099 3.93041 34.6157 1.8823 35.1343C1.40269 35.2564 0.814612 35.2725 1.00019 36.0588L10.5213 36.0588C10.3993 35.7216 10.3806 35.5885 10.3103 35.4945C10.2383 35.3996 10.123 35.297 10.0129 35.2767C7.14704 34.7581 6.27001 32.8168 6.26831 30.173C6.26407 24.8464 6.21154 19.5189 6.19713 14.1923C6.19628 13.8517 6.01834 13.4373 6.42931 13.1475C7.04281 13.4026 7.08348 14.0288 7.30295 14.5186C10.2772 21.1755 13.232 27.841 16.2207 34.492C16.4622 35.0293 16.5198 35.8088 17.0884 36.0851L18.029 36.0851C18.5476 35.8156 18.5984 35.0657 18.823 34.5624L18.8205 34.5615Z" fill="#24252D" fill-opacity="0.7"/>
<path d="M176.177 35.5914C174.93 35.4202 174.189 34.8042 174.09 33.5314C173.867 30.6825 173.844 27.8277 173.864 24.9704C173.871 23.8137 174.468 23.6044 175.441 23.6654C176.212 23.7137 176.732 24.1256 177.225 24.6374C178.595 26.0593 179.755 27.6481 180.897 29.2505C182.369 31.3181 183.814 33.4077 185.528 35.2889C185.755 35.5371 185.976 35.8371 186.224 36.0837L194.342 36.0837C194.234 35.7151 193.962 35.6159 193.685 35.588C191.141 35.3244 189.461 33.7399 187.901 31.9197C185.429 29.0361 183.425 25.7695 180.475 23.1155C181.995 22.574 183.439 22.3266 184.677 21.5106C188.719 18.8464 188.788 13.5825 184.788 10.8811C183.333 9.899 181.681 9.477 179.97 9.23042C175.596 8.59913 171.228 9.23381 166.858 9.28719C166.433 9.29228 165.929 9.28719 165.904 9.93289C166.007 10.3345 166.341 10.3269 166.649 10.3701C169.526 10.7692 169.837 11.0701 169.874 13.924C169.918 17.2872 169.894 20.6522 169.89 24.0162C169.887 26.8727 169.921 29.7301 169.844 32.584C169.783 34.8338 169.253 35.3211 167.077 35.6625C166.653 35.7286 165.999 35.471 165.815 36.0837L178.45 36.0837C177.778 35.5058 176.931 35.6939 176.175 35.5905L176.177 35.5914ZM175.378 10.0617C176.845 10.0769 178.29 10.2354 179.704 10.6108C181.159 10.9963 182.135 11.9522 182.664 13.3393C183.366 15.1756 183.444 17.05 182.851 18.9337C182.356 20.5039 181.325 21.5343 179.721 21.9681C178.241 22.3689 176.731 22.4664 175.205 22.5376C174.164 22.5859 173.853 22.1647 173.865 21.2284C173.886 19.6421 173.871 18.055 173.871 16.4687L173.859 16.4687C173.859 14.8824 173.893 13.2944 173.847 11.709C173.816 10.6074 174.217 10.0507 175.378 10.0625L175.378 10.0617Z" fill="#AFAFAF"/>
<path d="M61.3485 35.1724C61.4544 33.1471 61.6171 31.1245 61.7332 29.0992C61.7569 28.6823 61.8518 28.1815 61.1824 27.9816C60.3308 28.3663 60.4189 29.3111 60.1096 30.0212C59.036 32.4862 57.6946 34.7046 54.7254 35.1054C53.034 35.3334 51.3147 35.4071 49.603 35.2241C47.4786 34.997 47.0083 34.5495 46.8897 32.354C46.7796 30.3296 46.7609 28.2985 46.7516 26.2699C46.733 21.9169 47.1321 22.4643 51.2495 22.5084C52.6027 22.5228 53.3781 23.2744 53.667 24.5844C53.8153 25.2581 53.8966 25.4301 54.5364 26.7164C54.5051 23.4337 54.7161 20.4492 54.3712 17.3936C53.8712 17.8826 53.8704 18.269 53.7297 18.6028C52.7451 20.9373 52.5951 21.267 50.047 21.3568C49.414 21.3788 48.7785 21.3415 48.1447 21.3619C47.199 21.3924 46.7507 20.9729 46.7507 20.0078C46.7507 17.0911 46.7245 14.1744 46.7075 11.2578C46.7024 10.4138 47.0592 9.97232 47.965 9.99943C49.4861 10.0452 51.008 10.0452 52.529 10.0537C55.3965 10.0706 57.1336 11.512 57.9107 14.2371C58.0801 14.8312 58.0454 15.6523 59.3097 15.8658C59.1665 13.9973 59.0063 12.2746 58.9097 10.5477C58.8385 9.26137 58.2072 8.87497 56.9523 8.88853C51.6265 8.94615 46.2991 8.90802 40.9725 8.92835C40.4022 8.93089 39.6879 8.6877 39.3744 9.39695C39.3938 9.81555 39.6337 9.89944 39.8811 9.96554C42.463 10.6587 42.6596 10.8731 42.6791 13.5847C42.7079 17.6427 42.6901 21.7017 42.6893 25.7606C42.6893 27.8536 42.7189 29.9466 42.6698 32.0388C42.6156 34.4013 42.1749 34.8571 39.848 35.2859C39.4116 35.3664 38.76 35.1698 38.7312 36.0045C38.777 36.0274 38.8236 36.0553 38.8702 36.085L60.9273 36.085C61.1807 35.9189 61.3239 35.6325 61.3485 35.1732L61.3485 35.1724Z" fill="#24252D" fill-opacity="0.7"/>
<path d="M115.816 35.0651C115.915 33.2297 116.09 31.3977 116.179 29.5623C116.204 29.0412 116.428 28.4124 115.751 27.9667C114.785 28.2658 114.898 29.242 114.609 29.9275C113.559 32.4162 112.21 34.6389 109.28 35.0906C107.473 35.3693 105.623 35.4685 103.782 35.1922C101.996 34.9245 101.499 34.4754 101.367 32.6298C101.223 30.6071 101.088 28.5759 101.117 26.5507C101.185 21.6809 100.104 22.2986 105.703 22.5265C107.089 22.5825 107.505 23.4197 107.898 24.6848C108.096 25.3212 108.249 25.7144 108.589 26.4999C109.279 24.7102 109.179 18.5363 108.463 17.4703C108.289 17.8787 108.163 18.1956 108.046 18.4829C107.166 20.6293 107.095 21.2275 104.804 21.3597C104.109 21.4004 103.407 21.3292 102.712 21.3733C101.602 21.4436 101.072 21.014 101.095 19.8488C101.151 16.9957 101.18 14.1418 101.162 11.2887C101.156 10.2701 101.607 9.95915 102.549 9.99389C103.816 10.0405 105.087 9.98118 106.353 10.0252C110.157 10.16 111.127 10.9048 112.444 14.5248C112.629 15.0315 112.571 15.8975 113.801 15.6594C113.612 13.7418 113.414 11.8149 113.235 9.88712C113.155 9.02365 112.568 8.92366 111.885 8.92366C106.241 8.92366 100.596 8.91603 94.9512 8.92874C94.4876 8.92959 93.8784 8.82621 93.8352 9.64816C93.969 9.74561 94.0961 9.90322 94.2546 9.94389C96.8586 10.6133 97.1153 10.8887 97.1425 13.5147C97.1755 16.622 97.1535 19.7302 97.1526 22.8375C97.1518 25.9449 97.1874 29.0539 97.1306 32.1603C97.0916 34.2889 96.5789 34.8126 94.5605 35.2422C94.069 35.3473 93.4123 35.2575 93.2039 35.9523C93.2716 35.9998 93.3259 36.0447 93.375 36.0854L115.404 36.0854C115.683 35.8879 115.79 35.5354 115.815 35.0651L115.816 35.0651Z" fill="#24252D" fill-opacity="0.7"/>
<path d="M88.8764 35.5082C87.9392 34.8913 88.073 33.7643 87.2655 33.2271C86.6825 33.1051 86.4088 33.6305 86.047 33.9355C84.8818 34.899 83.6777 35.5998 82.4439 36.0836C79.5307 37.2259 76.4496 37.1081 73.3457 36.0836C72.9839 35.9658 72.6186 35.8362 72.2526 35.6913C67.5454 33.8287 65.1075 29.9978 64.6737 24.9517C64.411 21.8782 64.8109 18.9116 66.0218 16.0246C69.3851 8.02706 79.4544 6.61788 85.136 10.7039C85.7529 11.1454 86.3512 11.614 86.9909 12.0978C88.118 11.6903 88.2493 10.1472 88.5603 9.01679C89.4627 10.4107 89.6076 18.104 88.7543 19.3793C88.4095 18.3557 88.1332 17.8752 87.9239 17.1058C87.0859 14.0061 85.4292 11.5953 82.3143 10.376C77.1656 8.36092 72.3441 10.4099 70.4468 15.6127C68.8546 19.9657 68.7597 24.4678 70.1384 28.8818C71.9933 34.8041 77.9079 37.1843 83.4294 34.3999C86.0266 33.0898 87.1121 30.6824 88.0112 28.1276C88.2552 27.4463 88.1976 26.6388 88.7501 26.01C89.5576 27.2938 89.6339 33.4364 88.8755 35.5082L88.8764 35.5082Z" fill="#24252D" fill-opacity="0.7"/>
<path d="M208.92 35.653C206.796 35.337 206.196 34.8751 206.172 32.7711C206.091 25.7303 206.121 18.6886 206.071 11.6478C206.063 10.6106 206.514 10.3403 207.446 10.3759C208.713 10.4242 209.984 10.3666 211.252 10.3988C214.214 10.4759 215.082 11.1843 216.08 14.0221C216.306 14.6644 216.344 15.8067 217.446 16.1185C217.446 15.8508 217.435 15.6076 217.436 15.5016C217.449 14.1713 217.446 12.84 217.445 11.5097C217.441 9.31158 217.427 9.29294 215.211 9.29209C208.234 9.28955 201.255 9.26752 194.278 9.30311C190.447 9.3226 190.853 8.643 190.802 12.7011C190.79 13.7391 190.802 14.2577 190.802 15.938C191.707 15.2483 192.057 14.2535 192.333 13.4595C193.018 11.4859 194.245 10.3852 196.399 10.4166C197.794 10.4369 199.192 10.4411 200.584 10.3733C201.646 10.3216 202.054 10.7309 202.049 11.7978C202.018 18.7123 202.062 25.6269 201.999 32.5415C201.977 34.9489 201.367 35.4395 198.914 35.7191C198.457 35.7717 197.827 35.4954 197.467 36.0827L210.654 36.0827C210.069 35.5836 209.446 35.7293 208.922 35.6513L208.92 35.653Z" fill="#AFAFAF"/>
<path d="M144.731 35.6448C142.321 34.6585 141.951 33.928 142.746 31.4867C143.158 30.2233 143.69 28.9997 144.13 27.7447C144.402 26.9702 144.911 26.6915 145.71 26.7016C148.436 26.7338 151.162 26.727 153.887 26.7313C154.416 26.7321 154.882 26.7974 155.121 27.3846C155.953 29.4378 156.862 31.463 157.631 33.5399C158.02 34.5915 157.687 35.3999 156.388 35.5592C155.858 35.6245 155.205 35.5448 154.832 36.0837L165.36 36.0837C165.446 36.0507 165.525 36.0168 165.587 35.9812C161.841 35.2542 161.47 32.0621 160.355 29.4878C157.662 23.2689 155.082 17.0009 152.431 10.7634C152.153 10.1092 151.875 9.68466 151.223 8.98389C150.691 9.6084 150.368 10.0778 150.109 10.6905C147.104 17.8076 144.113 24.9306 141.13 32.057C140.448 33.6874 139.6 35.1211 137.71 35.5813C137.419 35.6524 137.264 35.8321 137.25 36.0837L145.148 36.0837C145.04 35.8202 144.902 35.7143 144.73 35.644L144.731 35.6448ZM149.513 14.8342C149.663 14.8342 149.812 14.8359 149.962 14.8359C151.417 18.3482 152.873 21.8606 154.414 25.5763L145.084 25.5763C146.616 21.8597 148.065 18.3465 149.514 14.8333L149.513 14.8342Z" fill="#AFAFAF"/>
<path d="M126.892 35.2714C123.297 34.3681 123.06 34.0817 123.054 30.3711C123.045 24.914 123.045 19.4578 123.064 14.0007C123.066 13.4219 122.856 12.7677 123.436 12.0941C127.603 17.5774 131.684 22.9498 135.856 28.4391C136.462 27.3349 136.908 26.5325 137.321 25.7012C137.736 24.8665 137.579 24.1564 137.013 23.4175C133.58 18.9349 130.17 14.4354 126.776 9.92311C126.28 9.26385 125.741 8.88338 124.88 8.90202C123.041 8.94185 121.2 8.90117 119.36 8.9249C118.895 8.93083 118.291 8.81305 118.209 9.63076C118.331 9.72397 118.454 9.89006 118.608 9.92565C121.675 10.6493 121.885 10.8078 121.917 13.921C121.978 19.7577 121.968 25.5953 121.939 31.4328C121.926 33.9453 121.442 34.4859 119.017 35.1189C118.511 35.2511 117.821 35.1384 117.851 36.0841L127.736 36.0841C127.669 35.3791 127.246 35.3604 126.892 35.2714Z" fill="#24252D" fill-opacity="0.7"/>
<path d="M57.701 0.337733C55.3927 -0.134254 54.1242 -0.146117 53.6811 0.523308C52.449 2.38329 51.3304 4.31869 50.167 6.22444C50.2949 6.32612 50.4229 6.42781 50.55 6.52949C52.8862 4.50681 55.2224 2.48413 57.701 0.337733Z" fill="#24252D" fill-opacity="0.7"/>
<path d="M103.834 2.27169C102.809 0.576947 101.093 -0.0840048 98.686 0.28884C101.154 2.40727 103.196 4.4647 105.743 5.9637C105.224 4.62909 104.541 3.44276 103.833 2.27169L103.834 2.27169Z" fill="#24252D" fill-opacity="0.7"/>
<path d="M142.407 13.8875C143.086 12.2656 143.499 10.8751 144.19 8.97612C141.884 8.97612 139.947 8.9668 137.488 8.9668C139.496 10.0353 142.614 10.4226 142.408 13.8875L142.407 13.8875Z" fill="#24252D" fill-opacity="0.7"/>
<path d="M18.0255 36.0845L17.085 36.0845C17.2011 36.1404 17.3366 36.1777 17.501 36.1853C17.7179 36.1955 17.8874 36.1557 18.0247 36.0845L18.0255 36.0845Z" fill="#24252D" fill-opacity="0.7"/>
</g>
</svg>
