<svg width="77" height="85" viewBox="0 0 77 85" fill="none" xmlns="http://www.w3.org/2000/svg">
<g opacity="0.6">
<path d="M38.0908 19.9395C40.193 20.7193 42.1988 21.6939 44.0925 22.8867C50.5236 26.936 55.0859 32.4953 57.7923 39.544C58.5292 41.4639 59.064 43.4412 59.42 45.4649C59.444 45.6005 59.5044 45.6915 59.6074 45.7773C63.3167 48.863 66.2392 52.5587 68.3601 56.8693C69.7986 59.7928 70.7747 62.8637 71.3051 66.0745C71.6784 68.3343 71.8054 70.6079 71.7229 72.8933C71.6755 74.2031 71.5389 75.5063 71.3315 76.8014C71.3204 76.8706 71.3008 76.9389 71.2792 77.0332C69.7775 68.9117 65.8396 62.2152 59.4953 56.8589C57.9825 65.0282 54.0508 71.7774 47.6758 77.1626C48.1148 77.3485 48.5595 77.484 49.0008 77.6253C51.0071 78.2662 53.057 78.7199 55.1482 78.9821C57.7467 79.3077 60.3492 79.3376 62.9559 79.0712C65.7433 78.7863 68.4492 78.1562 71.0832 77.2152C71.0943 77.2295 71.1048 77.2432 71.1158 77.2574C70.4891 77.8078 69.811 78.2928 69.1248 78.7654C65.1903 81.4761 60.8791 83.3206 56.1726 84.2431C53.1591 84.8338 50.1173 85.0106 47.0544 84.7741C43.9718 84.5361 40.9731 83.9032 38.0669 82.8541C37.9001 82.7939 37.7521 82.7873 37.5839 82.848C34.9292 83.807 32.1955 84.4195 29.3832 84.6992C26.9686 84.939 24.5579 84.931 22.1476 84.6499C15.636 83.8914 9.83367 81.4571 4.70933 77.4215C4.64752 77.3731 4.59289 77.3158 4.53539 77.2627C4.54785 77.248 4.56078 77.2328 4.57324 77.2181C5.87853 77.6789 7.2025 78.0785 8.55378 78.3871C11.666 79.0987 14.8166 79.3689 18.007 79.2011C21.4058 79.0223 24.7016 78.353 27.8987 77.2015C27.9136 77.1963 27.9279 77.1892 27.9672 77.1726C21.6028 71.8034 17.6687 65.0553 16.1449 56.8769C13.0403 59.4396 10.4772 62.4337 8.45411 65.8815C6.43102 69.3284 5.0783 73.0184 4.32838 76.946C4.27567 76.5971 4.21721 76.2491 4.17169 75.8993C3.89952 73.8111 3.80943 71.7157 3.9321 69.6133C4.13623 66.1077 4.85979 62.7106 6.14351 59.4358C8.01902 54.6512 10.8553 50.5056 14.6384 46.9947C15.0864 46.5785 15.5421 46.1708 16.0199 45.7883C16.1401 45.6915 16.2 45.5797 16.2264 45.4337C16.9188 41.5459 18.2648 37.8914 20.2601 34.4749C22.6153 30.4426 25.693 27.0455 29.481 24.2799C31.8922 22.5193 34.498 21.1089 37.2906 20.0357C37.3759 20.003 37.4583 19.9409 37.5877 19.9741C31.3176 25.2953 27.465 31.971 25.9585 40.0313C33.8827 37.2481 41.7561 37.2391 49.663 40.0233C49.5916 39.6421 49.5307 39.2738 49.4531 38.9088C48.6016 34.9049 47.0884 31.1651 44.8741 27.7068C43.0503 24.8582 40.8413 22.3415 38.247 20.1547C38.1809 20.0992 38.1215 20.0357 38.0592 19.976C38.0702 19.9641 38.0813 19.9523 38.0923 19.9404L38.0908 19.9395ZM36.8469 49.137C35.6245 49.1422 33.7768 49.3143 31.943 49.6314C29.9544 49.9751 28.0113 50.489 26.1171 51.1811C25.9964 51.2252 25.9355 51.2626 25.9681 51.4115C26.1032 52.0273 26.2034 52.6516 26.3524 53.2641C28.1196 60.5271 31.8687 66.5874 37.6236 71.4299C37.7894 71.5693 37.8838 71.546 38.0343 71.4204C41.7403 68.33 44.6479 64.6258 46.7673 60.3152C48.1407 57.5211 49.0933 54.5905 49.6448 51.5324C49.6726 51.3788 49.731 51.2456 49.4852 51.1574C45.6082 49.7675 41.6094 49.0929 36.8474 49.137L36.8469 49.137Z" fill="black" fill-opacity="0.5"/>
<path d="M4.58249 77.3054C4.56212 77.2797 4.52329 77.2352 4.52457 77.2327C4.55639 77.1753 4.59522 77.2018 4.63278 77.225C4.61623 77.2515 4.59904 77.2789 4.58249 77.3054Z" fill="black" fill-opacity="0.5"/>
<path d="M71.1005 77.2228C71.1379 77.2005 71.1753 77.1764 71.2087 77.2339C71.1877 77.2581 71.1661 77.2813 71.1451 77.3054C71.13 77.2775 71.1156 77.2506 71.1005 77.2228Z" fill="black" fill-opacity="0.5"/>
<path d="M5.1023 4.82913C5.14556 4.90298 5.2202 4.91718 5.28152 4.94984C6.28601 5.48523 6.82985 6.30416 6.78421 7.45351C6.73905 8.59339 6.20377 9.44404 5.17551 9.96853C4.67303 10.2246 4.13062 10.3311 3.57204 10.3354C2.44823 10.3444 1.32442 10.3363 0.200612 10.343C0.048014 10.3439 7.50095e-08 10.3056 7.38344e-08 10.1475C0.00427851 6.90013 0.00475387 3.6528 1.42771e-09 0.405471C2.17412e-10 0.242631 0.054194 0.212808 0.202514 0.213755C1.34201 0.219909 2.48198 0.204288 3.62148 0.222749C4.46386 0.236477 5.22543 0.48405 5.81443 1.12594C6.65111 2.03813 6.827 3.86487 5.24539 4.75197C5.19881 4.77801 5.15127 4.8031 5.10325 4.82913L5.1023 4.82913ZM2.91696 5.94392C2.91696 5.94392 2.91696 5.94345 2.91696 5.94298C2.76674 5.94298 2.61652 5.94913 2.46677 5.94108C2.35506 5.93493 2.3175 5.97043 2.31798 6.08546C2.32225 6.90392 2.32178 7.72191 2.31798 8.54037C2.31798 8.64782 2.34174 8.69516 2.46107 8.6909C2.72918 8.68143 2.99873 8.69706 3.26637 8.68096C4.02793 8.63552 4.44485 8.20001 4.46766 7.43836C4.47099 7.32854 4.47004 7.21777 4.46149 7.10842C4.40539 6.39173 3.94522 5.95907 3.22453 5.94392C3.12185 5.94156 3.01917 5.94392 2.91648 5.94392L2.91696 5.94392ZM2.32035 3.07387C2.32035 3.42842 2.32463 3.78345 2.31798 4.13801C2.3156 4.25777 2.3446 4.30937 2.47485 4.30132C2.67974 4.28807 2.88701 4.30085 3.09143 4.28381C3.60246 4.2412 3.96186 3.9657 4.07642 3.53209C4.14963 3.25422 4.15296 2.97304 4.09306 2.68996C4.00512 2.27482 3.74413 2.0334 3.3429 1.92594C3.07146 1.85352 2.79288 1.8786 2.51716 1.86582C2.36694 1.85872 2.31037 1.89659 2.31655 2.05801C2.32938 2.39647 2.32035 2.73588 2.32035 3.07482L2.32035 3.07387Z" fill="black" fill-opacity="0.5"/>
<path d="M29.629 5.27071C29.629 3.66381 29.6319 2.05644 29.6251 0.449539C29.6242 0.267367 29.6681 0.211532 29.8618 0.213425C30.7944 0.223835 31.7271 0.216737 32.6597 0.21863C34.8964 0.222415 36.4251 1.385 36.9452 3.5247C37.3538 5.20636 37.2191 6.84638 36.3425 8.37426C35.6238 9.62723 34.4931 10.2769 33.0331 10.3252C31.957 10.3606 30.8785 10.3304 29.8014 10.3408C29.602 10.3427 29.629 10.2329 29.629 10.1151C29.629 8.50012 29.629 6.88518 29.629 5.27024L29.629 5.27071ZM31.9763 5.27544C31.9763 6.17258 31.9734 7.07019 31.9782 7.96733C31.9792 8.18499 31.8787 8.47789 32.0203 8.59996C32.17 8.72914 32.4651 8.6435 32.6955 8.63214C33.5291 8.59145 34.1178 8.20155 34.4357 7.43501C34.6535 6.90979 34.725 6.35712 34.7501 5.79783C34.7902 4.90589 34.7617 4.01869 34.4381 3.1684C34.185 2.50312 33.7368 2.04177 32.9901 1.94004C32.7298 1.90455 32.4602 1.93483 32.1965 1.91496C32.0149 1.90124 31.97 1.95755 31.9715 2.13451C31.9806 3.18117 31.9758 4.22831 31.9758 5.27497L31.9763 5.27544Z" fill="black" fill-opacity="0.5"/>
<path d="M25.1167 5.42263C25.4962 5.69291 25.6971 6.05218 25.8609 6.43086C26.4052 7.6914 26.7081 9.03429 27.2553 10.3379C26.9523 10.3379 26.685 10.3379 26.4172 10.3379C25.9601 10.3379 25.5025 10.3284 25.0459 10.3426C24.8657 10.3483 24.8074 10.2858 24.7578 10.1216C24.4635 9.14127 24.2005 8.15149 23.8624 7.18396C23.7737 6.93072 23.6712 6.68363 23.5189 6.45879C23.2954 6.12887 22.9587 6.06354 22.5912 6.07396C22.4279 6.07822 22.4881 6.20886 22.4877 6.28791C22.4838 7.45472 22.4853 8.62153 22.4853 9.78834C22.4853 10.155 22.2985 10.3384 21.9251 10.3384C21.3957 10.3384 20.8663 10.3336 20.337 10.3417C20.1939 10.3441 20.1453 10.3123 20.1453 10.1613C20.1501 6.90564 20.1501 3.64945 20.1453 0.393747C20.1453 0.243221 20.1905 0.212453 20.3346 0.2134C21.4814 0.2205 22.6288 0.205826 23.7752 0.22618C24.5266 0.239907 25.2197 0.453862 25.8382 0.900232C27.0689 1.78871 27.4326 4.39451 25.3811 5.28914C25.3021 5.3237 25.2275 5.36677 25.1162 5.42357L25.1167 5.42263ZM22.4853 3.12309C22.4853 3.46911 22.4886 3.81513 22.4833 4.16115C22.4814 4.27854 22.5132 4.33345 22.6447 4.32682C22.8441 4.31688 23.045 4.32871 23.2449 4.32114C24.1702 4.28611 24.6514 3.67123 24.4621 2.77801C24.3725 2.35437 24.1177 2.10302 23.6895 2.00977C23.3325 1.93166 22.9718 1.98089 22.6134 1.9629C22.4737 1.9558 22.4853 2.04385 22.4857 2.13236C22.4862 2.46276 22.4857 2.79316 22.4857 3.12356L22.4853 3.12309Z" fill="black" fill-opacity="0.5"/>
<path d="M17.344 5.22841C17.3421 6.32375 17.1902 7.38771 16.6697 8.37275C15.587 10.4227 13.0286 11.0812 11.1843 9.77663C10.2694 9.1296 9.76323 8.20921 9.51592 7.14715C9.14975 5.57308 9.13969 4.00423 9.77953 2.49006C10.2938 1.27206 11.1699 0.409673 12.4975 0.100182C14.2167 -0.300586 15.8908 0.525197 16.7061 2.14539C17.1945 3.11569 17.3445 4.15731 17.3435 5.22841L17.344 5.22841ZM14.9807 5.1376C14.9682 4.87803 14.9629 4.53764 14.9318 4.19915C14.8882 3.72659 14.8129 3.25832 14.604 2.82284C14.3523 2.29799 13.9464 2.00514 13.3492 1.9923C12.7314 1.97852 12.3025 2.26234 12.0326 2.80192C11.9406 2.98638 11.8706 3.1794 11.8246 3.3805C11.5912 4.39549 11.6003 5.41952 11.7091 6.4464C11.7561 6.88805 11.8491 7.31973 12.0657 7.71574C12.266 8.08228 12.5565 8.33234 12.9792 8.41126C13.8635 8.57575 14.4774 8.17736 14.7463 7.2622C14.9423 6.59425 14.9577 5.90586 14.9802 5.13808L14.9807 5.1376Z" fill="black" fill-opacity="0.5"/>
<path d="M65.0447 3.92588C65.0447 5.01812 65.0869 6.11177 65.0357 7.20165C64.9403 9.23656 63.824 10.3231 61.7792 10.4401C61.2082 10.4727 60.6406 10.4241 60.0938 10.2514C58.8319 9.85274 58.2002 8.94121 58.0138 7.67723C57.9735 7.40453 57.9617 7.1304 57.9622 6.85487C57.9631 4.71758 57.9655 2.58028 57.9579 0.442992C57.9574 0.252382 58.0134 0.211806 58.1936 0.215109C58.8015 0.22596 59.41 0.229735 60.0174 0.213693C60.2266 0.208032 60.2564 0.278331 60.256 0.464224C60.2493 2.65672 60.2517 4.84874 60.2517 7.04123C60.2517 7.30167 60.2721 7.55833 60.3703 7.80415C60.5732 8.3137 60.9948 8.5581 61.6213 8.52837C62.1737 8.50195 62.5156 8.23444 62.674 7.71026C62.7499 7.45831 62.7575 7.2007 62.7575 6.94074C62.7565 4.78788 62.7603 2.63454 62.7518 0.48168C62.7509 0.26512 62.8078 0.208975 63.0221 0.214637C63.6296 0.229735 64.238 0.227376 64.846 0.215581C65.0252 0.212278 65.0693 0.26229 65.0679 0.437802C65.0598 1.60081 65.0636 2.76382 65.0636 3.92683C65.0575 3.92683 65.0513 3.92683 65.0451 3.92683L65.0447 3.92588Z" fill="black" fill-opacity="0.5"/>
<path d="M67.8541 0.217186C68.6417 0.217186 69.4284 0.220972 70.215 0.213399C70.3549 0.211979 70.384 0.298597 70.4308 0.388054C70.8422 1.17755 71.2542 1.96705 71.6666 2.75655C71.7019 2.82424 71.7396 2.89003 71.7783 2.96008C71.8719 2.90707 71.8905 2.81619 71.9296 2.74282C72.3473 1.95617 72.7621 1.16809 73.1755 0.379061C73.2246 0.285817 73.2628 0.211979 73.3969 0.213399C74.1755 0.220972 74.9545 0.217185 75.7411 0.217185C75.7602 0.319423 75.6891 0.381901 75.65 0.451006C74.8418 1.88706 74.0342 3.32359 73.216 4.75444C73.121 4.92057 73.1292 5.03796 73.2198 5.19888C74.1273 6.81433 75.0266 8.43403 75.9278 10.0533C75.9726 10.1342 76.0142 10.217 76.0562 10.297C75.9932 10.3647 75.9259 10.3373 75.8681 10.3377C75.1688 10.3401 74.469 10.3339 73.7697 10.3429C73.6122 10.3448 73.5325 10.2975 73.4595 10.1574C72.9592 9.20081 72.448 8.24944 71.9396 7.29664C71.8995 7.22138 71.8551 7.14849 71.7955 7.04389C71.742 7.13713 71.6995 7.20624 71.6614 7.27771C71.1501 8.2376 70.6365 9.19655 70.1324 10.1602C70.0599 10.2994 69.9778 10.3444 69.8212 10.3429C69.0666 10.3339 68.3114 10.3387 67.5529 10.3387C67.5219 10.235 67.5978 10.1735 67.6365 10.1044C68.5501 8.45628 69.4642 6.80865 70.3859 5.16481C70.4661 5.02234 70.4661 4.92341 70.385 4.78094C69.5644 3.34252 68.752 1.89984 67.94 0.456686C67.9004 0.386634 67.8226 0.324629 67.8556 0.217186L67.8541 0.217186Z" fill="black" fill-opacity="0.5"/>
<path d="M55.6955 10.3397C54.9812 10.3397 54.279 10.3355 53.5767 10.3426C53.4106 10.3445 53.4308 10.2228 53.4101 10.1363C53.2748 9.56719 53.1413 8.99765 53.0199 8.42573C52.9877 8.27502 52.9316 8.2194 52.7698 8.22178C52.1386 8.23128 51.5074 8.23081 50.8761 8.22178C50.7139 8.2194 50.6409 8.25505 50.6035 8.42858C50.4796 9.00811 50.3241 9.5805 50.1969 10.1596C50.1638 10.3107 50.099 10.3435 49.9564 10.3421C49.341 10.335 48.7256 10.3336 48.1107 10.3426C47.9394 10.345 47.9149 10.3027 47.9571 10.142C48.8226 6.864 49.6833 3.58508 50.5401 0.304742C50.5785 0.157364 50.6376 0.104593 50.7964 0.106495C51.4757 0.116003 52.1549 0.114101 52.8341 0.107446C52.9695 0.106019 53.0304 0.144528 53.065 0.277643C53.9266 3.57272 54.7921 6.86685 55.6566 10.1615C55.6705 10.2142 55.6797 10.2679 55.6945 10.3383L55.6955 10.3397ZM51.8352 2.91047C51.8189 2.91238 51.8021 2.91475 51.7858 2.91665C51.5313 4.07381 51.2793 5.23191 51.0192 6.38764C50.9841 6.54357 51.0264 6.5797 51.1781 6.57685C51.5851 6.56877 51.9931 6.56306 52.3997 6.57875C52.5984 6.58636 52.6224 6.52408 52.5831 6.35055C52.4088 5.57991 52.2447 4.80689 52.0776 4.03482C51.9965 3.6602 51.9158 3.2851 51.8352 2.91L51.8352 2.91047Z" fill="black" fill-opacity="0.5"/>
<path d="M39.9717 5.25902C39.9717 3.65916 39.9756 2.05883 39.9669 0.458978C39.966 0.262131 40.0155 0.212446 40.2161 0.213392C42.0582 0.22191 43.9008 0.22049 45.7429 0.214338C45.9151 0.213865 45.9791 0.245569 45.9723 0.430586C45.9569 0.863556 45.9555 1.29794 45.9723 1.73091C45.9805 1.93959 45.9026 1.97129 45.7131 1.96988C44.6559 1.96088 43.5983 1.96988 42.5411 1.96183C42.3607 1.96041 42.2944 1.99543 42.2982 2.19038C42.3121 2.82872 42.3102 3.46705 42.2992 4.10538C42.2963 4.28283 42.3449 4.33062 42.5257 4.3292C43.5107 4.32021 44.4962 4.33062 45.4813 4.32021C45.6727 4.31832 45.7213 4.37132 45.7155 4.55444C45.7016 4.99545 45.7035 5.43742 45.7155 5.87843C45.7198 6.03884 45.6655 6.0748 45.5121 6.07386C44.527 6.0677 43.5415 6.07575 42.5565 6.06676C42.3665 6.06487 42.2939 6.09941 42.2982 6.30714C42.3126 7.00036 42.3093 7.69453 42.2996 8.38776C42.2972 8.55574 42.3468 8.59643 42.5132 8.59501C43.6348 8.58792 44.756 8.59502 45.8776 8.58744C46.0483 8.5865 46.1133 8.61536 46.107 8.80227C46.0911 9.25086 46.0974 9.70086 46.1046 10.1499C46.1065 10.2848 46.083 10.342 45.9242 10.3416C44.0018 10.3359 42.0794 10.3345 40.1569 10.343C39.9463 10.3439 39.9717 10.2341 39.9717 10.1064C39.9722 8.49044 39.9717 6.87497 39.9717 5.25902Z" fill="black" fill-opacity="0.5"/>
</g>
</svg>
