<svg width="161" height="82" viewBox="0 0 161 82" fill="none" xmlns="http://www.w3.org/2000/svg">
<g opacity="0.6">
<path d="M93.2398 8.19768C92.9979 8.31896 92.9177 8.55671 92.7881 8.75243C91.9341 10.0277 91.0788 11.3017 90.2529 12.5901C90.0524 12.9023 89.8266 13.0356 89.4283 13.0092C88.8978 12.9744 88.3017 13.1088 87.85 12.9323C87.3876 12.751 87.2446 12.1746 86.9693 11.7688C86.2744 10.7445 85.5995 9.70945 84.9112 8.68159C84.7923 8.50507 84.7134 8.29854 84.4087 8.09321V8.702C84.4087 11.4878 84.4087 14.2736 84.4087 17.0594C84.4087 17.6958 84.4034 17.6994 83.7298 17.703C83.0082 17.7066 82.2865 17.703 81.5648 17.6982C81.5127 17.6982 81.4619 17.6766 81.4085 17.6634C81.2655 17.4676 81.3229 17.2455 81.3229 17.0342C81.3189 12.9275 81.3203 8.82088 81.3203 4.71303C81.3203 4.56894 81.3229 4.42484 81.3256 4.28075C81.3296 4.11144 81.4151 4.02018 81.6169 4.02138C82.7128 4.02379 83.8087 4.02619 84.9032 4.02018C85.2573 4.01778 85.3175 4.28315 85.4444 4.47768C86.4174 5.96784 87.3809 7.4628 88.3471 8.95537C88.4942 9.18231 88.6465 9.40806 88.8002 9.64101C89.0955 9.58217 89.1383 9.34321 89.2492 9.1739C90.2636 7.6225 91.2819 6.07231 92.2655 4.5053C92.4927 4.14386 92.7359 3.99016 93.205 4.01058C94.0309 4.0466 94.8608 4.02138 95.6894 4.02018C96.5274 4.02018 96.4432 3.98416 96.4432 4.74065C96.4445 6.18158 96.4432 7.62251 96.4432 9.06343C96.4432 11.7292 96.4432 14.3949 96.4432 17.0606C96.4432 17.6946 96.4378 17.6982 95.7629 17.7018C95.1749 17.7054 94.5869 17.7054 93.9989 17.7018C93.3694 17.697 93.3627 17.6946 93.3614 17.0966C93.3574 15.7037 93.3614 14.3108 93.3614 12.9179C93.3614 11.477 93.3641 10.0361 93.3574 8.59513C93.3574 8.46425 93.4349 8.30455 93.2398 8.19768Z" fill="#24252D" fill-opacity="0.7"/>
<path d="M67.5818 31.4219C67.5658 35.4829 64.059 38.6061 59.5165 38.6037C54.942 38.6013 51.4165 35.4409 51.4312 31.3559C51.4459 27.2468 54.946 24.1428 59.5499 24.1548C64.1472 24.1668 67.5978 27.2888 67.5805 31.4219H67.5818ZM64.3945 31.2382C64.4225 30.8491 64.329 30.352 64.1686 29.8681C63.5445 27.9853 61.7751 26.7833 59.598 26.7569C57.3609 26.7305 55.5674 27.8832 54.8912 29.7925C54.5945 30.6294 54.5424 31.4747 54.7188 32.3465C55.2814 35.1155 58.3445 36.7017 61.2699 35.7195C63.1917 35.0747 64.3985 33.39 64.3945 31.237V31.2382Z" fill="#24252D" fill-opacity="0.7"/>
<path d="M51.1823 10.8382C51.1823 8.74769 51.1796 6.65835 51.1836 4.5678C51.1836 4.03105 51.1943 4.02385 51.8024 4.02265C53.6734 4.02025 55.547 3.96741 57.4153 4.03826C60.7617 4.16554 63.3423 5.47198 64.6694 8.32742C66.5484 12.3668 63.6497 16.8685 58.7958 17.571C58.161 17.6622 57.5249 17.7115 56.8808 17.7079C55.1701 17.6983 53.4595 17.7079 51.7489 17.7031C51.197 17.7019 51.1849 17.6923 51.1836 17.1819C51.1796 15.0674 51.1823 12.954 51.1823 10.8394V10.8382ZM54.2587 10.8514C54.2587 12.1495 54.2654 13.4475 54.2534 14.7444C54.2507 15.0434 54.3402 15.1874 54.6997 15.1706C55.126 15.1514 55.555 15.1706 55.9827 15.1658C56.7832 15.1562 57.5904 15.2259 58.3802 15.0566C60.8005 14.5366 62.1984 12.6766 62.0367 10.5873C61.8589 8.289 60.0454 6.69437 57.5343 6.5791C56.6268 6.53827 55.7167 6.55988 54.808 6.56469C54.2707 6.56829 54.2627 6.57909 54.26 7.10263C54.2547 8.35264 54.2587 9.60144 54.2587 10.8514Z" fill="#24252D" fill-opacity="0.7"/>
<path d="M2.76674 31.3376C2.76674 29.2494 2.76407 27.1613 2.76808 25.0731C2.76808 24.5292 2.77877 24.5208 3.38684 24.5196C5.20303 24.516 7.01923 24.5028 8.83542 24.5268C10.5808 24.5508 12.2326 24.923 13.6532 25.868C16.1844 27.5503 17.2535 29.8306 16.6909 32.608C16.1376 35.3349 14.2158 37.052 11.3065 37.8842C10.5688 38.0955 9.80031 38.1988 9.01984 38.1988C7.15019 38.1988 5.28054 38.2036 3.4109 38.2012C2.77743 38.2012 2.77075 38.1928 2.76941 37.602C2.76674 35.5139 2.76941 33.4257 2.76941 31.3376H2.76674ZM5.84852 31.3772C5.84852 32.6488 5.85921 33.9216 5.84184 35.1932C5.83649 35.5559 5.94341 35.7168 6.37774 35.6988C7.44287 35.6531 8.51334 35.76 9.57713 35.6219C12.0856 35.2965 13.7815 33.4233 13.6559 31.1142C13.5356 28.8832 11.5911 27.1529 9.09602 27.0772C8.18859 27.0496 7.27983 27.0868 6.3724 27.0604C5.94074 27.0484 5.83382 27.1961 5.8405 27.5611C5.86189 28.8327 5.84852 30.1044 5.84852 31.3772Z" fill="#24252D" fill-opacity="0.7"/>
<path d="M85.5244 31.3198C85.5244 29.2292 85.5244 27.1387 85.5258 25.0482C85.5258 24.7948 85.4402 24.5018 85.9294 24.515C88.2521 24.5738 90.5828 24.3829 92.9001 24.6351C96.0661 24.9785 98.6547 27.0667 99.3684 29.8092C100.357 33.6085 97.6564 37.3069 93.3532 38.0405C92.8012 38.1342 92.2479 38.2038 91.6826 38.2014C89.8651 38.1966 88.0462 38.2026 86.2287 38.2026C85.4883 38.2026 85.5258 38.2687 85.5258 37.5902C85.5258 35.4997 85.5258 33.4091 85.5258 31.3186L85.5244 31.3198ZM88.5995 31.3354C88.5995 32.631 88.6009 33.9267 88.5982 35.2223C88.5982 35.4757 88.5848 35.7074 88.9951 35.6942C90.1404 35.657 91.2911 35.7699 92.4324 35.6078C94.5533 35.3076 96.4684 33.7322 96.3975 31.2261C96.332 28.9399 94.4276 27.1891 91.9646 27.0835C91.0051 27.0426 90.0429 27.0847 89.082 27.0607C88.6837 27.0498 88.5888 27.1867 88.5928 27.5205C88.6102 28.7922 88.5995 30.0638 88.5995 31.3354Z" fill="#24252D" fill-opacity="0.7"/>
<path d="M46.9861 30.9319C47.1104 31.1036 47.3255 31.1625 47.5046 31.2597C50.0986 32.6779 49.7805 36.0496 47.522 37.3261C46.5451 37.8784 45.4693 38.1498 44.3346 38.1786C42.7055 38.2194 41.0738 38.2014 39.4447 38.2002C38.8861 38.2002 38.8754 38.1882 38.874 37.6815C38.87 35.1827 38.8727 32.6851 38.8727 30.1863C38.8727 28.4812 38.87 26.7749 38.874 25.0698C38.8754 24.5282 38.8861 24.509 39.4955 24.5198C41.2034 24.5498 42.9167 24.4213 44.6206 24.6207C45.2087 24.6891 45.7659 24.8452 46.3018 25.071C48.8972 26.1637 49.1177 29.3097 47.236 30.6714C47.1371 30.7434 47.0195 30.8046 46.9861 30.9307V30.9319ZM41.9585 34.0347C41.9585 34.5391 41.9598 35.0434 41.9585 35.5477C41.9585 35.7326 41.9972 35.8959 42.2512 35.8875C43.0757 35.8611 43.911 35.9956 44.7235 35.7891C45.7071 35.5381 46.2083 34.8789 46.1522 33.9531C46.0974 33.0405 45.496 32.3981 44.4883 32.2948C43.7747 32.2216 43.0477 32.2588 42.3273 32.2432C42.052 32.2372 41.9531 32.3573 41.9572 32.595C41.9665 33.0753 41.9598 33.5556 41.9598 34.0359L41.9585 34.0347ZM41.9585 28.4391C42.0293 28.8558 41.8262 29.3865 42.0707 29.8897C42.7323 29.9641 43.3938 29.9869 44.046 29.8452C44.8585 29.6699 45.2755 29.1632 45.2808 28.3827C45.2862 27.6046 44.8692 27.1111 44.0553 26.9141C43.478 26.7737 42.8913 26.8505 42.3086 26.8289C42.0146 26.8181 41.9545 26.9742 41.9572 27.1939C41.9612 27.577 41.9572 27.9588 41.9572 28.4391H41.9585Z" fill="#24252D" fill-opacity="0.7"/>
<path d="M78.5042 32.1808C80.0785 34.1861 81.602 36.1254 83.1175 38.0562C82.9865 38.2964 82.774 38.1967 82.6123 38.1991C81.8105 38.2099 81.0073 38.1763 80.2081 38.2147C79.7404 38.2375 79.4905 38.073 79.2472 37.7344C78.1621 36.2214 77.0488 34.7241 75.9369 33.2255C75.7939 33.0334 75.7218 32.7392 75.4237 32.7116C75.0001 32.6732 74.5684 32.684 74.1435 32.7092C73.9283 32.7224 73.9751 32.9193 73.9737 33.0538C73.9697 33.8463 73.9711 34.6388 73.9711 35.4325C73.9711 36.201 73.9577 36.9707 73.9777 37.738C73.9858 38.0634 73.9042 38.2231 73.4953 38.2099C72.775 38.1859 72.052 38.1907 71.3303 38.2087C70.9815 38.2171 70.8465 38.1043 70.8679 37.7945C70.8866 37.5315 70.8706 37.2661 70.8706 37.0019C70.8706 33.1343 70.8706 29.2666 70.8706 25.3989C70.8706 25.2308 70.8799 25.0627 70.8706 24.8945C70.8532 24.622 70.9775 24.5067 71.2902 24.5151C73.1051 24.5619 74.9239 24.4238 76.7374 24.616C77.2987 24.676 77.8373 24.8093 78.3545 25.0098C80.891 25.9981 81.7731 28.9484 80.1426 30.9597C79.7243 31.4748 79.1537 31.8242 78.5069 32.1796L78.5042 32.1808ZM73.9711 28.5401C73.9711 29.0444 73.9711 29.5475 73.9711 30.0519C73.9711 30.238 74.0112 30.3893 74.2731 30.3785C74.964 30.3497 75.6616 30.4577 76.3459 30.2944C77.2707 30.0735 77.7384 29.5079 77.7438 28.6001C77.7491 27.7104 77.2613 27.1304 76.3338 26.9166C75.6483 26.7593 74.952 26.8518 74.2597 26.8326C73.9951 26.8254 73.9711 26.9923 73.9711 27.1712C73.9711 27.6275 73.9711 28.0838 73.9711 28.5389V28.5401Z" fill="#24252D" fill-opacity="0.7"/>
<path d="M129.483 38.2036C128.56 38.2036 127.652 38.1892 126.746 38.2108C126.41 38.2192 126.276 38.0752 126.176 37.8278C125.813 36.9248 125.423 36.0314 125.084 35.1212C124.951 34.7658 124.755 34.6361 124.337 34.6409C122.68 34.6602 121.021 34.6589 119.364 34.6409C118.952 34.6361 118.738 34.7538 118.604 35.108C118.267 35.993 117.868 36.86 117.542 37.7473C117.407 38.1136 117.198 38.2216 116.791 38.2108C115.916 38.1868 115.039 38.2036 114.167 38.2036C114.131 37.9167 114.267 37.7293 114.35 37.5312C116.086 33.4017 117.824 29.2735 119.563 25.144C119.739 24.7277 120.078 24.5192 120.583 24.5184C121.465 24.5184 122.349 24.5448 123.229 24.5076C123.711 24.4872 123.922 24.6445 124.088 25.0432C125.291 27.943 126.52 30.8345 127.741 33.7283C128.298 35.0516 128.853 36.3773 129.411 37.7005C129.467 37.835 129.551 37.9611 129.485 38.2036H129.483ZM121.915 27.3318C121.866 27.3354 121.818 27.3378 121.768 27.3414C121.112 28.9637 120.456 30.5859 119.79 32.231H123.902C123.222 30.5559 122.569 28.9433 121.915 27.3318Z" fill="#24252D" fill-opacity="0.7"/>
<path d="M48.4949 17.7042C47.4525 17.7042 46.5451 17.6945 45.6376 17.709C45.3196 17.7138 45.1659 17.6105 45.0603 17.3391C44.6995 16.4109 44.2945 15.4959 43.9391 14.5665C43.8148 14.2423 43.6344 14.1234 43.2481 14.1282C41.5642 14.1463 39.879 14.1439 38.1951 14.1282C37.8196 14.1246 37.6231 14.2183 37.4975 14.5569C37.1581 15.4659 36.7598 16.3581 36.4083 17.2635C36.2881 17.5745 36.1277 17.7258 35.7281 17.7126C34.8487 17.6837 33.9667 17.7042 33.082 17.7042C32.9684 17.4832 33.0954 17.3199 33.1662 17.1518C34.9329 12.9563 36.6997 8.76079 38.4704 4.56528C38.699 4.02253 38.7056 4.02253 39.3886 4.02133C40.2706 4.01893 41.1526 4.01893 42.036 4.02133C42.8432 4.02373 42.7082 3.95529 42.9915 4.62532C44.3026 7.71972 45.5989 10.8177 46.9006 13.9157C47.4178 15.1465 47.9376 16.3773 48.4962 17.7042H48.4949ZM42.7857 11.7603C42.1001 10.0732 41.4359 8.44258 40.7089 6.65463C39.9779 8.4642 39.3217 10.0936 38.6482 11.7603H42.7857Z" fill="#24252D" fill-opacity="0.7"/>
<path d="M1.0014 17.7042C0.921213 17.362 1.09094 17.1543 1.18181 16.9369C2.89377 12.8531 4.60839 8.77048 6.33772 4.69265C6.67316 3.90254 6.49007 4.02982 7.39883 4.02261C8.28087 4.01541 9.1629 4.01781 10.0449 4.02261C10.665 4.02502 10.6677 4.02862 10.9203 4.6278C12.3182 7.94674 13.7147 11.2657 15.1113 14.5858C15.5349 15.5921 15.9559 16.5983 16.4197 17.703C15.3572 17.703 14.383 17.7006 13.4087 17.7042C13.1294 17.7042 13.0679 17.5289 12.9931 17.3416C12.6296 16.4398 12.2407 15.5464 11.8972 14.6387C11.7569 14.2688 11.5711 14.1139 11.102 14.1223C9.47295 14.1535 7.84119 14.1547 6.21209 14.1223C5.7096 14.1115 5.51047 14.2844 5.3648 14.6819C5.05609 15.5236 4.6712 16.3438 4.36784 17.1879C4.21816 17.6022 3.9776 17.7342 3.50585 17.715C2.67994 17.6802 1.8527 17.7054 1.00006 17.7054L1.0014 17.7042ZM10.7198 11.7676C10.0155 10.0409 9.35535 8.41865 8.63769 6.65711C7.91068 8.45467 7.24915 10.0901 6.57025 11.7676H10.7198Z" fill="#24252D" fill-opacity="0.7"/>
<path d="M146.417 24.5187C147.435 24.5187 148.398 24.5379 149.358 24.5103C149.783 24.4983 150.039 24.6244 150.275 24.9414C151.153 26.1169 152.065 27.2733 152.964 28.4356C153.131 28.6506 153.305 28.8607 153.488 29.0889C153.894 28.7298 154.149 28.3048 154.456 27.9157C155.227 26.9359 155.995 25.9536 156.738 24.9558C156.969 24.6448 157.213 24.4959 157.646 24.5091C158.625 24.5391 159.607 24.5187 160.588 24.5187C160.663 24.8237 160.436 24.9606 160.309 25.1263C158.912 26.9443 157.503 28.7526 156.107 30.5706C155.583 31.2527 155.583 31.0185 156.125 31.7258C157.593 33.6434 159.076 35.5538 160.551 37.4691C160.701 37.6636 160.842 37.8641 160.98 38.0526C160.858 38.2916 160.644 38.1979 160.479 38.2003C159.73 38.2111 158.979 38.1703 158.235 38.2171C157.662 38.2532 157.313 38.0851 156.993 37.6504C156.035 36.3499 155.025 35.0795 154.028 33.8019C153.877 33.6086 153.767 33.3804 153.516 33.2351C153.296 33.3324 153.205 33.5365 153.075 33.7034C152.037 35.0423 150.992 36.3776 149.98 37.7344C149.71 38.0959 149.416 38.234 148.935 38.2159C147.987 38.1811 147.036 38.2051 146.053 38.2051C146.104 37.8785 146.311 37.7128 146.456 37.5231C147.969 35.5442 149.477 33.5629 151.017 31.6021C151.296 31.2466 151.28 31.0113 151.01 30.6655C149.61 28.8799 148.236 27.0776 146.862 25.2752C146.702 25.0651 146.473 24.8813 146.416 24.5211L146.417 24.5187Z" fill="#24252D" fill-opacity="0.7"/>
<path d="M131.436 29.2268C131.436 27.8339 131.432 26.441 131.437 25.0481C131.44 24.533 131.449 24.5258 132.002 24.5198C132.671 24.5126 133.339 24.5342 134.006 24.5114C134.382 24.4981 134.559 24.6014 134.515 24.9556C134.497 25.0985 134.512 25.2438 134.512 25.3879C134.512 27.8375 134.512 30.2871 134.512 32.7367C134.512 33.0729 134.523 33.4067 134.59 33.7405C134.881 35.2187 135.986 36.034 137.677 36.004C139.319 35.9739 140.392 35.1274 140.61 33.6709C140.66 33.3394 140.678 33.0008 140.68 32.6658C140.685 30.2162 140.682 27.7667 140.682 25.3171C140.682 25.149 140.686 24.9809 140.684 24.8127C140.681 24.605 140.787 24.515 141.024 24.5162C141.826 24.5234 142.628 24.5198 143.429 24.5186C143.659 24.5186 143.773 24.6098 143.769 24.82C143.767 24.94 143.771 25.0601 143.771 25.1802C143.771 27.7498 143.769 30.3195 143.771 32.8892C143.771 33.5904 143.673 34.282 143.447 34.9497C142.853 36.7148 141.587 37.8784 139.584 38.3659C138.32 38.6733 137.047 38.6937 135.78 38.4103C133.435 37.8856 132.093 36.4951 131.603 34.4033C131.476 33.863 131.428 33.313 131.433 32.7571C131.444 31.5803 131.437 30.4035 131.436 29.2268Z" fill="#24252D" fill-opacity="0.7"/>
<path d="M31.9208 6.43016C31.1216 6.98852 30.3638 7.51806 29.6168 8.0404C29.3121 8.00438 29.2332 7.76662 29.0742 7.62013C27.671 6.3293 25.9857 5.94144 24.0827 6.43977C22.1769 6.93929 21.1305 8.17488 20.7349 9.88118C20.5478 10.6929 20.5906 11.507 20.8592 12.3043C21.3965 13.9038 22.5378 14.9833 24.3566 15.3603C26.1795 15.7386 27.7979 15.3279 29.1009 14.0707C29.3985 13.7841 29.7268 13.7637 30.0859 14.0094C30.6979 14.4309 31.306 14.8572 31.9114 15.2787C30.0631 17.6634 26.3907 18.6769 23.0469 17.7631C19.6952 16.8469 17.5048 14.174 17.4621 10.9511C17.4193 7.7342 19.5656 4.97602 22.8598 4.0118C26.233 3.02476 29.9469 3.99619 31.9194 6.43016H31.9208Z" fill="#24252D" fill-opacity="0.7"/>
<path d="M20.1215 31.3246C20.1215 29.258 20.1189 27.1915 20.1215 25.1262C20.1215 24.5294 20.1296 24.521 20.767 24.5198C23.3062 24.5162 25.8468 24.5162 28.386 24.5198C28.9994 24.5198 29.0034 24.5294 29.0127 25.0709C29.0194 25.4792 29.0194 25.8875 29.0127 26.2957C29.0047 26.8193 29.0007 26.8265 28.3779 26.8277C26.8812 26.8313 25.3844 26.8265 23.8876 26.8301C23.2434 26.8325 23.2381 26.8385 23.2327 27.4269C23.226 28.0993 23.2287 28.7717 23.2327 29.4454C23.2367 30.0854 23.2394 30.0878 23.9972 30.089C25.1999 30.0914 26.4041 30.1058 27.6055 30.0806C28.0398 30.071 28.1574 30.2103 28.1334 30.5753C28.104 31.0064 28.132 31.4398 28.1254 31.8721C28.1173 32.3861 28.112 32.3945 27.5614 32.3981C26.3319 32.4041 25.1024 32.4005 23.8729 32.3993C23.1819 32.3993 23.2327 32.3777 23.2341 32.9973C23.2341 33.8138 23.2488 34.6315 23.2274 35.448C23.218 35.7903 23.337 35.9055 23.7272 35.9007C25.2507 35.8827 26.7742 35.8911 28.2978 35.8947C29.0061 35.8959 29.0087 35.8995 29.0154 36.5071C29.0194 36.9154 28.99 37.326 29.0234 37.7319C29.0568 38.1318 28.8631 38.2122 28.4621 38.2098C25.8695 38.1978 23.2755 38.2062 20.6828 38.2014C20.1362 38.2014 20.1256 38.187 20.1242 37.6671C20.1189 35.5525 20.1229 33.4379 20.1229 31.3246H20.1215Z" fill="#24252D" fill-opacity="0.7"/>
<path d="M116.672 9.67917C116.672 10.2555 116.652 10.8547 116.68 11.4527C116.698 11.8177 116.523 11.8982 116.159 11.8934C114.956 11.8802 113.754 11.8886 112.552 11.8886C111.672 11.8886 111.753 11.873 111.752 12.5754C111.752 13.3679 111.766 14.1605 111.745 14.953C111.736 15.3012 111.88 15.4057 112.258 15.4021C113.728 15.3864 115.197 15.3961 116.667 15.3961C116.932 15.3961 117.196 15.3961 117.494 15.3961V17.6715C117.326 17.6835 117.196 17.7015 117.067 17.7015C114.474 17.7027 111.883 17.7051 109.29 17.7015C108.678 17.7015 108.667 17.6919 108.667 17.154C108.665 12.9513 108.665 8.74737 108.667 4.54466C108.667 4.03553 108.681 4.02352 109.238 4.02232C111.831 4.01752 114.422 4.03073 117.015 4.01031C117.465 4.00671 117.556 4.16401 117.54 4.51464C117.518 4.96973 117.514 5.42843 117.54 5.88352C117.56 6.22574 117.437 6.34702 117.044 6.33861C116.056 6.317 115.066 6.33141 114.078 6.33141C113.49 6.33141 112.902 6.34822 112.316 6.3254C111.92 6.30979 111.73 6.39745 111.745 6.79611C111.773 7.5634 111.773 8.3331 111.745 9.1016C111.73 9.50265 111.935 9.58431 112.321 9.5795C113.497 9.56749 114.673 9.5711 115.848 9.5783C116.11 9.5795 116.384 9.51947 116.675 9.67917H116.672Z" fill="#24252D" fill-opacity="0.7"/>
<path d="M68.5332 10.7973C68.5332 8.75478 68.5319 6.71227 68.5332 4.66975C68.5332 4.02854 68.5385 4.02133 69.2027 4.02133C71.7152 4.01893 74.229 4.01893 76.7415 4.02133C77.379 4.02133 77.3816 4.02854 77.387 4.61451C77.391 4.97475 77.387 5.33498 77.387 5.69521C77.387 6.38325 77.4284 6.32922 76.7094 6.33042C75.2393 6.33042 73.7693 6.33282 72.2979 6.33042C71.5655 6.32922 71.6043 6.31481 71.6056 6.96563C71.6083 7.68609 71.623 8.40776 71.5989 9.12822C71.5869 9.48125 71.7419 9.58452 72.1135 9.58092C73.3697 9.56771 74.6259 9.57251 75.8835 9.57731C76.529 9.57971 76.5317 9.58692 76.537 10.1705C76.541 10.5788 76.5143 10.9894 76.545 11.3953C76.5731 11.7687 76.4314 11.9032 76.0065 11.896C74.8304 11.8768 73.6544 11.8888 72.4783 11.8888C71.4827 11.8888 71.6123 11.8516 71.607 12.6537C71.603 13.3982 71.6003 14.1439 71.607 14.8883C71.6123 15.3843 71.6217 15.3927 72.195 15.3951C73.7185 15.3999 75.242 15.3999 76.7669 15.3951C77.4204 15.3939 77.3883 15.3891 77.3856 15.9402C77.383 16.3965 77.3683 16.854 77.391 17.3091C77.407 17.6369 77.248 17.709 76.9152 17.7078C74.2958 17.6981 71.6751 17.6945 69.0557 17.7114C68.6201 17.7138 68.5198 17.5733 68.5225 17.2118C68.5372 15.0733 68.5292 12.9347 68.5292 10.7961L68.5332 10.7973Z" fill="#24252D" fill-opacity="0.7"/>
<path d="M102.875 31.3631C102.875 29.2989 102.874 27.2336 102.875 25.1695C102.875 24.5271 102.88 24.5211 103.547 24.5199C106.058 24.5175 108.57 24.5175 111.081 24.5199C111.722 24.5199 111.725 24.5271 111.732 25.1142C111.736 25.4745 111.732 25.8347 111.732 26.1949C111.732 26.8782 111.789 26.829 111.058 26.829C109.589 26.829 108.119 26.8266 106.65 26.829C105.96 26.8302 105.956 26.835 105.953 27.4582C105.949 28.1306 105.949 28.803 105.953 29.4743C105.957 30.0819 105.961 30.0855 106.668 30.0879C107.869 30.0915 109.072 30.0855 110.274 30.0903C110.874 30.0927 110.876 30.0999 110.883 30.645C110.888 31.0293 110.887 31.4135 110.883 31.7978C110.876 32.3897 110.875 32.3957 110.237 32.3981C109.036 32.4029 107.833 32.4017 106.632 32.3981C105.858 32.3957 105.952 32.4198 105.952 33.0382C105.952 33.8307 105.974 34.6232 105.942 35.4145C105.927 35.8047 106.088 35.902 106.494 35.8984C108.016 35.8816 109.54 35.89 111.062 35.8924C111.721 35.8936 111.725 35.8984 111.732 36.4664C111.737 36.9467 111.728 37.427 111.732 37.9073C111.734 38.1186 111.633 38.2123 111.397 38.2027C111.237 38.1955 111.077 38.2027 110.916 38.2027C108.512 38.2027 106.108 38.2039 103.704 38.2027C102.78 38.2027 102.875 38.2795 102.874 37.4846C102.871 35.4445 102.874 33.4032 102.874 31.3631H102.875Z" fill="#24252D" fill-opacity="0.7"/>
<path d="M104.109 10.8765C104.109 12.9646 104.111 15.0516 104.107 17.1397C104.107 17.6921 104.097 17.6981 103.498 17.7029C102.804 17.7089 102.109 17.6957 101.416 17.7077C101.104 17.7125 100.976 17.6008 100.995 17.327C101.004 17.1841 100.995 17.0388 100.995 16.8948C100.995 12.8638 100.995 8.83276 100.995 4.80176C100.995 4.65767 101.003 4.51358 100.995 4.36948C100.983 4.13173 101.09 4.01766 101.366 4.02006C102.167 4.02726 102.969 4.02486 103.769 4.02126C104.006 4.02126 104.107 4.12092 104.107 4.32625C104.107 4.49436 104.109 4.66247 104.109 4.83058C104.109 6.84668 104.109 8.86157 104.109 10.8777V10.8765Z" fill="#24252D" fill-opacity="0.7"/>
<path d="M7.51783 63.742C8.21277 63.742 8.77139 63.7336 9.33135 63.7444C9.92071 63.7552 10.3564 63.5271 10.6745 63.0936C10.748 62.9939 10.8308 62.8979 10.8923 62.7922C10.9925 62.6193 11.1569 62.516 11.3453 62.5989C11.5271 62.6781 11.4282 62.8498 11.3747 62.9807C11.0901 63.6784 10.8027 64.3748 10.5114 65.0713C10.4753 65.1577 10.4312 65.2502 10.3644 65.3174C10.2909 65.3907 10.1773 65.4015 10.0677 65.3679C9.94209 65.3294 9.93007 65.2358 9.93408 65.1361C9.93808 65.016 9.9461 64.896 9.94744 64.7759C9.95011 64.418 9.72025 64.2415 9.35273 64.2319C8.76605 64.2175 8.17802 64.2379 7.59 64.2343C7.36949 64.2331 7.24119 64.3256 7.1717 64.5021C6.86566 65.2694 6.54091 66.0307 6.2616 66.8052C6.07049 67.3359 6.2068 67.516 6.80953 67.5749C8.39318 67.7298 9.84186 67.4764 11.0233 66.4221C11.2518 66.218 11.4683 65.919 11.9547 66.1424C11.5471 66.7271 11.1502 67.2891 10.7627 67.8571C10.6344 68.0456 10.4566 68.0912 10.2241 68.0912C7.84525 68.0864 5.46777 68.0876 3.08894 68.0864C2.96065 68.0864 2.79226 68.1116 2.76018 67.9615C2.7241 67.791 2.86977 67.7082 3.03415 67.6613C3.08493 67.6469 3.13705 67.6301 3.18917 67.6277C4.32112 67.5557 4.84633 66.8976 5.19246 66.0163C5.68026 64.7735 6.2175 63.5463 6.72934 62.3107C6.8122 62.109 6.87769 61.9 6.94183 61.6935C7.19976 60.8686 7.15299 60.7905 6.25224 60.4855C6.1186 60.4399 5.90076 60.4579 5.92616 60.2454C5.94754 60.0664 6.10256 60.0244 6.2763 60.0244C8.5148 60.0244 10.7546 60.0244 13.0212 60.0244C13.0279 60.6476 12.8408 61.1748 12.7352 61.7127C12.7031 61.8784 12.6056 61.9685 12.4091 61.9517C12.234 61.9372 12.2073 61.822 12.1966 61.6983C12.1886 61.6022 12.194 61.505 12.1793 61.4101C12.075 60.7485 11.8786 60.5696 11.1582 60.5431C10.625 60.5239 10.0904 60.5432 9.55587 60.5444C9.07476 60.5456 8.73531 60.7473 8.56826 61.1495C8.2248 61.9757 7.8947 62.8078 7.51783 63.7408V63.742Z" fill="#24252D" fill-opacity="0.7"/>
<path d="M13.6678 67.9215C13.2856 67.0473 13.3243 66.9669 14.5124 66.0999C14.0487 65.8922 13.6397 65.6448 13.4967 65.1753C13.335 64.6422 13.4179 64.1282 13.6557 63.6299C14.2772 62.3295 15.6483 61.7603 17.1932 62.1782C17.4873 62.2574 17.7733 62.2214 18.0633 62.2394C18.4294 62.2622 18.8023 62.1986 19.1671 62.2802C19.0959 62.6605 18.7003 62.8958 17.9804 62.9863C17.9831 63.3778 18.0298 63.78 17.8855 64.1751C17.526 65.1621 16.8364 65.8249 15.6951 66.0771C15.3877 66.1443 15.067 66.1732 14.8358 66.4157C14.4897 66.7783 14.5431 67.0629 15.0496 67.2382C15.4719 67.3835 15.9143 67.4808 16.3446 67.6057C16.7255 67.7162 17.1077 67.8278 17.4445 68.0272C18.0486 68.3862 18.1688 68.9061 17.7719 69.4537C17.5795 69.7178 17.3229 69.9304 17.0275 70.0985C15.5241 70.9534 13.8963 71.1396 12.187 70.7757C11.6819 70.6676 11.2128 70.4419 11.1219 69.916C11.035 69.4116 11.3437 69.0454 11.7554 68.7452C12.302 68.3454 12.9662 68.1544 13.6691 67.9215H13.6678ZM14.3868 70.1981C14.5471 70.1981 14.7075 70.2042 14.8665 70.1981C15.4305 70.1729 15.9865 70.0973 16.4622 69.8007C17.0208 69.4525 16.9888 69.097 16.37 68.8665C15.8301 68.666 15.2661 68.5171 14.7169 68.3369C13.9765 68.0956 13.0584 68.4066 12.6935 69.0274C12.4262 69.4813 12.5879 69.8595 13.1279 70.0649C13.5341 70.2198 13.9618 70.1994 14.3881 70.197L14.3868 70.1981ZM16.7937 63.212C16.7549 63.0331 16.8231 62.7053 16.4529 62.5636C16.0867 62.4231 15.7793 62.5708 15.5067 62.7906C15.4666 62.8218 15.4318 62.859 15.3984 62.8974C14.8385 63.5567 14.618 64.3156 14.6688 65.1261C14.7008 65.64 15.1312 65.8201 15.6377 65.5836C15.933 65.4455 16.1254 65.2173 16.2858 64.9628C16.6092 64.45 16.7335 63.8893 16.7923 63.212H16.7937Z" fill="#24252D" fill-opacity="0.7"/>
<path d="M7.51637 77.1605C7.932 77.1605 8.19928 77.1425 8.46255 77.1641C9.28846 77.2301 9.92994 76.9912 10.3242 76.3055C10.3723 76.2203 10.4298 76.1338 10.5059 76.069C10.6075 75.9825 10.7532 75.9561 10.8721 76.0186C10.971 76.0714 10.9603 76.1843 10.9216 76.2791C10.6102 77.044 10.2948 77.8089 9.98473 78.5738C9.92058 78.7323 9.79897 78.8128 9.62256 78.7935C9.40606 78.7695 9.43279 78.6182 9.42477 78.4681C9.38735 77.714 9.31519 77.654 8.50398 77.6264C7.7155 77.6 7.19073 77.913 6.92968 78.5654C6.74125 79.0385 6.53945 79.5104 6.38442 79.9931C6.2 80.5707 6.33765 80.7664 6.98982 80.9393C7.19429 80.9934 7.40812 81.0138 7.61393 81.063C7.73688 81.093 7.88923 81.1278 7.85047 81.29C7.81974 81.4232 7.70347 81.4821 7.55513 81.4821C7.10074 81.4833 6.64636 81.4845 6.19198 81.4845C5.14957 81.4845 4.1085 81.4845 3.0661 81.4821C2.94315 81.4821 2.77877 81.5097 2.76139 81.3416C2.74669 81.2071 2.85093 81.1134 2.98725 81.0786C3.19172 81.0258 3.40154 80.9922 3.61002 80.9501C4.22878 80.8265 4.67381 80.5046 4.91303 79.9811C5.66008 78.3397 6.37908 76.6874 6.96977 74.9943C7.20766 74.3147 7.09272 74.1634 6.35636 73.9316C6.30557 73.916 6.25345 73.9064 6.20401 73.8884C6.06235 73.8392 5.86723 73.8283 5.93271 73.617C5.97548 73.4813 6.1011 73.4441 6.24276 73.4417C6.40313 73.4393 6.5635 73.4393 6.72387 73.4393C8.40776 73.4393 10.0903 73.4381 11.7742 73.4405C12.0121 73.4405 12.2553 73.4021 12.5279 73.5065C12.5293 74.0697 12.3275 74.6173 12.2232 75.1768C12.1978 75.3161 12.0842 75.3677 11.9332 75.3653C11.7595 75.3617 11.7314 75.2561 11.7007 75.13C11.4993 74.3319 10.9452 73.9368 10.0382 73.9448C9.85109 73.946 9.66399 73.9532 9.47823 73.9628C9.06394 73.9844 8.76325 74.1694 8.61624 74.5128C8.25407 75.3581 7.90928 76.2095 7.51771 77.1569L7.51637 77.1605Z" fill="#24252D" fill-opacity="0.7"/>
<path d="M42.4663 80.5416C42.9849 80.4023 43.2281 79.9136 43.7439 79.6314C43.5315 80.6905 42.2538 81.7111 41.2342 81.728C40.6515 81.7376 40.3588 81.3557 40.6247 80.8574C41.0524 80.0577 41.5282 79.2784 41.9799 78.4895C42.2365 78.0416 42.4891 77.5925 42.739 77.141C42.8098 77.0137 42.898 76.8636 42.767 76.7447C42.6454 76.6343 42.453 76.6499 42.3113 76.7135C41.3945 77.1218 40.5125 77.5661 40.1209 78.4991C39.7721 79.33 39.414 80.1561 39.0585 80.9847C38.9916 81.1408 38.9369 81.3065 38.8393 81.447C38.6402 81.734 38.2807 81.812 37.9279 81.6679C37.5978 81.5334 37.5002 81.3173 37.6258 80.9499C37.6806 80.7902 37.7715 80.6401 37.8477 80.4876C38.2392 79.6986 38.6335 78.9109 39.0251 78.122C39.1547 77.8591 39.291 77.5961 39.3217 77.3043C39.3418 77.1158 39.3899 76.8996 39.1587 76.7868C38.9195 76.6691 38.7604 76.8432 38.6134 76.9705C38.4798 77.0858 38.3782 77.2311 38.2526 77.3547C38.1764 77.4292 38.0789 77.4616 37.9172 77.3391C38.1911 76.7712 38.5039 76.202 39.0251 75.7553C39.6852 75.1885 40.3428 75.3819 40.5259 76.1948C40.5994 76.5214 40.598 76.8612 40.6341 77.2323C40.9482 77.1614 41.0658 76.8996 41.2489 76.7207C41.6297 76.3497 41.9919 75.9606 42.4677 75.6833C42.9875 75.3795 43.5328 75.347 43.8923 75.6064C44.3052 75.9054 44.2812 76.3077 44.193 76.7279C44.1222 77.0654 43.9498 77.3619 43.7867 77.6633C43.2989 78.5699 42.8044 79.4741 42.314 80.3795C42.2605 80.4311 42.2084 80.4948 42.2672 80.5584C42.3287 80.6232 42.4035 80.5776 42.469 80.5428L42.4663 80.5416Z" fill="#24252D" fill-opacity="0.7"/>
<path d="M18.8719 49.7193C19.3156 49.6797 19.476 49.4179 19.7072 49.2342C20.072 48.9424 20.4569 48.6903 20.9554 48.6326C21.5608 48.5618 21.9163 48.7971 22.0446 49.3375C22.1648 49.843 22.1288 50.3497 21.9577 50.8301C21.3924 52.4175 20.3286 53.6711 18.7463 54.5513C18.1569 54.8791 17.5301 55.0304 16.8472 54.7578C16.0507 54.4396 15.8249 54.0037 16.1322 53.27C16.8192 51.6358 17.5168 50.0063 18.2104 48.3745C18.2959 48.1739 18.3721 47.9686 18.4656 47.7705C18.6714 47.331 18.7129 46.9347 18.1716 46.6538C18.0594 46.5949 17.9471 46.5025 17.9966 46.3632C18.0473 46.2167 18.205 46.2443 18.3293 46.2311C18.9574 46.1639 19.5869 46.1002 20.3714 46.0186C19.8408 47.3298 19.357 48.5246 18.8719 49.7193ZM20.8458 50.6019C20.8485 49.9127 20.4462 49.6533 19.8542 49.9439C19.055 50.3365 18.3293 50.8229 18.0139 51.6562C17.8429 52.1089 17.6384 52.5508 17.4593 53.0023C17.2348 53.5702 17.5248 53.9317 18.189 53.9305C18.5258 53.9305 18.8131 53.8092 19.0657 53.6243C20.1575 52.8185 20.6493 51.733 20.8445 50.6019H20.8458ZM18.9628 49.9427C18.9441 49.9271 18.9227 49.8959 18.9093 49.8983C18.8719 49.9055 18.8385 49.9271 18.8024 49.9427C18.8198 49.9583 18.8412 49.9907 18.8545 49.9883C18.892 49.9811 18.9254 49.9595 18.9628 49.9427Z" fill="#24252D" fill-opacity="0.7"/>
<path d="M11.3384 52.255C10.8613 53.0211 10.4176 53.7284 9.98055 54.4392C9.87898 54.6037 9.74267 54.6746 9.53018 54.6734C7.31306 54.665 5.09594 54.6638 2.88016 54.6554C2.84007 54.6554 2.79997 54.6013 2.75854 54.5725C2.77191 54.2687 3.05122 54.2459 3.27307 54.2243C4.24865 54.1294 4.78856 53.5999 5.10663 52.8182C5.69198 51.3773 6.28402 49.9399 6.8707 48.5002C6.91614 48.3885 6.94153 48.2697 6.97494 48.1532C7.17674 47.4579 7.09522 47.3126 6.36687 47.0785C6.26664 47.0461 6.1624 47.0245 6.0595 46.998C5.97397 46.9764 5.92185 46.9224 5.92051 46.8479C5.91784 46.7471 5.96461 46.6486 6.06885 46.6126C6.16374 46.5802 6.276 46.5802 6.38157 46.579C7.6632 46.5766 8.94616 46.5754 10.2278 46.5802C10.3708 46.5802 10.5779 46.5213 10.602 46.7351C10.6207 46.9068 10.4857 46.9884 10.308 47.0149C10.2812 47.0185 10.2559 47.0269 10.2291 47.0293C9.01165 47.1301 8.45302 47.8542 8.08952 48.8052C7.56965 50.1645 6.98697 51.5045 6.47112 52.865C6.03544 54.0106 6.33747 54.3204 7.68191 54.1667C8.42229 54.0826 9.04773 53.7668 9.58764 53.3177C9.92041 53.0403 10.2371 52.7473 10.5472 52.4496C10.7383 52.2646 10.9254 52.1145 11.3384 52.2538V52.255Z" fill="#24252D" fill-opacity="0.7"/>
<path d="M21.7599 79.7095C21.4218 80.3892 21.1144 80.9631 20.5892 81.4122C19.937 81.9694 19.3049 81.7821 19.047 80.9896C18.9467 80.681 19.0015 80.37 18.9507 80.0337C18.6714 80.0746 18.6046 80.3063 18.4696 80.4576C18.1342 80.8323 17.8188 81.2213 17.3804 81.5047C17.0356 81.728 16.6655 81.8217 16.2565 81.6332C15.8396 81.441 15.73 81.1084 15.7594 80.7278C15.7794 80.466 15.8101 80.1982 15.8957 79.9497C16.5666 77.9768 17.903 76.5383 20.096 75.8202C20.676 75.6305 21.3763 75.7254 21.804 75.1826C21.8909 75.0721 22.114 75.0866 22.2437 75.1862C22.4121 75.3159 22.253 75.4492 22.1969 75.5693C21.6503 76.7136 21.0984 77.8555 20.5491 78.9987C20.4114 79.2845 20.2658 79.569 20.2511 79.8872C20.2417 80.0782 20.203 80.2991 20.4462 80.3904C20.6426 80.4648 20.7856 80.3087 20.938 80.2151C21.1719 80.071 21.2414 79.7492 21.7626 79.7107L21.7599 79.7095ZM19.8475 76.5743C19.508 76.5551 19.2194 76.6824 18.9614 76.8565C18.0126 77.4989 17.3871 78.3455 17.0797 79.3721C17.0116 79.5979 17.0129 79.85 17.0356 80.0854C17.0744 80.4684 17.3243 80.6029 17.6972 80.4012C18.4095 80.0133 19.0536 79.5342 19.4011 78.8318C19.6924 78.2422 19.917 77.6262 20.1575 77.0174C20.3005 76.6536 20.2404 76.5803 19.8475 76.5731V76.5743Z" fill="#24252D" fill-opacity="0.7"/>
<path d="M21.693 66.4714C21.3348 66.8832 21.101 67.1618 20.8537 67.4308C20.5824 67.7274 20.3058 68.024 19.9169 68.2041C19.2153 68.5295 18.5324 68.1993 18.4816 67.4956C18.4642 67.2591 18.4842 67.0117 18.5471 66.7824C19.0602 64.9032 20.2911 63.5259 22.1928 62.6277C22.5737 62.4476 22.988 62.3287 23.4116 62.2963C23.7765 62.2687 24.0852 62.2026 24.3177 61.9312C24.3805 61.858 24.4741 61.7967 24.5676 61.7571C24.6919 61.7043 24.8322 61.7103 24.9485 61.7823C25.1049 61.8796 25.0006 61.9913 24.9498 62.0957C24.5903 62.8438 24.2308 63.5907 23.8713 64.3388C23.6281 64.8443 23.3836 65.3498 23.1443 65.8578C23.0294 66.1027 22.9492 66.3549 22.9639 66.6251C22.9719 66.7692 22.9693 66.9253 23.151 66.9889C23.3234 67.0489 23.4504 66.9469 23.5854 66.8676C23.8473 66.7151 23.9435 66.3849 24.3351 66.3009C24.4393 66.6335 24.1921 66.8472 24.0598 67.0765C23.8379 67.4596 23.58 67.8294 23.1938 68.102C22.6164 68.5091 22.0658 68.365 21.8186 67.7382C21.7491 67.5605 21.7184 67.3659 21.697 67.1774C21.6769 66.9997 21.693 66.8184 21.693 66.4726V66.4714ZM19.7204 66.3405C19.7632 66.6539 19.6857 66.8964 19.9343 67.0357C20.2229 67.1978 20.4515 67.0201 20.6533 66.8784C21.2399 66.4642 21.8453 66.0535 22.1353 65.4027C22.3919 64.8251 22.6231 64.2367 22.8557 63.6507C23.012 63.2581 22.8998 63.132 22.4387 63.1788C22.2823 63.1945 22.1126 63.2269 21.983 63.3001C20.6786 64.0254 19.9463 65.0869 19.7204 66.3417V66.3405Z" fill="#24252D" fill-opacity="0.7"/>
<path d="M36.947 60.6812C36.7706 61.1675 36.5915 61.6574 36.3964 62.193C36.9564 62.3407 37.4963 62.1641 37.9961 62.3106C37.8901 62.7333 37.6281 62.9475 37.2103 62.9531C36.4459 62.9635 35.9362 63.2909 35.6814 63.9353C35.2658 64.9872 34.8528 66.039 34.4038 67.181C34.9892 67.1029 35.3634 66.8472 35.7616 66.6274C36.1559 66.4113 36.3657 65.9766 36.8775 65.8517C36.5594 67.0957 34.8996 68.3301 33.5953 68.3301C33.05 68.3301 32.8055 68.0792 32.915 67.5976C32.9618 67.3887 33.0634 67.1882 33.1449 66.9865C33.6714 65.6836 34.2007 64.382 34.7259 63.0863C34.4933 62.8774 34.2434 62.9723 34.0203 62.9567C33.8238 62.9422 33.6367 62.9398 33.6167 62.7093C33.5979 62.4968 33.7262 62.3791 33.9481 62.4007C35.084 62.5076 35.4917 61.7475 35.9607 61.0546C36.1732 60.74 36.3911 60.429 36.9483 60.6812H36.947Z" fill="#24252D" fill-opacity="0.7"/>
<path d="M26.5255 74.0575C26.3384 74.5702 26.1566 75.0625 25.9481 75.6329H27.5024C27.4712 76.0948 27.2489 76.3298 26.8355 76.3378C26.0337 76.3546 25.5022 76.6916 25.2412 77.3488C24.8924 78.229 24.5449 79.1104 24.1948 79.9905C24.1333 80.1466 24.0451 80.2955 24.0919 80.5357C25.0795 80.4252 25.6461 79.6807 26.4774 79.1668C26.0898 80.5021 24.5462 81.6668 23.2272 81.728C22.6111 81.7569 22.3358 81.4603 22.5029 80.9103C22.6004 80.5873 22.7541 80.2799 22.8811 79.9641C23.3354 78.8378 23.7912 77.7127 24.2429 76.5851C24.2602 76.5431 24.2455 76.4903 24.2455 76.4278C24.021 76.2609 23.7444 76.3642 23.4905 76.339C23.3114 76.321 23.1844 76.2693 23.1791 76.0856C23.1737 75.9115 23.2713 75.8214 23.4597 75.8022C23.5132 75.7974 23.5666 75.783 23.6188 75.7854C24.4808 75.819 24.9699 75.3699 25.324 74.7347C25.4189 74.5642 25.5646 74.4177 25.6715 74.252C25.872 73.9422 26.1446 73.9158 26.5241 74.0575H26.5255Z" fill="#24252D" fill-opacity="0.7"/>
<path d="M36.685 47.2937C36.5032 47.7848 36.3215 48.2772 36.1143 48.8367H37.6579C37.6539 49.544 37.6539 49.5368 37.0231 49.5608C36.6275 49.5752 36.1384 49.4107 35.8604 49.6412C35.5958 49.8598 35.5263 50.2777 35.3913 50.6139C35.0291 51.5144 34.6777 52.4186 34.3235 53.3216C34.2727 53.4501 34.1578 53.5702 34.2661 53.7779C34.7311 53.6975 35.1093 53.4477 35.5076 53.2268C35.8951 53.013 36.105 52.5819 36.6182 52.4523C36.3001 53.683 34.7044 54.8838 33.3947 54.9247C32.7332 54.9451 32.4833 54.6473 32.7105 54.0517C33.066 53.1235 33.4549 52.2061 33.825 51.2827C34.0415 50.7448 34.2514 50.2044 34.4772 49.634C34.1966 49.5116 33.9319 49.5632 33.6794 49.5596C33.4842 49.556 33.376 49.4923 33.3747 49.3146C33.3733 49.1669 33.3813 48.9844 33.6019 49.0084C34.814 49.1393 35.247 48.3264 35.7415 47.5951C35.958 47.2745 36.1972 47.0692 36.6863 47.2925L36.685 47.2937Z" fill="#24252D" fill-opacity="0.7"/>
<path d="M50.6478 80.5228C51.5124 80.3259 52.0724 79.6895 52.8555 79.1431C52.4974 80.4844 50.9177 81.6744 49.6014 81.7272C48.9639 81.7524 48.6953 81.4282 48.9224 80.8434C49.4062 79.5994 49.9167 78.365 50.4139 77.1246C50.5034 76.9013 50.6331 76.6876 50.6384 76.4354C50.4085 76.2613 50.1319 76.3621 49.878 76.3357C49.6922 76.3165 49.5826 76.2589 49.58 76.0776C49.5786 75.9059 49.6561 75.8074 49.8553 75.8002C49.9087 75.7978 49.9608 75.781 50.0143 75.7834C50.8362 75.811 51.3334 75.4159 51.6728 74.7843C51.7998 74.549 51.9895 74.3412 52.1593 74.1251C52.3076 73.9354 52.5455 73.933 52.7379 74.0014C53.0012 74.0939 52.8235 74.2908 52.7794 74.4313C52.6604 74.8155 52.4292 75.171 52.3758 75.6453H53.8993C53.8556 76.0952 53.6418 76.3257 53.2578 76.3369C52.0109 76.3729 52.0069 76.3718 51.5819 77.4525C51.201 78.4227 50.8309 79.3965 50.4553 80.3679C50.3618 80.5781 50.45 80.6045 50.6478 80.5204V80.5228Z" fill="#24252D" fill-opacity="0.7"/>
<path d="M37.3787 53.2351C37.5003 51.6633 38.1725 50.3184 39.4474 49.2281C39.8003 48.9255 40.2145 48.707 40.6997 48.6205C41.277 48.5173 41.9065 48.7514 42.1657 49.1561C42.3969 49.5175 42.3528 50.3905 42.0842 50.6774C41.9572 50.8131 41.7701 50.8468 41.5924 50.8996C40.7064 51.1614 39.8243 51.4327 38.9369 51.6897C38.691 51.7606 38.5373 51.8482 38.4785 52.1088C38.3275 52.7716 38.4719 53.4284 38.8928 53.6133C39.5423 53.8979 40.0074 53.5377 40.4752 53.2111C40.7064 53.0502 40.8453 52.7956 41.1247 52.6887C41.1861 52.6647 41.2823 52.6719 41.3438 52.6984C41.4227 52.7332 41.4267 52.8148 41.3812 52.8833C40.9202 53.5929 40.419 54.2762 39.5864 54.6796C38.4545 55.2296 37.4642 54.7361 37.3787 53.5941C37.3693 53.4753 37.3787 53.354 37.3787 53.2339V53.2351ZM38.7899 51.0713C39.4929 50.9008 40.0488 50.7483 40.6141 50.6342C40.9215 50.573 40.9883 50.4109 40.9803 50.1731C40.9629 49.598 40.403 49.3278 39.8564 49.6544C39.3486 49.9582 39.0773 50.4253 38.7899 51.0713Z" fill="#24252D" fill-opacity="0.7"/>
<path d="M26.4358 52.649C25.8879 53.5628 25.3359 54.3121 24.3964 54.7324C23.33 55.2091 22.3504 54.7 22.309 53.6277C22.2381 51.7845 23.0507 50.2655 24.5902 49.0707C25.086 48.6853 25.6807 48.4631 26.3717 48.6733C26.9383 48.8462 27.2443 49.2064 27.2604 49.7444C27.2804 50.4216 27.0572 50.729 26.3957 50.9283C25.5618 51.1793 24.7332 51.4447 23.8899 51.6716C23.5558 51.7617 23.4128 51.919 23.3794 52.2168C23.322 52.7259 23.2471 53.2458 23.7777 53.5976C24.1746 53.8606 24.7466 53.6985 25.3694 53.2386C25.6447 53.0357 25.7983 52.6731 26.4358 52.649ZM23.7616 51.01C24.4432 50.9451 25.0379 50.741 25.65 50.6017C25.8518 50.5561 25.8825 50.4228 25.8932 50.2787C25.9119 50.0061 25.8759 49.7468 25.5671 49.6003C25.2771 49.4622 24.9938 49.4982 24.7426 49.6735C24.2681 50.0061 23.9688 50.448 23.763 51.0088L23.7616 51.01Z" fill="#24252D" fill-opacity="0.7"/>
<path d="M57.6976 79.5164C57.1751 80.3797 56.6098 81.1206 55.6756 81.5493C54.6452 82.0236 53.6656 81.5505 53.6108 80.5154C53.5106 78.5894 54.3485 77.0092 56.0137 75.8024C56.4828 75.4626 57.0414 75.2944 57.6642 75.4854C58.2308 75.6583 58.5382 76.0197 58.5556 76.5565C58.577 77.2241 58.3471 77.5435 57.6896 77.7416C56.881 77.9854 56.0752 78.2411 55.2586 78.4609C54.8751 78.5629 54.6746 78.7491 54.6639 79.1033C54.6586 79.2942 54.6252 79.4887 54.6492 79.6761C54.7521 80.459 55.3468 80.7388 56.1353 80.3773C56.4467 80.2344 56.7033 80.0231 56.9492 79.7985C57.1109 79.6508 57.2352 79.4371 57.6949 79.5176L57.6976 79.5164ZM55.0314 77.8761C55.7197 77.7104 56.3264 77.5579 56.9358 77.4198C57.135 77.3742 57.1724 77.2457 57.1871 77.1016C57.2138 76.8302 57.1751 76.5769 56.8891 76.41C56.571 76.2238 56.2756 76.2935 56.007 76.4868C55.5393 76.8242 55.2453 77.2649 55.0328 77.8761H55.0314Z" fill="#24252D" fill-opacity="0.7"/>
<path d="M41.6925 66.1157C41.3237 66.8301 40.8452 67.4221 40.1877 67.8928C39.9351 68.0741 39.6478 68.2014 39.3351 68.2734C38.6214 68.4367 37.9786 68.133 37.7488 67.5049C37.5964 67.0907 37.5937 66.6644 37.6619 66.2273C37.8583 64.9797 38.4263 63.8918 39.3418 62.9504C39.7681 62.5109 40.2746 62.1579 40.9241 62.0234C41.5014 61.9045 42.1202 62.1243 42.4035 62.5253C42.6441 62.8676 42.6307 63.7333 42.3754 64.0479C42.2405 64.216 42.0213 64.2448 41.8208 64.3049C40.9869 64.5498 40.1597 64.8224 39.3137 65.0314C38.8339 65.149 38.6669 65.3904 38.6909 65.7998C38.699 65.9427 38.6802 66.088 38.6909 66.2309C38.7484 66.9922 39.2897 67.2996 40.0634 67.0042C40.4376 66.8613 40.7236 66.6068 41.0083 66.3534C41.1673 66.2105 41.2863 65.9788 41.6925 66.1169V66.1157ZM39.0919 64.449C39.7414 64.2929 40.3267 64.1428 40.9174 64.0143C41.1874 63.9555 41.2422 63.8018 41.2408 63.5916C41.2395 63.3311 41.1312 63.1257 40.876 62.9924C40.614 62.8544 40.3521 62.888 40.1236 63.0405C39.6197 63.3779 39.2843 63.8222 39.0919 64.4502V64.449Z" fill="#24252D" fill-opacity="0.7"/>
<path d="M31.3205 79.5138C30.798 80.3483 30.2647 81.0784 29.3653 81.5143C28.3176 82.0222 27.4556 81.6331 27.2231 80.5885C27.1308 80.1754 27.2003 79.7743 27.2819 79.3733C27.5197 78.1857 28.1011 77.147 29.0165 76.2669C29.4028 75.8946 29.8491 75.5908 30.4144 75.4624C31.0038 75.3267 31.6199 75.496 31.9326 75.8778C32.2132 76.2201 32.2239 77.1206 31.946 77.4653C31.811 77.6334 31.5905 77.6634 31.39 77.7234C30.528 77.978 29.6727 78.2518 28.8054 78.4847C28.4325 78.5844 28.2775 78.7717 28.2855 79.1031C28.2909 79.3433 28.2588 79.587 28.2975 79.8212C28.3924 80.3927 28.8361 80.6305 29.4576 80.4792C29.8892 80.3747 30.1979 80.1118 30.5133 79.8512C30.7004 79.6975 30.8194 79.4357 31.3219 79.5162L31.3205 79.5138ZM28.6971 77.8075C28.8254 77.8075 28.9069 77.8219 28.9791 77.8051C29.4669 77.6886 29.9467 77.5445 30.4385 77.4508C30.79 77.3836 30.8461 77.1915 30.822 76.9309C30.7739 76.399 30.238 76.1384 29.7342 76.4242C29.1782 76.74 28.8789 77.2239 28.6971 77.8075Z" fill="#24252D" fill-opacity="0.7"/>
<path d="M26.4827 67.1795C27.1856 67.0895 27.5064 66.5443 28.0182 66.2946C28.2427 66.4447 28.1064 66.5767 28.0396 66.6872C27.5919 67.4245 26.9959 68.0141 26.059 68.2578C25.733 68.3419 25.4189 68.3671 25.1743 68.1149C24.9511 67.8844 25.03 67.631 25.1382 67.3728C25.9254 65.4924 26.7059 63.6096 27.4877 61.7268C27.5625 61.5479 27.6333 61.3678 27.7135 61.1901C27.9207 60.7278 27.9688 60.3039 27.3861 60.0169C27.2926 59.9713 27.2311 59.8872 27.2404 59.7311C27.8926 59.4934 28.6156 59.5438 29.3092 59.4465C29.5123 59.4177 29.5792 59.563 29.5137 59.7323C29.4522 59.8908 29.38 60.0445 29.3146 60.2018C28.4165 62.3512 27.5197 64.5018 26.6203 66.6512C26.5562 66.8037 26.46 66.9466 26.484 67.1807L26.4827 67.1795Z" fill="#24252D" fill-opacity="0.7"/>
<path d="M11.8169 77.4412C12.0775 76.7652 12.4089 76.2524 12.8633 75.8117C13.14 75.544 13.462 75.3026 13.9138 75.4659C14.3454 75.622 14.451 75.9751 14.4804 76.3473C14.4991 76.5778 14.4844 76.8096 14.4844 77.1674C14.8733 76.8552 14.9294 76.5106 15.1232 76.2452C15.3277 75.9643 15.4947 75.6605 15.8582 75.508C16.4529 75.257 16.9153 75.5007 16.9782 76.1047C17.0316 76.6115 16.8632 76.8984 16.4476 76.8504C15.1179 76.6967 14.6087 77.5505 14.1597 78.3802C13.7053 79.2171 13.4032 80.1189 13.0277 80.9919C12.9515 81.1696 12.878 81.3569 12.7564 81.5094C12.5346 81.788 12.2152 81.7856 11.8931 81.6703C11.555 81.549 11.4948 81.2981 11.5777 81.0159C11.6311 80.8322 11.7274 80.6581 11.8129 80.4828C12.2325 79.6278 12.6589 78.7753 13.0745 77.9179C13.2135 77.6321 13.3498 77.3391 13.3003 77.0173C13.2589 76.7472 13.0611 76.6871 12.7805 76.8048C12.4464 76.9453 12.3568 77.3559 11.8169 77.4436V77.4412Z" fill="#24252D" fill-opacity="0.7"/>
<path d="M32.5808 77.4461C32.8949 76.7737 33.2076 76.2322 33.6887 75.7831C33.952 75.5369 34.258 75.3268 34.6763 75.4481C35.0933 75.5693 35.2056 75.9019 35.2697 76.2382C35.3218 76.5059 35.3218 76.7821 35.3579 77.2048C35.6346 76.7425 35.8217 76.4087 36.0301 76.0857C36.2052 75.8131 36.4177 75.5693 36.7732 75.4625C37.2944 75.3052 37.6779 75.5081 37.7501 75.998C37.7715 76.1397 37.7528 76.285 37.7541 76.4291C37.7555 76.7209 37.6138 76.9058 37.2717 76.8421C36.4003 76.68 35.8965 77.1243 35.4207 77.6743C35.1882 77.9433 35.0011 78.2218 34.8701 78.5388C34.5374 79.347 34.1992 80.1527 33.8585 80.9584C33.7823 81.1361 33.7088 81.3222 33.5872 81.4759C33.3707 81.7509 33.0606 81.7653 32.7292 81.6512C32.3871 81.5336 32.3162 81.2958 32.4004 81.01C32.4539 80.8263 32.5367 80.6486 32.6236 80.4733C33.0032 79.7084 33.3867 78.9447 33.7716 78.181C33.9039 77.9192 34.0295 77.6563 34.0857 77.3705C34.1284 77.1544 34.1912 76.9178 33.9547 76.7809C33.6927 76.6296 33.5217 76.853 33.3373 76.9802C33.1381 77.1183 33.0579 77.3945 32.5808 77.4437V77.4461Z" fill="#24252D" fill-opacity="0.7"/>
<path d="M27.7393 50.5368C28.0533 49.916 28.3701 49.2952 28.9768 48.8485C29.5675 48.4138 30.1929 48.6276 30.348 49.3072C30.4108 49.5822 30.4068 49.8704 30.4375 50.2066C30.7489 50.1141 30.7689 49.8824 30.8745 49.7167C31.0723 49.4045 31.234 49.0683 31.5534 48.8341C31.9062 48.5759 32.3994 48.5543 32.6573 48.7753C32.9166 48.9962 32.9807 49.6735 32.7776 49.9328C32.6613 50.0805 32.4902 50.0601 32.3459 50.0409C31.0122 49.862 30.5097 50.7493 30.0633 51.5731C29.5862 52.4532 29.2708 53.4043 28.8819 54.3228C28.7443 54.6495 28.5785 54.9449 28.0988 54.9172C27.6136 54.8896 27.3637 54.6146 27.484 54.192C27.5361 54.0082 27.6444 53.8377 27.7313 53.6624C28.1442 52.8303 28.5625 52.0005 28.9688 51.166C29.1078 50.8814 29.2441 50.5884 29.2107 50.2654C29.1786 49.9484 28.9541 49.8488 28.6654 50.0337C28.4943 50.143 28.3567 50.2955 28.2097 50.4347C28.1014 50.5368 28.0159 50.6737 27.7406 50.5392L27.7393 50.5368Z" fill="#24252D" fill-opacity="0.7"/>
<path d="M13.827 49.7758C13.1668 49.8478 12.9664 50.4434 12.4585 50.6247C12.2474 50.4686 12.3944 50.3474 12.4639 50.2369C12.9423 49.4828 13.5931 48.9112 14.5567 48.6819C14.8494 48.6122 15.1541 48.5546 15.3652 48.8044C15.543 49.0145 15.4788 49.2595 15.3746 49.49C14.8293 50.6848 14.2774 51.8771 13.7442 53.0755C13.6506 53.2869 13.4769 53.485 13.517 53.7876C14.1665 53.6855 14.4685 53.1488 15.0111 52.7945C14.82 53.8368 13.66 54.8419 12.6964 54.9091C12.1618 54.9463 11.9106 54.6677 12.0883 54.1742C12.2768 53.6519 12.5187 53.1452 12.7365 52.6312C13.0599 51.8723 13.3833 51.1123 13.7054 50.3534C13.7789 50.1817 13.9085 50.0195 13.8243 49.777L13.827 49.7758Z" fill="#24252D" fill-opacity="0.7"/>
<path d="M30.6001 63.2109C30.0776 63.3274 29.8998 63.899 29.3318 64.0274C29.6499 63.0692 30.5026 62.3199 31.4902 62.0858C31.7802 62.0173 32.0715 61.9393 32.3094 62.1734C32.5446 62.4064 32.4497 62.6574 32.3321 62.9107C31.863 63.9266 31.4006 64.9448 30.9356 65.9619C30.7645 66.3377 30.5921 66.7124 30.4077 67.117C30.8059 67.2323 30.9957 66.9573 31.2349 66.8036C31.4648 66.6559 31.5824 66.3834 31.855 66.2957C32.0956 66.4398 31.9552 66.5707 31.8884 66.6811C31.4541 67.3944 30.8741 67.9672 29.9827 68.2289C29.698 68.313 29.408 68.3995 29.1595 68.1761C28.9082 67.9504 29.0124 67.6838 29.1153 67.4376C29.6325 66.208 30.1604 64.9809 30.6816 63.7525C30.7378 63.6204 30.7712 63.4811 30.8166 63.3442C30.83 63.2878 30.8767 63.2001 30.8527 63.1797C30.7712 63.1101 30.6803 63.1545 30.6028 63.2097L30.6001 63.2109Z" fill="#24252D" fill-opacity="0.7"/>
<path d="M46.6387 76.6008C46.0814 76.7052 45.8956 77.3128 45.1846 77.4689C45.7339 76.3966 46.4582 75.6978 47.6423 75.4696C48.2384 75.3544 48.5391 75.6414 48.3413 76.1565C48.09 76.8121 47.7719 77.4473 47.4793 78.0909C47.1091 78.9039 46.7349 79.7156 46.3219 80.615C47.085 80.5273 47.3416 79.9233 47.8414 79.7024C48.098 79.8597 47.9243 79.9858 47.8615 80.0914C47.4338 80.8107 46.8512 81.3835 45.9571 81.6464C45.6724 81.7305 45.3891 81.8121 45.1312 81.5936C44.8586 81.3642 44.9815 81.1157 45.0871 80.8647C45.6631 79.4982 46.2364 78.1306 46.8097 76.7629C46.8525 76.7064 46.8953 76.6416 46.8351 76.584C46.7736 76.5251 46.7015 76.566 46.6387 76.6008Z" fill="#24252D" fill-opacity="0.7"/>
<path d="M77.152 0.229262C76.1951 1.12384 75.3531 1.90915 74.5125 2.69565C74.3949 2.80612 74.2613 2.86136 74.0902 2.86136C73.3004 2.85896 72.5092 2.86016 71.551 2.86016C72.0896 2.27178 72.5961 1.81789 72.9703 1.28835C73.5744 0.430993 74.3629 0.0671576 75.4881 0.218455C75.9772 0.283297 76.4864 0.229262 77.152 0.229262Z" fill="#24252D" fill-opacity="0.7"/>
<path d="M42.9541 46.226C42.902 46.2872 42.8512 46.3725 42.7764 46.4349C42.2285 46.89 41.6792 47.3415 41.1246 47.7906C41.0471 47.853 40.9495 47.9022 40.852 47.9335C40.7544 47.9647 40.6395 47.9755 40.5513 47.9034C40.4444 47.8158 40.5232 47.7353 40.574 47.6537C40.8613 47.1962 41.1406 46.7327 41.44 46.2812C41.6017 46.0374 42.6748 45.8945 42.8873 46.0747C42.9194 46.1023 42.9248 46.1563 42.9528 46.2272L42.9541 46.226Z" fill="#24252D" fill-opacity="0.7"/>
<path d="M40.7395 61.2331C40.9948 60.6592 41.4024 60.1344 41.7472 59.5821C41.8527 59.414 42.8938 59.3215 43.0983 59.4404C43.2012 59.5004 43.2212 59.6193 43.1451 59.6853C42.4768 60.2581 41.8701 60.8945 41.0643 61.3232C40.9841 61.3664 40.8558 61.358 40.7395 61.2331Z" fill="#24252D" fill-opacity="0.7"/>
<path d="M59.1996 72.8075C58.9844 73.193 57.5652 74.5102 57.2311 74.6639C57.068 74.7384 56.8836 74.7828 56.6858 74.6135C57.0039 74.1044 57.3286 73.5904 57.6467 73.0729C57.7589 72.8892 57.9046 72.7907 58.1532 72.8039C58.4686 72.8207 58.7866 72.8075 59.1996 72.8075Z" fill="#24252D" fill-opacity="0.7"/>
<path d="M15.6766 47.4557C15.2209 47.4653 14.8521 47.1567 14.8427 46.7568C14.8333 46.381 15.2196 46.0123 15.6365 46.0003C16.0628 45.9883 16.4477 46.3233 16.4598 46.7184C16.4731 47.1266 16.1337 47.446 15.678 47.4544L15.6766 47.4557Z" fill="#24252D" fill-opacity="0.7"/>
<path d="M9.7002 59.3831C10.0477 58.9293 10.3764 58.5042 10.7025 58.0767C10.7814 57.9734 10.8776 57.8906 11.0246 57.893C11.4148 57.9014 11.8131 57.8353 12.3503 57.9818C11.6687 58.5546 10.9618 58.9257 10.3163 59.3639C10.1626 59.4684 9.98084 59.4984 9.70153 59.3831H9.7002Z" fill="#24252D" fill-opacity="0.7"/>
<path d="M49.369 73.551C49.3731 73.9509 49.0136 74.2727 48.5659 74.2727C48.1208 74.2727 47.7587 73.9485 47.7573 73.551C47.7573 73.1584 48.1329 72.8126 48.5605 72.815C48.9855 72.8162 49.3637 73.162 49.369 73.5522V73.551Z" fill="#24252D" fill-opacity="0.7"/>
<path d="M33.4175 60.1827C33.4014 60.5838 33.0326 60.8852 32.5782 60.8695C32.1292 60.8551 31.7803 60.5213 31.7991 60.1239C31.8178 59.7384 32.22 59.401 32.641 59.4202C33.0687 59.4394 33.4335 59.7973 33.4175 60.1839V60.1827Z" fill="#24252D" fill-opacity="0.7"/>
</g>
</svg>
