<svg width="244" height="50" viewBox="0 0 244 50" fill="none" xmlns="http://www.w3.org/2000/svg">
<g opacity="0.6" clip-path="url(#clip0_549_621)">
<path d="M169.418 7.18113C167.71 12.0994 166.001 17.0178 164.3 21.938C164.213 22.1877 164.101 22.2878 163.829 22.2849C162.591 22.2716 161.352 22.2716 160.113 22.2849C159.839 22.2878 159.73 22.181 159.644 21.9351C158.077 17.4534 156.497 12.9754 154.93 8.49363C154.738 7.94175 154.597 7.37176 154.432 6.81035C154.323 6.68072 154.298 6.52631 154.303 6.36427C154.249 6.26419 154.221 6.15267 154.18 6.04687C154.152 5.98968 154.131 6.09929 154.175 6.05354C154.232 6.15457 154.235 6.27658 154.3 6.37571C154.337 6.58159 154.291 6.79129 154.338 6.99621C154.684 9.9005 154.503 12.8181 154.557 15.7291C154.594 17.7403 154.589 19.7524 154.632 21.7635C154.641 22.1963 154.505 22.2973 154.095 22.2878C152.921 22.2621 151.747 22.2668 150.572 22.2859C150.237 22.2916 150.146 22.1877 150.147 21.8579C150.156 15.5842 150.157 9.30954 150.146 3.03487C150.146 2.6803 150.239 2.58022 150.596 2.58308C152.627 2.60023 154.659 2.59737 156.691 2.58498C156.989 2.58308 157.135 2.66791 157.239 2.96148C158.606 6.84085 160.004 10.7097 161.352 14.5948C161.774 15.813 161.773 17.1169 161.895 18.3913C161.952 18.538 161.909 18.6915 161.925 18.8269C161.945 18.6925 161.891 18.538 161.963 18.3941C162.077 17.4676 162.166 16.5374 162.312 15.6157C162.534 14.2307 163.129 12.9573 163.584 11.6438C164.582 8.7567 165.612 5.88102 166.615 2.9958C166.72 2.69364 166.85 2.58022 167.182 2.58308C169.23 2.60023 171.279 2.59928 173.326 2.58308C173.676 2.58022 173.786 2.666 173.785 3.03011C173.773 9.30668 173.774 15.5832 173.784 21.8608C173.784 22.1982 173.682 22.2897 173.352 22.2849C172.145 22.2678 170.939 22.2687 169.732 22.2849C169.414 22.2887 169.29 22.2201 169.291 21.8703C169.314 17.6859 169.315 13.5015 169.342 9.31716C169.347 8.63851 169.45 7.96081 169.507 7.28312C169.523 7.0963 169.55 6.90948 169.549 6.7217C169.588 6.55013 169.676 6.39286 169.658 6.26419C169.639 6.37952 169.605 6.55109 169.546 6.71408C169.552 6.88279 169.539 7.04673 169.416 7.18018L169.418 7.18113Z" fill="#24252D" fill-opacity="0.7"/>
<path d="M180.742 36.5098C179.965 33.1727 178.075 30.8165 174.727 29.769C173 29.2295 171.224 29.1866 169.453 29.4402C166.448 29.87 164.102 31.3417 162.784 34.125C161.242 37.3838 161.201 40.7752 162.35 44.1579C163.247 46.7972 165.084 48.5634 167.746 49.4442C169.495 50.0227 171.294 50.1209 173.104 49.8693C175.836 49.4899 178.061 48.2613 179.525 45.8536C180.679 43.954 181.076 41.8627 181.038 39.4836C181.082 38.602 180.984 37.5487 180.742 36.5098ZM175.492 43.4707C174.785 45.3275 173.279 46.2911 171.282 46.2844C169.308 46.2787 167.883 45.3046 167.14 43.4431C166.651 42.2173 166.498 40.9343 166.526 39.6828C166.508 38.3808 166.636 37.1579 167.09 35.9874C167.875 33.962 169.308 32.9468 171.347 32.9583C173.356 32.9688 174.885 34.0201 175.581 36.0313C176.436 38.5057 176.429 41.0135 175.492 43.4707Z" fill="#24252D" fill-opacity="0.7"/>
<path d="M149.677 28.3451C149.677 27.9952 149.592 27.8809 149.228 27.8875C148.006 27.9095 146.783 27.9133 145.562 27.8856C145.168 27.8771 145.095 28.0143 145.097 28.3717C145.112 30.8118 145.107 33.2519 145.101 35.692C145.101 35.8369 145.171 36.0018 145.029 36.1457C144.928 36.0571 144.833 35.9751 144.741 35.8903C141.667 33.0775 137.057 33.84 135.157 37.545C133.734 40.3196 133.69 43.2325 134.851 46.0958C136.641 50.5089 142.135 50.8292 144.715 48.2785C144.949 48.0479 145.19 47.8239 145.482 47.5446C145.482 48.1203 145.502 48.6283 145.475 49.1335C145.457 49.4776 145.544 49.6034 145.917 49.5948C147.027 49.5701 148.139 49.5739 149.249 49.5929C149.585 49.5987 149.677 49.4976 149.676 49.1659C149.668 42.225 149.667 35.285 149.677 28.3451ZM144.569 44.6994C143.507 46.6991 140.753 46.844 139.5 44.9568C138.841 43.9636 138.702 42.836 138.772 41.6788C138.828 40.7562 139.011 39.8592 139.575 39.0853C140.769 37.443 143.211 37.4716 144.359 39.1463C144.966 40.0318 145.133 41.0354 145.127 42.1726C145.139 42.9971 145.004 43.8806 144.569 44.6994Z" fill="#24252D" fill-opacity="0.7"/>
<path d="M76.7136 28.324C76.7136 28.0047 76.6478 27.8818 76.299 27.8875C75.0608 27.9085 73.8227 27.9094 72.5845 27.8875C72.2233 27.8808 72.1318 27.9895 72.1346 28.3422C72.1489 30.767 72.1432 33.1918 72.1394 35.6167C72.1394 35.7825 72.1861 35.957 72.1003 36.119C71.9621 36.1123 71.9068 36.0037 71.8315 35.9322C68.8443 33.1366 64.3149 33.7647 62.3285 37.3286C60.7939 40.0794 60.7443 43.0085 61.8262 45.9137C63.499 50.4059 68.912 50.8415 71.5799 48.4367C71.8811 48.1651 72.1346 47.8419 72.4101 47.5426C72.5197 48.1212 72.5349 48.6378 72.514 49.1525C72.5006 49.4661 72.5702 49.6005 72.9248 49.5938C74.0514 49.5719 75.179 49.5719 76.3057 49.5938C76.664 49.6015 76.7136 49.4594 76.7127 49.1506C76.706 42.2087 76.705 35.2659 76.7127 28.324H76.7136ZM71.8039 44.3009C71.3568 45.5067 70.4675 46.2063 69.1493 46.2654C67.7882 46.3264 66.8084 45.6859 66.2898 44.4668C65.575 42.7835 65.5997 41.064 66.428 39.4179C66.938 38.4056 67.8235 37.8938 69.0664 37.8843C70.2941 37.8995 71.2234 38.5343 71.7276 39.7172C72.37 41.2213 72.3691 42.7759 71.8039 44.3009Z" fill="#24252D" fill-opacity="0.7"/>
<path d="M122.618 1.11138C122.618 0.756807 122.487 0.698664 122.175 0.702476C120.954 0.716774 119.731 0.726306 118.51 0.697711C118.112 0.688179 118.048 0.831153 118.051 1.18287C118.064 3.60676 118.057 6.03065 118.057 8.45454V9.01881C117.901 8.87965 117.829 8.81865 117.761 8.75383C114.834 5.9849 110.441 6.54822 108.387 10.0053C106.909 12.4921 106.811 15.1953 107.549 17.908C109.03 23.3515 115.4 23.8681 118.174 20.5263C118.234 20.4548 118.282 20.3176 118.446 20.3834C118.446 20.8866 118.464 21.3937 118.439 21.8989C118.424 22.2191 118.541 22.3002 118.847 22.2954C119.958 22.2792 121.069 22.2792 122.18 22.2954C122.499 22.3002 122.618 22.2258 122.617 21.8798C122.608 14.957 122.608 8.0342 122.618 1.11138ZM117.661 17.1455C117.168 18.2978 116.309 18.9631 115.033 19.0099C113.828 19.0546 112.874 18.5581 112.347 17.4791C111.457 15.6566 111.446 13.776 112.472 12.0194C113.577 10.1245 116.342 10.2246 117.44 12.1318C117.929 12.9792 118.086 13.9076 118.066 14.9093C118.087 15.6585 117.97 16.422 117.661 17.1455Z" fill="#24252D" fill-opacity="0.7"/>
<path d="M108.88 29.3347C110.616 29.2975 112.238 29.6569 113.857 30.0515C114.176 30.1287 114.221 30.2478 114.119 30.5366C113.818 31.3868 113.537 32.2437 113.259 33.1025C113.18 33.3465 113.103 33.4705 112.795 33.3723C111.748 33.0415 110.671 32.8557 109.574 32.7975C108.774 32.7546 107.99 32.8395 107.241 33.1407C106.742 33.3408 106.323 33.6458 106.065 34.1319C105.65 34.9164 105.857 35.7266 106.601 36.2651C107.305 36.7732 108.124 37.0362 108.923 37.3412C109.989 37.7492 111.042 38.181 112.082 38.6547C116.188 40.5248 115.874 46.1103 112.793 48.2826C111.344 49.3044 109.724 49.7771 107.985 49.8744C105.742 50.0002 103.563 49.6294 101.431 48.9403C101.09 48.8297 101.067 48.7001 101.19 48.4036C101.548 47.541 101.902 46.6765 102.215 45.7967C102.333 45.465 102.484 45.4517 102.771 45.5365C104.218 45.9654 105.676 46.3381 107.206 46.2686C107.913 46.2361 108.591 46.0913 109.195 45.7033C110.606 44.7969 110.539 42.9773 109.055 42.2138C107.884 41.6105 106.617 41.233 105.394 40.7536C104.349 40.3437 103.389 39.7947 102.574 39.0226C99.9594 36.5453 100.647 32.1646 103.921 30.4051C105.486 29.5644 107.178 29.2994 108.88 29.3375V29.3347Z" fill="#24252D" fill-opacity="0.7"/>
<path d="M72.9192 22.6852C70.3657 22.6766 67.938 22.1886 65.7819 20.7398C63.4619 19.1804 62.1571 16.9643 61.7691 14.2287C61.426 11.8115 61.6681 9.45052 62.8414 7.26015C64.2311 4.66755 66.4511 3.15965 69.2781 2.49244C72.2692 1.78615 75.1954 2.12738 78.0806 3.07387C78.3131 3.15012 78.3179 3.25116 78.2636 3.45704C78.0139 4.40543 77.7718 5.35574 77.5506 6.30985C77.4686 6.66347 77.2942 6.61582 77.0331 6.52812C75.61 6.05059 74.1545 5.79705 72.6437 5.83708C69.1809 5.92668 66.7608 8.20855 66.4939 11.6523C66.3243 13.8436 66.8771 15.7776 68.5709 17.2607C70.176 18.6666 72.1109 19.0184 74.1764 18.8287C75.1563 18.7391 76.118 18.5294 77.0636 18.2625C77.3667 18.1767 77.4839 18.2472 77.5697 18.538C77.8432 19.4625 78.1273 20.3852 78.4371 21.2993C78.5371 21.5938 78.4809 21.7063 78.1911 21.813C76.4888 22.4421 74.7302 22.709 72.9192 22.6833V22.6852Z" fill="#24252D" fill-opacity="0.7"/>
<path d="M213.99 40.3389C213.645 38.5365 212.962 36.9152 211.488 35.7209C210.401 34.8401 209.133 34.4255 207.76 34.3273C204.966 34.1291 202.577 34.9297 200.886 37.2764C199.744 38.8615 199.413 40.6783 199.503 42.5979C199.629 45.3059 200.771 47.4581 203.182 48.7344C206.452 50.4644 209.79 50.1203 213.094 48.722C213.311 48.6305 213.26 48.5047 213.192 48.3474C212.892 47.6497 212.576 46.9567 212.311 46.2457C212.17 45.872 212.031 45.7834 211.626 45.9292C210.185 46.4487 208.713 46.7833 207.154 46.5612C205.61 46.3419 204.402 45.3916 204.093 44.0887C204.012 43.7484 204.059 43.613 204.46 43.6188C206.016 43.6407 207.571 43.6273 209.128 43.6273C210.684 43.6273 212.176 43.6121 213.7 43.6369C214.108 43.6435 214.198 43.5149 214.195 43.1298C214.189 42.1938 214.167 41.2616 213.99 40.3389ZM209.647 40.5486C208.745 40.5448 207.842 40.5467 206.94 40.5467C206.039 40.5467 205.198 40.541 204.328 40.5505C204.074 40.5534 203.926 40.5048 203.989 40.2093C204.223 39.1227 204.706 38.1905 205.781 37.7454C206.84 37.3069 207.895 37.3689 208.835 38.0895C209.543 38.6309 209.828 39.4144 209.988 40.256C210.043 40.5515 209.854 40.5496 209.647 40.5486Z" fill="#24252D" fill-opacity="0.7"/>
<path d="M79.2634 39.642C79.2634 38.1045 79.2739 36.5671 79.2558 35.0296C79.252 34.6789 79.3406 34.5655 79.7047 34.5721C80.9105 34.595 82.1181 34.596 83.3239 34.5721C83.7204 34.5645 83.8338 34.6817 83.8329 35.0773C83.8243 37.8825 83.8214 40.6876 83.8548 43.4928C83.871 44.8491 84.6488 45.7718 85.9355 46.0968C87.6379 46.5267 89.0676 45.5983 89.3755 43.8683C89.4594 43.3984 89.4822 42.9256 89.4813 42.45C89.4746 39.9937 89.4823 37.5365 89.4613 35.0802C89.4575 34.6798 89.5757 34.5769 89.9665 34.5845C91.1722 34.6093 92.3799 34.6055 93.5856 34.5864C93.9411 34.5807 94.045 34.6894 94.0431 35.0449C94.0288 37.7395 94.0479 40.4341 94.0288 43.1277C94.0212 44.1752 93.9021 45.2113 93.4741 46.1912C92.7935 47.7477 91.6373 48.8257 90.0522 49.3633C87.6112 50.1916 85.1415 50.1859 82.7606 49.1441C80.5349 48.1699 79.3787 46.3827 79.2758 43.9674C79.2148 42.5282 79.2644 41.0832 79.2644 39.641C79.2644 39.641 79.2634 39.641 79.2625 39.641L79.2634 39.642Z" fill="#24252D" fill-opacity="0.7"/>
<path d="M183.114 39.6124C183.114 38.0759 183.123 36.5385 183.107 35.002C183.104 34.6712 183.199 34.5692 183.533 34.574C184.755 34.5921 185.977 34.595 187.199 34.573C187.575 34.5664 187.685 34.676 187.684 35.0534C187.675 37.8576 187.671 40.6618 187.702 43.466C187.717 44.8748 188.533 45.8184 189.895 46.1273C191.391 46.4666 192.675 45.7269 193.123 44.2657C193.297 43.6996 193.331 43.1172 193.329 42.5281C193.322 40.0404 193.329 37.5536 193.31 35.0658C193.307 34.7008 193.393 34.5759 193.779 34.5835C195.016 34.6083 196.254 34.6016 197.493 34.5864C197.805 34.5826 197.895 34.6779 197.894 34.9915C197.881 37.7328 197.898 40.4731 197.882 43.2144C197.874 44.6804 197.587 46.0806 196.7 47.2968C195.703 48.6627 194.316 49.4262 192.685 49.7092C190.441 50.0981 188.217 50.0467 186.157 48.9248C184.232 47.8763 183.226 46.2035 183.13 44.0322C183.065 42.5615 183.118 41.086 183.118 39.6124C183.117 39.6124 183.116 39.6124 183.115 39.6124H183.114Z" fill="#24252D" fill-opacity="0.7"/>
<path d="M117.358 39.2997C117.358 37.8747 117.37 36.4488 117.35 35.0238C117.345 34.6626 117.457 34.5673 117.809 34.573C119.031 34.593 120.253 34.5921 121.475 34.573C121.819 34.5673 121.897 34.6902 121.896 35.0105C121.884 37.4658 121.882 39.9212 121.895 42.3765C121.897 42.9923 121.903 43.6118 122.049 44.2171C122.3 45.2617 123.293 46.0777 124.423 46.172C125.777 46.2845 126.747 45.7593 127.217 44.6622C127.496 44.0093 127.581 43.323 127.58 42.6215C127.577 40.1185 127.583 37.6155 127.56 35.1125C127.556 34.6988 127.655 34.5711 128.082 34.5816C129.303 34.6121 130.526 34.5997 131.747 34.5863C132.048 34.5835 132.159 34.6559 132.157 34.9809C132.144 37.6736 132.172 40.3673 132.138 43.0599C132.126 44.0522 132.033 45.0501 131.653 45.9938C130.956 47.7209 129.703 48.8838 127.945 49.4299C125.522 50.182 123.086 50.162 120.75 49.1001C118.686 48.1632 117.586 46.4847 117.377 44.2371C117.223 42.5929 117.361 40.9439 117.357 39.2978L117.358 39.2997Z" fill="#24252D" fill-opacity="0.7"/>
<path d="M236.086 12.6818C235.61 10.5886 234.634 8.83861 232.635 7.81396C231.381 7.17248 230.039 7.00854 228.658 7.08384C226.487 7.20298 224.656 8.03604 223.319 9.78128C221.966 11.5456 221.601 13.5777 221.784 15.7528C222.032 18.6895 223.899 21.1268 226.717 22.0094C229.607 22.9149 232.443 22.6633 235.206 21.448C235.459 21.3374 235.443 21.2183 235.351 21.0105C235.043 20.3156 234.732 19.6217 234.462 18.9116C234.327 18.557 234.166 18.537 233.833 18.6543C232.34 19.1814 230.82 19.5521 229.219 19.2567C227.83 19.0003 226.762 18.3493 226.333 16.9071C226.221 16.5306 226.262 16.3686 226.718 16.3753C228.242 16.3981 229.767 16.3838 231.291 16.3838C232.815 16.3838 234.371 16.3743 235.911 16.3915C236.26 16.3953 236.381 16.299 236.383 15.9397C236.386 14.8426 236.329 13.7522 236.086 12.6818ZM231.825 13.2842C230.938 13.2908 230.051 13.287 229.163 13.287C228.276 13.287 227.39 13.2822 226.503 13.2908C226.26 13.2937 226.162 13.2317 226.2 12.9658C226.434 11.3149 227.731 10.2378 229.402 10.2912C230.868 10.3379 231.905 11.4121 232.166 13.0544C232.215 13.3633 231.976 13.2832 231.825 13.2842Z" fill="#24252D" fill-opacity="0.7"/>
<path d="M105.086 12.7465C104.604 10.601 103.615 8.80618 101.555 7.77867C100.237 7.12099 98.8223 6.97039 97.3821 7.09525C95.1822 7.28779 93.3578 8.22189 92.0939 10.0653C90.8653 11.8582 90.5193 13.8741 90.7967 16.0045C91.1493 18.7009 92.5391 20.6931 95.0525 21.7463C98.136 23.0378 101.219 22.7214 104.242 21.4299C104.499 21.3202 104.402 21.1725 104.334 21.0124C104.036 20.3137 103.719 19.6227 103.447 18.9135C103.315 18.5656 103.163 18.5341 102.824 18.6533C101.332 19.1756 99.8126 19.5512 98.2113 19.2585C96.8216 19.0041 95.7484 18.3502 95.3194 16.9166C95.166 16.4038 95.1898 16.3848 95.7159 16.3848C97.2391 16.3838 98.7632 16.3838 100.286 16.3838C101.81 16.3838 103.334 16.3695 104.858 16.3943C105.245 16.4 105.361 16.2589 105.357 15.9091C105.346 14.8483 105.321 13.7864 105.086 12.7465ZM100.853 13.2899C99.9489 13.2841 99.0453 13.287 98.1408 13.287C97.2362 13.287 96.3975 13.2851 95.5253 13.2889C95.3175 13.2889 95.1288 13.2889 95.1898 12.9925C95.4176 11.8811 95.919 10.9403 97.0265 10.5123L100.106 10.9594C100.726 11.4884 100.994 12.2109 101.165 12.982C101.23 13.2727 101.073 13.2908 100.853 13.2899Z" fill="#24252D" fill-opacity="0.7"/>
<path d="M190.735 12.2178C190.735 13.5799 190.733 14.9429 190.735 16.3049C190.739 19.5333 188.574 22.0172 185.288 22.4776C183.368 22.7464 181.452 22.715 179.637 21.9114C177.438 20.9392 176.21 19.2388 176.067 16.8397C175.885 13.7857 176.091 10.728 176.047 7.67216C176.045 7.45103 176.115 7.36334 176.346 7.36524C177.647 7.37287 178.949 7.37954 180.25 7.36238C180.613 7.35762 180.564 7.57208 180.564 7.79321C180.564 9.58325 180.554 11.3733 180.568 13.1633C180.577 14.2547 180.508 15.348 180.631 16.4384C180.798 17.9158 181.761 18.8413 183.217 18.8985C184.783 18.9595 185.776 18.1712 186.074 16.6376C186.164 16.1686 186.182 15.6959 186.181 15.2202C186.176 12.7802 186.181 10.341 186.162 7.90092C186.16 7.52156 186.236 7.37859 186.65 7.38812C187.856 7.41671 189.063 7.41004 190.269 7.39098C190.619 7.38526 190.737 7.48534 190.732 7.84564C190.714 9.30302 190.724 10.7604 190.724 12.2178C190.728 12.2178 190.731 12.2178 190.735 12.2178Z" fill="#24252D" fill-opacity="0.7"/>
<path d="M219.91 12.3614C219.91 13.692 219.927 15.0236 219.906 16.3532C219.86 19.4272 218.183 21.5899 215.181 22.32C213.075 22.8328 210.955 22.7832 208.926 21.9387C206.541 20.9465 205.322 19.0697 205.251 16.5391C205.169 13.61 205.24 10.6781 205.229 7.74712C205.228 7.41637 205.35 7.35823 205.643 7.36109C206.881 7.37443 208.12 7.38015 209.357 7.35823C209.712 7.35156 209.808 7.44783 209.807 7.80526C209.794 10.5304 209.795 13.2554 209.81 15.9805C209.816 16.9918 210.11 17.8821 211.03 18.4626C212.848 19.6111 214.999 18.6475 215.331 16.5334C215.4 16.093 215.426 15.6536 215.425 15.2094C215.42 12.7541 215.425 10.2978 215.406 7.84244C215.404 7.48595 215.5 7.38301 215.858 7.38873C217.08 7.4097 218.302 7.40589 219.524 7.39064C219.84 7.38682 219.93 7.48977 219.927 7.79859C219.914 9.31984 219.922 10.8401 219.922 12.3614C219.918 12.3614 219.914 12.3614 219.91 12.3614Z" fill="#24252D" fill-opacity="0.7"/>
<path d="M220.968 49.7864C219.269 49.8226 217.632 49.4871 216.034 48.9304C215.722 48.8217 215.605 48.7131 215.735 48.3623C216 47.6513 216.245 46.9297 216.437 46.1967C216.546 45.7783 216.717 45.7707 217.068 45.8955C218.284 46.3292 219.534 46.6066 220.838 46.5561C221.399 46.5342 221.937 46.4207 222.42 46.1129C222.805 45.867 223.056 45.5343 223.032 45.0587C223.008 44.5878 222.704 44.3057 222.296 44.156C221.315 43.7976 220.321 43.4745 219.337 43.1209C218.528 42.8302 217.766 42.4537 217.095 41.8989C215.374 40.4749 215.363 37.0064 217.669 35.4336C218.707 34.7264 219.856 34.3718 221.095 34.2822C222.86 34.1545 224.57 34.408 226.234 35.0143C226.551 35.1296 226.617 35.2449 226.507 35.5595C226.254 36.2753 226.025 36.9997 225.816 37.7289C225.727 38.0367 225.597 38.0634 225.315 37.9691C224.119 37.5668 222.901 37.299 221.629 37.5144C221.428 37.5487 221.225 37.6021 221.039 37.6831C220.543 37.8985 220.252 38.3332 220.291 38.7916C220.334 39.2901 220.685 39.5351 221.106 39.6819C222.168 40.0508 223.239 40.3929 224.3 40.7637C225.023 41.0163 225.703 41.3585 226.287 41.8627C228.124 43.4526 227.987 46.7315 226.017 48.3375C224.881 49.264 223.543 49.6577 222.11 49.7797C221.732 49.8121 221.348 49.7844 220.968 49.7844V49.7864Z" fill="#24252D" fill-opacity="0.7"/>
<path d="M230.363 42.0631C230.363 40.8745 230.354 39.6859 230.37 38.4973C230.374 38.1885 230.287 38.0769 229.969 38.0922C229.446 38.116 228.921 38.0912 228.397 38.1017C228.176 38.1065 228.088 38.036 228.091 37.8053C228.101 36.8388 228.103 35.8713 228.091 34.9048C228.088 34.6475 228.186 34.5788 228.427 34.5846C228.935 34.5979 229.444 34.5684 229.951 34.595C230.298 34.6132 230.378 34.4788 230.371 34.1575C230.353 33.2387 230.379 32.3189 230.358 31.4C230.35 31.0607 230.422 30.9282 230.797 30.9359C232.035 30.9616 233.273 30.9587 234.512 30.9435C234.84 30.9397 234.951 31.0274 234.943 31.3657C234.921 32.3008 234.95 33.2358 234.928 34.1709C234.921 34.5093 235.03 34.6036 235.361 34.596C236.202 34.575 237.044 34.5979 237.885 34.5846C238.171 34.5798 238.317 34.6294 238.308 34.9687C238.286 35.8875 238.29 36.8073 238.306 37.7262C238.311 38.015 238.228 38.1122 237.931 38.1055C237.058 38.0874 236.184 38.1094 235.311 38.0931C235.022 38.0874 234.928 38.178 234.93 38.4696C234.944 40.6095 234.934 42.7493 234.952 44.8892C234.96 45.7918 235.537 46.3704 236.472 46.461C237.076 46.5191 237.68 46.5143 238.262 46.3161C238.492 46.2379 238.574 46.3065 238.615 46.5267C238.767 47.3512 238.924 48.1747 239.092 48.9964C239.127 49.1708 239.094 49.2556 238.918 49.3109C237.03 49.9047 235.114 50.082 233.212 49.4606C231.419 48.8744 230.468 47.5218 230.397 45.5812C230.354 44.4097 230.389 43.2355 230.389 42.0631C230.381 42.0631 230.372 42.0631 230.363 42.0631Z" fill="#24252D" fill-opacity="0.7"/>
<path d="M194.861 14.6872C194.861 13.4309 194.843 12.3844 194.871 11.3397C194.881 10.9508 194.752 10.8498 194.386 10.8736C193.928 10.9022 193.466 10.8688 193.006 10.885C192.748 10.8946 192.64 10.826 192.645 10.5438C192.66 9.59351 192.658 8.64226 192.646 7.69195C192.642 7.43269 192.744 7.36788 192.982 7.37455C193.474 7.3879 193.968 7.3574 194.458 7.38599C194.809 7.40601 194.929 7.30497 194.918 6.93991C194.892 6.03727 194.923 5.13367 194.903 4.23103C194.895 3.88026 194.964 3.72966 195.364 3.73919C196.57 3.76779 197.777 3.76302 198.983 3.74396C199.328 3.73824 199.453 3.81735 199.443 4.18623C199.415 5.10412 199.447 6.02392 199.427 6.94277C199.42 7.26684 199.501 7.38599 199.846 7.37646C200.687 7.35263 201.528 7.38313 202.369 7.36121C202.706 7.35263 202.849 7.4184 202.835 7.79776C202.806 8.66799 202.811 9.54109 202.833 10.4123C202.842 10.7592 202.747 10.8879 202.381 10.8774C201.524 10.8526 200.667 10.8793 199.81 10.8641C199.521 10.8593 199.427 10.9508 199.429 11.2425C199.442 13.2708 199.424 15.2991 199.448 17.3275C199.462 18.5542 200.077 19.1299 201.317 19.1737C201.796 19.1909 202.27 19.1604 202.727 19.0117C202.997 18.9231 203.09 19.0146 203.137 19.2805C203.273 20.043 203.431 20.8017 203.585 21.5614C203.627 21.7702 203.617 21.9208 203.367 21.997C201.492 22.5689 199.604 22.7586 197.712 22.1181C195.985 21.5328 195.054 20.227 194.926 18.4207C194.832 17.1063 194.89 15.7919 194.861 14.6891V14.6872Z" fill="#24252D" fill-opacity="0.7"/>
<path d="M138.929 14.4177C138.929 15.4004 138.92 16.3822 138.93 17.3649C138.944 18.5096 139.544 19.1149 140.69 19.1682C141.2 19.1921 141.708 19.1806 142.194 19.0091C142.462 18.9147 142.571 19.0129 142.617 19.2683C142.764 20.0614 142.916 20.8534 143.076 21.6436C143.109 21.8085 143.098 21.9162 142.918 21.9715C140.868 22.5939 138.81 22.8332 136.782 21.94C135.279 21.2776 134.533 20.0661 134.432 18.4315C134.289 16.1048 134.385 13.7762 134.372 11.4476C134.37 11.0006 134.279 10.8233 133.804 10.871C133.364 10.9148 132.916 10.8681 132.473 10.8843C132.221 10.8939 132.144 10.8033 132.147 10.5574C132.157 9.60708 132.161 8.65583 132.145 7.70553C132.14 7.41195 132.27 7.36715 132.517 7.37383C133.008 7.38717 133.501 7.36239 133.992 7.38336C134.29 7.3967 134.371 7.28899 134.367 7.00305C134.351 6.05274 134.371 5.10149 134.355 4.15119C134.351 3.85285 134.422 3.73561 134.749 3.74037C136.019 3.75944 137.288 3.75848 138.558 3.74323C138.86 3.73942 138.931 3.84236 138.927 4.12545C138.911 5.07575 138.933 6.02701 138.914 6.97731C138.908 7.29185 139.006 7.38145 139.316 7.37478C140.172 7.35572 141.029 7.38145 141.886 7.36143C142.206 7.35381 142.288 7.46247 142.283 7.76843C142.265 8.67108 142.263 9.57468 142.284 10.4773C142.291 10.8052 142.167 10.8796 141.869 10.8738C141.028 10.8586 140.187 10.8824 139.346 10.8614C139.02 10.8538 138.907 10.9415 138.913 11.2818C138.934 12.3274 138.921 13.373 138.921 14.4186C138.923 14.4186 138.925 14.4186 138.928 14.4186L138.929 14.4177Z" fill="#24252D" fill-opacity="0.7"/>
<path d="M243.15 11.5075C243.15 14.9141 243.14 18.3207 243.162 21.7273C243.165 22.201 243.027 22.303 242.578 22.2906C241.405 22.2582 240.23 22.2706 239.055 22.2859C238.746 22.2897 238.65 22.201 238.65 21.8836C238.659 14.9599 238.659 8.03609 238.651 1.11137C238.651 0.813986 238.715 0.695794 239.041 0.70056C240.263 0.71867 241.486 0.727248 242.707 0.696747C243.121 0.686262 243.157 0.855925 243.156 1.19239C243.146 4.63045 243.15 8.0685 243.15 11.5075Z" fill="#24252D" fill-opacity="0.7"/>
<path d="M84.7163 9.52017C85.131 8.9702 85.4598 8.52984 85.8601 8.14667C87.0783 6.98095 89.0761 6.89707 90.5144 7.40034C90.7165 7.47088 90.727 7.59669 90.6803 7.77112C90.3953 8.85677 90.1103 9.94338 89.8339 11.0309C89.7767 11.2568 89.6747 11.315 89.4345 11.2883C88.8349 11.2216 88.2259 11.193 87.6302 11.2978C86.1261 11.5618 85.2206 12.6913 85.1948 14.4089C85.1586 16.8481 85.1643 19.2882 85.1796 21.7283C85.1824 22.1696 85.0995 22.3278 84.6182 22.3126C83.4134 22.2735 82.2057 22.2897 81 22.3068C80.6883 22.3116 80.6006 22.2201 80.6006 21.9084C80.6101 17.2027 80.6101 12.4969 80.6006 7.79209C80.6006 7.45372 80.7016 7.36507 81.0305 7.37079C82.1256 7.38986 83.2208 7.38795 84.3151 7.37175C84.622 7.36698 84.7354 7.45086 84.7201 7.77017C84.6954 8.30584 84.7135 8.84247 84.7135 9.52017H84.7163Z" fill="#24252D" fill-opacity="0.7"/>
<path d="M0.953528 24.9119C0.953528 18.398 0.947809 11.8841 0.956387 5.37112C0.9602 2.83285 2.57009 0.805475 5.02543 0.193545C5.47342 0.082025 5.92998 0.0419922 6.39227 0.0419922C19.4096 0.0438985 32.4269 0.041039 45.4452 0.0458048C48.5563 0.046758 50.8868 2.38486 50.8878 5.48836C50.8897 18.5314 50.8897 31.5745 50.8878 44.6175C50.8878 47.4627 48.5001 49.8809 45.6539 49.8828C32.4774 49.8895 19.3019 49.8895 6.12538 49.8828C3.31927 49.8809 0.968778 47.5485 0.961153 44.7376C0.943996 38.1294 0.955434 31.5202 0.955434 24.9119H0.953528Z" fill="#24252D" fill-opacity="0.08"/>
<path d="M125.659 14.8018C125.659 12.4904 125.669 10.179 125.65 7.86756C125.647 7.46723 125.762 7.36238 126.155 7.37001C127.376 7.39479 128.597 7.38812 129.818 7.37287C130.128 7.36906 130.231 7.46533 130.23 7.77701C130.222 12.479 130.222 17.1819 130.23 21.8838C130.23 22.2022 130.116 22.2879 129.812 22.2841C128.575 22.2708 127.338 22.2651 126.102 22.287C125.741 22.2937 125.648 22.1831 125.651 21.8304C125.666 19.4876 125.659 17.1437 125.659 14.8009L125.659 14.8018Z" fill="#24252D" fill-opacity="0.7"/>
<path d="M155.814 43.2267C154.623 43.2267 153.433 43.2191 152.242 43.2324C151.959 43.2353 151.853 43.1657 151.859 42.8635C151.877 41.8656 151.873 40.8667 151.861 39.8687C151.858 39.6085 151.927 39.5094 152.205 39.5113C154.618 39.5208 157.031 39.5198 159.443 39.5113C159.705 39.5113 159.807 39.578 159.803 39.8554C159.788 40.8695 159.788 41.8837 159.803 42.8978C159.808 43.1895 159.681 43.2324 159.433 43.2305C158.226 43.2219 157.02 43.2267 155.814 43.2267Z" fill="#24252D" fill-opacity="0.7"/>
<path d="M127.872 5.3852C127.237 5.3852 126.602 5.37471 125.967 5.38996C125.695 5.39664 125.573 5.33754 125.577 5.02776C125.593 3.82392 125.589 2.61912 125.579 1.41528C125.577 1.17413 125.642 1.08263 125.899 1.08453C127.232 1.09502 128.565 1.09597 129.898 1.08453C130.176 1.08167 130.246 1.17985 130.244 1.44197C130.233 2.63056 130.232 3.8182 130.244 5.00679C130.247 5.29084 130.17 5.3995 129.871 5.39092C129.205 5.37185 128.539 5.3852 127.872 5.3852Z" fill="#24252D" fill-opacity="0.7"/>
<path d="M102.342 1.78892C102.266 1.89662 102.209 1.99099 102.139 2.07582C101.106 3.33494 100.066 4.5893 99.0416 5.8551C98.8605 6.0791 98.7175 6.11627 98.4564 5.97806C97.7434 5.60156 97.0161 5.25175 96.287 4.90671C96.0668 4.80281 96.0125 4.70654 96.1411 4.47969C96.9523 3.04995 97.7539 1.61544 98.5526 0.179026C98.6441 0.015082 98.7204 -0.0525924 98.9158 0.0455832C99.989 0.586979 101.069 1.11503 102.145 1.65071C102.212 1.68407 102.269 1.73649 102.342 1.78892Z" fill="#24252D" fill-opacity="0.7"/>
<path d="M154.341 6.99622C154.204 6.78462 154.272 6.54824 154.259 6.32138C154.293 6.28326 154.322 6.28707 154.349 6.32806C154.377 6.48914 154.406 6.64927 154.435 6.81035C154.403 6.87231 154.373 6.93427 154.341 6.99718V6.99622Z" fill="#24252D" fill-opacity="0.7"/>
<path d="M169.418 7.18102C169.449 7.0228 169.479 6.86457 169.509 6.7073C169.535 6.65964 169.564 6.65488 169.596 6.70158C169.586 6.89889 169.624 7.10286 169.508 7.28492C169.477 7.2506 169.448 7.21629 169.417 7.18197L169.418 7.18102Z" fill="#24252D" fill-opacity="0.7"/>
<path d="M161.966 18.3949V18.8258C161.85 18.6485 161.885 18.5189 161.898 18.3921C161.921 18.393 161.943 18.394 161.966 18.3949Z" fill="#24252D" fill-opacity="0.7"/>
<path d="M169.597 6.7006H169.554L169.51 6.70632C169.546 6.54428 169.581 6.3832 169.627 6.18018C169.742 6.39082 169.683 6.54619 169.598 6.69965L169.597 6.7006Z" fill="#24252D" fill-opacity="0.7"/>
<path d="M154.349 6.32807C154.319 6.32235 154.289 6.32045 154.259 6.3214C154.155 6.24515 154.142 6.14792 154.207 5.98779C154.263 6.12314 154.306 6.22513 154.349 6.32807Z" fill="#24252D" fill-opacity="0.7"/>
<path d="M50.3854 39.6954C50.3597 41.5941 50.5017 43.4975 50.312 45.3915C50.1014 47.4932 47.9806 49.4024 45.8675 49.4033C32.5556 49.41 19.2437 49.41 5.93189 49.4033C3.69482 49.4024 1.5645 47.3616 1.4282 45.1312C1.35386 44.0418 1.41105 42.9514 1.3977 41.8609C1.38912 41.1337 1.39294 40.4055 1.3977 39.6782C1.45108 39.5019 1.60358 39.5038 1.74465 39.4838C3.22777 39.6229 4.71661 39.7201 6.2064 39.6658C10.9808 39.4923 15.5865 38.564 19.9529 36.5623C23.3585 35.001 26.4201 32.9432 29.1957 30.4325C30.5778 29.1829 31.8283 27.8228 33.0188 26.3978C33.1294 26.2653 33.2228 26.1119 33.3925 26.0394C33.971 25.9622 34.4791 26.2329 34.9976 26.4026C37.8199 27.329 40.4449 28.6425 42.8173 30.443C45.9752 32.8393 48.4095 35.8398 50.2882 39.3084C50.3244 39.4361 50.3511 39.5657 50.3864 39.6944L50.3854 39.6954Z" fill="black" fill-opacity="0.2"/>
<path d="M1.43027 4.79451C1.5456 2.86435 3.27749 0.969469 5.24387 0.614892C5.60321 0.550077 5.96255 0.519576 6.32856 0.520529C9.56074 0.529108 12.7939 0.531967 16.026 0.536733C16.1843 0.705443 16.1442 0.917045 16.1518 1.11721C16.1747 1.77394 16.109 2.43257 16.1928 3.08739C16.291 4.76115 16.453 6.42918 16.7133 8.08768C17.3252 11.9995 18.3022 15.8111 19.8625 19.4599C20.2238 20.3053 20.6431 21.1241 21.1188 21.9114C21.3294 22.2602 21.2999 22.5443 21.0492 22.8617C17.7293 27.0632 13.6879 30.3049 8.63045 32.2046C6.46296 33.0186 4.21731 33.4856 1.91829 33.7115C1.71717 33.7315 1.45314 33.8173 1.395 33.479C1.39691 24.1046 1.395 14.7322 1.39786 5.35878C1.39786 5.17101 1.36355 4.97847 1.43122 4.79355L1.43027 4.79451Z" fill="black" fill-opacity="0.2"/>
<path d="M29.8372 0.535795C33.0227 0.531029 36.2072 0.52531 39.3927 0.522451C41.5325 0.520545 43.6714 0.506247 45.8113 0.52817C48.075 0.551046 50.1758 2.54125 50.335 4.77355C50.3845 4.92892 50.3617 5.08809 50.3617 5.24537C50.3626 10.9491 50.3626 16.6528 50.3626 22.3565C50.3626 22.9818 50.3102 23.018 49.7173 22.7731C46.1401 21.2947 42.4123 20.4407 38.5682 20.048C37.2109 19.9088 35.8498 19.843 34.4887 19.7849C34.0826 19.7677 33.811 19.6238 33.5851 19.2883C32.3688 17.4754 31.5968 15.4709 31.0068 13.3882C30.3348 11.0177 29.9411 8.59859 29.7724 6.14039C29.6685 4.62486 29.5189 3.11124 29.6342 1.58999C29.7896 1.25543 29.5789 0.849385 29.8382 0.534842L29.8372 0.535795Z" fill="black" fill-opacity="0.2"/>
<path d="M29.7418 1.5729C29.7037 3.26667 29.7771 4.95949 29.942 6.64182C30.3242 10.5288 31.0667 14.33 32.8863 17.8443C33.0102 18.0826 33.1684 18.3047 33.2799 18.5487C33.6383 19.3294 34.1397 19.6544 35.0938 19.6811C39.4593 19.8021 43.7485 20.4636 47.8862 21.9248C48.5429 22.1564 49.1872 22.4233 49.8354 22.6778C49.9812 22.735 50.1194 22.8122 50.3139 22.795C50.3139 22.6139 50.3139 22.4414 50.3139 22.2679C50.312 16.5471 50.3101 10.8262 50.3101 5.10532C50.3101 4.99571 50.3263 4.88514 50.3358 4.77553C50.4473 4.949 50.4054 5.14536 50.4054 5.33122C50.4102 13.2997 50.4102 21.2681 50.4111 29.2365C50.4111 29.2994 50.4016 29.3623 50.3968 29.4262C50.3539 29.4605 50.3072 29.4662 50.2567 29.4434C50.0699 29.3461 49.9345 29.187 49.7925 29.0392C47.3858 26.5295 44.6083 24.5155 41.5076 22.958C38.5709 21.4825 35.4722 20.456 32.2343 19.865C30.6416 19.5743 29.0412 19.3427 27.4208 19.2769C27.1978 19.2674 26.9805 19.2169 26.7956 19.0739C26.2599 18.1837 25.9644 17.1943 25.6489 16.2173C24.7196 13.3397 24.2039 10.3773 23.9037 7.37575C23.7045 5.38936 23.653 3.39535 23.694 1.39943C23.6968 1.2412 23.7035 1.08298 23.7521 0.928568C23.8179 0.619743 24.0219 0.5616 24.3126 0.563507C25.9911 0.574945 27.6687 0.579711 29.3472 0.560647C29.7075 0.556835 29.8409 0.660729 29.7866 1.01245C29.758 1.19736 29.8247 1.3918 29.7427 1.5729H29.7418Z" fill="white"/>
<path d="M23.8399 0.993139C23.7675 3.82498 23.9047 6.64348 24.3003 9.45054C24.7664 12.7628 25.5232 15.993 26.8777 19.066C26.3506 19.3005 26.0808 19.2195 25.7949 18.6972C25.2306 17.6677 24.7731 16.5897 24.3842 15.485C23.1556 11.9907 22.3987 8.39063 22.008 4.71333C21.945 4.11856 21.844 3.52188 21.885 2.91662C21.8907 2.30278 21.8831 1.6899 21.8888 1.07702C21.8907 0.89115 21.864 0.696705 21.9965 0.534668C22.6065 0.534668 23.2166 0.534668 23.8266 0.535621C23.9152 0.685267 23.8885 0.838727 23.8399 0.993139Z" fill="black" fill-opacity="0.2"/>
<path d="M1.43007 4.79443C1.43484 5.03082 1.44246 5.26815 1.44246 5.50454C1.44246 14.7645 1.44246 24.0254 1.44342 33.2854C1.44342 33.396 1.45104 33.5065 1.45486 33.6171C1.60927 33.8039 1.59402 34.0289 1.59497 34.2481C1.59878 35.8227 1.59878 37.3973 1.59497 38.971C1.59497 39.1893 1.61499 39.4161 1.45676 39.602C1.45295 41.2881 1.44914 42.9743 1.44437 44.6604C1.44437 44.8177 1.43389 44.974 1.42817 45.1313C1.3033 44.9101 1.35191 44.6661 1.35191 44.4336C1.34905 31.4687 1.34905 18.5047 1.35191 5.53981C1.35191 5.29103 1.30235 5.03177 1.43103 4.79443H1.43007Z" fill="#8A787A"/>
<path d="M21.9965 0.534668C21.9994 1.35343 22.0013 2.17315 22.0041 2.99192C21.7401 2.90232 21.7916 2.66689 21.7821 2.4753C21.7601 2.04829 21.7725 1.62032 21.7735 1.19235C21.7735 0.89115 21.6353 0.766286 21.3398 0.766286C19.7842 0.76438 18.2296 0.766286 16.6741 0.766286C16.3586 0.766286 16.2632 0.926417 16.2642 1.21141C16.2671 1.68704 16.2718 2.16171 16.2604 2.63734C16.2556 2.83941 16.2804 3.05578 16.0964 3.20924C15.9573 2.32185 16.0335 1.42873 16.025 0.537527C18.0152 0.537527 20.0054 0.536574 21.9956 0.535621L21.9965 0.534668Z" fill="#E64849"/>
<path d="M50.3273 29.4204C50.3502 29.4223 50.3731 29.4242 50.3959 29.4242C50.3921 32.848 50.3893 36.2717 50.3855 39.6955C50.334 39.6021 50.2825 39.5096 50.2301 39.4162C50.0919 38.22 50.1729 37.019 50.1643 35.8209C50.15 33.9413 50.1577 32.0616 50.1643 30.182C50.1643 29.9208 50.1062 29.6377 50.3273 29.4204Z" fill="#D36264"/>
<path d="M23.84 0.993162C23.8352 0.840656 23.8314 0.68815 23.8267 0.535645C25.8302 0.535645 27.8338 0.535645 29.8382 0.535645C29.7839 0.878783 29.9231 1.24098 29.742 1.57268C29.7312 0.934066 29.4001 0.614757 28.7488 0.614757C27.3047 0.614757 25.8598 0.629054 24.4157 0.603319C24.0859 0.5976 23.9286 0.710073 23.84 0.993162Z" fill="#D9D9D9"/>
<path d="M50.3274 29.4202C50.3236 32.5714 50.3217 35.7225 50.3122 38.8727C50.3122 39.0538 50.3856 39.2549 50.2302 39.416C48.606 36.4669 46.6025 33.8181 44.049 31.602C41.0093 28.9627 37.517 27.1793 33.6433 26.1166C33.5833 26.1004 33.5184 26.1013 33.4555 26.0937C33.0199 26.128 32.611 25.985 32.1983 25.8888C30.6189 25.5208 29.0119 25.354 27.4039 25.1863C26.9674 25.1405 26.6576 25.2854 26.3916 25.6495C25.0906 27.4319 23.6342 29.0847 22.0252 30.5945C19.7748 32.7067 17.3175 34.5368 14.5848 35.998C11.3936 37.7042 8.02041 38.8441 4.4451 39.3979C3.57105 39.5333 2.69605 39.6353 1.80865 39.6019C1.69046 39.6019 1.57227 39.6028 1.45408 39.6038C1.45408 37.6088 1.45408 35.6139 1.45312 33.6189C7.03579 33.2033 11.9608 31.1702 16.2653 27.613C18.0324 26.1528 19.5994 24.4971 21.0091 22.6928C21.1311 22.5355 21.2789 22.4183 21.1264 22.1648C19.4145 19.332 18.3899 16.2285 17.5873 13.0459C16.7733 9.8175 16.2214 6.54435 16.0956 3.20923C16.1013 2.49913 16.129 1.78902 16.1032 1.08082C16.0889 0.691933 16.229 0.605195 16.5922 0.609007C18.2049 0.626164 19.8186 0.629977 21.4304 0.607101C21.8413 0.601382 21.9251 0.741497 21.9242 1.12086C21.9232 1.74422 21.8251 2.37617 22.0023 2.99382C22.315 7.50894 23.1824 11.9078 24.777 16.1532C25.0772 16.9519 25.4585 17.7135 25.8131 18.4884C26.0409 18.986 26.3497 19.1871 26.8749 19.0689C28.4829 19.2309 30.0937 19.3529 31.6884 19.637C38.8209 20.9066 45.0507 23.9109 50.1082 29.1734C50.1845 29.2525 50.2531 29.3392 50.3255 29.4231L50.3274 29.4202Z" fill="black" fill-opacity="0.7"/>
<path d="M1.81052 39.6012C2.73509 39.4811 3.66156 39.381 4.58232 39.238C9.69126 38.445 14.2988 36.4538 18.4584 33.4095C21.5124 31.1733 24.1345 28.5035 26.3754 25.461C26.5956 25.1617 26.812 25.0245 27.1942 25.0569C29.3102 25.2351 31.4129 25.483 33.4555 26.0949C32.427 27.2949 31.4148 28.5102 30.2729 29.6092C27.8442 31.9473 25.1782 33.9594 22.211 35.5788C18.9732 37.346 15.537 38.5422 11.915 39.2037C10.3461 39.4906 8.75812 39.6279 7.16253 39.7337C5.58981 39.8376 4.03044 39.7156 2.46535 39.6965C2.24612 39.6936 2.02784 39.6346 1.80957 39.6021L1.81052 39.6012Z" fill="white"/>
</g>
<defs>
<clipPath id="clip0_549_621">
<rect width="242.21" height="50" fill="white" transform="translate(0.95166)"/>
</clipPath>
</defs>
</svg>
