<svg width="249" height="73" viewBox="0 0 249 73" fill="none" xmlns="http://www.w3.org/2000/svg">
<g opacity="0.6">
<path d="M72.8027 28.7508C72.8027 19.3266 79.426 12.5247 88.7173 12.5247C96.0965 12.5247 101.609 16.7923 103.032 23.0606L97.6083 24.4381C96.4523 20.1706 93.2072 17.5922 88.7173 17.5922C82.7605 17.5922 78.581 22.0824 78.581 28.7508C78.581 35.4184 82.7605 39.8643 88.7173 39.8643C94.229 39.8643 97.6082 36.9302 97.6963 32.8401L89.2063 32.8401L89.2063 28.2175L103.342 28.2175L103.342 31.6401C103.342 39.7751 97.7858 44.9761 88.7173 44.9761C79.426 44.9761 72.8027 38.175 72.8027 28.7508Z" fill="#24252D" fill-opacity="0.7"/>
<path d="M107.115 11.1014L112.982 11.1014L112.982 16.7473L107.115 16.7473L107.115 11.1014ZM107.337 20.7482L112.849 20.7482L112.849 44.3086L107.337 44.3086L107.337 20.7482Z" fill="#24252D" fill-opacity="0.7"/>
<path d="M117.782 20.7487L123.028 20.7487L123.028 23.0152L123.116 23.0152C124.717 21.326 126.984 20.3035 129.74 20.3035C131.074 20.3035 132.23 20.5261 133.519 20.9262L132.319 25.9496C131.074 25.5938 130.229 25.4604 128.985 25.4604C125.561 25.4604 123.295 27.7721 123.295 32.4397L123.295 44.3091L117.782 44.3091L117.782 20.7487Z" fill="#24252D" fill-opacity="0.7"/>
<path d="M134.004 32.5291C134.004 25.5058 139.517 20.0825 147.119 20.0825C154.765 20.0825 160.232 25.5058 160.232 32.5291C160.232 39.5976 154.765 44.9761 147.119 44.9761C139.517 44.9761 134.004 39.5976 134.004 32.5291ZM154.719 32.5291C154.719 28.0841 151.653 24.9274 147.119 24.9274C142.585 24.9274 139.517 28.0841 139.517 32.5291C139.517 36.9742 142.585 40.1309 147.119 40.1309C151.653 40.1309 154.719 36.9742 154.719 32.5291Z" fill="#24252D" fill-opacity="0.7"/>
<path d="M164.228 20.7487L169.562 20.7487L169.562 23.1938L169.652 23.1938C171.563 21.1928 174.586 20.0819 177.787 20.0819C184.499 20.0819 189.033 24.3498 189.033 30.573L189.033 44.3091L183.521 44.3091L183.521 31.4172C183.521 27.4163 180.987 25.0162 176.897 25.0162C172.63 25.0162 169.74 27.6386 169.74 31.4623L169.74 44.3091L164.228 44.3091L164.228 20.7487Z" fill="#24252D" fill-opacity="0.7"/>
<path d="M192.851 32.5291C192.851 25.4166 198.141 20.0825 205.342 20.0825C208.632 20.0825 211.566 21.105 213.478 22.9715L213.567 22.9715L213.567 11.858L219.078 11.858L219.078 44.3093L213.878 44.3093L213.878 41.8202L213.788 41.8202C211.966 43.8652 209.033 44.9761 205.565 44.9761C198.096 44.9761 192.851 39.8192 192.851 32.5291ZM213.567 34.0409L213.567 30.929C213.567 27.5948 210.188 24.9274 206.053 24.9274C201.431 24.9274 198.363 27.9949 198.363 32.5291C198.363 37.1525 201.386 40.1309 206.098 40.1309C210.277 40.1309 213.567 37.4191 213.567 34.0409Z" fill="#24252D" fill-opacity="0.7"/>
<path d="M223.074 32.6186C223.074 25.2394 228.365 20.0825 235.744 20.0825C243.39 20.0825 248.324 25.5501 248.324 32.6626L248.324 34.3078L228.542 34.3078C228.72 37.9967 231.699 40.3978 236.01 40.3978C239.211 40.3978 241.523 39.1087 243.702 36.3969L247.391 39.686C244.768 43.0645 241.078 44.9761 236.055 44.9761C228.008 44.9761 223.074 40.0861 223.074 32.6186ZM242.901 30.3066C242.59 27.0167 239.701 24.6607 235.833 24.6607C231.787 24.6607 228.987 27.0167 228.631 30.3066L242.901 30.3066Z" fill="#24252D" fill-opacity="0.7"/>
<path d="M76.9718 60.0928L76.9718 51.5446L78.6207 51.5446L78.6207 58.5661L82.1502 58.5661L82.1502 60.0928L76.9718 60.0928Z" fill="#9E9C9C"/>
<path d="M88.6835 60.0928L88.6835 51.5446L94.0938 51.5446L94.0938 53.0702L90.3321 53.0702L90.3321 54.9876L93.752 54.9876L93.752 56.4535L90.3321 56.4535L90.3321 58.5661L94.0938 58.5661L94.0938 60.0928L88.6835 60.0928Z" fill="#9E9C9C"/>
<path d="M109.542 60.0928L109.542 51.5446L112.399 51.5446C112.888 51.5446 113.348 51.6298 113.78 51.8009C114.21 51.9718 114.602 52.2244 114.952 52.5576C115.301 52.8919 115.581 53.3371 115.788 53.8948C115.997 54.4525 116.1 55.09 116.1 55.8064C116.1 56.5877 115.994 57.2674 115.782 57.8458C115.57 58.4242 115.282 58.8694 114.916 59.183C114.548 59.4966 114.152 59.7266 113.724 59.8731C113.297 60.0195 112.831 60.0928 112.326 60.0928L109.542 60.0928ZM111.191 58.5661L112.326 58.5661C112.619 58.5661 112.875 58.5314 113.096 58.4627C113.316 58.3934 113.523 58.2655 113.719 58.0777C113.914 57.8909 114.064 57.6073 114.17 57.229C114.276 56.8506 114.329 56.3763 114.329 55.8064C114.329 54.8534 114.152 54.1596 113.797 53.7239C113.443 53.2883 112.978 53.0702 112.399 53.0702L111.191 53.0702L111.191 58.5661Z" fill="#9E9C9C"/>
<path d="M122.878 60.0928L122.878 51.5446L128.289 51.5446L128.289 53.0702L124.527 53.0702L124.527 54.9876L127.946 54.9876L127.946 56.4535L124.527 56.4535L124.527 58.5661L128.289 58.5661L128.289 60.0928L122.878 60.0928ZM124.735 50.75L125.724 49.2234L127.409 49.2234L126.065 50.75L124.735 50.75Z" fill="#9E9C9C"/>
<path d="M135.31 60.0928L135.31 51.5446L138.779 51.5446C139.649 51.5446 140.358 51.7906 140.904 52.2827C141.448 52.7754 141.722 53.4374 141.722 54.2675C141.722 55.0977 141.459 55.7578 140.934 56.246C140.409 56.7342 139.691 56.9782 138.779 56.9782L136.959 56.9783L136.959 60.0928L135.31 60.0928ZM136.959 55.4524L138.754 55.4524C139.12 55.4524 139.421 55.3445 139.658 55.1285C139.893 54.9125 140.012 54.6262 140.012 54.2675C140.012 53.8526 139.891 53.5491 139.651 53.3578C139.412 53.1662 139.112 53.0702 138.754 53.0702L136.959 53.0702L136.959 55.4524Z" fill="#9E9C9C"/>
<path d="M152.481 60.0928L151.993 58.6882L148.732 58.6882L148.244 60.0928L146.607 60.0928L149.696 51.5446L151.101 51.5446L154.179 60.0928L152.481 60.0928ZM150.356 53.9868L149.196 57.321L151.528 57.321L150.381 53.9868L150.356 53.9868Z" fill="#9E9C9C"/>
<path d="M160.59 60.0928L160.59 51.5446L164.058 51.5446C164.938 51.5446 165.647 51.7906 166.189 52.2827C166.73 52.7754 167.001 53.4374 167.001 54.2675C167.001 54.8862 166.841 55.4113 166.519 55.843C166.197 56.2741 165.755 56.58 165.194 56.7586L167.014 60.0928L165.23 60.0928L163.508 56.9172L162.238 56.9172L162.238 60.0928L160.59 60.0928ZM162.238 55.489L163.923 55.489C164.86 55.489 165.328 55.0815 165.328 54.2675C165.328 53.4451 164.86 53.0338 163.923 53.0338L162.238 53.0338L162.238 55.489Z" fill="#9E9C9C"/>
<path d="M175.379 60.0928L175.379 53.0702L172.875 53.0702L172.875 51.5446L179.532 51.5446L179.532 53.0702L177.028 53.0702L177.028 60.0928L175.379 60.0928Z" fill="#9E9C9C"/>
<path d="M186.004 60.0928L186.004 51.5446L191.413 51.5446L191.413 53.0702L187.652 53.0702L187.652 54.9876L191.071 54.9876L191.071 56.4535L187.652 56.4535L187.652 58.5661L191.413 58.5661L191.413 60.0928L186.004 60.0928Z" fill="#9E9C9C"/>
<path d="M198.435 60.0928L198.435 51.5446L200.132 51.5446L202.611 57.0881L202.636 57.0881L205.115 51.5446L206.825 51.5446L206.825 60.0928L205.212 60.0928L205.212 54.8411L205.188 54.8411L202.758 60.0928L202.489 60.0928L200.058 54.8411L200.034 54.8411L200.034 60.0928L198.435 60.0928Z" fill="#9E9C9C"/>
<path d="M214.152 60.0928L214.152 51.5446L219.562 51.5446L219.562 53.0702L215.8 53.0702L215.8 54.9876L219.22 54.9876L219.22 56.4535L215.8 56.4535L215.8 58.5661L219.562 58.5661L219.562 60.0928L214.152 60.0928Z" fill="#9E9C9C"/>
<path d="M226.585 60.0928L226.585 51.5446L228.233 51.5446L231.36 57.1491L231.384 57.1491L231.384 51.5446L233.045 51.5446L233.045 60.0928L231.421 60.0928L228.257 54.4872L228.233 54.4872L228.233 60.0928L226.585 60.0928Z" fill="#9E9C9C"/>
<path d="M242.02 60.0928L242.02 53.0702L239.517 53.0702L239.517 51.5446L246.173 51.5446L246.173 53.0702L243.669 53.0702L243.669 60.0928L242.02 60.0928Z" fill="#9E9C9C"/>
<path d="M31.9673 0.22851L21.5428 6.24795L21.5428 25.3076L43.1566 42.2192L21.5428 59.1308L21.5428 66.4243L31.9673 72.4419L63.2366 54.3913L63.2366 18.2826L31.9673 0.22851Z" fill="#9E9C9C"/>
<path d="M0.69751 54.3891L9.43615 59.437L31.9632 42.2189L0.697509 18.2826L0.69751 54.3891Z" fill="#24252D" fill-opacity="0.7"/>
</g>
</svg>
